<svg width="230" height="229" viewBox="0 0 230 229" fill="none" xmlns="http://www.w3.org/2000/svg">
<ellipse opacity="0.2" cx="115" cy="114.5" rx="115" ry="114.5" fill="#EDF1F8"/>
<ellipse cx="115" cy="114.5" rx="72" ry="71.5" fill="white"/>
<path d="M105.125 77.7132V70.1812C105.125 67.6841 106.113 65.2894 107.871 63.5237C109.629 61.7581 112.014 60.7661 114.5 60.7661C116.986 60.7661 119.371 61.7581 121.129 63.5237C122.887 65.2894 123.875 67.6841 123.875 70.1812V77.7132" fill="white"/>
<path d="M105.125 77.7132V70.1812C105.125 67.6841 106.113 65.2894 107.871 63.5237C109.629 61.7581 112.014 60.7661 114.5 60.7661C116.986 60.7661 119.371 61.7581 121.129 63.5237C122.887 65.2894 123.875 67.6841 123.875 70.1812V77.7132" stroke="#FFB950" stroke-width="4" stroke-linecap="round" stroke-linejoin="round"/>
<path d="M127.625 77.7131H101.375C99.3039 77.7131 97.625 79.3992 97.625 81.4792V99.4679C97.625 101.548 99.3039 103.234 101.375 103.234H127.625C129.696 103.234 131.375 101.548 131.375 99.4679V81.4792C131.375 79.3992 129.696 77.7131 127.625 77.7131Z" fill="white" stroke="#FFB950" stroke-width="4" stroke-linecap="round" stroke-linejoin="round"/>
<path d="M32.9668 141.954C32.9668 130.011 42.6486 120.329 54.5918 120.329H177.513V163.579H54.5918C42.6486 163.579 32.9668 153.897 32.9668 141.954Z" fill="#FFB950"/>
<circle cx="61.9903" cy="141.954" r="6.25987" fill="white"/>
<circle cx="83.6153" cy="141.954" r="6.25987" fill="white"/>
<circle cx="105.24" cy="141.954" r="6.25987" fill="white"/>
<circle cx="126.865" cy="141.954" r="6.25987" fill="white"/>
<circle cx="172.96" cy="141.954" r="25.0395" fill="#63B92E"/>
<path d="M164.992 143.092L170.683 148.783L182.065 137.401" stroke="white" stroke-width="3.41447" stroke-linecap="round" stroke-linejoin="round"/>
<circle cx="174.5" cy="189.5" r="5.5" stroke="#59C3FF" stroke-width="4"/>
<circle cx="69" cy="196" r="4" fill="#546FFA"/>
<path d="M33.4254 24.3453C33.3776 23.8191 34.0101 23.5175 34.3889 23.8858L41.9305 31.2186C42.0496 31.3344 42.2133 31.3924 42.3787 31.3774L52.8545 30.4255C53.3806 30.3777 53.6823 31.0102 53.314 31.389L45.9811 38.9306C45.8653 39.0497 45.8073 39.2134 45.8224 39.3788L46.7742 49.8546C46.822 50.3807 46.1895 50.6824 45.8107 50.3141L38.2691 42.9812C38.15 42.8654 37.9863 42.8074 37.8209 42.8225L27.3451 43.7743C26.819 43.8221 26.5174 43.1896 26.8856 42.8108L34.2185 35.2692C34.3343 35.1501 34.3923 34.9864 34.3773 34.821L33.4254 24.3453Z" fill="#FD451C"/>
</svg>
