<svg width="180" height="180" viewBox="0 0 180 180" fill="none" xmlns="http://www.w3.org/2000/svg">
<path d="M41.7996 162.321H138.198C140.848 162.328 143.402 161.327 145.348 159.519C153.469 151.955 159.966 142.799 164.439 132.616C168.912 122.432 171.266 111.436 171.358 100.302C171.774 55.0336 135.196 17.7855 90.1962 17.6787C45.1713 17.5718 8.63842 54.2592 8.63842 99.5305C8.62558 110.798 10.9318 121.946 15.4118 132.274C19.8919 142.601 26.4487 151.883 34.6696 159.535C36.6121 161.335 39.1588 162.33 41.7996 162.321Z" fill="url(#paint0_linear_1336_1041)"/>
<path d="M103.322 29.5071H73.1367C71.7905 29.5071 70.6989 30.5985 70.6989 31.9447V142.202C70.6989 143.548 71.7905 144.64 73.1367 144.64H103.322C104.668 144.64 105.759 143.548 105.759 142.202V31.9447C105.759 30.5985 104.668 29.5071 103.322 29.5071Z" fill="#FFB950"/>
<path d="M91.129 33.2739H60.9442C59.598 33.2739 58.5064 34.3652 58.5064 35.7114V145.969C58.5064 147.315 59.598 148.406 60.9442 148.406H91.129C92.4756 148.406 93.5669 147.315 93.5669 145.969V35.7114C93.5669 34.3652 92.4756 33.2739 91.129 33.2739Z" fill="#417A93"/>
<path d="M91.129 33.2739H60.9442C59.598 33.2739 58.5064 34.3652 58.5064 35.7114V145.969C58.5064 147.315 59.598 148.406 60.9442 148.406H91.129C92.4756 148.406 93.5669 147.315 93.5669 145.969V35.7114C93.5669 34.3652 92.4756 33.2739 91.129 33.2739Z" fill="#63B92E"/>
<path d="M132.195 58.5135L111.467 79.2415L97.7893 38.4933L110.353 38.4624C111.141 38.4605 111.897 38.7668 112.462 39.3156L132.195 58.5135Z" fill="#417A93"/>
<path d="M132.195 58.5135L111.467 79.2415L97.7893 38.4933L110.353 38.4624C111.141 38.4605 111.897 38.7668 112.462 39.3156L132.195 58.5135Z" fill="#F2703D"/>
<path d="M96.2784 39.0867L78.4327 56.9324C77.6368 57.7283 77.6368 59.0188 78.4327 59.8151L96.4182 77.8001C97.2141 78.596 98.5046 78.596 99.3005 77.8001L117.146 59.9544C117.942 59.1585 117.942 57.868 117.146 57.0721L99.1608 39.0867C98.3648 38.2908 97.0744 38.2908 96.2784 39.0867Z" fill="#F48255"/>
<path d="M139.09 162.09H63.0305C62.3416 162.09 61.6598 161.95 61.0274 161.677C60.3949 161.404 59.8247 161.005 59.3523 160.504C58.8796 160.003 58.5142 159.41 58.2788 158.763C58.043 158.115 57.9424 157.427 57.9823 156.739L63.9636 54.324C64.0396 53.0245 64.6092 51.8033 65.5561 50.9102C66.5031 50.0167 67.7555 49.5195 69.0569 49.5195H133.064C134.365 49.5195 135.618 50.0167 136.565 50.9102C137.512 51.8033 138.081 53.0245 138.157 54.324L144.139 156.739C144.179 157.427 144.078 158.115 143.842 158.763C143.607 159.41 143.241 160.003 142.769 160.504C142.296 161.005 141.726 161.404 141.094 161.677C140.461 161.95 139.779 162.09 139.09 162.09Z" fill="#D4D9E3"/>
<path d="M121.559 162.09H45.499C44.81 162.09 44.1283 161.95 43.4958 161.677C42.8634 161.404 42.2931 161.005 41.8207 160.504C41.348 160.003 40.9826 159.41 40.7472 158.763C40.5114 158.115 40.4109 157.427 40.4508 156.739L46.432 54.324C46.5081 53.0245 47.0776 51.8033 48.0246 50.9102C48.9715 50.0167 50.224 49.5195 51.5254 49.5195H115.532C116.834 49.5195 118.086 50.0167 119.033 50.9102C119.98 51.8033 120.55 53.0245 120.626 54.324L126.607 156.739C126.647 157.427 126.546 158.115 126.311 158.763C126.075 159.41 125.71 160.003 125.237 160.504C124.765 161.005 124.194 161.404 123.562 161.677C122.93 161.95 122.248 162.09 121.559 162.09Z" fill="#E5E9F1"/>
<path d="M61.6874 68.1687C64.1723 68.1687 66.1868 66.1542 66.1868 63.6693C66.1868 61.1844 64.1723 59.1699 61.6874 59.1699C59.2025 59.1699 57.188 61.1844 57.188 63.6693C57.188 66.1542 59.2025 68.1687 61.6874 68.1687Z" fill="white"/>
<path d="M105.405 68.1687C107.89 68.1687 109.905 66.1542 109.905 63.6693C109.905 61.1844 107.89 59.1699 105.405 59.1699C102.92 59.1699 100.906 61.1844 100.906 63.6693C100.906 66.1542 102.92 68.1687 105.405 68.1687Z" fill="white"/>
<path d="M61.6873 66.8687C63.4542 66.8687 64.8864 65.4362 64.8864 63.6692C64.8864 61.9022 63.4542 60.4697 61.6873 60.4697C59.9203 60.4697 58.4878 61.9022 58.4878 63.6692C58.4878 65.4362 59.9203 66.8687 61.6873 66.8687Z" fill="#D4D9E3"/>
<path d="M105.405 66.8687C107.172 66.8687 108.604 65.4362 108.604 63.6692C108.604 61.9022 107.172 60.4697 105.405 60.4697C103.638 60.4697 102.206 61.9022 102.206 63.6692C102.206 65.4362 103.638 66.8687 105.405 66.8687Z" fill="#D4D9E3"/>
<path d="M83.529 111.739C77.3353 111.732 71.3974 109.268 67.0179 104.889C62.6383 100.509 60.1744 94.5711 60.1677 88.3775V64.0394C60.1677 63.6398 60.3262 63.2567 60.6088 62.9742C60.8913 62.6913 61.2747 62.5327 61.6744 62.5327C62.074 62.5327 62.4571 62.6913 62.7396 62.9742C63.0221 63.2567 63.1811 63.6398 63.1811 64.0394V88.3775C63.1833 93.7726 65.3281 98.9458 69.1438 102.76C72.9595 106.574 78.1339 108.717 83.529 108.717C88.9237 108.717 94.0981 106.574 97.9138 102.76C101.73 98.9458 103.874 93.7726 103.877 88.3775V64.0394C103.877 63.6398 104.035 63.2567 104.318 62.9742C104.601 62.6913 104.984 62.5327 105.383 62.5327C105.783 62.5327 106.166 62.6913 106.449 62.9742C106.731 63.2567 106.89 63.6398 106.89 64.0394V88.3775C106.883 94.5711 104.42 100.509 100.04 104.889C95.6605 109.268 89.7226 111.732 83.529 111.739Z" fill="white"/>
<defs>
<linearGradient id="paint0_linear_1336_1041" x1="90" y1="17.6785" x2="90" y2="162.321" gradientUnits="userSpaceOnUse">
<stop stop-color="#FBFDFE"/>
<stop offset="1" stop-color="#F0F5FA"/>
</linearGradient>
</defs>
</svg>
