<svg width="375" height="104" viewBox="0 0 375 104" fill="none" xmlns="http://www.w3.org/2000/svg">
<g filter="url(#filter0_d_1973_2892)">
<path d="M16 40C16 26.7452 26.7452 16 40 16H335C348.255 16 359 26.7452 359 40V48C359 61.2548 348.255 72 335 72H40C26.7452 72 16 61.2548 16 48V40Z" fill="white"/>
<path d="M43.5 53C48.7467 53 53 48.7467 53 43.5C53 38.2533 48.7467 34 43.5 34C38.2533 34 34 38.2533 34 43.5C34 48.7467 38.2533 53 43.5 53Z" stroke="#292D32" stroke-width="1.5" stroke-linecap="round" stroke-linejoin="round"/>
<path d="M54 54L52 52" stroke="#292D32" stroke-width="1.5" stroke-linecap="round" stroke-linejoin="round"/>
<path d="M76.263 49.182C75.7403 49.182 75.234 49.1003 74.744 48.937C74.2587 48.7737 73.834 48.5403 73.47 48.237C73.106 47.9337 72.8493 47.572 72.7 47.152L73.617 46.809C73.7197 47.0983 73.9063 47.348 74.177 47.558C74.4523 47.7633 74.772 47.922 75.136 48.034C75.5047 48.146 75.8803 48.202 76.263 48.202C76.711 48.202 77.1287 48.1273 77.516 47.978C77.9033 47.8287 78.216 47.621 78.454 47.355C78.692 47.0843 78.811 46.767 78.811 46.403C78.811 46.0343 78.6873 45.731 78.44 45.493C78.1927 45.255 77.873 45.0683 77.481 44.933C77.0937 44.793 76.6877 44.6857 76.263 44.611C75.5957 44.4943 74.996 44.3357 74.464 44.135C73.9367 43.9343 73.519 43.652 73.211 43.288C72.903 42.9193 72.749 42.434 72.749 41.832C72.749 41.2673 72.9123 40.7773 73.239 40.362C73.5657 39.9467 73.995 39.6247 74.527 39.396C75.0637 39.1673 75.6423 39.053 76.263 39.053C76.7717 39.053 77.2687 39.1323 77.754 39.291C78.2393 39.4497 78.6663 39.6807 79.035 39.984C79.4083 40.2873 79.6767 40.6583 79.84 41.097L78.909 41.433C78.8063 41.139 78.6173 40.8893 78.342 40.684C78.0713 40.474 77.754 40.3153 77.39 40.208C77.026 40.096 76.6503 40.04 76.263 40.04C75.8197 40.0353 75.4043 40.11 75.017 40.264C74.6343 40.4133 74.324 40.6233 74.086 40.894C73.848 41.16 73.729 41.4727 73.729 41.832C73.729 42.252 73.8387 42.5763 74.058 42.805C74.282 43.029 74.5853 43.197 74.968 43.309C75.3507 43.421 75.7823 43.5213 76.263 43.61C76.8883 43.7173 77.4693 43.8853 78.006 44.114C78.5427 44.338 78.9743 44.639 79.301 45.017C79.6277 45.3903 79.791 45.8523 79.791 46.403C79.791 46.963 79.6277 47.453 79.301 47.873C78.9743 48.2883 78.5427 48.6103 78.006 48.839C77.474 49.0677 76.893 49.182 76.263 49.182ZM84.3692 49.182C83.7252 49.182 83.1372 49.0163 82.6052 48.685C82.0779 48.3537 81.6556 47.9103 81.3382 47.355C81.0256 46.795 80.8692 46.1767 80.8692 45.5C80.8692 44.9867 80.9602 44.5083 81.1422 44.065C81.3242 43.617 81.5739 43.225 81.8912 42.889C82.2132 42.5483 82.5866 42.2823 83.0112 42.091C83.4359 41.8997 83.8886 41.804 84.3692 41.804C84.8872 41.804 85.3632 41.9067 85.7972 42.112C86.2359 42.3173 86.6116 42.6043 86.9242 42.973C87.2416 43.3417 87.4796 43.7733 87.6382 44.268C87.8016 44.7627 87.8692 45.297 87.8412 45.871H81.9052C81.9612 46.3143 82.1012 46.711 82.3252 47.061C82.5539 47.411 82.8432 47.6887 83.1932 47.894C83.5479 48.0947 83.9399 48.1973 84.3692 48.202C84.8359 48.202 85.2559 48.0807 85.6292 47.838C86.0072 47.5953 86.3106 47.2617 86.5392 46.837L87.5332 47.068C87.2532 47.6887 86.8309 48.1973 86.2662 48.594C85.7016 48.986 85.0692 49.182 84.3692 49.182ZM81.8772 45.08H86.8542C86.8216 44.646 86.6886 44.2493 86.4552 43.89C86.2266 43.526 85.9302 43.2367 85.5662 43.022C85.2022 42.8027 84.8032 42.693 84.3692 42.693C83.9352 42.693 83.5386 42.8003 83.1792 43.015C82.8199 43.225 82.5259 43.512 82.2972 43.876C82.0686 44.2353 81.9286 44.6367 81.8772 45.08ZM94.7268 42H95.7068V49H94.7268L94.6918 47.698C94.4631 48.1413 94.1435 48.5007 93.7328 48.776C93.3221 49.0467 92.8321 49.182 92.2628 49.182C91.7495 49.182 91.2688 49.0863 90.8208 48.895C90.3728 48.699 89.9785 48.4307 89.6378 48.09C89.2971 47.7493 89.0311 47.355 88.8398 46.907C88.6485 46.459 88.5528 45.9783 88.5528 45.465C88.5528 44.961 88.6461 44.4873 88.8328 44.044C89.0241 43.6007 89.2855 43.211 89.6168 42.875C89.9528 42.539 90.3401 42.2777 90.7788 42.091C91.2221 41.8997 91.6958 41.804 92.1998 41.804C92.7831 41.804 93.2918 41.944 93.7258 42.224C94.1598 42.4993 94.5051 42.861 94.7618 43.309L94.7268 42ZM92.2418 48.23C92.7411 48.23 93.1705 48.1087 93.5298 47.866C93.8891 47.6187 94.1645 47.2873 94.3558 46.872C94.5518 46.4567 94.6498 45.9993 94.6498 45.5C94.6498 44.9867 94.5518 44.5247 94.3558 44.114C94.1598 43.6987 93.8821 43.3697 93.5228 43.127C93.1635 42.8843 92.7365 42.763 92.2418 42.763C91.7471 42.763 91.2945 42.8867 90.8838 43.134C90.4778 43.3767 90.1535 43.7057 89.9108 44.121C89.6728 44.5363 89.5538 44.996 89.5538 45.5C89.5538 46.0087 89.6775 46.4707 89.9248 46.886C90.1721 47.2967 90.4988 47.6233 90.9048 47.866C91.3155 48.1087 91.7611 48.23 92.2418 48.23ZM97.1076 49V42H98.0876V42.966C98.3349 42.6113 98.6569 42.329 99.0536 42.119C99.4502 41.909 99.8819 41.804 100.349 41.804C100.619 41.804 100.881 41.839 101.133 41.909L100.734 42.882C100.538 42.8213 100.346 42.791 100.16 42.791C99.7816 42.791 99.4339 42.8843 99.1166 43.071C98.8039 43.2577 98.5542 43.5073 98.3676 43.82C98.1809 44.1327 98.0876 44.4803 98.0876 44.863V49H97.1076ZM106.645 47.243L107.52 47.719C107.202 48.1623 106.799 48.517 106.309 48.783C105.823 49.049 105.296 49.182 104.727 49.182C104.083 49.182 103.495 49.0163 102.963 48.685C102.435 48.3537 102.013 47.9103 101.696 47.355C101.383 46.795 101.227 46.1767 101.227 45.5C101.227 44.9867 101.318 44.5083 101.5 44.065C101.682 43.617 101.931 43.225 102.249 42.889C102.571 42.5483 102.944 42.2823 103.369 42.091C103.793 41.8997 104.246 41.804 104.727 41.804C105.296 41.804 105.823 41.937 106.309 42.203C106.799 42.469 107.202 42.826 107.52 43.274L106.645 43.743C106.402 43.435 106.11 43.1993 105.77 43.036C105.429 42.868 105.081 42.784 104.727 42.784C104.255 42.784 103.828 42.91 103.446 43.162C103.063 43.4093 102.76 43.7383 102.536 44.149C102.316 44.5597 102.207 45.01 102.207 45.5C102.207 45.99 102.319 46.4403 102.543 46.851C102.771 47.2617 103.077 47.5907 103.46 47.838C103.842 48.0807 104.265 48.202 104.727 48.202C105.109 48.202 105.469 48.1133 105.805 47.936C106.141 47.7587 106.421 47.5277 106.645 47.243ZM114.792 44.667V49H113.812V44.863C113.812 44.4803 113.718 44.1327 113.532 43.82C113.345 43.5073 113.095 43.2577 112.783 43.071C112.47 42.8843 112.122 42.791 111.74 42.791C111.362 42.791 111.014 42.8843 110.697 43.071C110.384 43.2577 110.134 43.5073 109.948 43.82C109.761 44.1327 109.668 44.4803 109.668 44.863V49H108.688V38.5H109.668V42.966C109.915 42.6113 110.237 42.329 110.634 42.119C111.03 41.909 111.462 41.804 111.929 41.804C112.456 41.804 112.937 41.9323 113.371 42.189C113.805 42.4457 114.15 42.791 114.407 43.225C114.663 43.659 114.792 44.1397 114.792 44.667ZM119.557 49V42H120.537V42.966C120.789 42.6113 121.111 42.329 121.503 42.119C121.895 41.909 122.324 41.804 122.791 41.804C123.318 41.804 123.801 41.9347 124.24 42.196C124.678 42.4527 125.021 42.7957 125.269 43.225C125.516 42.7957 125.857 42.4527 126.291 42.196C126.725 41.9347 127.205 41.804 127.733 41.804C128.26 41.804 128.741 41.9323 129.175 42.189C129.609 42.4457 129.954 42.791 130.211 43.225C130.467 43.659 130.596 44.1397 130.596 44.667V49H129.616V44.884C129.616 44.5107 129.525 44.1653 129.343 43.848C129.161 43.5307 128.916 43.2763 128.608 43.085C128.304 42.889 127.966 42.791 127.593 42.791C127.219 42.791 126.879 42.882 126.571 43.064C126.267 43.2413 126.025 43.4887 125.843 43.806C125.661 44.1187 125.57 44.478 125.57 44.884V49H124.59V44.884C124.59 44.478 124.499 44.1187 124.317 43.806C124.135 43.4887 123.89 43.2413 123.582 43.064C123.274 42.882 122.933 42.791 122.56 42.791C122.191 42.791 121.853 42.889 121.545 43.085C121.237 43.2763 120.992 43.5307 120.81 43.848C120.628 44.1653 120.537 44.5107 120.537 44.884V49H119.557ZM134.941 49.182C134.297 49.182 133.709 49.0163 133.177 48.685C132.65 48.3537 132.228 47.9103 131.91 47.355C131.598 46.795 131.441 46.1767 131.441 45.5C131.441 44.9867 131.532 44.5083 131.714 44.065C131.896 43.617 132.146 43.225 132.463 42.889C132.785 42.5483 133.159 42.2823 133.583 42.091C134.008 41.8997 134.461 41.804 134.941 41.804C135.459 41.804 135.935 41.9067 136.369 42.112C136.808 42.3173 137.184 42.6043 137.496 42.973C137.814 43.3417 138.052 43.7733 138.21 44.268C138.374 44.7627 138.441 45.297 138.413 45.871H132.477C132.533 46.3143 132.673 46.711 132.897 47.061C133.126 47.411 133.415 47.6887 133.765 47.894C134.12 48.0947 134.512 48.1973 134.941 48.202C135.408 48.202 135.828 48.0807 136.201 47.838C136.579 47.5953 136.883 47.2617 137.111 46.837L138.105 47.068C137.825 47.6887 137.403 48.1973 136.838 48.594C136.274 48.986 135.641 49.182 134.941 49.182ZM132.449 45.08H137.426C137.394 44.646 137.261 44.2493 137.027 43.89C136.799 43.526 136.502 43.2367 136.138 43.022C135.774 42.8027 135.375 42.693 134.941 42.693C134.507 42.693 134.111 42.8003 133.751 43.015C133.392 43.225 133.098 43.512 132.869 43.876C132.641 44.2353 132.501 44.6367 132.449 45.08ZM145.299 42H146.279V49H145.299L145.264 47.698C145.035 48.1413 144.716 48.5007 144.305 48.776C143.894 49.0467 143.404 49.182 142.835 49.182C142.322 49.182 141.841 49.0863 141.393 48.895C140.945 48.699 140.551 48.4307 140.21 48.09C139.869 47.7493 139.603 47.355 139.412 46.907C139.221 46.459 139.125 45.9783 139.125 45.465C139.125 44.961 139.218 44.4873 139.405 44.044C139.596 43.6007 139.858 43.211 140.189 42.875C140.525 42.539 140.912 42.2777 141.351 42.091C141.794 41.8997 142.268 41.804 142.772 41.804C143.355 41.804 143.864 41.944 144.298 42.224C144.732 42.4993 145.077 42.861 145.334 43.309L145.299 42ZM142.814 48.23C143.313 48.23 143.743 48.1087 144.102 47.866C144.461 47.6187 144.737 47.2873 144.928 46.872C145.124 46.4567 145.222 45.9993 145.222 45.5C145.222 44.9867 145.124 44.5247 144.928 44.114C144.732 43.6987 144.454 43.3697 144.095 43.127C143.736 42.8843 143.309 42.763 142.814 42.763C142.319 42.763 141.867 42.8867 141.456 43.134C141.05 43.3767 140.726 43.7057 140.483 44.121C140.245 44.5363 140.126 44.996 140.126 45.5C140.126 46.0087 140.25 46.4707 140.497 46.886C140.744 47.2967 141.071 47.6233 141.477 47.866C141.888 48.1087 142.333 48.23 142.814 48.23ZM147.776 49V38.5H148.756V49H147.776ZM150.162 49.784L150.596 47.418H151.576L150.813 49.784H150.162ZM162.382 38.5H163.362V49H162.382V47.691C162.14 48.139 161.806 48.5007 161.381 48.776C160.961 49.0467 160.462 49.182 159.883 49.182C159.375 49.182 158.899 49.0863 158.455 48.895C158.012 48.7037 157.62 48.44 157.279 48.104C156.943 47.7633 156.68 47.3713 156.488 46.928C156.297 46.4847 156.201 46.0087 156.201 45.5C156.201 44.9913 156.297 44.5153 156.488 44.072C156.68 43.624 156.943 43.232 157.279 42.896C157.62 42.5553 158.012 42.2893 158.455 42.098C158.899 41.9067 159.375 41.811 159.883 41.811C160.462 41.811 160.961 41.9487 161.381 42.224C161.806 42.4947 162.14 42.8517 162.382 43.295V38.5ZM159.89 48.23C160.39 48.23 160.819 48.1087 161.178 47.866C161.538 47.6187 161.813 47.2873 162.004 46.872C162.2 46.4567 162.298 45.9993 162.298 45.5C162.298 44.9867 162.2 44.5247 162.004 44.114C161.808 43.6987 161.531 43.3697 161.171 43.127C160.812 42.8843 160.385 42.763 159.89 42.763C159.396 42.763 158.945 42.8867 158.539 43.134C158.133 43.3767 157.809 43.7057 157.566 44.121C157.324 44.5363 157.202 44.996 157.202 45.5C157.202 46.0087 157.326 46.4707 157.573 46.886C157.821 47.2967 158.147 47.6233 158.553 47.866C158.964 48.1087 159.41 48.23 159.89 48.23ZM165.043 49V42H166.023V42.966C166.27 42.6113 166.592 42.329 166.989 42.119C167.386 41.909 167.817 41.804 168.284 41.804C168.555 41.804 168.816 41.839 169.068 41.909L168.669 42.882C168.473 42.8213 168.282 42.791 168.095 42.791C167.717 42.791 167.369 42.8843 167.052 43.071C166.739 43.2577 166.49 43.5073 166.303 43.82C166.116 44.1327 166.023 44.4803 166.023 44.863V49H165.043ZM169.951 42H170.931V49H169.951V42ZM170.448 40.775C170.29 40.775 170.154 40.7237 170.042 40.621C169.935 40.5137 169.881 40.3807 169.881 40.222C169.881 40.0633 169.935 39.9327 170.042 39.83C170.154 39.7227 170.29 39.669 170.448 39.669C170.602 39.669 170.733 39.7227 170.84 39.83C170.952 39.9327 171.008 40.0633 171.008 40.222C171.008 40.3807 170.955 40.5137 170.847 40.621C170.74 40.7237 170.607 40.775 170.448 40.775ZM178.694 44.667V49H177.714V44.863C177.714 44.4803 177.621 44.1327 177.434 43.82C177.247 43.5073 176.998 43.2577 176.685 43.071C176.372 42.8843 176.025 42.791 175.642 42.791C175.264 42.791 174.916 42.8843 174.599 43.071C174.286 43.2577 174.037 43.5073 173.85 43.82C173.663 44.1327 173.57 44.4803 173.57 44.863V49H172.59V42H173.57V42.966C173.817 42.6113 174.139 42.329 174.536 42.119C174.933 41.909 175.364 41.804 175.831 41.804C176.358 41.804 176.839 41.9323 177.273 42.189C177.707 42.4457 178.052 42.791 178.309 43.225C178.566 43.659 178.694 44.1397 178.694 44.667ZM185.659 49H184.532L182.572 45.619L181.172 47.292V49H180.192V38.5H181.172V45.766L184.329 42H185.61L183.237 44.821L185.659 49ZM186.789 49.784L187.223 47.418H188.203L187.44 49.784H186.789ZM193.248 42H194.228V49H193.248V42ZM193.745 40.775C193.587 40.775 193.451 40.7237 193.339 40.621C193.232 40.5137 193.178 40.3807 193.178 40.222C193.178 40.0633 193.232 39.9327 193.339 39.83C193.451 39.7227 193.587 39.669 193.745 39.669C193.899 39.669 194.03 39.7227 194.137 39.83C194.249 39.9327 194.305 40.0633 194.305 40.222C194.305 40.3807 194.252 40.5137 194.144 40.621C194.037 40.7237 193.904 40.775 193.745 40.775ZM196.187 49.182C196.033 49.182 195.903 49.126 195.795 49.014C195.688 48.9067 195.634 48.7737 195.634 48.615C195.634 48.4657 195.688 48.3373 195.795 48.23C195.903 48.118 196.033 48.062 196.187 48.062C196.346 48.062 196.479 48.118 196.586 48.23C196.698 48.3373 196.754 48.4657 196.754 48.615C196.754 48.7737 196.698 48.9067 196.586 49.014C196.479 49.126 196.346 49.182 196.187 49.182ZM201.455 49.182C200.811 49.182 200.223 49.0163 199.691 48.685C199.164 48.3537 198.741 47.9103 198.424 47.355C198.111 46.795 197.955 46.1767 197.955 45.5C197.955 44.9867 198.046 44.5083 198.228 44.065C198.41 43.617 198.66 43.225 198.977 42.889C199.299 42.5483 199.672 42.2823 200.097 42.091C200.522 41.8997 200.974 41.804 201.455 41.804C201.973 41.804 202.449 41.9067 202.883 42.112C203.322 42.3173 203.697 42.6043 204.01 42.973C204.327 43.3417 204.565 43.7733 204.724 44.268C204.887 44.7627 204.955 45.297 204.927 45.871H198.991C199.047 46.3143 199.187 46.711 199.411 47.061C199.64 47.411 199.929 47.6887 200.279 47.894C200.634 48.0947 201.026 48.1973 201.455 48.202C201.922 48.202 202.342 48.0807 202.715 47.838C203.093 47.5953 203.396 47.2617 203.625 46.837L204.619 47.068C204.339 47.6887 203.917 48.1973 203.352 48.594C202.787 48.986 202.155 49.182 201.455 49.182ZM198.963 45.08H203.94C203.907 44.646 203.774 44.2493 203.541 43.89C203.312 43.526 203.016 43.2367 202.652 43.022C202.288 42.8027 201.889 42.693 201.455 42.693C201.021 42.693 200.624 42.8003 200.265 43.015C199.906 43.225 199.612 43.512 199.383 43.876C199.154 44.2353 199.014 44.6367 198.963 45.08ZM206.332 49.182C206.178 49.182 206.047 49.126 205.94 49.014C205.832 48.9067 205.779 48.7737 205.779 48.615C205.779 48.4657 205.832 48.3373 205.94 48.23C206.047 48.118 206.178 48.062 206.332 48.062C206.49 48.062 206.623 48.118 206.731 48.23C206.843 48.3373 206.899 48.4657 206.899 48.615C206.899 48.7737 206.843 48.9067 206.731 49.014C206.623 49.126 206.49 49.182 206.332 49.182Z" fill="#808D9E"/>
<path d="M341 39.25H335C334.59 39.25 334.25 38.91 334.25 38.5C334.25 38.09 334.59 37.75 335 37.75H341C341.41 37.75 341.75 38.09 341.75 38.5C341.75 38.91 341.41 39.25 341 39.25Z" fill="#FD451C"/>
<path d="M325 39.25H321C320.59 39.25 320.25 38.91 320.25 38.5C320.25 38.09 320.59 37.75 321 37.75H325C325.41 37.75 325.75 38.09 325.75 38.5C325.75 38.91 325.41 39.25 325 39.25Z" fill="#FD451C"/>
<path d="M329 42.75C326.66 42.75 324.75 40.84 324.75 38.5C324.75 36.16 326.66 34.25 329 34.25C331.34 34.25 333.25 36.16 333.25 38.5C333.25 40.84 331.34 42.75 329 42.75ZM329 35.75C327.48 35.75 326.25 36.98 326.25 38.5C326.25 40.02 327.48 41.25 329 41.25C330.52 41.25 331.75 40.02 331.75 38.5C331.75 36.98 330.52 35.75 329 35.75Z" fill="#FD451C"/>
<path d="M341 50.25H337C336.59 50.25 336.25 49.91 336.25 49.5C336.25 49.09 336.59 48.75 337 48.75H341C341.41 48.75 341.75 49.09 341.75 49.5C341.75 49.91 341.41 50.25 341 50.25Z" fill="#FD451C"/>
<path d="M327 50.25H321C320.59 50.25 320.25 49.91 320.25 49.5C320.25 49.09 320.59 48.75 321 48.75H327C327.41 48.75 327.75 49.09 327.75 49.5C327.75 49.91 327.41 50.25 327 50.25Z" fill="#FD451C"/>
<path d="M333 53.75C330.66 53.75 328.75 51.84 328.75 49.5C328.75 47.16 330.66 45.25 333 45.25C335.34 45.25 337.25 47.16 337.25 49.5C337.25 51.84 335.34 53.75 333 53.75ZM333 46.75C331.48 46.75 330.25 47.98 330.25 49.5C330.25 51.02 331.48 52.25 333 52.25C334.52 52.25 335.75 51.02 335.75 49.5C335.75 47.98 334.52 46.75 333 46.75Z" fill="#FD451C"/>
</g>
<defs>
<filter id="filter0_d_1973_2892" x="-8" y="0" width="391" height="104" filterUnits="userSpaceOnUse" color-interpolation-filters="sRGB">
<feFlood flood-opacity="0" result="BackgroundImageFix"/>
<feColorMatrix in="SourceAlpha" type="matrix" values="0 0 0 0 0 0 0 0 0 0 0 0 0 0 0 0 0 0 127 0" result="hardAlpha"/>
<feOffset dy="8"/>
<feGaussianBlur stdDeviation="12"/>
<feColorMatrix type="matrix" values="0 0 0 0 0.934427 0 0 0 0 0.940603 0 0 0 0 0.9625 0 0 0 0.8 0"/>
<feBlend mode="multiply" in2="BackgroundImageFix" result="effect1_dropShadow_1973_2892"/>
<feBlend mode="normal" in="SourceGraphic" in2="effect1_dropShadow_1973_2892" result="shape"/>
</filter>
</defs>
</svg>
