<svg width="61" height="60" viewBox="0 0 61 60" fill="none" xmlns="http://www.w3.org/2000/svg">
<path d="M30.4984 22.5V32.5M30.4984 42.5H30.5234M27.0367 9.72927L6.47449 45.2458C5.33398 47.2158 4.76372 48.2008 4.84801 49.0092C4.92152 49.7143 5.29095 50.3551 5.86434 50.772C6.52173 51.25 7.65989 51.25 9.9362 51.25H51.0606C53.3369 51.25 54.4751 51.25 55.1325 50.772C55.7059 50.3551 56.0753 49.7143 56.1488 49.0092C56.2331 48.2008 55.6628 47.2158 54.5223 45.2458L33.9601 9.72927C32.8237 7.76636 32.2555 6.78491 31.5142 6.45527C30.8675 6.16774 30.1293 6.16774 29.4827 6.45527C28.7413 6.78491 28.1731 7.76636 27.0367 9.72927Z" stroke="#E4B23D" stroke-width="6" stroke-linecap="round" stroke-linejoin="round"/>
</svg>
