<svg width="20" height="20" viewBox="0 0 20 20" fill="none" xmlns="http://www.w3.org/2000/svg">
<path d="M16.4474 4.8026L10.5249 1.25195C10.2556 1.11133 9.95838 1.03809 9.65696 1.03809C9.35554 1.03809 9.0583 1.11133 8.78902 1.25195L2.86657 4.8026C2.6148 4.97469 2.40531 5.20556 2.25484 5.47676C2.10437 5.74795 2.01709 6.05195 2 6.36443V13.4657C2.01752 13.7777 2.10499 14.0811 2.25544 14.3518C2.40589 14.6225 2.61516 14.8529 2.86657 15.0247L3.52615 15.4202L9.65834 19.2517L15.7933 15.4259L16.4446 15.0362C16.696 14.8644 16.9053 14.6339 17.0557 14.3633C17.2062 14.0926 17.2936 13.7892 17.3112 13.4772V6.36156C17.294 6.04983 17.2069 5.74657 17.0569 5.47592C16.907 5.20528 16.6982 4.97472 16.4474 4.8026ZM6.13413 13.7437C5.92672 13.7425 5.72824 13.6559 5.58217 13.503L2.65406 10.4596C2.50978 10.3064 2.42898 10.1007 2.42898 9.88643C2.42898 9.67217 2.50978 9.46643 2.65406 9.31328L5.58217 6.25553C5.64967 6.16073 5.73607 6.08217 5.83548 6.02521C5.93489 5.96825 6.04496 5.93423 6.15819 5.92547C6.27141 5.91671 6.38512 5.93342 6.49156 5.97446C6.598 6.01549 6.69466 6.07989 6.77494 6.16326C6.85522 6.24663 6.91724 6.347 6.95676 6.45752C6.99628 6.56805 7.01237 6.68612 7.00394 6.8037C6.9955 6.92127 6.96274 7.03557 6.90788 7.13879C6.85303 7.24202 6.77737 7.33174 6.68608 7.40183L4.30716 9.8721L6.6778 12.3338C6.79092 12.4469 6.86897 12.5925 6.90196 12.7519C6.93496 12.9114 6.9214 13.0774 6.86303 13.2288C6.80465 13.3802 6.70411 13.51 6.57426 13.6018C6.44442 13.6935 6.29117 13.7429 6.13413 13.7437ZM8.40265 14.463C8.3386 14.6038 8.2375 14.7229 8.11102 14.8066C7.98454 14.8903 7.83784 14.9351 7.68787 14.9359C7.55479 14.936 7.42383 14.9012 7.30717 14.8347C7.19051 14.7682 7.09193 14.6722 7.02061 14.5555C6.94928 14.4388 6.90752 14.3053 6.89922 14.1674C6.89091 14.0295 6.91632 13.8916 6.97309 13.7666L10.9968 4.88285C11.0409 4.78538 11.103 4.69786 11.1796 4.62531C11.2562 4.55276 11.3458 4.49658 11.4433 4.45999C11.5408 4.4234 11.6443 4.40711 11.7479 4.41206C11.8514 4.417 11.9531 4.44308 12.0469 4.48881C12.1408 4.53453 12.2251 4.59901 12.2949 4.67855C12.3648 4.75809 12.4189 4.85115 12.4541 4.9524C12.4894 5.05366 12.5051 5.16113 12.5003 5.26868C12.4955 5.37623 12.4704 5.48175 12.4264 5.57922L8.40265 14.463ZM16.6654 10.451L13.729 13.5001C13.6615 13.5949 13.5751 13.6735 13.4757 13.7304C13.3763 13.7874 13.2662 13.8214 13.153 13.8302C13.0398 13.8389 12.926 13.8222 12.8196 13.7812C12.7132 13.7402 12.6165 13.6758 12.5362 13.5924C12.4559 13.509 12.3939 13.4087 12.3544 13.2981C12.3149 13.1876 12.2988 13.0695 12.3072 12.952C12.3157 12.8344 12.3484 12.7201 12.4033 12.6169C12.4581 12.5136 12.5338 12.4239 12.6251 12.3538L15.004 9.88356L12.6196 7.40183C12.4753 7.24867 12.3945 7.04294 12.3945 6.82868C12.3945 6.61443 12.4753 6.40869 12.6196 6.25553C12.7693 6.11028 12.9666 6.0295 13.1715 6.0295C13.3764 6.0295 13.5737 6.11028 13.7235 6.25553L16.6543 9.29608C16.8034 9.44821 16.8883 9.65555 16.8904 9.87259C16.8925 10.0896 16.8116 10.2987 16.6654 10.4538V10.451Z" fill="#808D9E"/>
</svg>
