<svg xmlns="http://www.w3.org/2000/svg" width="84" height="84" viewBox="0 0 84 84" fill="none">
  <g clip-path="url(#clip0_5878_17695)">
    <path d="M66.1585 7.12455H51.6662C50.21 3.10276 46.3963 0.19043 41.8891 0.19043C37.3819 0.19043 33.5682 3.10276 32.112 7.12455H17.6197C13.8059 7.12455 10.6855 10.2449 10.6855 14.0587V69.5316C10.6855 73.3454 13.8059 76.4658 17.6197 76.4658H66.1585C69.9723 76.4658 73.0926 73.3454 73.0926 69.5316V14.0587C73.0926 10.2449 69.9723 7.12455 66.1585 7.12455ZM41.8891 7.12455C43.796 7.12455 45.3562 8.68473 45.3562 10.5916C45.3562 12.4985 43.796 14.0587 41.8891 14.0587C39.9822 14.0587 38.422 12.4985 38.422 10.5916C38.422 8.68473 39.9822 7.12455 41.8891 7.12455ZM66.1585 69.5316H17.6197V14.0587H24.5538V24.4599H59.2244V14.0587H66.1585V69.5316Z" fill="#07164B"/>
  </g>
  <defs>
    <clipPath id="clip0_5878_17695">
      <rect width="83.2095" height="83.2095" fill="white" transform="translate(0.285156 0.19043)"/>
    </clipPath>
  </defs>
</svg>