<svg width="24" height="25" viewBox="0 0 24 25" fill="none" xmlns="http://www.w3.org/2000/svg">
<path d="M2.77719 20.283L3.38419 16.121C3.42119 15.849 3.54519 15.596 3.73919 15.401L15.5002 3.62397C15.6527 3.46994 15.8422 3.35768 16.0506 3.29797C16.259 3.23825 16.4792 3.23309 16.6902 3.28297C17.7697 3.58189 18.7482 4.16723 19.5222 4.97697C20.3297 5.75624 20.911 6.73975 21.2042 7.82297C21.2541 8.03392 21.2489 8.25415 21.1892 8.46253C21.1295 8.67091 21.0172 8.86045 20.8632 9.01297L9.08919 20.775C8.89369 20.9682 8.6406 21.0924 8.36819 21.129L4.20719 21.736C4.01063 21.7646 3.81008 21.7466 3.62181 21.6833C3.43354 21.6199 3.26284 21.5131 3.12355 21.3715C2.98427 21.2299 2.88032 21.0574 2.82014 20.8681C2.75997 20.6788 2.74525 20.478 2.77719 20.282M13.2752 5.86397L18.6382 11.227" stroke="#FD451C" stroke-width="2" stroke-linecap="round" stroke-linejoin="round"/>
</svg>
