<svg width="24" height="24" viewBox="0 0 24 24" fill="none" xmlns="http://www.w3.org/2000/svg">
<path d="M2.77719 19.7839L3.38419 15.6219C3.42119 15.3499 3.54519 15.0969 3.73919 14.9019L15.5002 3.12495C15.6527 2.97091 15.8422 2.85866 16.0506 2.79894C16.259 2.73923 16.4792 2.73407 16.6902 2.78395C17.7697 3.08287 18.7482 3.66821 19.5222 4.47795C20.3297 5.25721 20.911 6.24073 21.2042 7.32395C21.2541 7.5349 21.2489 7.75513 21.1892 7.96351C21.1295 8.17189 21.0172 8.36143 20.8632 8.51395L9.08919 20.2759C8.89369 20.4691 8.6406 20.5934 8.36819 20.6299L4.20719 21.2369C4.01063 21.2656 3.81008 21.2476 3.62181 21.1842C3.43354 21.1209 3.26284 21.0141 3.12355 20.8725C2.98427 20.7309 2.88032 20.5584 2.82014 20.3691C2.75997 20.1798 2.74525 19.979 2.77719 19.7829M13.2752 5.36495L18.6382 10.7279" stroke="#7E563A" stroke-width="2" stroke-linecap="round" stroke-linejoin="round"/>
</svg>
