<svg width="20" height="20" viewBox="0 0 20 20" fill="none" xmlns="http://www.w3.org/2000/svg">
<path d="M12.5835 16.1416L13.4168 17.5916C12.6168 17.9583 11.7418 18.1999 10.8335 18.2916V16.6083C11.4502 16.5333 12.0335 16.3749 12.5835 16.1416ZM3.39183 10.8333H1.7085C1.80016 11.7499 2.04183 12.6166 2.4085 13.4166L3.8585 12.5833C3.62516 12.0333 3.46683 11.4499 3.39183 10.8333ZM12.5835 3.85825L13.4168 2.40825C12.6168 2.04159 11.7502 1.79992 10.8335 1.70825V3.39159C11.4502 3.46659 12.0335 3.62492 12.5835 3.85825ZM16.6085 9.16658H18.2918C18.2002 8.24992 17.9585 7.38325 17.5918 6.58325L16.1418 7.41658C16.3752 7.96658 16.5335 8.54992 16.6085 9.16658ZM7.41683 16.1416L6.5835 17.5916C7.3835 17.9583 8.2585 18.1999 9.16683 18.2916V16.6083C8.55016 16.5333 7.96683 16.3749 7.41683 16.1416ZM9.16683 3.39159V1.70825C8.25016 1.79992 7.3835 2.04159 6.5835 2.40825L7.41683 3.85825C7.96683 3.62492 8.55016 3.46659 9.16683 3.39159ZM15.3002 5.97492L16.7502 5.13325C16.2252 4.40825 15.5835 3.76659 14.8585 3.24159L14.0168 4.69159C14.5085 5.06659 14.9335 5.49159 15.3002 5.97492ZM3.8585 7.41658L2.4085 6.58325C2.04183 7.38325 1.80016 8.24992 1.7085 9.16658H3.39183C3.46683 8.54992 3.62516 7.96658 3.8585 7.41658ZM16.6085 10.8333C16.5335 11.4499 16.3752 12.0333 16.1418 12.5833L17.5918 13.4166C17.9585 12.6166 18.2002 11.7416 18.2918 10.8333H16.6085ZM14.0252 15.2999L14.8668 16.7499C15.5918 16.2249 16.2335 15.5833 16.7585 14.8583L15.3085 14.0166C14.9335 14.5083 14.5085 14.9333 14.0252 15.2999ZM5.97516 4.69992L5.14183 3.24159C4.4085 3.77492 3.77516 4.40825 3.25016 5.14159L4.70016 5.98325C5.06683 5.49159 5.49183 5.06659 5.97516 4.69992ZM4.70016 14.0249L3.25016 14.8583C3.77516 15.5833 4.41683 16.2249 5.14183 16.7499L5.9835 15.2999C5.49183 14.9333 5.06683 14.5083 4.70016 14.0249ZM10.8335 5.83325H9.16683V10.3416L12.7418 13.9166L13.9168 12.7416L10.8335 9.65825V5.83325Z" fill="white"/>
</svg>
