<svg xmlns="http://www.w3.org/2000/svg" width="85" height="84" viewBox="0 0 85 84" fill="none">
  <g clip-path="url(#clip0_5878_17688)">
    <path d="M45.9831 26.1936H63.3184V33.1277H45.9831V26.1936ZM45.9831 50.463H63.3184V57.3971H45.9831V50.463ZM66.7855 10.5918H18.2466C14.4329 10.5918 11.3125 13.7122 11.3125 17.5259V66.0648C11.3125 69.8785 14.4329 72.9989 18.2466 72.9989H66.7855C70.5992 72.9989 73.7196 69.8785 73.7196 66.0648V17.5259C73.7196 13.7122 70.5992 10.5918 66.7855 10.5918ZM66.7855 66.0648H18.2466V17.5259H66.7855V66.0648ZM39.049 20.993H21.7137V38.3283H39.049V20.993ZM35.5819 34.8612H25.1807V24.46H35.5819V34.8612ZM39.049 45.2624H21.7137V62.5977H39.049V45.2624ZM35.5819 59.1307H25.1807V48.7295H35.5819V59.1307Z" fill="#07164B"/>
  </g>
  <defs>
    <clipPath id="clip0_5878_17688">
      <rect width="83.2095" height="83.2095" fill="white" transform="translate(0.912109 0.19043)"/>
    </clipPath>
  </defs>
</svg>