<svg width="20" height="20" viewBox="0 0 20 20" fill="none" xmlns="http://www.w3.org/2000/svg">
<path d="M3.70839 7.6H5.27479L5.51559 14.8H3.49999L3.70839 7.6ZM2.40039 15.2H17.6004V16H18.8004V17.2H19.6004V18H0.400391V17.2H1.20039V16H2.40039V15.2ZM18.4004 5.5248L10.0012 2L1.60039 5.5248V6H18.4004V5.5248ZM3.20039 6.4H16.8004V7.2H3.20039V6.4ZM14.6948 7.6H16.2604L16.5032 14.8H14.4848L14.6948 7.6ZM11.034 7.6H12.5996L12.8396 14.8H10.8232L11.034 7.6ZM7.37239 7.6H8.93839L9.17679 14.8H7.16119L7.37239 7.6Z" fill="#808D9E"/>
</svg>
