<svg width="20" height="20" viewBox="0 0 20 20" fill="none" xmlns="http://www.w3.org/2000/svg">
<g clip-path="url(#clip0_11139_8829)">
<path d="M10 2.5L10.0083 11.2917C9.51667 11.0083 8.95 10.8333 8.34167 10.8333C6.49167 10.8333 5 12.325 5 14.1667C5 16.0083 6.49167 17.5 8.34167 17.5C10.1917 17.5 11.6667 16.0083 11.6667 14.1667V5.83333H15V2.5H10ZM8.34167 15.8333C7.425 15.8333 6.675 15.0833 6.675 14.1667C6.675 13.25 7.425 12.5 8.34167 12.5C9.25833 12.5 10.0083 13.25 10.0083 14.1667C10.0083 15.0833 9.25833 15.8333 8.34167 15.8333Z" fill="white"/>
</g>
<defs>
<clipPath id="clip0_11139_8829">
<rect width="20" height="20" fill="white"/>
</clipPath>
</defs>
</svg>
