<svg width="20" height="20" viewBox="0 0 20 20" fill="none" xmlns="http://www.w3.org/2000/svg">
<g clip-path="url(#clip0_4861_4165)">
<path d="M13.8833 3.76678L16.2417 6.12511L13.8833 8.48345L11.525 6.12511L13.8833 3.76678ZM7.5 4.16678V7.50011H4.16667V4.16678H7.5ZM15.8333 12.5001V15.8334H12.5V12.5001H15.8333ZM7.5 12.5001V15.8334H4.16667V12.5001H7.5ZM13.8833 1.40845L9.16667 6.11678L13.8833 10.8334L18.6 6.11678L13.8833 1.40845ZM9.16667 2.50011H2.5V9.16678H9.16667V2.50011ZM17.5 10.8334H10.8333V17.5001H17.5V10.8334ZM9.16667 10.8334H2.5V17.5001H9.16667V10.8334Z" fill="#808D9E"/>
</g>
<defs>
<clipPath id="clip0_4861_4165">
<rect width="20" height="20" fill="#808D9E"/>
</clipPath>
</defs>
</svg>
