<svg xmlns="http://www.w3.org/2000/svg" width="19" height="18" viewBox="0 0 19 18" fill="none">
  <g clip-path="url(#clip0_5652_13055)">
    <path d="M11.75 3V8.25H4.3775L3.935 8.6925L3.5 9.1275V3H11.75ZM12.5 1.5H2.75C2.3375 1.5 2 1.8375 2 2.25V12.75L5 9.75H12.5C12.9125 9.75 13.25 9.4125 13.25 9V2.25C13.25 1.8375 12.9125 1.5 12.5 1.5ZM16.25 4.5H14.75V11.25H5V12.75C5 13.1625 5.3375 13.5 5.75 13.5H14L17 16.5V5.25C17 4.8375 16.6625 4.5 16.25 4.5Z" fill="#07164B"/>
  </g>
  <defs>
    <clipPath id="clip0_5652_13055">
      <rect width="18" height="18" fill="white" transform="translate(0.5)"/>
    </clipPath>
  </defs>
</svg>