<svg width="21" height="21" viewBox="0 0 21 21" fill="none" xmlns="http://www.w3.org/2000/svg">
<path d="M17.397 16.805L14.5637 13.98C15.4778 12.8154 15.9738 11.3772 15.972 9.89665C15.972 8.57811 15.581 7.28918 14.8485 6.19285C14.1159 5.09652 13.0747 4.24204 11.8566 3.73745C10.6384 3.23287 9.29795 3.10085 8.00474 3.35808C6.71153 3.61532 5.52365 4.25025 4.5913 5.1826C3.65895 6.11495 3.02401 7.30284 2.76677 8.59605C2.50954 9.88926 2.64156 11.2297 3.14614 12.4479C3.65073 13.666 4.50521 14.7072 5.60154 15.4398C6.69787 16.1723 7.9868 16.5633 9.30534 16.5633C10.7859 16.5652 12.2241 16.0691 13.3887 15.155L16.2137 17.9883C16.2911 18.0664 16.3833 18.1284 16.4849 18.1707C16.5864 18.213 16.6953 18.2348 16.8053 18.2348C16.9154 18.2348 17.0243 18.213 17.1258 18.1707C17.2274 18.1284 17.3195 18.0664 17.397 17.9883C17.4751 17.9108 17.5371 17.8187 17.5794 17.7171C17.6217 17.6156 17.6435 17.5067 17.6435 17.3967C17.6435 17.2866 17.6217 17.1777 17.5794 17.0762C17.5371 16.9746 17.4751 16.8825 17.397 16.805ZM4.30534 9.89665C4.30534 8.90774 4.59859 7.94104 5.14799 7.1188C5.6974 6.29655 6.47829 5.65569 7.39192 5.27725C8.30555 4.89881 9.31089 4.7998 10.2808 4.99272C11.2507 5.18565 12.1416 5.66185 12.8409 6.36112C13.5401 7.06038 14.0163 7.95129 14.2093 8.9212C14.4022 9.8911 14.3032 10.8964 13.9247 11.8101C13.5463 12.7237 12.9054 13.5046 12.0832 14.054C11.2609 14.6034 10.2942 14.8967 9.30534 14.8967C7.97926 14.8967 6.70749 14.3699 5.76981 13.4322C4.83213 12.4945 4.30534 11.2227 4.30534 9.89665Z" fill="#1E1E1E" fill-opacity="0.6"/>
</svg>
