<svg width="20" height="16" viewBox="0 0 20 16" fill="none" xmlns="http://www.w3.org/2000/svg">
<path d="M7.50016 10.5C5.27516 10.5 0.833496 11.6167 0.833496 13.8333V15.5H14.1668V13.8333C14.1668 11.6167 9.72516 10.5 7.50016 10.5ZM2.50016 13.8333C2.6835 13.2333 5.2585 12.1667 7.50016 12.1667C9.75016 12.1667 12.3335 13.2417 12.5002 13.8333H2.50016Z" fill="#808D9E"/>
<path d="M3.95033 5.49992H4.16699C4.16699 7.34159 5.65866 8.83325 7.50033 8.83325C9.34199 8.83325 10.8337 7.34159 10.8337 5.49992H11.0503C11.2753 5.49992 11.4587 5.31659 11.4587 5.09159V5.07492C11.4587 4.84992 11.2753 4.66659 11.0503 4.66659H10.8337C10.8337 3.43325 10.1587 2.37492 9.16699 1.79159V2.58325C9.16699 2.81659 8.98366 2.99992 8.75033 2.99992C8.51699 2.99992 8.33366 2.81659 8.33366 2.58325V1.44992C8.06699 1.38325 7.79199 1.33325 7.50033 1.33325C7.20866 1.33325 6.93366 1.38325 6.66699 1.44992V2.58325C6.66699 2.81659 6.48366 2.99992 6.25033 2.99992C6.01699 2.99992 5.83366 2.81659 5.83366 2.58325V1.79159C4.84199 2.37492 4.16699 3.43325 4.16699 4.66659H3.95033C3.72533 4.66659 3.54199 4.84992 3.54199 5.07492V5.09992C3.54199 5.31659 3.72533 5.49992 3.95033 5.49992ZM9.16699 5.49992C9.16699 6.41658 8.41699 7.16658 7.50033 7.16658C6.58366 7.16658 5.83366 6.41658 5.83366 5.49992H9.16699Z" fill="#808D9E"/>
<path d="M18.317 3.19167L19.092 2.5L18.467 1.41667L17.4754 1.74167C17.3587 1.65 17.2254 1.575 17.0837 1.51667L16.8754 0.5H15.6254L15.417 1.51667C15.2754 1.575 15.142 1.65 15.017 1.74167L14.0337 1.41667L13.4087 2.5L14.1837 3.19167C14.167 3.33333 14.167 3.48333 14.1837 3.625L13.4087 4.33333L14.0337 5.41667L15.0337 5.1C15.142 5.18333 15.267 5.25 15.392 5.30833L15.6254 6.33333H16.8754L17.1004 5.31667C17.2337 5.25833 17.3504 5.19167 17.467 5.10833L18.4587 5.425L19.0837 4.34167L18.3087 3.63333C18.3337 3.475 18.3254 3.33333 18.317 3.19167ZM16.2504 4.45833C15.6754 4.45833 15.2087 3.99167 15.2087 3.41667C15.2087 2.84167 15.6754 2.375 16.2504 2.375C16.8254 2.375 17.292 2.84167 17.292 3.41667C17.292 3.99167 16.8254 4.45833 16.2504 4.45833Z" fill="#808D9E"/>
<path d="M16.1669 6.99159L15.4586 7.22492C15.3753 7.15825 15.2836 7.10825 15.1836 7.06659L15.0336 6.33325H14.1419L13.9919 7.05825C13.8919 7.09992 13.7919 7.15825 13.7086 7.21659L13.0086 6.98325L12.5586 7.75825L13.1086 8.24992C13.1003 8.35825 13.1003 8.45825 13.1086 8.55825L12.5586 9.06659L13.0086 9.84159L13.7253 9.61659C13.8086 9.67492 13.8919 9.72492 13.9836 9.76659L14.1336 10.4999H15.0253L15.1836 9.77492C15.2753 9.73325 15.3669 9.68325 15.4503 9.62492L16.1586 9.84992L16.6086 9.07492L16.0586 8.56659C16.0669 8.45825 16.0669 8.35825 16.0586 8.25825L16.6086 7.76659L16.1669 6.99159ZM14.5836 9.15825C14.1753 9.15825 13.8419 8.82492 13.8419 8.41659C13.8419 8.00825 14.1753 7.67492 14.5836 7.67492C14.9919 7.67492 15.3253 8.00825 15.3253 8.41659C15.3253 8.82492 14.9919 9.15825 14.5836 9.15825Z" fill="#808D9E"/>
</svg>
