<svg width="20" height="20" viewBox="0 0 20 20" fill="none" xmlns="http://www.w3.org/2000/svg">
<path d="M19.8274 1.90812L19.7297 1.85913C19.4085 1.69875 19.1258 1.47067 18.9011 1.19059C18.6764 0.910502 18.5151 0.585064 18.4282 0.236665C18.4113 0.169062 18.3722 0.109052 18.3173 0.0661712C18.2624 0.0232908 18.1947 0 18.125 0C18.0553 0 17.9876 0.0232908 17.9327 0.0661712C17.8778 0.109052 17.8387 0.169062 17.8218 0.236665C17.7349 0.585096 17.5735 0.910563 17.3488 1.19067C17.1241 1.47078 16.8414 1.69889 16.5201 1.85929L16.4226 1.90812C16.3707 1.93408 16.3271 1.97396 16.2966 2.02331C16.2661 2.07265 16.25 2.12951 16.25 2.1875C16.25 2.2455 16.2661 2.30236 16.2966 2.3517C16.3271 2.40104 16.3707 2.44093 16.4226 2.46689L16.5202 2.51587C16.8415 2.67626 17.1242 2.90434 17.3489 3.18442C17.5736 3.46451 17.7349 3.78994 17.8218 4.13834C17.8387 4.20595 17.8777 4.26596 17.9327 4.30884C17.9876 4.35172 18.0553 4.37501 18.125 4.37501C18.1947 4.37501 18.2624 4.35172 18.3173 4.30884C18.3722 4.26596 18.4113 4.20595 18.4282 4.13834C18.5151 3.78991 18.6765 3.46444 18.9012 3.18433C19.1259 2.90423 19.4086 2.67612 19.7299 2.51572L19.8274 2.46689C19.8793 2.44093 19.9229 2.40104 19.9534 2.3517C19.9838 2.30236 20 2.2455 20 2.1875C20 2.12951 19.9838 2.07265 19.9534 2.02331C19.9229 1.97396 19.8793 1.93408 19.8274 1.90812ZM18.125 3.22143C17.895 2.81027 17.5747 2.45673 17.1881 2.18749C17.5747 1.9183 17.8951 1.56474 18.125 1.15356C18.3549 1.56471 18.6753 1.91825 19.0619 2.18749C18.6753 2.45669 18.3549 2.81024 18.125 3.22143Z" fill="#808D9E"/>
<path d="M2.17819 5.70084C2.2651 5.35241 2.42647 5.02694 2.65118 4.74683C2.87589 4.46673 3.15862 4.23862 3.47992 4.07822L3.57742 4.02939C3.62928 4.00343 3.67289 3.96354 3.70337 3.9142C3.73385 3.86486 3.74999 3.808 3.74999 3.75C3.74999 3.69201 3.73385 3.63515 3.70337 3.58581C3.67289 3.53646 3.62928 3.49658 3.57742 3.47062L3.47976 3.42163C3.1585 3.26125 2.8758 3.03317 2.65111 2.75309C2.42642 2.473 2.26509 2.14756 2.1782 1.79917C2.16128 1.73156 2.12225 1.67155 2.06732 1.62867C2.01238 1.58579 1.94469 1.5625 1.87501 1.5625C1.80532 1.5625 1.73763 1.58579 1.68269 1.62867C1.62776 1.67155 1.58873 1.73156 1.57182 1.79917C1.4849 2.1476 1.32354 2.47306 1.09882 2.75317C0.874104 3.03328 0.591372 3.26139 0.270077 3.42179L0.172577 3.47062C0.120715 3.49658 0.0771024 3.53646 0.0466229 3.58581C0.0161434 3.63515 0 3.69201 0 3.75C0 3.808 0.0161434 3.86486 0.0466229 3.9142C0.0771024 3.96354 0.120715 4.00343 0.172577 4.02939L0.270234 4.07837C0.591494 4.23876 0.874195 4.46684 1.09888 4.74692C1.32357 5.02701 1.48491 5.35244 1.5718 5.70084C1.58871 5.76845 1.62774 5.82846 1.68268 5.87134C1.73761 5.91422 1.8053 5.93751 1.87499 5.93751C1.94468 5.93751 2.01236 5.91422 2.0673 5.87134C2.12223 5.82846 2.16127 5.76845 2.17819 5.70084ZM0.938121 3.75C1.32473 3.48081 1.64509 3.12726 1.875 2.71607C2.10495 3.12722 2.4253 3.48076 2.81187 3.75C2.42526 4.0192 2.1049 4.37275 1.875 4.78394C1.64504 4.37278 1.32469 4.01924 0.938121 3.75Z" fill="#808D9E"/>
<path d="M17.1875 9.375V9.0625C17.1852 7.42591 16.6253 5.83895 15.6002 4.56323C14.575 3.28751 13.1457 2.39919 11.548 2.04472C11.5559 1.98845 11.5608 1.9318 11.5625 1.875C11.5625 1.4606 11.3979 1.06317 11.1049 0.770146C10.8118 0.47712 10.4144 0.3125 10 0.3125C9.5856 0.3125 9.18817 0.47712 8.89515 0.770146C8.60212 1.06317 8.4375 1.4606 8.4375 1.875C8.43922 1.9318 8.44408 1.98845 8.45204 2.04472C6.85429 2.39919 5.42502 3.28751 4.39985 4.56323C3.37467 5.83895 2.81479 7.42591 2.8125 9.0625V9.375C2.56394 9.37528 2.32564 9.47414 2.14989 9.64989C1.97413 9.82565 1.87527 10.0639 1.875 10.3125V10.625C1.87527 10.8736 1.97413 11.1119 2.14989 11.2876C2.32564 11.4634 2.56394 11.5622 2.8125 11.5625H4.75844C4.75782 11.604 4.76125 11.6455 4.76868 11.6864L5.27436 14.2149C4.93918 14.4257 4.65612 14.7096 4.44642 15.0455C4.19569 15.4517 4.06277 15.9196 4.0625 16.3969V16.4885L3.68969 17.2318L3.49886 17.1936C3.45352 17.1845 3.40673 17.1856 3.36187 17.1968C3.317 17.208 3.27518 17.229 3.23942 17.2583C3.20366 17.2876 3.17484 17.3245 3.15506 17.3663C3.13527 17.4081 3.125 17.4538 3.125 17.5V19.6875C3.125 19.7704 3.15792 19.8499 3.21653 19.9085C3.27513 19.9671 3.35462 20 3.4375 20H9.6875C9.77038 20 9.84987 19.9671 9.90847 19.9085C9.96708 19.8499 10 19.7704 10 19.6875V18.75C9.99949 18.7081 9.99044 18.6668 9.97341 18.6285C9.95638 18.5902 9.93172 18.5558 9.90094 18.5274L12.6839 16.5027C12.7142 16.4769 12.7414 16.4477 12.765 16.4156L15.7982 11.5625H17.1875C17.4361 11.5622 17.6744 11.4634 17.8501 11.2876C18.0259 11.1119 18.1247 10.8736 18.125 10.625V10.3125C18.1247 10.0639 18.0259 9.82565 17.8501 9.64989C17.6744 9.47414 17.4361 9.37528 17.1875 9.375ZM9.0625 1.875C9.0625 1.62636 9.16127 1.3879 9.33709 1.21209C9.5129 1.03627 9.75136 0.9375 10 0.9375C10.2486 0.9375 10.4871 1.03627 10.6629 1.21209C10.8387 1.3879 10.9375 1.62636 10.9375 1.875C10.9375 1.89636 10.9336 1.91656 10.9322 1.93747C10.3135 1.85418 9.68647 1.85418 9.06777 1.93747C9.06639 1.91656 9.0625 1.89636 9.0625 1.875ZM3.4375 9.0625C3.4375 8.95703 3.44839 8.85428 3.45333 8.75H13.4375C13.5204 8.75 13.5999 8.71708 13.6585 8.65847C13.7171 8.59987 13.75 8.52038 13.75 8.4375C13.75 8.35462 13.7171 8.27514 13.6585 8.21653C13.5999 8.15793 13.5204 8.125 13.4375 8.125H3.51238C3.73588 6.56365 4.51497 5.13527 5.70667 4.10202C6.89837 3.06875 8.42273 2.49993 10 2.49993C11.5773 2.49993 13.1016 3.06875 14.2933 4.10202C15.485 5.13527 16.2641 6.56365 16.4876 8.125H14.6875C14.6046 8.125 14.5251 8.15793 14.4665 8.21653C14.4079 8.27514 14.375 8.35462 14.375 8.4375C14.375 8.52038 14.4079 8.59987 14.4665 8.65847C14.5251 8.71708 14.6046 8.75 14.6875 8.75H16.5467C16.5516 8.85428 16.5625 8.95703 16.5625 9.0625V9.375H3.4375V9.0625ZM4.65438 16.7026C4.67618 16.6591 4.68752 16.6111 4.6875 16.5625V16.3969C4.68773 16.036 4.78815 15.6822 4.97757 15.3749C5.1701 15.0672 5.44289 14.8178 5.7666 14.6536C5.82741 14.6227 5.87643 14.5727 5.90618 14.5114C5.93594 14.45 5.94479 14.3806 5.9314 14.3137L5.38132 11.5625H5.90622C6.19513 11.5626 6.47508 11.6628 6.6984 11.8461C6.92172 12.0294 7.07462 12.2844 7.13104 12.5678L7.45972 14.2044C7.50692 14.4292 7.63331 14.6296 7.81586 14.769L8.70712 15.4358C8.86967 15.5588 9.068 15.6253 9.27185 15.625H10.1969C10.3859 15.6248 10.5705 15.5674 10.7264 15.4603C10.8822 15.3532 11.0019 15.2014 11.0698 15.0249L12.198 12.0931C12.2583 11.9374 12.3641 11.8035 12.5016 11.7089C12.639 11.6143 12.8018 11.5632 12.9688 11.5625H13.3497L12.2243 16.0643L9.12516 18.3189L4.32522 17.3589L4.65438 16.7026ZM7.29979 11.5625H11.782C11.7139 11.6574 11.6577 11.7603 11.6147 11.8689L10.4857 14.8024C10.4632 14.8607 10.4235 14.9108 10.372 14.9461C10.3204 14.9814 10.2593 15.0002 10.1968 15H9.27184C9.20403 15.0006 9.13797 14.9786 9.08416 14.9373L8.19365 14.2711C8.13158 14.2236 8.08846 14.1555 8.07204 14.0791L7.74413 12.446C7.67867 12.1167 7.5251 11.8114 7.29979 11.5625ZM9.375 19.375H3.75V17.8812L9.375 19.0062V19.375ZM13.2826 14.4082L13.994 11.5625H15.0612L13.2826 14.4082ZM17.5 10.625C17.4999 10.7079 17.4669 10.7873 17.4084 10.8459C17.3498 10.9044 17.2704 10.9374 17.1875 10.9375H2.8125C2.72965 10.9374 2.65023 10.9044 2.59165 10.8459C2.53307 10.7873 2.50011 10.7079 2.5 10.625V10.3125C2.50011 10.2297 2.53307 10.1502 2.59165 10.0917C2.65023 10.0331 2.72965 10.0001 2.8125 10H17.1875C17.2704 10.0001 17.3498 10.0331 17.4084 10.0917C17.4669 10.1502 17.4999 10.2297 17.5 10.3125V10.625Z" fill="#808D9E"/>
</svg>
