<svg width="20" height="20" viewBox="0 0 20 20" fill="none" xmlns="http://www.w3.org/2000/svg">
<g clip-path="url(#clip0_4861_4148)">
<path d="M12.9165 9.16675C13.6069 9.16675 14.1665 8.6071 14.1665 7.91675C14.1665 7.22639 13.6069 6.66675 12.9165 6.66675C12.2261 6.66675 11.6665 7.22639 11.6665 7.91675C11.6665 8.6071 12.2261 9.16675 12.9165 9.16675Z" fill="#808D9E"/>
<path d="M7.0835 9.16675C7.77385 9.16675 8.3335 8.6071 8.3335 7.91675C8.3335 7.22639 7.77385 6.66675 7.0835 6.66675C6.39314 6.66675 5.8335 7.22639 5.8335 7.91675C5.8335 8.6071 6.39314 9.16675 7.0835 9.16675Z" fill="#808D9E"/>
<path d="M9.99984 13.3334C8.7665 13.3334 7.70817 12.6584 7.12484 11.6667H5.73317C6.39984 13.3751 8.05817 14.5834 9.99984 14.5834C11.9415 14.5834 13.5998 13.3751 14.2665 11.6667H12.8748C12.2998 12.6584 11.2332 13.3334 9.99984 13.3334ZM9.9915 1.66675C5.3915 1.66675 1.6665 5.40008 1.6665 10.0001C1.6665 14.6001 5.3915 18.3334 9.9915 18.3334C14.5998 18.3334 18.3332 14.6001 18.3332 10.0001C18.3332 5.40008 14.5998 1.66675 9.9915 1.66675ZM9.99984 16.6667C6.3165 16.6667 3.33317 13.6834 3.33317 10.0001C3.33317 6.31675 6.3165 3.33341 9.99984 3.33341C13.6832 3.33341 16.6665 6.31675 16.6665 10.0001C16.6665 13.6834 13.6832 16.6667 9.99984 16.6667Z" fill="#808D9E"/>
</g>
<defs>
<clipPath id="clip0_4861_4148">
<rect width="20" height="20" fill="white"/>
</clipPath>
</defs>
</svg>
