<svg width="20" height="20" viewBox="0 0 20 20" fill="none" xmlns="http://www.w3.org/2000/svg">
<path d="M20 7.50002C20 7.1685 19.8683 6.85056 19.6339 6.61614C19.3995 6.38172 19.0815 6.25002 18.75 6.25002C18.4185 6.25002 18.1005 6.38172 17.8661 6.61614C17.6317 6.85056 17.5 7.1685 17.5 7.50002C17.5012 7.79644 17.6087 8.08259 17.8029 8.30651L17.5159 13.75H15.9375V13.3276C16.1408 12.982 16.2487 12.5885 16.25 12.1875V10.625C16.2497 10.3765 16.1509 10.1382 15.9751 9.96241C15.7994 9.78665 15.5611 9.68779 15.3125 9.68752H13.9432L12.7796 7.36025C12.778 7.35716 12.7751 7.35543 12.7734 7.3524C12.7705 7.34696 12.7691 7.34097 12.7658 7.33569C12.7496 7.31026 12.7299 7.28731 12.7071 7.26756C12.7018 7.26285 12.696 7.25957 12.6904 7.25526C12.6665 7.23673 12.6401 7.22179 12.6119 7.21091C12.6048 7.20815 12.5984 7.20473 12.591 7.20248C12.5616 7.19297 12.5309 7.18793 12.5 7.18752H7.50002C7.44198 7.18753 7.3851 7.20369 7.33573 7.2342C7.28635 7.2647 7.24645 7.30835 7.22048 7.36025L6.05685 9.68752H4.68752C4.43897 9.68779 4.20067 9.78665 4.02491 9.96241C3.84916 10.1382 3.7503 10.3765 3.75003 10.625V12.1875C3.75135 12.5885 3.85919 12.982 4.06253 13.3276V13.75H2.48412L2.19708 8.30651C2.39132 8.08259 2.49881 7.79644 2.50003 7.50002C2.50145 7.2974 2.4536 7.09747 2.36058 6.91745C2.26757 6.73743 2.13219 6.58272 1.96611 6.46664C1.80002 6.35056 1.6082 6.2766 1.40718 6.25113C1.20616 6.22565 1.00196 6.24943 0.812171 6.32041C0.622379 6.39138 0.452687 6.50743 0.317711 6.65856C0.182734 6.80969 0.0865192 6.99136 0.0373542 7.18794C-0.0118109 7.38451 -0.0124525 7.59009 0.0354846 7.78697C0.0834217 7.98384 0.1785 8.16612 0.312531 8.31808V19.6875C0.312521 19.7285 0.320596 19.7692 0.336297 19.8071C0.351998 19.845 0.375016 19.8795 0.404036 19.9085C0.433057 19.9375 0.467511 19.9605 0.50543 19.9762C0.543349 19.9919 0.58399 20 0.625031 20H1.87503C1.91607 20 1.95671 19.9919 1.99463 19.9762C2.03255 19.9605 2.067 19.9375 2.09602 19.9085C2.12504 19.8795 2.14806 19.845 2.16376 19.8071C2.17946 19.7692 2.18754 19.7285 2.18753 19.6875V15.9375H4.06253V19.6875C4.06251 19.7285 4.07059 19.7692 4.08629 19.8071C4.10199 19.845 4.12501 19.8795 4.15403 19.9085C4.18305 19.9375 4.2175 19.9605 4.25542 19.9762C4.29334 19.9919 4.33398 20 4.37502 20H6.87502C6.91606 20 6.9567 19.9919 6.99462 19.9762C7.03254 19.9605 7.067 19.9375 7.09602 19.9085C7.12504 19.8795 7.14805 19.845 7.16375 19.8071C7.17946 19.7692 7.18753 19.7285 7.18752 19.6875V14.617C7.57894 14.5412 7.95098 14.387 8.28127 14.1637C8.78943 14.5051 9.38778 14.6875 10 14.6875C10.6122 14.6875 11.2106 14.5051 11.7188 14.1637C12.0491 14.387 12.4211 14.5412 12.8125 14.617V19.6875C12.8125 19.7285 12.8206 19.7692 12.8363 19.8071C12.852 19.845 12.875 19.8795 12.904 19.9085C12.933 19.9375 12.9675 19.9605 13.0054 19.9762C13.0433 19.9919 13.084 20 13.125 20H15.625C15.666 20 15.7067 19.9919 15.7446 19.9762C15.7825 19.9605 15.817 19.9375 15.846 19.9085C15.875 19.8795 15.898 19.845 15.9137 19.8071C15.9294 19.7692 15.9375 19.7285 15.9375 19.6875V15.9375H17.8125V19.6875C17.8125 19.7285 17.8206 19.7692 17.8363 19.8071C17.852 19.845 17.875 19.8795 17.904 19.9085C17.933 19.9375 17.9675 19.9605 18.0054 19.9762C18.0433 19.9919 18.084 20 18.125 20H19.375C19.416 20 19.4567 19.9919 19.4946 19.9762C19.5325 19.9605 19.567 19.9375 19.596 19.9085C19.625 19.8795 19.648 19.845 19.6637 19.8071C19.6794 19.7692 19.6875 19.7285 19.6875 19.6875V8.31808C19.8878 8.09251 19.9989 7.80165 20 7.50002ZM18.75 6.87502C18.8736 6.87502 18.9945 6.91168 19.0972 6.98036C19.2 7.04903 19.2801 7.14664 19.3274 7.26085C19.3747 7.37505 19.3871 7.50072 19.363 7.62195C19.3389 7.74319 19.2794 7.85456 19.1919 7.94196C19.1045 8.02937 18.9932 8.0889 18.8719 8.11301C18.7507 8.13713 18.625 8.12475 18.5108 8.07745C18.3966 8.03014 18.299 7.95003 18.2303 7.84725C18.1617 7.74447 18.125 7.62364 18.125 7.50002C18.1252 7.33432 18.1911 7.17546 18.3083 7.05829C18.4254 6.94112 18.5843 6.87521 18.75 6.87502ZM18.4085 8.69661C18.6207 8.7646 18.8484 8.76774 19.0625 8.70565V13.75H18.1418L18.4085 8.69661ZM12.5 8.19887L13.2443 9.68752H11.7557L12.5 8.19887ZM7.69319 7.81252H11.9943L11.0568 9.68752H6.7557L7.69319 7.81252ZM0.93753 8.70565C1.03937 8.73374 1.14439 8.74865 1.25003 8.75002C1.36582 8.74834 1.48079 8.73037 1.59156 8.69661L1.85824 13.75H0.93753V8.70565ZM1.25003 6.87502C1.37364 6.87502 1.49448 6.91168 1.59726 6.98036C1.70004 7.04903 1.78015 7.14664 1.82745 7.26085C1.87476 7.37505 1.88714 7.50072 1.86302 7.62195C1.8389 7.74319 1.77938 7.85456 1.69197 7.94196C1.60456 8.02937 1.4932 8.0889 1.37196 8.11301C1.25072 8.13713 1.12506 8.12475 1.01085 8.07745C0.896649 8.03014 0.799038 7.95003 0.730362 7.84725C0.661686 7.74447 0.625031 7.62364 0.625031 7.50002C0.62522 7.33432 0.691129 7.17546 0.808298 7.05829C0.925467 6.94112 1.08433 6.87521 1.25003 6.87502ZM1.56253 19.375H0.93753V15.9375H1.56253V19.375ZM0.93753 15.3125V14.375H4.06253V15.3125H0.93753ZM4.68752 14.0456C4.87883 14.1979 5.08888 14.3249 5.31252 14.4237V19.375H4.68752V14.0456ZM6.56252 19.375H5.93752V15.9375H6.56252V19.375ZM6.56252 15.3125H5.93752V14.6231C6.14318 14.6654 6.35256 14.687 6.56252 14.6875V15.3125ZM11.7188 13.4593C11.6457 13.4593 11.575 13.4849 11.5189 13.5317C11.0872 13.8754 10.5518 14.0625 10 14.0625C9.44825 14.0625 8.9128 13.8754 8.48116 13.5317C8.42503 13.4849 8.35431 13.4593 8.28127 13.4593C8.20823 13.4593 8.1375 13.4849 8.08138 13.5317C7.65241 13.8802 7.1152 14.0679 6.56252 14.0625C5.35647 14.0625 4.37502 13.2214 4.37502 12.1875V11.875H12.8125C12.8954 11.875 12.9749 11.8421 13.0335 11.7835C13.0921 11.7249 13.125 11.6454 13.125 11.5625C13.125 11.4796 13.0921 11.4002 13.0335 11.3415C12.9749 11.2829 12.8954 11.25 12.8125 11.25H4.37502V10.625C4.37511 10.5422 4.40806 10.4627 4.46665 10.4041C4.52523 10.3456 4.60467 10.3126 4.68752 10.3125H15.3125C15.3954 10.3126 15.4748 10.3456 15.5334 10.4041C15.592 10.4627 15.6249 10.5422 15.625 10.625V11.25H14.0625C13.9796 11.25 13.9001 11.2829 13.8415 11.3415C13.7829 11.4002 13.75 11.4796 13.75 11.5625C13.75 11.6454 13.7829 11.7249 13.8415 11.7835C13.9001 11.8421 13.9796 11.875 14.0625 11.875H15.625V12.1875C15.625 13.2214 14.6436 14.0625 13.4375 14.0625C12.8848 14.0679 12.3476 13.8802 11.9187 13.5317C11.8626 13.4849 11.7918 13.4593 11.7188 13.4593ZM14.0625 14.6231V15.3125H13.4375V14.6875C13.6475 14.687 13.8569 14.6654 14.0625 14.6231ZM13.4375 15.9375H14.0625V19.375H13.4375V15.9375ZM15.3125 19.375H14.6875V14.4237C14.9112 14.3249 15.1212 14.1979 15.3125 14.0456V19.375ZM15.9375 14.375H19.0625V15.3125H15.9375V14.375ZM19.0625 19.375H18.4375V15.9375H19.0625V19.375Z" fill="#808D9E"/>
<path d="M10 8.4375H8.75C8.66712 8.4375 8.58763 8.47042 8.52903 8.52903C8.47042 8.58763 8.4375 8.66712 8.4375 8.75C8.4375 8.83288 8.47042 8.91237 8.52903 8.97097C8.58763 9.02958 8.66712 9.0625 8.75 9.0625H10C10.0829 9.0625 10.1624 9.02958 10.221 8.97097C10.2796 8.91237 10.3125 8.83288 10.3125 8.75C10.3125 8.66712 10.2796 8.58763 10.221 8.52903C10.1624 8.47042 10.0829 8.4375 10 8.4375Z" fill="#808D9E"/>
<path d="M6.875 4.68749H13.125C13.166 4.6875 13.2067 4.67943 13.2446 4.66373C13.2825 4.64803 13.317 4.62501 13.346 4.59599C13.375 4.56697 13.398 4.53251 13.4137 4.49459C13.4294 4.45668 13.4375 4.41603 13.4375 4.37499C13.4363 3.51792 13.1153 2.69214 12.5373 2.05928C11.9593 1.42642 11.1659 1.03204 10.3125 0.95333V0.3125C10.3125 0.229619 10.2796 0.150134 10.221 0.091529C10.1624 0.032924 10.0829 0 9.99999 0C9.91711 0 9.83763 0.032924 9.77902 0.091529C9.72042 0.150134 9.6875 0.229619 9.6875 0.3125V0.95333C8.83404 1.03204 8.04068 1.42642 7.46269 2.05928C6.8847 2.69214 6.5637 3.51792 6.5625 4.37499C6.56249 4.41603 6.57057 4.45668 6.58627 4.49459C6.60197 4.53251 6.62498 4.56697 6.654 4.59599C6.68303 4.62501 6.71748 4.64803 6.7554 4.66373C6.79332 4.67943 6.83396 4.6875 6.875 4.68749ZM9.99999 1.5625C10.6916 1.56335 11.3586 1.81862 11.8741 2.27967C12.3896 2.74071 12.7174 3.3753 12.7951 4.06249H7.20489C7.28259 3.3753 7.6104 2.74071 8.12587 2.27967C8.64134 1.81862 9.30842 1.56335 9.99999 1.5625Z" fill="#808D9E"/>
</svg>
