<svg width="24" height="24" viewBox="0 0 24 24" fill="none" xmlns="http://www.w3.org/2000/svg">
<path fill-rule="evenodd" clip-rule="evenodd" d="M11.383 3.07965C11.009 2.92565 10.579 3.01065 10.293 3.29665L6 8.00265H3C2.45 8.00265 2 8.45365 2 9.00265V15.0026C2 15.5526 2.45 16.0026 3 16.0026H6L10.293 20.7106C10.579 20.9966 11.009 21.0826 11.383 20.9276C11.757 20.7726 12 20.4076 12 20.0026V4.00265C12 3.59965 11.757 3.23265 11.383 3.07965ZM14 5.00256V7.00256C16.757 7.00256 19 9.24656 19 12.0026C19 14.7596 16.757 17.0026 14 17.0026V19.0026C17.86 19.0026 21 15.8636 21 12.0026C21 8.14356 17.86 5.00256 14 5.00256ZM14 9.00256C15.654 9.00256 17 10.3496 17 12.0026C17 13.6576 15.654 15.0026 14 15.0026V13.0026C14.551 13.0026 15 12.5536 15 12.0026C15 11.4516 14.551 11.0026 14 11.0026V9.00256Z" fill="#6A6969"/>
</svg>
