<svg width="24" height="24" viewBox="0 0 24 24" fill="none" xmlns="http://www.w3.org/2000/svg">
<path d="M20.2026 8.57173C20.1071 8.62744 17.8338 9.8031 17.8338 12.4098C17.941 15.3826 20.7026 16.4252 20.75 16.4252C20.7026 16.4809 20.3331 17.8454 19.2383 19.2757C18.3696 20.5078 17.4053 21.75 15.941 21.75C14.5481 21.75 14.0481 20.9288 12.441 20.9288C10.715 20.9288 10.2267 21.75 8.90525 21.75C7.44096 21.75 6.40524 20.4412 5.48909 19.2207C4.29887 17.6232 3.28722 15.1164 3.25151 12.7093C3.22744 11.4338 3.48986 10.18 4.15601 9.11507C5.09623 7.62831 6.77481 6.61905 8.60789 6.58577C10.0124 6.54164 11.2624 7.48434 12.1195 7.48434C12.941 7.48434 14.4767 6.58577 16.2143 6.58577C16.9643 6.58649 18.9643 6.79703 20.2026 8.57173ZM12.0008 6.3311C11.7508 5.16629 12.441 4.00148 13.0838 3.25846C13.9053 2.3599 15.2026 1.75 16.3214 1.75C16.3928 2.91481 15.9402 4.05719 15.1312 4.8892C14.4053 5.78777 13.1553 6.46422 12.0008 6.3311Z" fill="#1A202C"/>
</svg>
