<svg width="20" height="20" viewBox="0 0 20 20" fill="none" xmlns="http://www.w3.org/2000/svg">
<g id="search">
<path id="Vector" fill-rule="evenodd" clip-rule="evenodd" d="M9.16675 3.33341C5.94509 3.33341 3.33341 5.94509 3.33341 9.16675C3.33341 12.3884 5.94509 15.0001 9.16675 15.0001C10.7384 15.0001 12.1648 14.3786 13.2137 13.3679C13.2357 13.3394 13.2597 13.312 13.2858 13.2858C13.312 13.2597 13.3394 13.2357 13.3679 13.2137C14.3786 12.1648 15.0001 10.7384 15.0001 9.16675C15.0001 5.94509 12.3884 3.33341 9.16675 3.33341ZM15.0267 13.8482C16.053 12.5651 16.6667 10.9376 16.6667 9.16675C16.6667 5.02461 13.3089 1.66675 9.16675 1.66675C5.02461 1.66675 1.66675 5.02461 1.66675 9.16675C1.66675 13.3089 5.02461 16.6667 9.16675 16.6667C10.9376 16.6667 12.5651 16.053 13.8482 15.0267L16.9108 18.0893C17.2363 18.4148 17.7639 18.4148 18.0893 18.0893C18.4148 17.7639 18.4148 17.2363 18.0893 16.9108L15.0267 13.8482Z" fill="#191A26"/>
</g>
</svg>
