<svg xmlns="http://www.w3.org/2000/svg" width="32" height="33" viewBox="0 0 32 33" fill="none">
  <path d="M24 12.425L22.88 23.6224C22.7107 25.3197 22.6267 26.1677 22.24 26.809C21.9009 27.3736 21.4021 27.825 20.8067 28.1064C20.1307 28.425 19.28 28.425 17.5733 28.425H14.4267C12.7213 28.425 11.8693 28.425 11.1933 28.105C10.5974 27.8239 10.0982 27.3725 9.75867 26.8077C9.37467 26.1677 9.28933 25.3197 9.11867 23.6224L8 12.425M18 21.0917V14.425M14 21.0917V14.425M6 9.09172H12.1533M12.1533 9.09172L12.668 5.52905C12.8173 4.88105 13.356 4.42505 13.9747 4.42505H18.0253C18.644 4.42505 19.1813 4.88105 19.332 5.52905L19.8467 9.09172M12.1533 9.09172H19.8467M19.8467 9.09172H26" stroke="#FD451C" stroke-width="1.5" stroke-linecap="round" stroke-linejoin="round"/>
</svg>