<svg width="54" height="17" viewBox="0 0 54 17" fill="none" xmlns="http://www.w3.org/2000/svg">
<path d="M7.51195 0.501728C10.7884 0.450163 12.7732 1.54747 12.8229 4.47982C12.8477 5.9539 11.8553 6.92815 10.941 7.15985C11.8624 7.29735 13.462 7.83501 13.4989 10.0303C13.5514 13.1566 11.7581 14.0978 8.45893 14.15C5.97691 14.1892 1.4555 14.5 1.4555 14.5L0.5 1.67673C0.5 1.67673 4.74547 0.545731 7.51195 0.501728ZM4.84478 5.8219C4.84478 5.8219 6.63235 5.81571 7.75738 5.79783C8.22414 5.79027 8.46886 5.46094 8.45893 4.87447C8.44758 4.19587 8.10709 3.66372 7.36298 3.6754C6.29257 3.69259 4.74618 3.97723 4.74618 3.97723L4.84478 5.8219ZM5.11008 10.9221L8.00069 10.92C8.69515 10.909 8.95619 10.427 8.94697 9.88387C8.93207 8.99351 8.50433 8.30528 7.60345 8.31903C6.44366 8.3376 5.02496 8.55555 5.02496 8.55555L5.10937 10.9221H5.11008Z" fill="#4D3523"/>
<path d="M13.5 1.0173L18.6413 0.5L20.5368 5.55977L23.4381 0.769836L28.5 1.64296L22.615 9.18857L22.1133 14.5L17.8729 13.8016L18.2212 8.88378L13.5 1.0173Z" fill="#4D3523"/>
<path d="M28.5053 8.12485C28.3734 3.53802 30.7049 0.655854 34.7096 0.506179C38.7279 0.355767 40.3396 2.95111 40.4942 8.30623C40.5964 11.8682 39.3417 13.915 36.9739 14.7437L37.4137 16.3444L33.248 16.5L33.1341 15.1102C30.2341 14.7061 28.6308 12.4883 28.5053 8.12485ZM32.3904 8.00319C32.4596 10.4031 33.4717 11.5283 34.9224 11.4737C36.1694 11.4273 36.754 10.482 36.6764 7.79601C36.6189 5.7942 36.3686 4.17211 34.9386 4.22519C33.2641 4.28786 32.3218 5.62756 32.3897 8.00245L32.3904 8.00319Z" fill="#4D3523"/>
<path d="M44.9174 14.7098L40.5 14.162L41.5622 0.884935C41.5622 0.884935 44.877 0.444846 47.5641 0.505792C51.7493 0.600755 53.5737 2.81325 53.4977 6.28294C53.4468 8.59464 52.5227 9.88373 50.8406 10.433H50.8503L53.119 15.5L48.6333 15.0627L46.9671 10.659H46.9811C46.0166 10.5442 45.0562 10.3692 45.0562 10.3692L44.9167 14.7098H44.9174ZM45.1943 7.10288C45.1943 7.10288 46.661 7.38209 47.7657 7.40761C48.7086 7.42887 49.4457 7.16099 49.4639 6.34884C49.4855 5.37724 48.9276 4.72455 47.539 4.69266C46.6798 4.67353 45.3345 4.73235 45.3345 4.73235L45.1943 7.10288Z" fill="#4D3523"/>
</svg>
