<svg width="24" height="24" viewBox="0 0 24 24" fill="none" xmlns="http://www.w3.org/2000/svg">
<path fill-rule="evenodd" clip-rule="evenodd" d="M11.9999 21.6004C17.3018 21.6004 21.5999 17.3023 21.5999 12.0004C21.5999 6.69846 17.3018 2.40039 11.9999 2.40039C6.69797 2.40039 2.3999 6.69846 2.3999 12.0004C2.3999 17.3023 6.69797 21.6004 11.9999 21.6004ZM16.4484 10.4489C16.9171 9.98029 16.9171 9.22049 16.4484 8.75186C15.9798 8.28323 15.22 8.28323 14.7514 8.75186L10.7999 12.7033L9.24843 11.1519C8.7798 10.6832 8.02 10.6832 7.55137 11.1519C7.08275 11.6205 7.08275 12.3803 7.55137 12.8489L9.95137 15.2489C10.42 15.7175 11.1798 15.7175 11.6484 15.2489L16.4484 10.4489Z" fill="#7E563A"/>
</svg>
