<svg width="337" height="102" viewBox="0 0 337 102" fill="none" xmlns="http://www.w3.org/2000/svg">
<path fill-rule="evenodd" clip-rule="evenodd" d="M102 7C105.314 7 108 4.31371 108 1H324C330.627 1 336 6.37258 336 13V89C336 95.6274 330.627 101 324 101H107C107 97.6863 104.314 95 101 95C97.6863 95 95 97.6863 95 101H13C6.37259 101 1 95.6274 1 89V13C1 6.37258 6.37258 1 13 1H96C96 4.31371 98.6863 7 102 7Z" fill="white"/>
<path d="M108 1V0H107V1H108ZM107 101H106V102H107V101ZM95 101V102H96V101H95ZM96 1H97V0H96V1ZM107 1C107 3.76142 104.761 6 102 6V8C105.866 8 109 4.86599 109 1H107ZM324 0H108V2H324V0ZM337 13C337 5.8203 331.18 0 324 0V2C330.075 2 335 6.92487 335 13H337ZM337 89V13H335V89H337ZM324 102C331.18 102 337 96.1797 337 89H335C335 95.0751 330.075 100 324 100V102ZM107 102H324V100H107V102ZM108 101C108 97.134 104.866 94 101 94V96C103.761 96 106 98.2386 106 101H108ZM101 94C97.134 94 94 97.134 94 101H96C96 98.2386 98.2386 96 101 96V94ZM13 102H95V100H13V102ZM0 89C0 96.1797 5.8203 102 13 102V100C6.92487 100 2 95.0751 2 89H0ZM0 13V89H2V13H0ZM13 0C5.8203 0 0 5.8203 0 13H2C2 6.92487 6.92487 2 13 2V0ZM96 0H13V2H96V0ZM102 6C99.2386 6 97 3.76142 97 1H95C95 4.86599 98.134 8 102 8V6Z" fill="#E6E9ED"/>
</svg>
