<?xml version="1.0" standalone="no"?>
<!DOCTYPE svg PUBLIC "-//W3C//DTD SVG 20010904//EN"
 "http://www.w3.org/TR/2001/REC-SVG-20010904/DTD/svg10.dtd">
<svg version="1.0" xmlns="http://www.w3.org/2000/svg"
 width="553.000000pt" height="360.000000pt" viewBox="0 0 553.000000 360.000000"
 preserveAspectRatio="xMidYMid meet">

<g transform="translate(0.000000,360.000000) scale(0.100000,-0.100000)"
fill="#000000" stroke="none">
<path d="M5205 3591 c-3 -5 -2 -12 3 -15 5 -3 9 1 9 9 0 17 -3 19 -12 6z"/>
<path d="M5236 3592 c-2 -4 -2 -23 -1 -42 1 -19 -3 -38 -9 -42 -6 -5 -7 -8 -1
-8 6 0 17 5 25 10 12 8 13 12 2 19 -11 6 -10 10 3 15 10 3 15 12 11 21 -3 8
-1 17 3 20 5 3 8 -13 6 -34 l-3 -39 39 3 c21 2 41 0 44 -5 2 -4 -7 -7 -22 -6
-15 1 -28 -5 -30 -14 -4 -12 -3 -12 5 -1 7 9 12 10 16 2 4 -6 11 -9 16 -6 5 3
12 0 16 -6 4 -8 3 -9 -4 -5 -16 9 -15 -7 0 -22 9 -9 6 -10 -13 -7 -22 4 -40
21 -54 49 -3 8 -7 8 -11 -1 -3 -7 -11 -10 -19 -7 -7 3 -16 1 -19 -4 -3 -5 8
-8 24 -6 17 2 30 -1 30 -6 0 -6 -6 -11 -12 -11 -7 -1 -19 -2 -27 -3 -8 0 -15
-9 -17 -19 -1 -9 2 -15 7 -11 5 3 6 10 3 16 -4 6 -1 8 7 6 8 -3 13 -11 11 -17
-1 -7 2 -10 8 -6 6 3 8 11 5 16 -4 5 4 8 16 6 13 -2 25 -10 27 -18 10 -29 56
-74 76 -74 36 -1 42 -12 41 -68 -2 -45 1 -55 18 -63 31 -14 32 -31 2 -31 -18
0 -25 4 -21 13 3 7 -9 27 -26 45 l-32 31 25 19 c20 15 22 20 11 31 -11 11 -16
9 -32 -12 -16 -21 -21 -23 -32 -12 -11 11 -10 16 6 28 11 8 16 14 10 15 -5 0
-17 2 -27 4 -9 2 -15 -1 -11 -6 7 -12 -9 -12 -22 1 -7 7 -17 5 -30 -4 -19 -14
-19 -14 1 -13 14 1 20 -4 20 -18 0 -13 7 -20 19 -20 11 0 21 -6 24 -14 3 -10
0 -12 -11 -8 -25 10 -28 -5 -6 -29 23 -25 42 -24 32 1 -3 8 0 15 5 15 17 0 25
-21 14 -32 -6 -6 -8 -17 -4 -26 4 -11 1 -14 -11 -9 -9 3 -19 3 -21 -2 -3 -4 8
-7 23 -7 19 0 28 5 27 15 -1 20 26 21 32 2 3 -9 0 -11 -9 -6 -11 6 -12 5 -1
-6 15 -16 16 -33 0 -23 -6 4 -8 3 -5 -3 4 -6 27 -10 52 -8 25 1 45 -1 45 -6 0
-9 -7 -11 -39 -13 -8 -1 -15 -10 -17 -20 -2 -14 0 -16 9 -7 14 14 30 14 21 -1
-4 -7 -3 -8 5 -4 6 4 8 12 5 18 -4 6 -1 8 7 6 8 -3 13 -11 11 -17 -1 -7 2 -10
8 -6 14 9 13 -8 -2 -25 -11 -12 -10 -12 4 -1 17 13 19 43 5 57 -9 10 -9 26 1
20 4 -2 9 97 10 220 l3 225 -146 -2 c-80 0 -147 -4 -149 -7z m24 -32 c0 -5 -4
-10 -10 -10 -5 0 -10 5 -10 10 0 6 5 10 10 10 6 0 10 -4 10 -10z m78 -219 c15
13 16 12 3 -4 -12 -16 -12 -20 3 -35 16 -16 18 -16 37 7 11 13 22 21 26 18 3
-4 -5 -16 -18 -27 -24 -20 -24 -20 -4 -38 11 -9 27 -26 35 -37 14 -19 14 -19
-2 -6 -15 11 -21 11 -35 0 -16 -13 -17 -12 -4 4 12 16 12 20 -1 34 -18 17 -42
8 -34 -13 7 -19 2 -18 -19 6 -15 17 -16 20 -3 15 9 -4 19 -1 23 5 9 15 -15 42
-32 36 -8 -3 -11 -1 -8 5 4 5 1 18 -7 27 -12 15 -11 16 5 3 14 -11 20 -11 35
0z m177 -171 c-5 -8 -10 -8 -20 0 -10 8 -14 7 -18 -2 -4 -10 -8 -10 -16 2 -7
10 -11 11 -11 3 0 -17 -17 -16 -23 1 -4 9 2 12 21 10 14 -1 33 1 42 6 18 10
35 -3 25 -20z"/>
<path d="M5205 3541 c-3 -5 -2 -12 3 -15 5 -3 9 1 9 9 0 17 -3 19 -12 6z"/>
<path d="M5310 3471 c0 -5 7 -11 14 -14 10 -4 13 -1 9 9 -6 15 -23 19 -23 5z"/>
<path d="M5160 3346 c0 -2 8 -10 18 -17 15 -13 16 -12 3 4 -13 16 -21 21 -21
13z"/>
<path d="M5368 3336 c-19 -14 -23 -26 -10 -26 4 0 13 9 20 20 14 23 13 24 -10
6z"/>
<path d="M5406 3295 c-11 -8 -18 -16 -15 -18 2 -1 11 -8 20 -15 13 -10 15 -7
15 18 0 17 0 30 0 30 -1 0 -10 -7 -20 -15z"/>
<path d="M5305 3230 c10 -11 20 -20 23 -20 3 0 -3 9 -13 20 -10 11 -20 20 -23
20 -3 0 3 -9 13 -20z"/>
<path d="M5295 3210 c10 -11 20 -20 23 -20 3 0 -3 9 -13 20 -10 11 -20 20 -23
20 -3 0 3 -9 13 -20z"/>
<path d="M5336 3162 c-3 -5 1 -9 9 -9 8 0 12 4 9 9 -3 4 -7 8 -9 8 -2 0 -6 -4
-9 -8z"/>
<path d="M5320 3106 c0 -2 8 -10 18 -17 15 -13 16 -12 3 4 -13 16 -21 21 -21
13z"/>
<path d="M5413 3055 c0 -8 4 -12 9 -9 5 3 6 10 3 15 -9 13 -12 11 -12 -6z"/>
<path d="M5515 3061 c-3 -5 -2 -12 3 -15 5 -3 9 1 9 9 0 17 -3 19 -12 6z"/>
<path d="M143 2065 c0 -8 4 -12 9 -9 5 3 6 10 3 15 -9 13 -12 11 -12 -6z"/>
<path d="M73 1995 c0 -8 4 -12 9 -9 5 3 6 10 3 15 -9 13 -12 11 -12 -6z"/>
<path d="M72 1955 c-15 -17 -30 -24 -45 -21 -19 3 -22 0 -22 -29 0 -18 4 -37
9 -42 5 -5 6 -3 2 5 -9 15 40 66 49 52 3 -4 -1 -11 -7 -13 -10 -4 -10 -6 0 -6
7 -1 15 6 18 14 4 8 10 12 15 9 5 -3 6 1 3 9 -3 10 1 14 12 14 9 -1 18 6 19
16 2 9 -1 15 -6 11 -5 -3 -6 -10 -3 -16 4 -6 1 -8 -7 -6 -8 3 -13 11 -11 17 3
17 -2 14 -26 -14z m-38 -34 c3 -5 -1 -11 -9 -14 -9 -4 -12 -1 -8 9 6 16 10 17
17 5z"/>
<path d="M143 1955 c0 -8 4 -12 9 -9 5 3 6 10 3 15 -9 13 -12 11 -12 -6z"/>
<path d="M220 1946 c0 -2 8 -10 18 -17 15 -13 16 -12 3 4 -13 16 -21 21 -21
13z"/>
<path d="M375 1941 c-3 -5 -2 -12 3 -15 5 -3 9 1 9 9 0 17 -3 19 -12 6z"/>
<path d="M177 1923 c6 -16 5 -17 -13 -3 -18 14 -18 14 -5 -2 15 -20 15 -20
-41 -21 -16 -1 -24 -5 -20 -12 4 -7 1 -7 -9 0 -8 6 -21 10 -29 9 -8 -1 -21 -2
-28 -3 -7 0 -12 -9 -10 -18 2 -10 -3 -17 -9 -15 -10 1 -13 -189 -13 -928 l0
-930 2765 0 2766 0 -2 216 c-1 119 -5 211 -9 205 -4 -8 -34 -11 -86 -9 -72 3
-79 5 -77 23 1 19 1 19 -11 3 -16 -22 -30 -23 -22 -2 3 9 2 12 -5 9 -6 -4 -8
-13 -5 -20 3 -10 -8 -12 -47 -10 -29 1 -61 -3 -72 -10 -11 -7 -31 -11 -45 -9
-14 1 -29 3 -33 3 -5 1 -5 6 -2 11 4 6 10 8 14 6 4 -3 8 1 8 9 0 12 -4 12 -20
-2 -10 -10 -21 -17 -23 -15 -2 1 -3 -1 -1 -5 1 -5 6 -7 10 -5 5 1 6 -1 3 -6
-3 -5 7 -8 22 -6 15 1 35 -5 45 -14 18 -16 19 -16 16 3 -4 17 2 20 41 20 25 0
50 4 56 7 6 4 11 1 11 -6 0 -7 -7 -13 -15 -12 -8 0 -17 -5 -19 -12 -3 -7 1
-10 10 -6 8 3 17 2 20 -3 3 -5 -39 -8 -94 -8 -82 0 -98 -2 -96 -15 3 -19 -33
-20 -56 0 -10 8 -30 15 -45 16 -42 2 -43 3 -38 30 4 21 2 24 -9 14 -8 -6 -12
-17 -9 -24 4 -9 -16 -12 -80 -11 -47 1 -83 -1 -81 -5 3 -4 -3 -14 -12 -21 -15
-12 -16 -12 -9 6 6 18 5 17 -14 -3 -12 -13 -19 -26 -15 -30 3 -3 10 0 15 8 7
10 10 11 10 3 0 -20 -4 -28 -13 -25 -4 1 -16 -2 -26 -7 -12 -7 -22 -6 -29 1
-6 6 -16 7 -23 2 -28 -17 -45 -11 -44 17 0 15 4 27 10 26 9 -2 10 15 2 50 -6
26 -16 24 -11 -2 2 -14 1 -24 -4 -21 -5 3 -8 -6 -6 -19 1 -14 -2 -27 -7 -31
-5 -3 -6 -10 -3 -16 4 -6 2 -8 -3 -5 -6 4 -9 20 -7 36 2 17 0 32 -5 35 -4 3
-7 -6 -5 -19 1 -14 -2 -27 -7 -31 -5 -3 -6 -10 -3 -16 4 -6 2 -8 -3 -5 -6 4
-9 20 -7 36 2 17 0 32 -5 35 -4 3 -7 -6 -5 -19 3 -28 -5 -31 -25 -12 -11 9
-12 9 -7 0 4 -7 9 -23 11 -35 4 -16 2 -19 -7 -10 -19 19 -23 15 -24 -24 -1
-24 2 -34 11 -31 6 3 12 0 12 -7 0 -7 -9 -12 -20 -11 -21 2 -32 41 -15 51 4 3
8 10 8 15 0 6 -5 7 -12 3 -7 -5 -8 -3 -3 6 5 8 3 11 -6 8 -8 -3 -14 -12 -14
-21 0 -8 -3 -18 -7 -22 -3 -3 -4 11 -2 32 11 100 11 114 3 118 -4 3 -6 -4 -4
-15 5 -25 -4 -50 -17 -50 -6 0 -7 7 -4 16 3 9 2 12 -5 9 -6 -4 -8 -13 -5 -20
2 -7 -1 -18 -7 -24 -8 -8 -8 -11 1 -11 7 0 12 5 12 10 0 6 5 10 11 10 8 0 8
-4 2 -12 -6 -7 -9 -27 -8 -45 1 -18 -2 -30 -6 -27 -4 2 -6 15 -4 29 1 16 -2
24 -9 22 -6 -2 -11 -11 -11 -20 0 -25 -19 -15 -20 10 0 26 -19 48 -42 48 -9 0
-18 6 -21 14 -3 9 0 11 8 6 9 -5 11 -4 6 4 -9 15 -29 3 -23 -13 4 -9 -7 -13
-33 -13 -27 0 -37 4 -36 16 1 10 -9 16 -31 17 -18 0 -30 -2 -28 -6 3 -4 16 -6
30 -4 16 1 25 -2 22 -9 -6 -18 -39 -14 -67 8 -14 11 -19 13 -12 5 23 -27 12
-34 -15 -9 l-28 24 24 -27 c24 -28 17 -40 -8 -15 -11 10 -11 8 -2 -10 6 -12 8
-23 4 -25 -15 -7 -108 -2 -105 5 1 4 2 13 2 20 0 8 4 7 10 -3 8 -12 11 -13 19
-1 7 11 9 11 14 0 4 -12 7 -11 16 1 7 10 11 11 11 3 0 -7 5 -13 12 -13 9 0 9
3 0 12 -14 14 -80 19 -88 7 -3 -5 -10 -9 -16 -9 -6 0 -1 11 13 26 15 16 18 23
7 19 -9 -4 -19 -2 -22 3 -3 5 -19 8 -36 6 -28 -3 -35 4 -31 29 2 12 -6 8 -20
-10 -12 -14 -12 -16 0 -9 9 6 12 4 9 -5 -7 -21 -63 -18 -63 3 0 9 -4 20 -9 25
-5 4 -6 3 -2 -4 9 -17 -6 -17 -24 -1 -8 7 -4 1 9 -14 24 -28 17 -39 -8 -15 -9
8 -12 8 -7 0 3 -6 0 -18 -8 -26 -8 -8 -13 -17 -11 -19 2 -2 -13 -4 -35 -3 -22
1 -40 -3 -40 -7 0 -7 14 -12 31 -10 3 1 6 -6 6 -13 0 -11 -4 -12 -13 -4 -7 6
-18 8 -24 4 -6 -4 -10 -3 -9 2 4 24 -2 35 -18 28 -15 -5 -14 -3 2 13 13 13 22
15 27 8 4 -6 10 -7 15 -3 4 5 1 12 -6 16 -7 5 -10 14 -7 20 13 20 23 12 21
-17 -1 -16 3 -29 9 -29 7 0 11 16 11 34 -1 24 -10 42 -30 61 l-29 27 24 -27
c23 -28 16 -40 -9 -16 -10 11 -12 10 -9 -1 2 -7 -3 -16 -11 -19 -9 -3 -11 0
-6 8 6 9 4 11 -5 5 -10 -6 -9 -11 5 -21 22 -16 15 -26 -20 -29 -27 -3 -40 8
-29 26 5 8 10 6 16 -5 5 -9 14 -16 20 -16 6 0 4 8 -5 18 -10 10 -16 21 -15 23
2 2 1 3 -1 2 -2 -2 -11 3 -20 10 -14 10 -14 10 -3 -4 10 -13 9 -19 -3 -29 -8
-7 -12 -17 -8 -23 3 -6 1 -7 -5 -3 -16 10 -15 -6 0 -25 7 -7 -7 5 -32 29 -57
52 -77 56 -27 4 l38 -38 -30 0 c-17 0 -28 3 -25 7 2 5 12 5 22 2 15 -6 15 -5
3 11 -8 9 -20 15 -27 12 -15 -6 -38 19 -30 32 3 6 -1 16 -10 23 -14 11 -15 10
-12 -7 2 -16 -3 -19 -32 -20 -49 -1 -55 5 -29 32 12 13 17 24 11 24 -7 0 -12
5 -12 11 0 8 5 8 15 -1 10 -8 15 -9 15 -2 0 6 7 9 15 6 8 -4 15 -10 15 -15 0
-4 -6 -6 -14 -3 -8 3 -19 -3 -25 -14 -12 -22 -5 -33 15 -25 12 4 12 8 2 21
-11 13 -11 14 1 7 9 -5 18 -2 27 9 8 11 14 13 19 7 3 -6 1 -11 -6 -11 -8 0 -8
-4 1 -15 11 -13 15 -13 22 -3 6 11 10 11 16 0 7 -10 11 -10 22 3 10 12 10 15
-1 16 -8 1 -20 2 -28 3 -8 0 -16 7 -19 15 -3 8 0 11 7 7 17 -11 13 0 -6 15
-11 10 -14 10 -9 2 9 -17 -6 -17 -23 -1 -11 10 -13 10 -7 1 10 -18 -4 -16 -28
5 -20 16 -20 16 -7 0 22 -29 0 -20 -38 15 -23 20 -28 23 -15 7 23 -28 26 -61
6 -68 -9 -3 -11 4 -8 22 3 14 1 28 -4 31 -5 3 -7 -4 -5 -15 3 -14 0 -20 -8
-17 -7 3 -11 10 -9 16 1 7 -2 9 -9 6 -7 -5 -3 -15 12 -31 28 -30 14 -32 -17
-3 -12 12 -20 27 -18 34 5 13 -43 54 -61 51 -5 0 -10 13 -10 29 -1 17 -5 28
-10 25 -6 -3 -8 -9 -7 -15 12 -32 12 -56 1 -49 -8 5 -9 3 -4 -6 5 -8 3 -11 -6
-8 -8 3 -14 12 -14 21 0 8 -4 19 -8 24 -5 4 -8 3 -7 -2 5 -24 -2 -32 -25 -32
-18 0 -25 4 -23 16 2 10 -3 15 -12 14 -10 -2 -16 5 -16 17 0 23 6 25 26 7 8
-6 4 0 -9 16 -14 15 -25 27 -26 27 -2 0 -1 -13 1 -30 4 -32 -11 -49 -29 -30
-9 9 -8 14 5 24 17 12 16 14 -5 32 -12 10 -16 12 -9 4 17 -20 15 -26 -9 -27
-13 -1 -19 3 -16 11 3 8 -11 29 -31 47 -20 19 -32 27 -26 19 18 -29 11 -55
-16 -55 -27 0 -35 -25 -11 -33 8 -3 11 0 8 5 -10 16 32 8 53 -10 13 -11 20
-12 23 -4 2 7 8 8 13 4 5 -4 2 -12 -5 -16 -9 -6 -10 -11 -2 -15 6 -4 15 -5 20
-2 5 3 8 -2 7 -12 -1 -13 7 -17 33 -17 29 0 35 -4 36 -23 1 -13 -2 -25 -7 -28
-5 -3 -8 -2 -7 3 3 19 -2 33 -11 33 -6 0 -10 -8 -8 -17 2 -12 -4 -17 -22 -17
-18 0 -24 5 -22 17 3 18 -13 24 -21 7 -3 -6 -4 -5 -3 2 2 7 -4 22 -13 33 -16
20 -16 20 5 2 31 -26 41 -21 14 8 -18 19 -27 22 -42 14 -10 -5 -18 -6 -17 -2
3 19 -2 33 -12 33 -6 0 -9 -7 -6 -15 4 -8 1 -17 -5 -21 -6 -4 -8 -3 -5 3 8 13
-17 36 -28 25 -5 -4 -5 -1 -1 6 8 13 -10 17 -18 4 -17 -28 -122 40 -110 71 3
10 11 17 17 17 7 0 7 -4 -1 -12 -14 -14 -16 -28 -4 -28 5 0 15 11 22 25 7 13
17 22 22 19 4 -3 6 -9 3 -14 -3 -4 6 -7 19 -6 14 2 30 -1 38 -6 8 -6 -5 -7
-35 -4 -40 4 -47 3 -38 -8 14 -16 66 -15 82 1 10 10 16 10 29 -2 15 -14 17
-13 15 4 -2 25 -24 52 -37 45 -5 -3 -24 7 -41 22 l-32 29 28 -31 c24 -27 26
-32 12 -38 -9 -3 -14 -2 -11 3 7 10 -48 64 -57 55 -3 -3 -3 -12 -1 -19 3 -7 0
-16 -6 -20 -17 -11 -48 23 -45 49 3 20 -1 23 -26 20 -16 -2 -29 1 -29 6 0 9
15 14 33 11 5 -1 6 3 2 9 -4 6 -16 5 -35 -5 -19 -10 -31 -11 -35 -4 -5 6 -12
4 -19 -7 -8 -10 -18 -14 -25 -10 -22 14 -5 31 30 31 29 0 33 4 33 25 0 19 -5
24 -24 24 -18 0 -24 -5 -22 -17 4 -24 -5 -21 -35 11 -14 15 -19 18 -12 8 26
-35 12 -115 -15 -88 -9 9 -87 11 -81 3 2 -5 -2 -16 -9 -26 -10 -14 -15 -15
-21 -5 -6 9 -4 11 5 5 8 -5 11 -3 8 6 -3 8 -13 14 -24 14 -12 0 -19 7 -19 19
0 11 -6 21 -14 24 -9 3 -11 0 -6 -9 6 -11 5 -12 -6 -2 -16 16 -33 17 -23 1 4
-7 3 -8 -5 -4 -7 5 -9 12 -3 19 14 18 11 46 -5 40 -11 -4 -17 6 -15 28 1 3 -9
5 -21 4 -13 -1 -21 -8 -20 -16 2 -9 -5 -15 -17 -15 -12 0 -19 6 -17 16 1 8 -4
14 -12 12 -7 -1 -20 3 -29 10 -12 10 -14 10 -8 1 9 -17 -6 -17 -24 0 -8 6 -4
0 9 -15 14 -16 20 -28 14 -28 -6 0 -16 7 -23 15 -6 8 -15 14 -18 13 -4 0 -9 1
-12 2 -15 6 -48 5 -44 -1 2 -4 -2 -9 -8 -12 -7 -2 -9 -8 -5 -13 4 -5 12 -2 17
6 5 8 12 11 17 7 4 -5 3 -11 -3 -15 -5 -4 -9 -17 -8 -29 1 -12 -2 -20 -7 -17
-4 2 -6 11 -2 19 3 8 0 15 -6 15 -10 0 -15 -14 -12 -33 1 -5 -3 -6 -8 -2 -6 3
-7 13 -4 22 5 12 2 15 -9 11 -9 -4 -21 -1 -27 5 -8 8 -14 8 -22 0 -6 -6 -18
-9 -26 -6 -10 4 -13 0 -11 -12 2 -12 -4 -19 -18 -20 -16 -1 -21 4 -20 19 1 12
-3 24 -8 28 -6 4 -7 10 -3 15 5 4 12 1 17 -7 5 -8 13 -11 17 -6 4 5 2 11 -5
13 -6 3 -10 8 -7 12 5 9 -39 6 -54 -4 -6 -3 -11 -11 -11 -17 0 -7 6 -6 15 2 8
7 15 9 16 4 0 -5 2 -19 3 -32 2 -13 -1 -25 -5 -27 -4 -3 -6 6 -4 20 2 24 -8
34 -19 17 -6 -10 -42 -9 -52 1 -10 10 -26 9 -20 -1 13 -21 -35 -7 -55 16 -23
26 -23 26 -1 8 12 -11 22 -15 22 -9 0 16 -33 39 -59 41 -23 1 -23 1 -5 -21
l19 -22 -22 18 c-12 11 -20 24 -17 31 6 15 34 17 52 3 23 -18 12 -2 -18 26
-17 16 -27 22 -24 14 7 -18 -21 -34 -53 -31 -26 1 -29 -6 -11 -24 16 -16 31
-15 22 1 -5 8 -2 8 9 -2 23 -18 22 -18 -15 -17 -18 1 -31 4 -28 7 3 3 -1 13
-9 22 -11 14 -11 17 0 18 8 1 17 1 22 0 4 0 7 4 7 10 0 5 5 7 10 4 6 -3 10 -1
10 5 0 6 4 9 8 6 5 -3 8 5 7 16 -1 18 -8 22 -46 24 -24 1 -51 3 -59 5 -9 3
-14 -2 -11 -11 2 -8 4 -20 4 -27 0 -7 5 -9 10 -6 7 4 8 -1 3 -12 -7 -18 -6
-18 14 0 11 10 18 25 16 32 -4 9 2 11 17 9 12 -3 25 -5 30 -5 4 -1 7 -6 7 -12
0 -6 -6 -9 -14 -6 -15 6 -59 -34 -54 -49 2 -5 -1 -10 -7 -11 -5 -2 -10 3 -10
10 -1 6 -6 11 -12 10 -5 -1 -9 8 -8 20 1 12 -7 31 -18 42 -20 20 -20 20 -8 -2
8 -16 8 -24 -1 -29 -6 -4 -8 -3 -5 3 4 6 0 16 -8 23 -7 6 -11 19 -8 28 4 13 3
14 -5 3 -8 -11 -11 -11 -18 0 -5 8 -9 25 -9 39 -1 19 -6 24 -25 24 -21 0 -25
-4 -24 -26 1 -16 -3 -25 -10 -22 -7 3 -11 22 -10 44 1 22 -2 37 -7 34 -4 -2
-6 -11 -2 -19 3 -11 1 -13 -10 -9 -28 10 -25 -11 5 -46 17 -19 27 -29 23 -22
-6 11 -3 12 13 3 11 -6 27 -8 35 -5 8 3 18 1 22 -5 7 -12 7 -12 -48 -15 -21
-1 -43 4 -49 11 -6 7 -7 13 -2 13 5 0 -20 29 -56 65 -35 35 -67 62 -72 59 -5
-3 -16 0 -25 8 -12 9 -15 9 -9 1 4 -7 3 -13 -1 -13 -5 0 -15 6 -23 13 -12 10
-12 9 -1 -6 12 -15 11 -17 -10 -13 -13 3 -26 5 -29 5 -3 1 2 6 10 11 10 6 11
10 3 10 -7 0 -13 5 -13 11 0 5 6 7 13 3 6 -4 -1 7 -17 24 -17 18 -32 32 -35
32 -2 0 5 -10 16 -22 20 -23 21 -48 1 -48 -6 0 -8 6 -5 14 3 8 -1 13 -11 12
-10 0 -16 6 -16 16 1 10 -1 17 -5 16 -20 -2 -23 4 -7 15 16 12 15 14 -11 37
l-28 25 24 -27 c31 -35 13 -37 -19 -3 -26 28 -54 19 -30 -10 10 -12 10 -15 0
-15 -10 0 -10 -3 0 -15 10 -12 10 -15 -1 -15 -10 0 -10 -3 -3 -8 13 -8 12 -58
-2 -54 -5 1 -9 7 -9 12 0 6 -4 10 -10 11 -19 1 -34 21 -28 36 5 12 2 15 -10
10 -8 -3 -21 1 -27 9 -7 8 -9 14 -5 14 4 0 2 6 -5 14 -6 8 -17 13 -25 10 -7
-3 -16 0 -20 6 -5 8 -11 5 -21 -7 -13 -17 -14 -17 -7 1 5 15 3 18 -9 13 -15
-5 -55 27 -58 48 -1 6 -6 9 -12 7 -5 -1 -7 2 -4 7 3 5 -1 15 -10 22 -13 11
-15 10 -12 -6 6 -33 -38 -25 -74 14 -25 27 -26 30 -5 11 32 -28 78 -40 57 -15
-7 8 -16 13 -20 10 -9 -6 -37 26 -30 34 3 3 -7 6 -22 6 -15 1 -30 4 -34 8 -18
18 -25 5 -8 -15 17 -21 16 -21 -9 1 -15 14 -27 26 -27 27 0 1 19 1 41 -1 32
-3 39 -1 30 8 -7 7 -24 12 -39 12 -15 1 -25 5 -22 10 2 6 11 8 20 7 8 -2 0 12
-19 32 -19 20 -36 45 -38 56 -3 23 12 27 21 5 3 -8 0 -15 -6 -15 -6 0 -3 -9 7
-20 22 -24 34 -18 14 7 -12 15 -12 16 1 8 12 -6 13 -5 3 6 -21 22 -15 34 7 14
13 -12 17 -21 10 -25 -7 -5 -6 -11 5 -20 11 -9 15 -9 15 -1 0 7 5 9 11 5 8 -4
7 -9 -2 -15 -10 -6 -11 -9 -1 -9 6 0 12 -5 12 -12 0 -6 -7 -4 -18 5 -26 23
-39 21 -18 -2 12 -13 28 -19 46 -16 20 2 27 0 24 -9 -3 -7 2 -19 11 -26 9 -8
15 -8 15 -2 0 6 -5 14 -10 17 -6 4 -8 10 -6 14 3 4 -15 27 -39 51 -46 45 -56
64 -31 54 8 -3 17 -1 20 4 8 13 -40 55 -64 57 -19 2 -18 -1 7 -27 15 -15 22
-28 16 -28 -5 0 -18 9 -28 20 -10 11 -22 17 -28 13 -6 -4 -7 -1 -3 6 5 7 0 18
-10 26 -18 13 -17 14 12 11 20 -2 31 2 31 10 0 7 -7 10 -15 6 -11 -4 -14 -1
-10 10 4 8 1 15 -7 15 -7 0 -11 -6 -8 -12 2 -7 -2 -15 -10 -18 -9 -3 -30 11
-53 35 -22 22 -32 38 -24 36 9 -2 15 2 15 7 0 6 -4 9 -9 7 -4 -1 -14 2 -21 8
-31 26 -7 -22 30 -60 22 -22 35 -40 29 -40 -17 0 -95 86 -87 95 5 4 3 5 -4 1
-6 -3 -14 -2 -18 4 -3 5 -2 10 3 10 5 0 8 15 7 32 -1 27 -5 32 -26 32 -18 0
-23 -5 -21 -19 3 -16 1 -17 -12 -6 -8 7 -12 19 -10 26 4 10 -2 13 -23 11 -32
-3 -64 19 -57 39 3 7 0 16 -5 20 -6 3 -9 10 -6 14 2 5 -6 7 -18 7 -29 -3 -57
21 -50 42 4 15 3 15 -6 2 -7 -11 -5 -20 11 -37 11 -12 25 -20 30 -17 10 7 38
-14 38 -28 0 -5 -6 -6 -12 -2 -7 4 0 -7 16 -24 17 -18 25 -32 19 -32 -6 0 -16
6 -23 14 -13 16 -44 10 -34 -6 4 -6 9 -6 14 2 5 9 9 9 14 1 4 -6 2 -11 -4 -11
-6 0 -8 -6 -4 -12 4 -7 -2 -5 -14 6 -16 14 -19 23 -12 36 7 13 0 25 -33 56
-22 21 -35 31 -28 22 7 -9 10 -22 6 -27 -3 -6 0 -8 8 -5 8 3 20 -2 27 -11 15
-18 0 -21 -18 -3 -9 9 -12 9 -12 1 0 -7 9 -15 21 -18 15 -5 17 -10 10 -19 -6
-7 -7 -17 -3 -21 4 -5 2 -5 -5 -1 -7 4 -10 13 -7 20 4 10 -4 13 -30 13 -39 -1
-43 -6 -23 -27 10 -12 9 -12 -6 0 -10 7 -16 19 -13 26 2 6 -6 22 -19 34 -13
12 -21 29 -18 37 4 11 10 10 29 -8 16 -15 20 -25 13 -30 -6 -3 -7 -9 -3 -11 5
-3 16 3 26 13 15 16 15 19 -10 41 -21 18 -23 19 -9 2 25 -31 21 -41 -7 -15
-14 13 -22 29 -20 36 3 7 1 16 -5 20 -7 4 -8 -1 -4 -12z m-124 -48 c4 -8 3
-16 -1 -19 -4 -3 -9 4 -9 15 -2 23 3 25 10 4z m101 -17 c-3 -22 0 -28 13 -26
10 2 17 -5 18 -18 1 -16 -4 -20 -26 -20 -20 0 -25 4 -21 15 4 10 1 13 -10 9
-12 -5 -14 2 -13 30 3 44 1 41 23 39 15 -1 18 -8 16 -29z m-93 -45 c13 -16 12
-17 -3 -4 -10 7 -18 15 -18 17 0 8 8 3 21 -13z m364 -34 c-3 -3 10 -19 27 -35
17 -16 27 -22 23 -14 -15 25 -12 46 5 46 16 0 20 -32 6 -54 -3 -5 24 -37 59
-72 36 -36 65 -58 65 -51 0 10 6 9 21 -5 12 -11 16 -20 9 -22 -8 -3 -7 -8 1
-18 8 -10 14 -11 19 -4 5 8 11 6 19 -3 9 -12 8 -15 -6 -13 -21 1 -27 -41 -9
-64 10 -13 9 -13 -7 -1 -10 8 -16 20 -13 26 2 7 -13 30 -35 51 -37 36 -56 39
-23 3 12 -14 13 -18 2 -25 -7 -4 -10 -3 -5 1 9 11 -73 96 -85 89 -5 -3 -31 15
-58 40 -27 25 -45 46 -40 46 6 0 10 5 10 11 0 6 -6 9 -14 6 -8 -3 -20 1 -27 9
-17 21 -19 53 -3 47 6 -2 15 0 18 6 4 5 15 9 26 8 10 -1 17 -4 15 -8z m-120
-39 c10 -11 16 -20 13 -20 -3 0 -13 9 -23 20 -10 11 -16 20 -13 20 3 0 13 -9
23 -20z m26 3 c13 -16 12 -17 -3 -4 -10 7 -18 15 -18 17 0 8 8 3 21 -13z m40
-40 c13 -16 12 -17 -3 -4 -10 7 -18 15 -18 17 0 8 8 3 21 -13z m-100 -10 c13
-16 12 -17 -3 -4 -10 7 -18 15 -18 17 0 8 8 3 21 -13z m163 -52 c21 -22 25
-31 14 -37 -7 -4 -10 -3 -5 1 4 5 -5 21 -20 37 -15 15 -24 28 -22 28 3 0 18
-13 33 -29z m101 -71 c10 -11 16 -20 13 -20 -3 0 -13 9 -23 20 -10 11 -16 20
-13 20 3 0 13 -9 23 -20z m210 -38 c-7 -7 -45 29 -45 41 0 6 11 0 25 -13 14
-13 23 -26 20 -28z m-164 -61 c-6 -10 -7 -22 -3 -26 4 -5 1 -5 -6 -1 -9 5 -9
12 -2 27 6 10 13 19 16 19 2 0 0 -8 -5 -19z m200 -28 c13 -16 12 -17 -3 -4
-10 7 -18 15 -18 17 0 8 8 3 21 -13z m24 -163 c10 -11 16 -20 13 -20 -3 0 -13
9 -23 20 -10 11 -16 20 -13 20 3 0 13 -9 23 -20z m60 -30 c10 -11 16 -20 13
-20 -3 0 -13 9 -23 20 -10 11 -16 20 -13 20 3 0 13 -9 23 -20z m50 -20 c10
-11 16 -20 13 -20 -3 0 -13 9 -23 20 -10 11 -16 20 -13 20 3 0 13 -9 23 -20z
m254 -24 c21 -23 21 -24 4 -42 -17 -17 -17 -18 0 -11 13 5 26 -2 44 -24 14
-16 32 -28 39 -25 8 3 11 0 8 -8 -3 -7 2 -19 11 -26 12 -10 15 -10 15 0 0 10
3 10 14 1 10 -9 15 -9 18 -1 2 6 15 13 30 14 21 2 39 -9 84 -55 32 -33 52 -59
45 -59 -11 0 -11 -3 0 -17 11 -15 10 -15 -8 1 -13 10 -20 22 -18 26 3 4 -2 13
-10 20 -8 7 -15 9 -15 5 0 -4 -6 -2 -14 5 -8 6 -14 17 -12 23 1 7 1 9 -1 5 -8
-15 -24 -8 -21 8 3 19 -32 26 -54 12 -10 -6 -10 -8 0 -8 6 0 12 -5 12 -12 0
-6 -7 -4 -18 5 -26 24 -39 21 -17 -3 11 -13 27 -18 46 -16 20 2 35 -4 50 -20
15 -16 25 -20 30 -13 5 8 8 8 13 0 4 -6 2 -11 -5 -11 -8 0 -6 -6 4 -18 14 -15
15 -19 2 -19 -8 0 -12 3 -10 7 2 4 -11 22 -30 40 -36 35 -48 32 -18 -4 13 -15
9 -13 -10 4 -15 13 -40 24 -55 25 -15 0 -26 5 -25 10 1 6 -6 18 -15 28 -14 16
-17 16 -24 2 -5 -8 -7 -19 -3 -24 3 -5 1 -13 -5 -16 -6 -4 -10 -3 -9 2 3 19
-2 33 -11 33 -6 0 -10 -6 -8 -12 2 -7 -2 -13 -7 -13 -5 0 -9 6 -7 13 2 6 -2
12 -8 12 -10 0 -14 -15 -10 -35 1 -5 -2 -7 -6 -2 -4 4 -8 21 -9 37 -1 24 1 27
12 18 7 -6 16 -8 20 -4 9 9 -30 35 -42 29 -5 -4 -7 -3 -3 2 4 4 3 14 -3 22 -9
10 -8 13 0 13 7 0 9 5 4 13 -4 6 -7 22 -8 34 0 12 -3 25 -7 29 -8 7 -11 24 -5
24 2 0 14 -11 26 -24z m-142 -23 c0 -10 -4 -10 -16 -1 -9 7 -18 13 -20 15 -2
1 5 1 16 0 11 0 20 -7 20 -14z m-1 -35 l29 -33 -32 29 c-31 28 -38 36 -30 36
2 0 16 -15 33 -32z m-39 -8 c-2 -23 -10 -17 -12 10 -1 10 2 17 6 14 4 -2 7
-13 6 -24z m78 0 c10 -11 16 -20 13 -20 -3 0 -13 9 -23 20 -10 11 -16 20 -13
20 3 0 13 -9 23 -20z m-40 -20 c10 -11 16 -20 13 -20 -3 0 -13 9 -23 20 -10
11 -16 20 -13 20 3 0 13 -9 23 -20z m348 -77 c-3 -7 -9 -13 -13 -13 -4 0 -10
6 -13 13 -3 7 3 13 13 13 10 0 16 -6 13 -13z m-259 -24 c-3 -5 -10 -7 -15 -3
-5 3 -7 10 -3 15 3 5 10 7 15 3 5 -3 7 -10 3 -15z m391 0 c11 -17 -1 -21 -15
-4 -8 9 -8 15 -2 15 6 0 14 -5 17 -11z m69 -17 c-5 -44 -23 -44 -28 0 -2 17 2
24 14 24 12 0 16 -7 14 -24z m-353 -19 c13 -16 12 -17 -3 -4 -10 7 -18 15 -18
17 0 8 8 3 21 -13z m138 3 c11 -14 6 -15 -27 -7 -4 1 8 21 12 21 2 0 9 -6 15
-14z m351 -56 c0 -17 -15 -11 -28 11 -12 19 -11 19 8 9 11 -6 20 -15 20 -20z
m-96 -12 c-3 -4 -12 -4 -22 -1 -15 6 -15 5 -3 -10 7 -9 18 -14 25 -10 6 3 8 2
3 -2 -14 -15 -44 -12 -43 4 1 9 -6 15 -16 15 -10 -1 -15 3 -12 8 3 5 12 7 19
4 8 -3 19 2 26 10 9 12 14 12 20 2 4 -6 6 -15 3 -20z m-160 -26 c3 -5 -1 -9
-9 -9 -8 0 -12 4 -9 9 3 4 7 8 9 8 2 0 6 -4 9 -8z m790 -87 c-3 -7 0 -16 7
-21 8 -5 10 -3 4 6 -4 7 -2 16 6 21 10 6 11 9 2 9 -7 0 -13 5 -13 12 0 6 8 4
19 -6 11 -10 24 -16 28 -13 5 3 15 1 23 -4 13 -8 13 -10 0 -19 -9 -6 -10 -10
-3 -10 23 0 26 24 5 38 -27 18 -28 28 -3 28 10 0 18 -7 17 -15 -1 -10 8 -15
24 -15 17 0 25 5 24 17 -2 22 -2 22 31 -9 25 -23 27 -27 12 -36 -10 -5 -15
-13 -13 -17 4 -7 -30 -7 -44 0 -3 1 -18 2 -35 3 -24 1 -29 5 -27 20 3 17 2 18
-12 7 -9 -7 -14 -16 -12 -20 3 -4 -9 -6 -27 -6 -29 1 -31 3 -32 38 0 32 1 36
12 22 6 -9 9 -23 7 -30z m-462 1 c-2 -9 2 -16 8 -16 9 0 14 14 11 33 -1 5 3 6
9 2 7 -4 7 -12 0 -24 -5 -10 -7 -20 -5 -23 3 -3 -5 -4 -18 -3 -15 1 -21 7 -19
20 3 12 -1 16 -12 12 -8 -3 -18 -2 -20 2 -8 12 1 18 26 16 15 -1 22 -8 20 -19z
m954 -6 c0 -9 -7 -16 -16 -16 -9 0 -16 7 -16 16 0 9 7 16 16 16 9 0 16 -7 16
-16z m24 -61 c8 -3 24 -7 39 -8 7 0 11 -7 8 -15 -3 -8 3 -22 13 -31 17 -15 17
-18 2 -35 -17 -21 -34 -17 -25 5 3 8 1 15 -3 16 -5 0 -19 2 -31 5 -13 2 -23
-1 -23 -6 0 -9 15 -14 33 -11 5 1 6 -3 3 -7 -7 -12 28 -44 39 -35 4 5 5 2 1
-5 -6 -11 -14 -8 -35 12 -18 17 -35 24 -54 22 -15 -2 -30 1 -33 6 -3 4 -2 8 3
7 19 -3 33 2 33 11 0 6 -8 10 -17 8 -12 -2 -18 3 -17 15 1 11 -4 16 -15 15 -9
-2 -16 4 -16 12 0 8 7 14 17 12 9 -1 19 2 23 8 5 8 36 8 55 -1z m155 -78 c-3
-2 -11 1 -17 7 -9 9 -15 9 -27 -1 -14 -10 -14 -10 -3 5 8 9 10 23 6 30 -4 7 5
2 19 -11 15 -14 25 -27 22 -30z m75 -6 c11 -13 9 -15 -8 -12 -12 2 -25 7 -29
12 -5 4 -2 5 5 1 6 -4 12 -2 12 3 0 15 5 14 20 -4z m75 -65 c2 -25 2 -25 -20
0 -18 20 -18 21 1 15 18 -6 18 -6 2 8 -10 8 -18 18 -18 23 0 17 34 -26 35 -46z
m-395 34 c0 -8 -19 -13 -24 -6 -3 5 1 9 9 9 8 0 15 -2 15 -3z m105 -14 c10
-11 16 -20 13 -20 -3 0 -13 9 -23 20 -10 11 -16 20 -13 20 3 0 13 -9 23 -20z
m42 -35 c0 -8 -4 -12 -9 -9 -5 3 -6 10 -3 15 9 13 12 11 12 -6z m124 -42 c13
-16 12 -17 -3 -4 -17 13 -22 21 -14 21 2 0 10 -8 17 -17z m222 -10 c-7 -17
-23 -17 -23 0 0 9 -3 8 -9 -2 -5 -8 -11 -9 -15 -3 -7 11 6 18 34 18 10 0 16
-6 13 -13z m173 -48 c-2 -7 6 -23 19 -35 25 -23 32 -69 8 -49 -7 6 -18 7 -24
3 -8 -4 -9 -3 -5 5 4 6 2 18 -4 26 -18 21 -35 19 -19 -2 11 -15 11 -16 -1 -6
-11 10 -17 10 -29 0 -9 -7 -8 -1 4 13 11 14 21 27 22 29 2 3 10 -4 18 -15 8
-10 15 -14 15 -7 0 6 -5 15 -10 18 -6 4 -8 10 -5 15 7 12 -18 29 -39 26 -10
-1 -22 -9 -27 -17 -8 -12 -10 -12 -19 1 -5 8 -10 10 -10 5 0 -17 38 -46 43
-32 2 7 7 9 11 6 4 -3 0 -11 -7 -17 -10 -9 -21 -3 -49 27 -26 26 -31 37 -20
36 10 0 23 -4 30 -9 6 -4 22 0 33 8 19 13 24 13 46 -1 13 -9 22 -22 19 -28z
m-21 4 c4 -5 3 -9 -2 -10 -4 0 -18 -2 -30 -3 -12 -1 -19 2 -17 9 6 14 42 17
49 4z m-89 -31 l29 -33 -32 29 c-31 28 -38 36 -30 36 2 0 16 -15 33 -32z m-11
-18 c10 -11 16 -20 13 -20 -3 0 -13 9 -23 20 -10 11 -16 20 -13 20 3 0 13 -9
23 -20z m207 -13 c-12 -13 -19 -27 -15 -30 3 -4 4 -7 0 -7 -17 0 -15 21 5 39
30 28 37 27 10 -2z m-228 -8 c-3 -5 -10 -7 -15 -3 -5 3 -7 10 -3 15 3 5 10 7
15 3 5 -3 7 -10 3 -15z m2161 -29 l1 -28 -23 21 c-21 20 -21 23 -6 34 21 16
27 10 28 -27z m-1905 -16 c0 -8 -19 -13 -24 -6 -3 5 1 9 9 9 8 0 15 -2 15 -3z
m557 -11 c7 -19 -14 -24 -30 -8 -12 11 -17 12 -20 2 -4 -9 -8 -8 -16 3 -8 12
-10 8 -7 -18 2 -18 -1 -35 -6 -38 -4 -3 -8 -2 -7 3 3 19 -2 33 -11 33 -6 0
-10 -7 -8 -16 2 -11 -5 -18 -19 -19 -12 -1 -22 1 -21 4 2 22 -4 32 -17 28 -19
-8 -26 5 -14 23 7 12 9 12 9 1 0 -11 3 -11 15 -1 13 11 14 10 9 -4 -5 -12 -2
-15 10 -10 9 3 16 11 16 16 0 7 5 6 14 -1 10 -9 15 -8 19 2 6 15 79 16 84 0z
m813 -2 c0 -5 -7 -11 -15 -15 -17 -6 -20 -26 -4 -26 5 0 7 5 4 10 -10 17 7 11
20 -7 7 -9 17 -13 23 -9 17 10 15 26 -2 20 -8 -3 -16 -1 -20 4 -3 5 5 7 17 6
12 -1 26 -3 30 -3 5 -1 5 -5 2 -11 -3 -5 -1 -10 5 -10 6 0 10 6 9 13 -3 24 1
37 12 37 7 0 8 -4 2 -12 -5 -7 -8 -22 -8 -34 2 -18 -3 -20 -50 -19 -49 2 -52
1 -49 -22 1 -13 -1 -21 -6 -18 -4 2 -6 16 -5 30 2 14 -1 27 -5 30 -5 3 -2 15
8 25 17 21 32 26 32 11z m30 -1 c0 -5 -4 -10 -10 -10 -5 0 -10 5 -10 10 0 6 5
10 10 10 6 0 10 -4 10 -10z m30 0 c0 -5 -4 -10 -10 -10 -5 0 -10 5 -10 10 0 6
5 10 10 10 6 0 10 -4 10 -10z m84 -22 c-9 -14 -23 2 -17 18 4 12 8 13 14 3 4
-7 5 -17 3 -21z m-1514 6 c0 -8 -19 -13 -24 -6 -3 5 1 9 9 9 8 0 15 -2 15 -3z
m230 0 c0 -8 -19 -13 -24 -6 -3 5 1 9 9 9 8 0 15 -2 15 -3z m311 -13 c5 -30 5
-70 -1 -66 -4 3 -6 15 -5 27 2 13 -4 30 -13 38 -14 13 -15 12 -9 -3 3 -9 1
-19 -5 -23 -6 -4 -8 -3 -4 4 3 6 1 14 -5 18 -8 5 -8 9 2 14 13 8 38 3 40 -9z
m936 -11 c-2 -23 -10 -17 -12 10 -1 10 2 17 6 14 4 -2 7 -13 6 -24z m60 12
c-10 -10 -14 -21 -11 -25 3 -3 -1 -4 -10 -3 -8 1 -19 6 -23 11 -4 4 -3 5 3 2
6 -4 19 2 29 13 10 11 20 20 23 20 3 0 -2 -8 -11 -18z m49 6 c4 -7 4 -10 -1
-6 -11 11 -36 -12 -28 -25 4 -6 1 -7 -6 -3 -9 6 -8 13 5 27 20 22 21 23 30 7z
m144 8 c0 -2 -7 -7 -16 -10 -8 -3 -12 -2 -9 4 6 10 25 14 25 6z m44 -8 c-3 -4
-11 -5 -19 -1 -21 7 -19 12 4 10 11 0 18 -5 15 -9z m70 3 c3 -4 -4 -7 -14 -6
-27 2 -33 10 -10 12 11 1 22 -2 24 -6z m-1104 -11 c0 -5 -4 -10 -9 -10 -5 0
-8 -11 -6 -25 1 -14 -1 -27 -5 -30 -6 -4 -6 32 -1 68 2 11 21 9 21 -3z m25 0
c-3 -5 -1 -10 4 -10 6 0 11 6 11 13 0 8 4 7 11 -3 9 -12 12 -13 16 -1 5 11 7
11 15 0 8 -12 10 -12 15 0 5 11 7 11 15 0 8 -12 10 -12 15 0 5 11 7 11 14 0 8
-12 11 -11 19 1 9 14 10 13 10 -17 0 -4 -12 -8 -28 -8 -15 0 -33 -4 -39 -8 -7
-5 -19 -5 -25 0 -7 4 -25 8 -40 8 -16 0 -28 4 -28 8 0 4 0 12 0 17 0 6 5 10
11 10 5 0 7 -4 4 -10z m980 -9 c3 -5 2 -12 -3 -15 -5 -3 -9 1 -9 9 0 17 3 19
12 6z m-1522 -67 c-4 -12 -8 -13 -14 -3 -9 15 -2 32 11 24 5 -3 6 -13 3 -21z
m217 12 c-7 -7 -13 -7 -20 0 -6 6 -3 10 10 10 13 0 16 -4 10 -10z m215 3 c2
-3 -8 -5 -25 -5 -16 0 -27 3 -25 6 5 8 42 6 50 -1z m185 -3 c-7 -7 -13 -7 -20
0 -6 6 -3 10 10 10 13 0 16 -4 10 -10z m445 5 c3 -5 2 -12 -3 -15 -5 -3 -9 1
-9 9 0 17 3 19 12 6z m-637 -36 c1 -5 -7 -9 -18 -8 -30 1 -32 2 -26 11 7 11
40 9 44 -3z m37 6 c3 -5 2 -12 -3 -15 -5 -3 -9 1 -9 9 0 17 3 19 12 6z m230 0
c3 -5 2 -12 -3 -15 -5 -3 -9 1 -9 9 0 17 3 19 12 6z m60 0 c3 -5 2 -12 -3 -15
-5 -3 -9 1 -9 9 0 17 3 19 12 6z m42 -6 c0 -8 -4 -12 -9 -9 -5 3 -6 10 -3 15
9 13 12 11 12 -6z m110 0 c0 -8 -4 -12 -9 -9 -5 3 -6 10 -3 15 9 13 12 11 12
-6z m30 0 c0 -8 -4 -12 -9 -9 -5 3 -6 10 -3 15 9 13 12 11 12 -6z m60 0 c0 -8
-4 -12 -9 -9 -5 3 -6 10 -3 15 9 13 12 11 12 -6z m38 6 c3 -5 2 -12 -3 -15 -5
-3 -9 1 -9 9 0 17 3 19 12 6z m90 0 c3 -5 2 -12 -3 -15 -5 -3 -9 1 -9 9 0 17
3 19 12 6z"/>
<path d="M120 1870 c0 -5 6 -10 13 -10 9 0 8 -3 -2 -9 -11 -7 -9 -13 8 -30 25
-25 27 -25 34 -7 3 8 -1 13 -11 12 -9 0 -18 6 -18 14 -1 8 -2 21 -3 28 -1 14
-21 17 -21 2z"/>
<path d="M379 1762 c-13 -15 -13 -20 -2 -30 9 -9 13 -10 13 -1 0 8 4 8 15 -1
9 -7 14 -19 11 -25 -6 -16 69 -89 82 -81 5 3 21 -6 35 -20 14 -14 30 -23 35
-20 5 3 22 -8 37 -24 16 -17 34 -30 39 -30 6 0 5 4 -2 9 -7 4 -15 16 -16 26
-1 10 -10 19 -19 21 -9 1 -29 15 -44 31 -15 16 -60 59 -99 96 -66 62 -71 65
-85 49z m187 -170 c-3 -2 -21 14 -41 35 -22 23 -34 31 -31 19 5 -13 -4 -9 -32
15 -21 19 -34 37 -29 40 12 9 -31 52 -43 44 -6 -3 -7 1 -3 10 4 13 25 -3 94
-71 49 -48 87 -90 85 -92z"/>
<path d="M454 1681 c11 -11 23 -21 28 -21 14 0 -1 19 -25 31 -22 12 -22 12 -3
-10z"/>
<path d="M1176 1133 c-5 -13 1 -24 20 -39 14 -12 24 -26 21 -31 -3 -5 3 -9 13
-9 10 0 17 3 14 7 -2 4 1 9 6 11 6 2 -7 20 -28 41 -35 34 -40 36 -46 20z m27
-16 c31 -33 38 -49 9 -23 -18 17 -32 31 -32 33 0 7 12 2 23 -10z"/>
<path d="M2381 803 c-6 -10 -11 -12 -11 -5 0 17 -17 15 -24 -4 -3 -9 -2 -12 5
-9 5 4 16 2 23 -4 16 -13 53 10 42 27 -10 17 -23 15 -35 -5z m29 -2 c0 -5 -7
-11 -14 -14 -10 -4 -13 -1 -9 9 6 15 23 19 23 5z"/>
<path d="M2265 800 c-3 -5 -1 -10 4 -10 6 0 11 5 11 10 0 6 -2 10 -4 10 -3 0
-8 -4 -11 -10z"/>
<path d="M2709 739 c-9 -33 -6 -56 9 -55 9 0 20 6 25 11 4 7 10 6 15 -1 4 -6
13 -4 24 8 10 10 13 20 8 23 -6 4 -10 1 -10 -6 0 -7 -9 -5 -22 7 -19 15 -20
16 -9 2 17 -23 3 -23 -21 -1 -10 9 -19 14 -19 12z m21 -24 c11 -13 10 -14 -4
-9 -9 3 -16 10 -16 15 0 13 6 11 20 -6z"/>
<path d="M2781 687 c2 -1 13 -9 24 -17 19 -14 19 -14 6 3 -7 9 -18 17 -24 17
-6 0 -8 -1 -6 -3z"/>
<path d="M3340 426 c0 -2 8 -10 18 -17 15 -13 16 -12 3 4 -13 16 -21 21 -21
13z"/>
<path d="M5332 401 c-11 -7 -11 -9 0 -14 9 -3 15 1 15 9 0 8 -1 14 -1 14 -1 0
-7 -4 -14 -9z"/>
<path d="M3883 333 c-17 -6 -17 -20 0 -26 8 -3 13 3 13 14 0 11 0 19 -1 18 0
0 -6 -3 -12 -6z"/>
<path d="M4270 296 c7 -7 13 -7 20 0 6 6 3 10 -10 10 -13 0 -16 -4 -10 -10z"/>
<path d="M300 1920 c-6 -11 -9 -20 -8 -21 19 -5 50 -4 54 3 3 5 2 8 -3 7 -23
-4 -35 2 -29 16 8 22 -1 18 -14 -5z"/>
<path d="M170 1876 c0 -2 8 -10 18 -17 15 -13 16 -12 3 4 -13 16 -21 21 -21
13z"/>
<path d="M376 1862 c-3 -5 1 -9 9 -9 8 0 12 4 9 9 -3 4 -7 8 -9 8 -2 0 -6 -4
-9 -8z"/>
<path d="M411 1863 c4 -21 -2 -34 -14 -31 -7 2 -14 -1 -15 -7 -1 -5 8 -9 20
-9 15 0 22 6 23 22 1 13 -2 25 -7 28 -5 3 -8 2 -7 -3z"/>
<path d="M227 1837 c-3 -7 3 -13 13 -13 10 0 16 6 13 13 -3 7 -9 13 -13 13 -4
0 -10 -6 -13 -13z"/>
<path d="M523 1751 c0 -11 5 -18 9 -15 4 3 5 11 1 19 -7 21 -12 19 -10 -4z"/>
<path d="M605 1650 c10 -11 20 -20 23 -20 3 0 -3 9 -13 20 -10 11 -20 20 -23
20 -3 0 3 -9 13 -20z"/>
<path d="M775 1581 c-3 -5 -2 -12 3 -15 5 -3 9 1 9 9 0 17 -3 19 -12 6z"/>
<path d="M770 1545 c0 -1 15 -14 32 -31 27 -23 29 -24 10 -3 -12 14 -20 28
-17 31 3 2 -2 5 -10 5 -8 0 -15 -1 -15 -2z"/>
<path d="M790 1467 c24 -26 38 -47 30 -47 -9 0 -5 -9 10 -25 24 -25 24 -25 2
-22 -12 2 -33 14 -47 27 -14 13 -25 18 -25 12 0 -7 5 -12 11 -12 6 0 8 -7 5
-16 -3 -8 -2 -13 3 -10 8 5 39 -23 34 -31 -2 -1 -1 -3 2 -3 3 0 10 0 16 0 8 0
7 6 -2 18 -13 15 -12 16 3 4 9 -8 14 -20 11 -28 -3 -8 0 -14 7 -14 6 0 8 5 5
10 -3 6 -1 10 6 10 9 0 9 3 0 14 -9 10 -8 15 3 19 11 4 13 1 9 -10 -5 -13 -2
-15 11 -10 11 5 15 3 10 -5 -4 -7 -3 -8 4 -4 6 4 8 14 5 24 -6 15 -5 15 11 2
12 -9 14 -16 6 -18 -7 -3 -5 -11 9 -26 19 -20 21 -24 21 -47 0 -6 7 -8 16 -5
10 4 13 2 8 -6 -4 -7 -3 -8 4 -4 8 5 10 1 5 -9 -4 -11 -8 -13 -13 -5 -4 6 -11
10 -16 9 -5 -1 -16 -1 -24 0 -13 1 -13 2 0 11 8 5 11 12 7 17 -5 4 -12 1 -17
-7 -12 -20 14 -47 43 -45 12 1 27 -2 34 -7 7 -5 16 -7 20 -5 12 8 44 -19 41
-34 -2 -7 6 -13 17 -14 13 0 20 -7 20 -19 0 -12 8 -20 23 -23 17 -2 21 1 15 9
-4 7 -8 24 -9 38 -2 33 -1 32 -23 21 -14 -8 -22 -7 -32 6 -12 15 -12 16 4 10
11 -4 16 -3 12 3 -5 9 6 14 26 12 3 -1 5 9 4 21 -1 16 -8 21 -26 21 -17 0 -23
-5 -21 -18 3 -16 2 -16 -22 0 -14 9 -26 21 -26 26 0 6 5 6 14 -1 10 -9 15 -8
19 3 4 9 1 18 -5 22 -7 4 -8 3 -4 -4 13 -21 -7 -13 -35 14 -15 15 -25 32 -23
39 3 7 1 16 -5 20 -7 4 -8 -1 -4 -12 6 -16 4 -16 -18 2 l-24 20 18 -21 c16
-19 16 -22 2 -28 -9 -3 -14 -2 -11 3 3 4 -11 23 -31 42 -21 19 -31 26 -24 17
7 -10 9 -18 3 -18 -14 0 -35 28 -28 38 7 11 -48 65 -57 55 -4 -3 -19 4 -35 18
-15 13 -7 2 18 -24z m60 -45 c-7 -3 -5 -11 6 -23 20 -23 9 -26 -13 -4 -8 9
-13 19 -9 22 3 4 -1 18 -10 32 l-17 26 27 -25 c15 -14 22 -26 16 -28z m165
-130 c-7 -7 -45 29 -45 41 0 6 11 0 25 -13 14 -13 23 -26 20 -28z m-5 -19 c30
-31 47 -51 38 -44 -9 7 -21 10 -26 7 -6 -3 -16 2 -23 11 -12 15 -12 16 6 9 16
-6 15 -3 -5 16 -16 15 -28 20 -32 13 -4 -5 -8 -8 -9 -5 0 3 -2 15 -5 28 -2 12
-3 22 -1 22 1 0 27 -26 57 -57z m93 -19 c-7 -20 -29 -23 -29 -5 0 9 8 17 17
17 9 0 15 -6 12 -12z m8 -81 c13 -16 12 -17 -3 -4 -10 7 -18 15 -18 17 0 8 8
3 21 -13z"/>
<path d="M870 1445 c13 -14 26 -25 28 -25 3 0 -5 11 -18 25 -13 14 -26 25 -28
25 -3 0 5 -11 18 -25z"/>
<path d="M1000 1346 c0 -2 8 -10 18 -17 15 -13 16 -12 3 4 -13 16 -21 21 -21
13z"/>
<path d="M870 1330 c0 -5 5 -10 10 -10 6 0 10 5 10 10 0 6 -4 10 -10 10 -5 0
-10 -4 -10 -10z"/>
<path d="M896 1324 c-9 -23 8 -39 28 -27 15 8 15 11 -2 27 -18 16 -20 16 -26
0z"/>
<path d="M1175 1271 c-3 -5 -2 -12 3 -15 5 -3 9 1 9 9 0 17 -3 19 -12 6z"/>
<path d="M1245 1190 c21 -22 41 -40 44 -40 3 0 -13 18 -34 40 -21 22 -41 40
-44 40 -3 0 13 -18 34 -40z"/>
<path d="M1265 1211 c-3 -5 -2 -12 3 -15 5 -3 9 1 9 9 0 17 -3 19 -12 6z"/>
<path d="M1340 1151 c-7 -13 -7 -22 0 -26 11 -7 11 -8 14 23 3 27 0 28 -14 3z"/>
<path d="M1376 1132 c-2 -4 4 -8 14 -8 10 0 16 4 14 8 -3 4 -9 8 -14 8 -5 0
-11 -4 -14 -8z"/>
<path d="M1405 1090 c10 -11 20 -20 23 -20 3 0 -3 9 -13 20 -10 11 -20 20 -23
20 -3 0 3 -9 13 -20z"/>
<path d="M1450 1106 c0 -2 8 -10 18 -17 15 -13 16 -12 3 4 -13 16 -21 21 -21
13z"/>
<path d="M1603 1020 c-1 -11 2 -22 6 -24 4 -3 7 4 6 14 -2 27 -10 33 -12 10z"/>
<path d="M1633 1025 c0 -8 4 -12 9 -9 5 3 6 10 3 15 -9 13 -12 11 -12 -6z"/>
<path d="M1663 1025 c0 -8 4 -12 9 -9 5 3 6 10 3 15 -9 13 -12 11 -12 -6z"/>
<path d="M1766 1031 c-4 -5 -2 -12 3 -15 5 -4 12 -2 15 3 4 5 2 12 -3 15 -5 4
-12 2 -15 -3z"/>
<path d="M1700 1027 c0 -2 15 -16 33 -33 l32 -29 -29 33 c-28 30 -36 37 -36
29z"/>
<path d="M1635 991 c-3 -5 -2 -12 3 -15 5 -3 9 1 9 9 0 17 -3 19 -12 6z"/>
<path d="M1700 996 c0 -2 8 -10 18 -17 15 -13 16 -12 3 4 -13 16 -21 21 -21
13z"/>
<path d="M1950 946 c7 -7 13 -7 20 0 6 6 3 10 -10 10 -13 0 -16 -4 -10 -10z"/>
<path d="M1852 903 c12 -12 18 -26 15 -30 -4 -3 3 -17 15 -30 14 -15 17 -23 8
-23 -7 0 -10 -3 -7 -6 4 -4 13 -1 21 5 9 7 21 9 28 5 18 -11 48 -12 42 -2 -7
11 15 38 39 47 17 7 17 8 2 21 -14 11 -16 11 -13 -1 2 -10 -10 -15 -46 -17
-43 -3 -48 -1 -42 15 4 9 4 14 0 10 -4 -4 -16 1 -26 10 -10 9 -28 17 -39 18
-19 2 -19 1 3 -22z m102 -49 c25 3 26 3 9 -14 -16 -15 -19 -15 -29 -2 -6 8
-15 12 -21 9 -6 -4 -19 0 -29 8 -13 10 -15 14 -5 15 11 0 11 4 -2 18 -10 10
-17 23 -17 28 0 5 15 -8 34 -28 25 -27 40 -36 60 -34z"/>
<path d="M1896 918 c3 -5 10 -6 15 -3 13 9 11 12 -6 12 -8 0 -12 -4 -9 -9z"/>
<path d="M1950 916 c7 -7 13 -7 20 0 6 6 3 10 -10 10 -13 0 -16 -4 -10 -10z"/>
<path d="M2296 918 c3 -5 10 -6 15 -3 13 9 11 12 -6 12 -8 0 -12 -4 -9 -9z"/>
<path d="M1935 890 c-2 -3 9 -6 25 -6 17 0 27 2 25 5 -8 7 -45 9 -50 1z"/>
<path d="M2066 889 c3 -5 12 -5 21 -2 11 4 14 2 11 -8 -3 -8 -12 -13 -21 -13
-11 1 -14 -5 -11 -22 3 -16 -1 -27 -11 -30 -19 -8 -19 -20 -1 -27 8 -3 13 1
12 11 0 9 6 17 14 17 8 0 21 4 28 8 6 5 18 5 24 1 7 -5 20 -9 29 -9 21 -2 18
34 -4 47 -21 11 -23 32 -2 25 8 -4 16 -3 19 2 3 4 -22 7 -54 7 -32 0 -57 -3
-54 -7z m78 -24 c19 -19 22 -26 11 -35 -10 -8 -16 -7 -24 7 -11 17 -11 17 -22
0 -8 -14 -14 -15 -24 -7 -11 9 -9 15 8 34 12 13 23 24 24 25 1 1 13 -10 27
-24z"/>
<path d="M2102 858 c-7 -7 -12 -16 -12 -22 0 -5 7 -1 15 10 15 19 15 19 30 0
8 -11 15 -15 15 -10 0 11 -20 34 -30 34 -3 0 -11 -5 -18 -12z"/>
<path d="M2196 892 c-3 -4 4 -9 15 -9 23 -2 25 3 4 10 -8 4 -16 3 -19 -1z"/>
<path d="M2295 890 c5 -8 42 -6 50 1 2 3 -8 5 -25 5 -16 0 -27 -3 -25 -6z"/>
<path d="M2646 858 c3 -5 10 -6 15 -3 13 9 11 12 -6 12 -8 0 -12 -4 -9 -9z"/>
<path d="M2469 826 c-7 -13 -3 -43 6 -40 16 7 38 -22 29 -37 -4 -8 -3 -9 5 -5
6 4 19 2 27 -5 8 -7 14 -8 13 -3 -4 23 2 35 14 27 6 -4 23 -8 37 -8 14 0 32
-5 40 -10 12 -7 13 -6 3 6 -6 8 -10 27 -9 42 2 15 -1 30 -6 33 -4 3 -8 2 -7
-3 3 -19 -2 -33 -12 -33 -6 0 -9 7 -6 15 4 8 2 17 -3 20 -4 3 -7 -5 -6 -18 2
-12 -3 -28 -10 -35 -11 -10 -13 -7 -10 18 2 17 -1 33 -7 37 -6 3 -7 1 -3 -5 8
-13 -6 -17 -17 -5 -6 5 -75 14 -78 9z m85 -27 c11 -12 10 -17 -4 -30 -15 -14
-19 -13 -48 17 l-32 32 36 -2 c19 -2 41 -9 48 -17z m70 -24 c-7 -16 -24 -21
-24 -6 0 8 7 13 27 20 1 1 0 -6 -3 -14z"/>
<path d="M2500 803 c0 -14 34 -35 43 -27 3 3 3 13 0 21 -5 12 -7 12 -14 1 -7
-11 -11 -10 -19 2 -6 9 -10 11 -10 3z"/>
<path d="M2685 760 c-3 -5 -1 -10 4 -10 6 0 11 5 11 10 0 6 -2 10 -4 10 -3 0
-8 -4 -11 -10z"/>
<path d="M2850 766 c0 -2 8 -10 18 -17 15 -13 16 -12 3 4 -13 16 -21 21 -21
13z"/>
<path d="M2835 711 c-3 -5 -2 -12 3 -15 5 -3 9 1 9 9 0 17 -3 19 -12 6z"/>
<path d="M2960 716 c0 -2 8 -10 18 -17 15 -13 16 -12 3 4 -13 16 -21 21 -21
13z"/>
<path d="M2878 598 c27 -30 55 -29 85 1 20 21 20 22 2 14 -23 -12 -74 -11 -95
2 -8 4 -5 -3 8 -17z"/>
<path d="M3150 617 c0 -2 15 -16 33 -33 l32 -29 -29 33 c-28 30 -36 37 -36 29z"/>
<path d="M3225 581 c-3 -5 -2 -12 3 -15 5 -3 9 1 9 9 0 17 -3 19 -12 6z"/>
<path d="M3293 575 c0 -8 4 -12 9 -9 5 3 6 10 3 15 -9 13 -12 11 -12 -6z"/>
<path d="M3323 577 c0 -8 6 -14 14 -14 9 0 10 4 2 14 -6 7 -12 13 -14 13 -1 0
-2 -6 -2 -13z"/>
<path d="M5285 581 c-3 -5 -2 -12 3 -15 5 -3 9 1 9 9 0 17 -3 19 -12 6z"/>
<path d="M5315 581 c-3 -5 -2 -12 3 -15 5 -3 9 1 9 9 0 17 -3 19 -12 6z"/>
<path d="M3026 565 c4 -8 11 -15 16 -15 6 0 5 6 -2 15 -7 8 -14 15 -16 15 -2
0 -1 -7 2 -15z"/>
<path d="M3115 560 c3 -5 8 -10 11 -10 2 0 4 5 4 10 0 6 -5 10 -11 10 -5 0 -7
-4 -4 -10z"/>
<path d="M3300 544 c0 -1 12 -10 28 -20 19 -13 24 -13 15 -2 -7 8 -11 17 -8
19 2 3 -5 5 -15 5 -11 0 -20 -1 -20 -2z"/>
<path d="M5417 544 c-3 -3 -3 -13 0 -21 4 -9 1 -13 -8 -11 -8 2 -15 -1 -16 -7
-1 -5 5 -9 14 -7 8 2 13 -1 9 -6 -3 -5 1 -9 9 -9 8 0 12 4 9 9 -3 4 -1 8 5 8
5 0 12 -4 15 -8 6 -10 32 -8 59 3 14 6 16 10 6 16 -8 4 -19 3 -27 -3 -9 -8
-16 -8 -24 0 -6 6 -17 8 -26 4 -11 -4 -14 -1 -9 11 6 16 -5 31 -16 21z"/>
<path d="M3104 480 c0 -9 7 -16 16 -16 9 0 16 7 16 16 0 9 -7 16 -16 16 -9 0
-16 -7 -16 -16z"/>
<path d="M3550 476 c0 -2 8 -10 18 -17 15 -13 16 -12 3 4 -13 16 -21 21 -21
13z"/>
<path d="M3665 474 c2 -4 0 -14 -5 -24 -6 -12 -5 -17 4 -17 13 0 15 32 3 42
-4 3 -5 2 -2 -1z"/>
<path d="M3726 468 c3 -5 10 -6 15 -3 13 9 11 12 -6 12 -8 0 -12 -4 -9 -9z"/>
<path d="M4055 471 c-3 -5 -2 -12 3 -15 5 -3 9 1 9 9 0 17 -3 19 -12 6z"/>
<path d="M4093 465 c0 -8 4 -12 9 -9 5 3 6 10 3 15 -9 13 -12 11 -12 -6z"/>
<path d="M4889 470 c-1 -3 -2 -17 -3 -32 0 -15 -10 -33 -20 -41 -19 -14 -19
-14 0 -12 30 2 44 14 37 32 -5 13 -2 15 13 10 18 -7 18 -6 2 7 -21 16 -24 30
-5 23 8 -3 14 0 14 7 0 11 -36 17 -38 6z"/>
<path d="M5123 465 c0 -8 4 -12 9 -9 5 3 6 10 3 15 -9 13 -12 11 -12 -6z"/>
<path d="M5153 465 c0 -6 7 -11 16 -10 9 0 16 5 16 10 0 5 -7 10 -16 10 -9 1
-16 -4 -16 -10z"/>
<path d="M3750 445 c0 -2 6 -8 13 -14 10 -8 14 -7 14 2 0 8 -6 14 -14 14 -7 0
-13 -1 -13 -2z"/>
<path d="M3795 441 c-3 -5 -2 -12 3 -15 5 -3 9 1 9 9 0 17 -3 19 -12 6z"/>
<path d="M3825 441 c-3 -5 -2 -12 3 -15 5 -3 9 1 9 9 0 17 -3 19 -12 6z"/>
<path d="M5025 439 c-4 -6 -4 -13 -1 -16 3 -3 1 -12 -5 -20 -6 -7 -8 -13 -4
-13 4 0 2 -7 -5 -15 -7 -9 -8 -15 -2 -15 5 0 12 6 15 14 3 8 15 14 25 13 12 0
18 -6 15 -14 -4 -9 0 -11 13 -6 16 6 17 5 4 -9 -14 -15 -16 -15 -24 3 -8 17
-26 27 -26 13 0 -11 33 -38 49 -39 23 -2 22 43 -2 56 -9 6 -15 15 -11 20 3 5
2 9 -3 8 -23 -4 -35 2 -29 16 6 17 0 20 -9 4z m29 -37 c2 -4 -4 -8 -14 -8 -10
0 -16 4 -14 8 3 4 9 8 14 8 5 0 11 -4 14 -8z"/>
<path d="M5215 440 c5 -8 42 -6 50 1 2 3 -8 5 -25 5 -16 0 -27 -3 -25 -6z"/>
<path d="M3617 426 c-3 -7 -1 -18 4 -23 6 -6 4 -15 -7 -24 -16 -12 -17 -12
-11 3 7 20 -4 30 -21 19 -9 -5 -7 -12 8 -26 20 -18 21 -18 34 1 8 10 11 23 6
28 -5 5 -6 15 -3 22 3 8 3 14 0 14 -3 0 -7 -6 -10 -14z"/>
<path d="M3964 408 l-19 -23 23 19 c12 11 22 21 22 23 0 8 -8 2 -26 -19z"/>
<path d="M4396 411 c-14 -15 -15 -21 -4 -27 7 -4 10 -3 5 1 -4 5 0 17 10 27 9
10 14 18 11 18 -3 0 -13 -9 -22 -19z"/>
<path d="M3991 407 c-8 -10 -7 -14 2 -14 8 0 14 6 14 14 0 7 -1 13 -2 13 -2 0
-8 -6 -14 -13z"/>
<path d="M4154 412 c5 -9 3 -12 -5 -10 -8 1 -16 -1 -19 -6 -6 -11 39 -16 45
-5 3 3 -3 13 -12 20 -13 11 -15 11 -9 1z"/>
<path d="M4229 418 c-7 -23 -4 -35 7 -35 9 0 11 4 4 12 -5 7 -7 15 -3 18 3 4
3 7 0 7 -4 0 -7 -1 -8 -2z"/>
<path d="M4425 410 c-3 -5 -3 -10 2 -10 4 0 1 -5 -7 -11 -12 -8 -12 -10 -1 -7
8 2 15 12 17 21 3 19 -2 22 -11 7z"/>
<path d="M4924 398 l-19 -23 23 19 c12 11 22 21 22 23 0 8 -8 2 -26 -19z"/>
<path d="M4990 410 c-12 -7 -12 -11 -2 -20 6 -5 10 -7 7 -4 -3 4 0 13 6 21 13
15 10 16 -11 3z"/>
<path d="M4023 395 c0 -8 4 -12 9 -9 5 3 6 10 3 15 -9 13 -12 11 -12 -6z"/>
<path d="M4053 395 c0 -8 4 -12 9 -9 5 3 6 10 3 15 -9 13 -12 11 -12 -6z"/>
<path d="M4095 401 c-3 -5 -2 -12 3 -15 5 -3 9 1 9 9 0 17 -3 19 -12 6z"/>
<path d="M4193 395 c0 -8 4 -12 9 -9 5 3 6 10 3 15 -9 13 -12 11 -12 -6z"/>
<path d="M4321 397 c-8 -10 -7 -14 2 -14 8 0 14 6 14 14 0 7 -1 13 -2 13 -2 0
-8 -6 -14 -13z"/>
<path d="M4653 392 c0 -9 4 -22 8 -28 6 -7 1 -20 -11 -34 -15 -18 -17 -25 -8
-31 7 -4 18 -3 25 3 9 7 17 7 26 0 15 -13 31 -4 33 18 1 8 3 20 5 27 2 6 0 10
-6 10 -5 -1 -9 -8 -9 -14 1 -7 -3 -13 -8 -13 -6 0 -7 -8 -3 -17 4 -13 0 -11
-15 5 -12 13 -19 26 -15 30 3 3 11 0 16 -8 9 -13 10 -12 5 2 -3 10 -1 20 4 23
5 3 8 14 7 25 -1 14 -4 16 -14 8 -9 -7 -17 -7 -26 1 -11 8 -14 7 -14 -7z m44
-17 c-2 -5 -10 -10 -17 -10 -7 0 -15 5 -17 10 -2 6 6 11 17 11 11 0 19 -5 17
-11z m-36 -68 c-10 -9 -11 -8 -5 6 3 10 9 15 12 12 3 -3 0 -11 -7 -18z"/>
<path d="M4725 401 c-3 -5 -2 -12 3 -15 5 -3 9 1 9 9 0 17 -3 19 -12 6z"/>
<path d="M4785 400 c-7 -11 -8 -11 23 -14 27 -3 28 0 3 14 -13 7 -22 7 -26 0z"/>
<path d="M4486 392 c-3 -5 1 -9 9 -9 8 0 12 4 9 9 -3 4 -7 8 -9 8 -2 0 -6 -4
-9 -8z"/>
<path d="M3530 381 c0 -5 5 -13 10 -16 6 -3 10 -2 10 4 0 5 -4 13 -10 16 -5 3
-10 2 -10 -4z"/>
<path d="M5201 373 c10 -11 14 -11 20 -1 7 10 9 10 9 1 0 -7 4 -13 9 -13 5 0
11 6 14 13 3 8 -7 12 -29 13 -29 1 -32 -1 -23 -13z"/>
<path d="M3792 375 c4 -4 3 -14 -3 -22 -7 -8 -8 -13 -1 -13 15 0 23 28 9 36
-7 4 -9 4 -5 -1z"/>
<path d="M5110 370 c0 -5 5 -10 10 -10 6 0 10 5 10 10 0 6 -4 10 -10 10 -5 0
-10 -4 -10 -10z"/>
<path d="M5140 370 c0 -5 5 -10 10 -10 6 0 10 5 10 10 0 6 -4 10 -10 10 -5 0
-10 -4 -10 -10z"/>
<path d="M4056 362 c-3 -5 1 -9 9 -9 8 0 12 4 9 9 -3 4 -7 8 -9 8 -2 0 -6 -4
-9 -8z"/>
<path d="M4270 356 c7 -7 13 -7 20 0 6 6 3 10 -10 10 -13 0 -16 -4 -10 -10z"/>
<path d="M4386 358 c3 -5 10 -6 15 -3 13 9 11 12 -6 12 -8 0 -12 -4 -9 -9z"/>
<path d="M4485 360 c-3 -5 -3 -14 0 -20 3 -5 2 -10 -3 -10 -6 0 -12 -6 -15
-12 -3 -9 6 -13 29 -13 33 0 33 0 13 21 -21 22 -26 39 -7 28 7 -4 8 -3 4 4 -9
15 -13 15 -21 2z"/>
<path d="M4390 320 c5 -10 8 -19 7 -21 -1 -2 0 -3 2 -1 11 6 6 39 -5 39 -9 0
-10 -5 -4 -17z"/>
</g>
</svg>
