<svg width="173" height="37" viewBox="0 0 173 37" fill="none" xmlns="http://www.w3.org/2000/svg">
<mask id="mask0_14791_17871" style="mask-type:luminance" maskUnits="userSpaceOnUse" x="0" y="0" width="173" height="37">
<path d="M172.825 18.4142V28.8156C172.825 33.2344 169.243 36.8167 164.824 36.8167H8.00303C3.58416 36.8167 0.00195312 33.2344 0.00195312 28.8156V8.01282C0.00195312 3.59392 3.58416 0.0117188 8.00303 0.0117188H164.824C169.243 0.0117188 172.825 3.59392 172.825 8.01282V18.4142Z" fill="white"/>
</mask>
<g mask="url(#mask0_14791_17871)">
<path fill-rule="evenodd" clip-rule="evenodd" d="M23.3267 19.5266C23.0419 19.5266 22.765 19.541 22.4962 19.569C19.1861 19.9139 17.1595 22.279 17.1595 24.0296C17.1595 24.6745 17.5699 25.0042 18.7213 25.0042H27.9393C29.0915 25.0042 29.5019 24.6745 29.5019 24.0296C29.5019 22.2806 27.4785 19.9187 24.1676 19.5698C23.8906 19.541 23.6124 19.5265 23.3339 19.5266H23.3267ZM23.3267 18.2136C23.0845 18.2128 22.8436 18.1789 22.6106 18.1128C21.364 17.7608 20.4007 16.519 20.4007 14.9868C20.4007 13.1898 21.7649 11.8184 23.3339 11.8184C24.9037 11.8184 26.2679 13.161 26.2679 14.9724C26.2679 16.5182 25.303 17.7616 24.0548 18.1136C23.8228 18.1792 23.5811 18.2136 23.3347 18.2136H23.3267ZM24.8277 14.9724C24.8277 16.1214 24.0084 16.7734 23.3339 16.7734C22.6554 16.7734 21.8409 16.1174 21.8409 14.9868C21.8409 13.9099 22.633 13.2586 23.3339 13.2586C24.0476 13.2586 24.8277 13.8947 24.8277 14.9724ZM27.9401 23.564H18.6933C18.8373 23.1679 19.1557 22.6606 19.7398 22.175C20.5487 21.5005 21.7641 20.9668 23.3259 20.9668C24.8917 20.9668 26.1103 21.5005 26.9192 22.175C27.5033 22.6614 27.8233 23.1679 27.9657 23.564H27.9385H27.9401ZM14.6367 19.5898C14.9704 19.5338 15.32 19.5042 15.6849 19.5042H15.6929C16.0577 19.5042 16.4074 19.5346 16.741 19.5906C17.3156 19.6857 17.8725 19.8675 18.3924 20.1299C18.0027 20.4286 17.6472 20.7693 17.3323 21.146C16.8042 20.9553 16.2464 20.8599 15.6849 20.8644C13.2645 20.8644 11.9188 22.4678 11.7011 23.644H16.1833C16.1685 23.772 16.1611 23.9007 16.1609 24.0296C16.1609 24.3769 16.2313 24.7121 16.397 25.0042H11.6011C10.677 25.0042 10.3105 24.6377 10.3105 23.9704C10.3105 22.1702 11.9468 20.0379 14.6375 19.5898H14.6367ZM14.7848 18.196C15.0672 18.316 15.3712 18.3809 15.6849 18.3825H15.6929C16.0065 18.3825 16.3106 18.3168 16.5938 18.1968C17.5403 17.7968 18.2444 16.7838 18.2444 15.5589C18.2444 13.9747 17.0491 12.8161 15.6921 12.8161C14.3287 12.8161 13.1333 14.0043 13.1333 15.5733C13.1333 16.7862 13.8358 17.7952 14.7848 18.196ZM15.6921 17.0231C16.2041 17.0231 16.8842 16.5054 16.8842 15.5597C16.8842 14.6748 16.2466 14.1771 15.6921 14.1771C15.1424 14.1771 14.4935 14.6916 14.4935 15.5741C14.4935 16.4982 15.1672 17.0223 15.6921 17.0223V17.0231Z" fill="black"/>
</g>
</svg>
