<svg width="24" height="20" viewBox="0 0 24 20" fill="none" xmlns="http://www.w3.org/2000/svg">
<path d="M6.53296 16C3.06001 16 0.244629 13.5376 0.244629 10.5C0.244629 7.46243 3.06001 5 6.53296 5L18.538 5C21.0637 5 23.1113 6.79086 23.1113 9C23.1113 11.2091 21.0637 13 18.538 13L8.81963 13C7.24101 13 5.9613 11.8807 5.9613 10.5C5.9613 9.11929 7.24101 8 8.81963 8L17.3946 8V9.5L8.81963 9.5C8.18818 9.5 7.6763 9.94772 7.6763 10.5C7.6763 11.0523 8.18818 11.5 8.81963 11.5L18.538 11.5C19.296 11.5 20.0231 11.2366 20.5591 10.7678C21.0951 10.2989 21.3963 9.66304 21.3963 9C21.3963 8.33696 21.0951 7.70107 20.5591 7.23223C20.0231 6.76339 19.296 6.5 18.538 6.5L6.53296 6.5C4.00718 6.5 1.95963 8.29086 1.95963 10.5C1.95963 12.7091 4.00718 14.5 6.53296 14.5H17.3946L17.3946 16H6.53296Z" fill="#8A8A8A" fill-opacity="0.6"/>
</svg>
