<svg width="25" height="24" viewBox="0 0 25 24" fill="none" xmlns="http://www.w3.org/2000/svg">
<g id="ic:outline-search">
<path id="Vector" d="M16 14H15.21L14.93 13.73C15.9439 12.554 16.5011 11.0527 16.5 9.5C16.5 8.21442 16.1188 6.95772 15.4046 5.8888C14.6903 4.81988 13.6752 3.98676 12.4874 3.49479C11.2997 3.00282 9.99279 2.87409 8.73192 3.1249C7.47104 3.3757 6.31285 3.99477 5.40381 4.90381C4.49477 5.81285 3.8757 6.97104 3.6249 8.23192C3.37409 9.49279 3.50282 10.7997 3.99479 11.9874C4.48676 13.1752 5.31988 14.1903 6.3888 14.9046C7.45772 15.6188 8.71442 16 10 16C11.61 16 13.09 15.41 14.23 14.43L14.5 14.71V15.5L19.5 20.49L20.99 19L16 14ZM10 14C7.51 14 5.5 11.99 5.5 9.5C5.5 7.01 7.51 5 10 5C12.49 5 14.5 7.01 14.5 9.5C14.5 11.99 12.49 14 10 14Z" fill="black"/>
</g>
</svg>
