<svg width="25" height="24" viewBox="0 0 25 24" fill="none" xmlns="http://www.w3.org/2000/svg">
<g id="mdi:event-busy">
<path id="Vector" d="M19.5 19H5.5V8H19.5M19.5 3H18.5V1H16.5V3H8.5V1H6.5V3H5.5C4.96957 3 4.46086 3.21071 4.08579 3.58579C3.71071 3.96086 3.5 4.46957 3.5 5V19C3.5 19.5304 3.71071 20.0391 4.08579 20.4142C4.46086 20.7893 4.96957 21 5.5 21H19.5C20.0304 21 20.5391 20.7893 20.9142 20.4142C21.2893 20.0391 21.5 19.5304 21.5 19V5C21.5 4.46957 21.2893 3.96086 20.9142 3.58579C20.5391 3.21071 20.0304 3 19.5 3ZM9.81 17L12.25 14.56L14.69 17L15.75 15.94L13.31 13.5L15.75 11.06L14.69 10L12.25 12.44L9.81 10L8.75 11.06L11.19 13.5L8.75 15.94L9.81 17Z" fill="black"/>
</g>
</svg>
