<svg width="20" height="20" viewBox="0 0 20 20" fill="none" xmlns="http://www.w3.org/2000/svg">
<path fill-rule="evenodd" clip-rule="evenodd" d="M15.6075 3.75H12.5C12.155 3.75 11.875 4.03 11.875 4.375C11.875 4.72062 12.155 5 12.5 5H14.1425L11.1438 7.99938L12.0275 8.88313L15.0138 5.89687L15 7.5C15 7.84562 15.28 8.125 15.625 8.125C15.97 8.125 16.25 7.84562 16.25 7.5V4.375C16.25 4.19 16.1731 4.04064 16.0525 3.93814C15.9388 3.82189 15.7819 3.75 15.6075 3.75ZM18.75 17.5C18.75 18.1875 18.19 18.75 17.5 18.75H2.5C1.81 18.75 1.25 18.1875 1.25 17.5V2.5C1.25 1.81 1.81 1.25 2.5 1.25H17.5C18.19 1.25 18.75 1.81 18.75 2.5V17.5ZM17.5 0H2.5C1.11937 0 0 1.11937 0 2.5V17.5C0 18.8813 1.11937 20 2.5 20H17.5C18.8806 20 20 18.8813 20 17.5V2.5C20 1.11937 18.8806 0 17.5 0ZM7.9725 11.1187L4.98625 14.1063L5 12.5C5 12.1562 4.72 11.875 4.375 11.875C4.03 11.875 3.75 12.1562 3.75 12.5V15.625C3.75 15.8125 3.82687 15.9625 3.9475 16.0625C4.06062 16.175 4.21812 16.25 4.3925 16.25H7.5C7.845 16.25 8.125 15.9688 8.125 15.625C8.125 15.2812 7.845 15 7.5 15H5.8575L8.85625 12L7.9725 11.1187ZM15.625 11.875C15.28 11.875 15 12.1562 15 12.5L15.0138 14.1063L12.0275 11.1187L11.1438 12L14.1425 15H12.5C12.155 15 11.875 15.2812 11.875 15.625C11.875 15.9688 12.155 16.25 12.5 16.25H15.6075C15.7819 16.25 15.9394 16.175 16.0525 16.0625C16.1731 15.9625 16.25 15.8125 16.25 15.625V12.5C16.25 12.1562 15.97 11.875 15.625 11.875ZM7.5 5C7.845 5 8.125 4.72062 8.125 4.375C8.125 4.03 7.845 3.75 7.5 3.75H4.3925C4.21812 3.75 4.06125 3.82189 3.9475 3.93814C3.82687 4.04064 3.75 4.19 3.75 4.375V7.5C3.75 7.84562 4.03 8.125 4.375 8.125C4.72 8.125 5 7.84562 5 7.5L4.98625 5.89687L7.9725 8.88313L8.85625 7.99938L5.8575 5H7.5Z" fill="white" fill-opacity="1"/>
</svg>
