<svg width="21" height="20" viewBox="0 0 21 20" fill="none" xmlns="http://www.w3.org/2000/svg">
<g clip-path="url(#clip0_4719_21095)">
<path d="M8.90833 12.9917L10.0833 14.1667L14.25 10L10.0833 5.83333L8.90833 7.00833L11.0583 9.16667H3V10.8333H11.0583L8.90833 12.9917ZM16.3333 2.5H4.66667C3.74167 2.5 3 3.25 3 4.16667V7.5H4.66667V4.16667H16.3333V15.8333H4.66667V12.5H3V15.8333C3 16.75 3.74167 17.5 4.66667 17.5H16.3333C17.25 17.5 18 16.75 18 15.8333V4.16667C18 3.25 17.25 2.5 16.3333 2.5Z" fill="#434343"/>
</g>
<defs>
<clipPath id="clip0_4719_21095">
<rect width="20" height="20" fill="white" transform="translate(0.5)"/>
</clipPath>
</defs>
</svg>
