<svg width="21" height="20" viewBox="0 0 21 20" fill="none" xmlns="http://www.w3.org/2000/svg">
<g clip-path="url(#clip0_4719_21089)">
<path d="M16.6915 10.8167C16.7249 10.5501 16.7499 10.2834 16.7499 10.0001C16.7499 9.71675 16.7249 9.45008 16.6915 9.18342L18.4499 7.80841C18.6082 7.68341 18.6499 7.45841 18.5499 7.27508L16.8832 4.39175C16.8082 4.25841 16.6665 4.18341 16.5165 4.18341C16.4665 4.18341 16.4165 4.19175 16.3749 4.20842L14.2999 5.04175C13.8665 4.70842 13.3999 4.43341 12.8915 4.22508L12.5749 2.01675C12.5499 1.81675 12.3749 1.66675 12.1665 1.66675H8.8332C8.62487 1.66675 8.44987 1.81675 8.42487 2.01675L8.1082 4.22508C7.59987 4.43341 7.1332 4.71675 6.69987 5.04175L4.62487 4.20842C4.57487 4.19175 4.52487 4.18341 4.47487 4.18341C4.3332 4.18341 4.19153 4.25841 4.11653 4.39175L2.44987 7.27508C2.34153 7.45841 2.39153 7.68341 2.54987 7.80841L4.3082 9.18342C4.27487 9.45008 4.24987 9.72508 4.24987 10.0001C4.24987 10.2751 4.27487 10.5501 4.3082 10.8167L2.54987 12.1917C2.39153 12.3167 2.34987 12.5417 2.44987 12.7251L4.11653 15.6084C4.19153 15.7417 4.3332 15.8167 4.4832 15.8167C4.5332 15.8167 4.5832 15.8084 4.62487 15.7917L6.69987 14.9584C7.1332 15.2917 7.59987 15.5667 8.1082 15.7751L8.42487 17.9834C8.44987 18.1834 8.62487 18.3334 8.8332 18.3334H12.1665C12.3749 18.3334 12.5499 18.1834 12.5749 17.9834L12.8915 15.7751C13.3999 15.5667 13.8665 15.2834 14.2999 14.9584L16.3749 15.7917C16.4249 15.8084 16.4749 15.8167 16.5249 15.8167C16.6665 15.8167 16.8082 15.7417 16.8832 15.6084L18.5499 12.7251C18.6499 12.5417 18.6082 12.3167 18.4499 12.1917L16.6915 10.8167ZM15.0415 9.39175C15.0749 9.65008 15.0832 9.82508 15.0832 10.0001C15.0832 10.1751 15.0665 10.3584 15.0415 10.6084L14.9249 11.5501L15.6665 12.1334L16.5665 12.8334L15.9832 13.8417L14.9249 13.4167L14.0582 13.0667L13.3082 13.6334C12.9499 13.9001 12.6082 14.1001 12.2665 14.2417L11.3832 14.6001L11.2499 15.5417L11.0832 16.6667H9.91653L9.7582 15.5417L9.62487 14.6001L8.74153 14.2417C8.3832 14.0917 8.04987 13.9001 7.71653 13.6501L6.9582 13.0667L6.07487 13.4251L5.01653 13.8501L4.4332 12.8417L5.3332 12.1417L6.07487 11.5584L5.9582 10.6167C5.9332 10.3584 5.91653 10.1667 5.91653 10.0001C5.91653 9.83342 5.9332 9.64175 5.9582 9.39175L6.07487 8.45008L5.3332 7.86675L4.4332 7.16675L5.01653 6.15841L6.07487 6.58342L6.94153 6.93341L7.69153 6.36675C8.04987 6.10008 8.39153 5.90008 8.7332 5.75841L9.61653 5.40008L9.74987 4.45841L9.91653 3.33341H11.0749L11.2332 4.45841L11.3665 5.40008L12.2499 5.75841C12.6082 5.90841 12.9415 6.10008 13.2749 6.35008L14.0332 6.93341L14.9165 6.57508L15.9749 6.15008L16.5582 7.15842L15.6665 7.86675L14.9249 8.45008L15.0415 9.39175ZM10.4999 6.66675C8.6582 6.66675 7.16653 8.15841 7.16653 10.0001C7.16653 11.8417 8.6582 13.3334 10.4999 13.3334C12.3415 13.3334 13.8332 11.8417 13.8332 10.0001C13.8332 8.15841 12.3415 6.66675 10.4999 6.66675ZM10.4999 11.6667C9.5832 11.6667 8.8332 10.9167 8.8332 10.0001C8.8332 9.08342 9.5832 8.33342 10.4999 8.33342C11.4165 8.33342 12.1665 9.08342 12.1665 10.0001C12.1665 10.9167 11.4165 11.6667 10.4999 11.6667Z" fill="#434343"/>
</g>
<defs>
<clipPath id="clip0_4719_21089">
<rect width="20" height="20" fill="white" transform="translate(0.5)"/>
</clipPath>
</defs>
</svg>
