<svg width="27" height="28" viewBox="0 0 27 28" fill="none" xmlns="http://www.w3.org/2000/svg">
<g id="Reaction/Angry">
<path id="Vector" opacity="0.2" d="M23.9592 26.4382C23.9592 27.3013 19.2761 28 13.5001 28C7.72405 28 3.04095 27.2995 3.04095 26.4382C3.04095 25.575 7.72405 24.8745 13.5001 24.8745C19.2761 24.8745 23.9592 25.575 23.9592 26.4382Z" fill="url(#paint0_radial_3193_4437)"/>
<g id="Group">
<g id="Group_2">
<path id="Vector_2" d="M13.5 26.4381C6.04404 26.4381 0 20.5199 0 13.2191C0 5.91827 6.04404 0 13.5 0C20.956 0 27 5.91827 27 13.2191C26.9981 20.5199 20.956 26.4381 13.5 26.4381Z" fill="url(#paint1_radial_3193_4437)"/>
<path id="Vector_3" opacity="0.9" d="M23.3136 10.5317C21.8281 11.0547 5.36266 11.1582 3.6846 10.5317C2.53883 10.3672 2.08959 7.83498 3.59022 5.77413C8.28653 -0.724513 18.7117 -0.724513 23.4098 5.77413C24.9086 7.83498 24.4593 10.3672 23.3136 10.5317Z" fill="url(#paint2_linear_3193_4437)"/>
<path id="Vector_4" opacity="0.3" d="M23.3136 15.5978C24.4594 15.7623 24.9086 18.2945 23.408 20.3553C18.7098 26.854 8.28656 26.854 3.58836 20.3553C2.08962 18.2945 2.53698 15.7623 3.68463 15.5978H23.3136Z" fill="url(#paint3_linear_3193_4437)"/>
</g>
<g id="Group_3">
<g id="Group_4">
<g id="Group_5">
<path id="Vector_5" d="M11.3481 11.7386C11.3481 13.4409 9.94 14.012 8.20154 14.012C6.46307 14.012 5.05493 13.4409 5.05493 11.7386C5.05493 10.0363 6.46307 8.65747 8.20154 8.65747C9.94 8.65747 11.3481 10.0363 11.3481 11.7386Z" fill="url(#paint4_linear_3193_4437)"/>
</g>
<g id="Group_6">
<path id="Vector_6" d="M9.9985 11.3358C9.9985 12.308 9.19439 13.0953 8.20152 13.0953C7.20866 13.0953 6.40454 12.308 6.40454 11.3358C6.40454 10.3636 7.20866 9.57617 8.20152 9.57617C9.19439 9.57617 9.9985 10.3636 9.9985 11.3358Z" fill="url(#paint5_radial_3193_4437)"/>
<path id="Vector_7" d="M8.95661 11.3356C8.95661 11.7441 8.61873 12.0731 8.20346 12.0731C7.78631 12.0731 7.45032 11.7423 7.45032 11.3356C7.45032 10.9272 7.78819 10.5982 8.20346 10.5982C8.61873 10.5963 8.95661 10.9272 8.95661 11.3356Z" fill="#1A1A1A"/>
<path id="Vector_8" d="M9.86835 10.417C9.86835 10.8606 9.50216 11.2192 9.04914 11.2192C8.59801 11.2192 8.23181 10.8606 8.23181 10.417C8.23181 9.97529 8.59801 9.61487 9.04914 9.61487C9.50216 9.61672 9.86835 9.97529 9.86835 10.417Z" fill="white"/>
<path id="Vector_9" d="M7.44841 12.4096C7.44841 12.5778 7.14828 12.7127 6.78021 12.7127C6.41024 12.7127 6.112 12.5778 6.112 12.4096C6.112 12.2414 6.41213 12.1064 6.78021 12.1064C7.14828 12.1064 7.44841 12.2414 7.44841 12.4096Z" fill="white"/>
</g>
</g>
<g id="Group_7">
<g id="Group_8">
<path id="Vector_10" d="M21.9433 11.7386C21.9433 13.4409 20.5351 14.012 18.7967 14.012C17.0582 14.012 15.6501 13.4409 15.6501 11.7386C15.6501 10.0363 17.0582 8.65747 18.7967 8.65747C20.5351 8.65747 21.9433 10.0363 21.9433 11.7386Z" fill="url(#paint6_linear_3193_4437)"/>
</g>
<g id="Group_9">
<path id="Vector_11" d="M20.5935 11.3358C20.5935 12.308 19.7894 13.0953 18.7966 13.0953C17.8037 13.0953 16.9996 12.308 16.9996 11.3358C16.9996 10.3636 17.8037 9.57617 18.7966 9.57617C19.7894 9.57617 20.5935 10.3636 20.5935 11.3358Z" fill="url(#paint7_radial_3193_4437)"/>
<path id="Vector_12" d="M19.5516 11.3356C19.5516 11.7441 19.2138 12.0731 18.7985 12.0731C18.3813 12.0731 18.0453 11.7423 18.0453 11.3356C18.0453 10.9272 18.3832 10.5982 18.7985 10.5982C19.2138 10.5963 19.5516 10.9272 19.5516 11.3356Z" fill="#1A1A1A"/>
<path id="Vector_13" d="M20.4614 10.417C20.4614 10.8606 20.0952 11.2192 19.6441 11.2192C19.193 11.2192 18.8249 10.8606 18.8249 10.417C18.8249 9.97529 19.1911 9.61487 19.6441 9.61487C20.0952 9.61672 20.4614 9.97529 20.4614 10.417Z" fill="white"/>
<path id="Vector_14" d="M18.0435 12.4096C18.0435 12.5778 17.7434 12.7127 17.3753 12.7127C17.0053 12.7127 16.7071 12.5778 16.7071 12.4096C16.7071 12.2414 17.0072 12.1064 17.3753 12.1064C17.7434 12.1064 18.0435 12.2414 18.0435 12.4096Z" fill="white"/>
</g>
</g>
</g>
<path id="Vector_15" d="M4.75863 6.65752C4.75863 6.65752 4.78695 6.63534 4.84924 6.59098C4.90964 6.55032 5.00024 6.49487 5.12293 6.43203C5.24563 6.37103 5.39852 6.30449 5.58539 6.25459C5.67788 6.22871 5.77981 6.20099 5.88741 6.18805C5.995 6.16587 6.11203 6.15848 6.23283 6.15293C6.47822 6.13999 6.74437 6.17511 7.02185 6.23795C7.15775 6.27862 7.29554 6.32667 7.43522 6.38027C7.56547 6.44681 7.70515 6.51335 7.83917 6.58913C7.96564 6.67415 8.09588 6.76103 8.22424 6.85344C8.34127 6.95695 8.46019 7.06045 8.5791 7.16581C8.69236 7.2767 8.7924 7.39684 8.90188 7.51513L8.98304 7.60385L9.01891 7.64267L9.05477 7.68518L9.20011 7.85522C9.39454 8.08995 9.59273 8.28957 9.7947 8.48919C9.89663 8.58715 9.99856 8.68511 10.0986 8.78122C10.2005 8.87364 10.2949 8.96975 10.3893 9.06401C10.4818 9.15643 10.5762 9.2433 10.6611 9.33756C10.7517 9.42259 10.8367 9.5113 10.9197 9.59448C11.0896 9.75343 11.25 9.90684 11.4029 10.027C11.5558 10.1582 11.6993 10.2432 11.8352 10.3172C11.8994 10.3412 11.9673 10.3819 12.0258 10.3911C12.0579 10.4003 12.0862 10.4096 12.1164 10.417C12.1466 10.4244 12.1712 10.4225 12.1995 10.4262C12.2561 10.4336 12.3052 10.4318 12.3505 10.4262C12.3977 10.4244 12.4373 10.4151 12.4675 10.404C12.5355 10.3856 12.5713 10.3745 12.5713 10.3745L12.5808 10.3726C12.6091 10.3652 12.6393 10.38 12.6468 10.4077C12.6506 10.4225 12.6487 10.4373 12.6412 10.4484C12.6412 10.4484 12.6204 10.4835 12.5732 10.5482C12.56 10.5648 12.5468 10.5833 12.5317 10.6036C12.5128 10.6203 12.4921 10.6388 12.4694 10.6573C12.4222 10.6979 12.3675 10.746 12.292 10.7755C12.1447 10.8606 11.9428 10.892 11.7125 10.892C11.6049 10.8827 11.4784 10.8735 11.3633 10.8421C11.3029 10.8273 11.2425 10.8125 11.1802 10.7977C11.1198 10.7792 11.0632 10.7552 11.0009 10.733C10.7555 10.6406 10.5195 10.5057 10.2836 10.3504C10.1666 10.271 10.0571 10.1822 9.94194 10.0917C9.83057 9.99925 9.72864 9.89575 9.61916 9.7941C9.521 9.68505 9.41907 9.57414 9.3247 9.45585C9.23032 9.33941 9.14349 9.21372 9.05288 9.09174C8.87923 8.84037 8.69802 8.57975 8.53946 8.33393L8.41488 8.14726L8.38468 8.10105L8.3507 8.05299L8.2903 7.96797C8.20914 7.85707 8.13363 7.73878 8.0468 7.63343C7.9562 7.53177 7.86748 7.43011 7.78065 7.3303C7.6825 7.24158 7.58812 7.15287 7.49185 7.066C7.39181 6.98837 7.28611 6.91998 7.18607 6.8479C7.07847 6.7906 6.97277 6.7333 6.86706 6.6797C6.64999 6.59283 6.43292 6.52444 6.2234 6.50226C6.11958 6.48932 6.01765 6.47823 5.92138 6.48378C5.82323 6.48008 5.73074 6.48933 5.64391 6.50042C5.47025 6.5189 5.31924 6.55586 5.19466 6.58913C4.9455 6.66122 4.81903 6.73145 4.81903 6.73145C4.7945 6.74439 4.76241 6.737 4.74919 6.71297C4.73221 6.70188 4.73787 6.67415 4.75863 6.65752Z" fill="url(#paint8_radial_3193_4437)"/>
<path id="Vector_16" d="M22.1848 6.74266C22.1848 6.74266 22.0583 6.67057 21.8091 6.60034C21.6846 6.56707 21.5354 6.5301 21.3599 6.51162C21.2731 6.50238 21.1806 6.49313 21.0824 6.49498C20.9861 6.48944 20.8842 6.50053 20.7785 6.51347C20.569 6.53564 20.3519 6.60219 20.1348 6.6909C20.0291 6.7445 19.9234 6.8018 19.8158 6.8591C19.7158 6.93303 19.6101 6.99957 19.5101 7.0772C19.4157 7.16407 19.3194 7.25279 19.2213 7.3415C19.1325 7.44131 19.0438 7.54297 18.9551 7.64463C18.8683 7.74998 18.7928 7.86827 18.7116 7.97917L18.6512 8.06419L18.6172 8.11225L18.587 8.15846L18.4624 8.34513C18.3039 8.59096 18.1227 8.85157 17.949 9.10294C17.8584 9.22493 17.7716 9.35061 17.6772 9.46706C17.5828 9.58535 17.4809 9.6944 17.3827 9.8053C17.2733 9.90695 17.1713 10.0123 17.06 10.1029C16.9448 10.1934 16.8335 10.2822 16.7183 10.3616C16.4824 10.5187 16.2464 10.6537 16.001 10.7442C15.9387 10.7664 15.8821 10.7904 15.8217 10.8089C15.7594 10.8237 15.699 10.8385 15.6386 10.8533C15.5254 10.8847 15.397 10.8939 15.2894 10.9032C15.0591 10.9013 14.8572 10.8699 14.7099 10.7867C14.6344 10.7572 14.5778 10.7091 14.5325 10.6685C14.5098 10.6481 14.4891 10.6315 14.4702 10.6149C14.4551 10.5945 14.4419 10.576 14.4287 10.5594C14.3815 10.4929 14.3607 10.4596 14.3607 10.4596C14.3456 10.4337 14.3551 10.4023 14.3796 10.3875C14.3928 10.3801 14.4079 10.3783 14.4211 10.382L14.4306 10.3857C14.4306 10.3857 14.4664 10.3968 14.5344 10.4152C14.5665 10.4263 14.6042 10.4356 14.6514 10.4374C14.6967 10.443 14.7458 10.4467 14.8024 10.4374C14.8307 10.4337 14.8572 10.4356 14.8855 10.4282C14.9138 10.4208 14.944 10.4115 14.9761 10.4023C15.0346 10.3931 15.1026 10.3524 15.1667 10.3284C15.3007 10.2526 15.4461 10.1694 15.599 10.0382C15.7538 9.91989 15.9123 9.76648 16.0822 9.60568C16.1653 9.5225 16.2502 9.43379 16.3408 9.34877C16.4257 9.2545 16.5201 9.16763 16.6126 9.07522C16.707 8.9828 16.8014 8.88484 16.9033 8.79242C17.0033 8.69631 17.1053 8.59836 17.2072 8.5004C17.4092 8.29893 17.6074 8.09931 17.8018 7.86642L17.9471 7.69638L17.983 7.65387L18.0189 7.61506L18.1 7.52634C18.2095 7.40989 18.3096 7.28791 18.4228 7.17701C18.5417 7.07166 18.6606 6.9663 18.7777 6.86464C18.906 6.77223 19.0363 6.68536 19.1627 6.60034C19.2968 6.52271 19.4346 6.45802 19.5667 6.39148C19.7064 6.33788 19.8442 6.28797 19.9801 6.24916C20.2575 6.18447 20.5237 6.1512 20.7691 6.16414C20.8918 6.16783 21.0069 6.17707 21.1145 6.19925C21.224 6.21404 21.324 6.23992 21.4165 6.26579C21.6034 6.3157 21.7563 6.38408 21.879 6.44323C22.0017 6.50607 22.0923 6.56152 22.1527 6.60218C22.215 6.64469 22.2433 6.66872 22.2433 6.66872L22.2452 6.67057C22.2678 6.68906 22.2697 6.72047 22.2527 6.74081C22.2338 6.75005 22.2074 6.75375 22.1848 6.74266Z" fill="url(#paint9_radial_3193_4437)"/>
<path id="Vector_17" d="M20.7559 19.5162C20.2293 20.6751 18.8231 21.1945 17.5678 20.8895C14.8988 20.2297 12.1014 20.2297 9.43232 20.8895C8.17519 21.1926 6.77083 20.6751 6.24419 19.5162C5.71567 18.3647 6.60095 16.8602 8.28656 16.4443C11.7087 15.5978 15.2914 15.5978 18.7136 16.4443C20.3992 16.8602 21.2845 18.3629 20.7559 19.5162Z" fill="#42210B"/>
</g>
</g>
<defs>
<radialGradient id="paint0_radial_3193_4437" cx="0" cy="0" r="1" gradientUnits="userSpaceOnUse" gradientTransform="translate(13.4999 26.4393) scale(10.3358 1.63739)">
<stop stop-color="#000100"/>
<stop offset="1" stop-color="#000100" stop-opacity="0"/>
</radialGradient>
<radialGradient id="paint1_radial_3193_4437" cx="0" cy="0" r="1" gradientUnits="userSpaceOnUse" gradientTransform="translate(13.6822 6.78867) rotate(90) scale(19.6495 20.0671)">
<stop stop-color="#FF3840"/>
<stop offset="0.2273" stop-color="#E53138"/>
<stop offset="0.7091" stop-color="#A41F25"/>
<stop offset="1" stop-color="#7A1418"/>
</radialGradient>
<linearGradient id="paint2_linear_3193_4437" x1="13.4997" y1="0.977239" x2="13.4997" y2="9.90082" gradientUnits="userSpaceOnUse">
<stop stop-color="white"/>
<stop offset="1" stop-color="white" stop-opacity="0"/>
</linearGradient>
<linearGradient id="paint3_linear_3193_4437" x1="13.4999" y1="25.1552" x2="13.4999" y2="17.0699" gradientUnits="userSpaceOnUse">
<stop stop-color="white"/>
<stop offset="1" stop-color="white" stop-opacity="0"/>
</linearGradient>
<linearGradient id="paint4_linear_3193_4437" x1="8.20252" y1="8.60455" x2="8.20252" y2="13.9589" gradientUnits="userSpaceOnUse">
<stop stop-color="white"/>
<stop offset="0.5942" stop-color="#FDFDFD"/>
<stop offset="0.808" stop-color="#F6F6F6"/>
<stop offset="0.9601" stop-color="#EBEBEB"/>
<stop offset="1" stop-color="#E6E6E6"/>
</linearGradient>
<radialGradient id="paint5_radial_3193_4437" cx="0" cy="0" r="1" gradientUnits="userSpaceOnUse" gradientTransform="translate(8.20247 11.3351) scale(1.79689 1.75949)">
<stop stop-color="#FF3840"/>
<stop offset="0.1872" stop-color="#FB373F"/>
<stop offset="0.3595" stop-color="#F0343C"/>
<stop offset="0.5259" stop-color="#DE2F36"/>
<stop offset="0.6887" stop-color="#C3282E"/>
<stop offset="0.8473" stop-color="#A21F24"/>
<stop offset="1" stop-color="#7A1418"/>
</radialGradient>
<linearGradient id="paint6_linear_3193_4437" x1="18.7971" y1="8.60455" x2="18.7971" y2="13.9589" gradientUnits="userSpaceOnUse">
<stop stop-color="white"/>
<stop offset="0.5942" stop-color="#FDFDFD"/>
<stop offset="0.808" stop-color="#F6F6F6"/>
<stop offset="0.9601" stop-color="#EBEBEB"/>
<stop offset="1" stop-color="#E6E6E6"/>
</linearGradient>
<radialGradient id="paint7_radial_3193_4437" cx="0" cy="0" r="1" gradientUnits="userSpaceOnUse" gradientTransform="translate(18.797 11.3351) scale(1.79691 1.75951)">
<stop stop-color="#FF3840"/>
<stop offset="0.1872" stop-color="#FB373F"/>
<stop offset="0.3595" stop-color="#F0343C"/>
<stop offset="0.5259" stop-color="#DE2F36"/>
<stop offset="0.6887" stop-color="#C3282E"/>
<stop offset="0.8473" stop-color="#A21F24"/>
<stop offset="1" stop-color="#7A1418"/>
</radialGradient>
<radialGradient id="paint8_radial_3193_4437" cx="0" cy="0" r="1" gradientUnits="userSpaceOnUse" gradientTransform="translate(8.69185 8.48289) scale(3.67328 3.59684)">
<stop stop-color="#ED1C24"/>
<stop offset="0.6112" stop-color="#D42229"/>
<stop offset="1" stop-color="#C1272D"/>
</radialGradient>
<radialGradient id="paint9_radial_3193_4437" cx="0" cy="0" r="1" gradientUnits="userSpaceOnUse" gradientTransform="translate(18.3079 8.483) scale(3.66897 3.59263)">
<stop stop-color="#ED1C24"/>
<stop offset="0.6112" stop-color="#D42229"/>
<stop offset="1" stop-color="#C1272D"/>
</radialGradient>
</defs>
</svg>
