<svg width="27" height="28" viewBox="0 0 27 28" fill="none" xmlns="http://www.w3.org/2000/svg">
<g id="Reaction/Sad">
<path id="Vector" opacity="0.2" d="M23.9591 26.4382C23.9591 27.3013 19.276 28 13.5 28C7.72399 28 3.04089 27.2995 3.04089 26.4382C3.04089 25.575 7.72399 24.8745 13.5 24.8745C19.276 24.8745 23.9591 25.575 23.9591 26.4382Z" fill="url(#paint0_radial_3193_4464)"/>
<g id="Group">
<g id="Group_2">
<path id="Vector_2" d="M13.5 26.4382C6.04404 26.4382 0 20.5199 0 13.2191C0 5.91828 6.04404 0 13.5 0C20.956 0 27 5.91828 27 13.2191C26.9981 20.5199 20.956 26.4382 13.5 26.4382Z" fill="url(#paint1_radial_3193_4464)"/>
<path id="Vector_3" opacity="0.9" d="M23.3136 10.5335C21.8281 11.0566 5.36266 11.1601 3.6846 10.5335C2.53883 10.369 2.08959 7.83683 3.59022 5.77597C8.28653 -0.722686 18.7116 -0.722686 23.4098 5.77597C24.9086 7.83683 24.4593 10.369 23.3136 10.5335Z" fill="url(#paint2_linear_3193_4464)"/>
<path id="Vector_4" opacity="0.3" d="M23.3135 15.5979C24.4593 15.7624 24.9086 18.2946 23.4079 20.3554C18.7097 26.8541 8.28649 26.8541 3.5883 20.3554C2.08956 18.2946 2.53692 15.7624 3.68457 15.5979H23.3135Z" fill="url(#paint3_linear_3193_4464)"/>
</g>
<g id="Group_3">
<path id="Vector_5" d="M26.4847 14.8215C26.4847 16.3796 24.7576 17.6439 22.6284 17.6439C20.4973 17.6439 18.772 16.3796 18.772 14.8215C18.772 13.2615 20.4992 11.9991 22.6284 11.9991C24.7576 11.9991 26.4847 13.2634 26.4847 14.8215Z" fill="url(#paint4_radial_3193_4464)"/>
<path id="Vector_6" d="M8.22798 14.8216C8.22798 16.3798 6.50084 17.644 4.37165 17.644C2.24057 17.644 0.513428 16.3798 0.513428 14.8216C0.513428 13.2617 2.24057 11.9993 4.37165 11.9993C6.50273 11.9993 8.22798 13.2635 8.22798 14.8216Z" fill="url(#paint5_radial_3193_4464)"/>
</g>
<g id="Group_4">
<path id="Vector_7" d="M11.2255 10.8977C11.2255 12.5999 9.81731 13.1711 8.07885 13.1711C6.34039 13.1711 4.93225 12.5999 4.93225 10.8977C4.93225 9.19536 6.34039 7.81653 8.07885 7.81653C9.81731 7.81653 11.2255 9.19721 11.2255 10.8977Z" fill="url(#paint6_linear_3193_4464)"/>
<path id="Vector_8" d="M22.0677 10.8977C22.0677 12.5999 20.6596 13.1711 18.9211 13.1711C17.1827 13.1711 15.7745 12.5999 15.7745 10.8977C15.7745 9.19536 17.1827 7.81653 18.9211 7.81653C20.6596 7.81653 22.0677 9.19721 22.0677 10.8977Z" fill="url(#paint7_linear_3193_4464)"/>
<path id="Vector_9" d="M4.93225 10.8977C4.93225 10.8977 4.92847 10.8588 4.92092 10.7886C4.91903 10.7165 4.89261 10.6149 4.90393 10.4781C4.90582 10.4097 4.90959 10.3321 4.91148 10.2508C4.92092 10.1694 4.93602 10.0807 4.95112 9.9846C4.96811 9.89033 4.99831 9.79237 5.02663 9.68517C5.05494 9.57982 5.1059 9.47631 5.14932 9.36357C5.20217 9.25637 5.2588 9.14177 5.32486 9.02902C5.39659 8.91997 5.47021 8.80353 5.5627 8.69818C5.73636 8.47638 5.95909 8.27122 6.2158 8.09378C6.47251 7.91634 6.76698 7.77032 7.08409 7.66867C7.24454 7.62615 7.40687 7.57995 7.57486 7.55962C7.65792 7.54668 7.74097 7.53189 7.82591 7.53004L7.95238 7.52265L8.01656 7.51895L8.04864 7.51711L8.06375 7.51526H8.0713H8.07507H8.09395C8.38086 7.5208 8.76593 7.56701 9.07361 7.66867C9.39072 7.77217 9.68518 7.91634 9.9419 8.09563C10.1986 8.27492 10.4232 8.47823 10.595 8.70003C10.6894 8.80538 10.7611 8.92182 10.8328 9.03087C10.8989 9.14362 10.9555 9.25822 11.0084 9.36542C11.0518 9.47816 11.1009 9.58167 11.1311 9.68702C11.1575 9.79422 11.1896 9.89033 11.2047 9.98645C11.2198 10.0826 11.2349 10.1694 11.2443 10.2508C11.2481 10.3339 11.25 10.4079 11.2519 10.4762C11.2632 10.6112 11.2368 10.7184 11.2349 10.7905C11.2273 10.8607 11.2236 10.8995 11.2236 10.8995C11.2236 10.8995 11.216 10.8625 11.2009 10.7923C11.1839 10.7221 11.1726 10.6186 11.1311 10.4947C11.1122 10.4319 11.0914 10.3635 11.0688 10.2877C11.0386 10.2156 11.0103 10.1362 10.9782 10.053C10.9064 9.88849 10.8102 9.7129 10.695 9.52991C10.5705 9.35248 10.427 9.1695 10.2496 9.0013C10.0778 8.82756 9.8645 8.68154 9.64365 8.54292C9.41903 8.40614 9.16043 8.31373 8.89995 8.2324C8.62436 8.16217 8.39407 8.13075 8.06186 8.1215C8.09206 8.1215 8.06941 8.1215 8.07507 8.1215H8.0713H8.06375H8.05053L8.02411 8.12335L7.97126 8.1252L7.86744 8.1289C7.7976 8.1289 7.72964 8.13999 7.6598 8.14923C7.52012 8.16217 7.38799 8.19913 7.25397 8.23055C6.99349 8.31188 6.73489 8.40429 6.51026 8.54107C6.28942 8.67969 6.07423 8.82571 5.90435 8.99945C5.72692 9.16765 5.58347 9.35063 5.45888 9.52807C5.34374 9.71105 5.24748 9.88664 5.17575 10.0511C5.14366 10.1343 5.11534 10.2138 5.08514 10.2859C5.06249 10.3598 5.04173 10.4282 5.02474 10.491C4.98321 10.6149 4.97189 10.7221 4.9549 10.7923C4.9398 10.8607 4.93225 10.8977 4.93225 10.8977Z" fill="#603813"/>
<path id="Vector_10" d="M15.7745 10.8977C15.7745 10.8977 15.7708 10.8588 15.7632 10.7886C15.7613 10.7165 15.7349 10.6149 15.7462 10.4781C15.7481 10.4097 15.7519 10.3321 15.7538 10.2508C15.7632 10.1694 15.7783 10.0807 15.7934 9.9846C15.8104 9.89033 15.8406 9.79237 15.8689 9.68517C15.8972 9.57982 15.9482 9.47631 15.9916 9.36357C16.0445 9.25637 16.1011 9.14177 16.1671 9.02902C16.2389 8.91997 16.3125 8.80353 16.405 8.69818C16.5786 8.47638 16.8014 8.27122 17.0581 8.09378C17.3148 7.91634 17.6093 7.77032 17.9264 7.66867C18.0868 7.62615 18.2492 7.57995 18.4171 7.55962C18.5002 7.54668 18.5833 7.53189 18.6682 7.53004L18.7947 7.52265L18.8588 7.51895L18.8909 7.51711L18.906 7.51526H18.9136H18.9174H18.9362C19.2231 7.5208 19.6082 7.56701 19.9159 7.66867C20.233 7.77217 20.5275 7.91634 20.7842 8.09563C21.0409 8.27492 21.2655 8.47823 21.4373 8.70003C21.5317 8.80538 21.6034 8.92182 21.6751 9.03087C21.7412 9.14362 21.7978 9.25822 21.8507 9.36542C21.8941 9.47816 21.9432 9.58167 21.9734 9.68702C21.9998 9.79422 22.0319 9.89033 22.047 9.98645C22.0621 10.0826 22.0772 10.1694 22.0866 10.2508C22.0904 10.3339 22.0923 10.4079 22.0942 10.4762C22.1055 10.6112 22.0791 10.7184 22.0772 10.7905C22.0696 10.8607 22.0658 10.8995 22.0658 10.8995C22.0658 10.8995 22.0583 10.8625 22.0432 10.7923C22.0262 10.7221 22.0149 10.6186 21.9734 10.4947C21.9545 10.4319 21.9337 10.3635 21.9111 10.2877C21.8809 10.2156 21.8526 10.1362 21.8205 10.053C21.7487 9.88849 21.6525 9.7129 21.5373 9.52991C21.4127 9.35248 21.2693 9.1695 21.0919 9.0013C20.9201 8.82756 20.7068 8.68154 20.4859 8.54292C20.2613 8.40614 20.0027 8.31373 19.7422 8.2324C19.4666 8.16217 19.2364 8.13075 18.9041 8.1215C18.9343 8.1215 18.9117 8.1215 18.9174 8.1215H18.9136H18.906H18.8928L18.8664 8.12335L18.8135 8.1252L18.7097 8.1289C18.6399 8.1289 18.5719 8.13999 18.5021 8.14923C18.3624 8.16217 18.2303 8.19913 18.0963 8.23055C17.8358 8.31188 17.5772 8.40429 17.3525 8.54107C17.1317 8.67969 16.9165 8.82571 16.7447 8.99945C16.5673 9.16765 16.4239 9.35063 16.2993 9.52807C16.1841 9.71105 16.0879 9.88664 16.0161 10.0511C15.9841 10.1343 15.9557 10.2138 15.9255 10.2859C15.9029 10.3598 15.8821 10.4282 15.8651 10.491C15.8236 10.6149 15.8123 10.7221 15.7953 10.7923C15.7821 10.8607 15.7745 10.8977 15.7745 10.8977Z" fill="#603813"/>
</g>
<g id="Group_5">
<path id="Vector_11" d="M9.87582 10.4947C9.87582 11.4669 9.07171 12.2543 8.07884 12.2543C7.08597 12.2543 6.28186 11.4669 6.28186 10.4947C6.28186 9.52248 7.08597 8.73511 8.07884 8.73511C9.07171 8.73511 9.87582 9.52248 9.87582 10.4947Z" fill="url(#paint8_radial_3193_4464)"/>
<path id="Vector_12" d="M8.83198 10.4948C8.83198 10.9033 8.4941 11.2323 8.07883 11.2323C7.66167 11.2323 7.32568 10.9014 7.32568 10.4948C7.32568 10.0863 7.66356 9.75733 8.07883 9.75733C8.4941 9.75548 8.83198 10.0863 8.83198 10.4948Z" fill="#1A1A1A"/>
<path id="Vector_13" d="M9.74372 9.57609C9.74372 10.0197 9.37753 10.3783 8.9264 10.3783C8.47526 10.3783 8.10907 10.0197 8.10907 9.57609C8.10907 9.1325 8.47526 8.77393 8.9264 8.77393C9.37753 8.77577 9.74372 9.13435 9.74372 9.57609Z" fill="white"/>
<path id="Vector_14" d="M7.32573 11.5686C7.32573 11.7368 7.0256 11.8717 6.65752 11.8717C6.28755 11.8717 5.98932 11.7368 5.98932 11.5686C5.98932 11.4004 6.28944 11.2655 6.65752 11.2655C7.0256 11.2655 7.32573 11.4004 7.32573 11.5686Z" fill="white"/>
</g>
<g id="Group_6">
<path id="Vector_15" d="M18.9174 12.2543C19.9098 12.2543 20.7144 11.4665 20.7144 10.4947C20.7144 9.5229 19.9098 8.73511 18.9174 8.73511C17.925 8.73511 17.1204 9.5229 17.1204 10.4947C17.1204 11.4665 17.925 12.2543 18.9174 12.2543Z" fill="url(#paint9_radial_3193_4464)"/>
<path id="Vector_16" d="M19.6724 10.4948C19.6724 10.9033 19.3346 11.2323 18.9193 11.2323C18.5021 11.2323 18.1661 10.9014 18.1661 10.4948C18.1661 10.0863 18.504 9.75733 18.9193 9.75733C19.3346 9.75548 19.6724 10.0863 19.6724 10.4948Z" fill="#1A1A1A"/>
<path id="Vector_17" d="M20.5841 9.57609C20.5841 10.0197 20.2179 10.3783 19.7668 10.3783C19.3156 10.3783 18.9476 10.0197 18.9476 9.57609C18.9476 9.1325 19.3138 8.77393 19.7668 8.77393C20.2179 8.77577 20.5841 9.13435 20.5841 9.57609Z" fill="white"/>
<path id="Vector_18" d="M18.1642 11.5686C18.1642 11.7368 17.8641 11.8717 17.496 11.8717C17.1261 11.8717 16.8278 11.7368 16.8278 11.5686C16.8278 11.4004 17.1279 11.2655 17.496 11.2655C17.8641 11.2655 18.1642 11.4004 18.1642 11.5686Z" fill="white"/>
</g>
<g id="Group_7">
<path id="Vector_19" d="M13.5 16.8011C15.7424 16.8011 17.5659 18.5866 17.5659 20.7824C17.5659 21.0615 17.3356 21.287 17.0505 21.287C16.7655 21.287 16.5352 21.0615 16.5352 20.7824C16.5352 19.143 15.1724 17.8103 13.5 17.8103C11.8276 17.8103 10.4648 19.143 10.4648 20.7824C10.4648 21.0615 10.2345 21.287 9.94945 21.287C9.66443 21.287 9.43414 21.0615 9.43414 20.7824C9.43226 18.5885 11.2575 16.8011 13.5 16.8011Z" fill="#754C24"/>
</g>
</g>
</g>
<defs>
<radialGradient id="paint0_radial_3193_4464" cx="0" cy="0" r="1" gradientUnits="userSpaceOnUse" gradientTransform="translate(13.4999 26.4412) scale(10.3358 1.63739)">
<stop stop-color="#000100"/>
<stop offset="1" stop-color="#000100" stop-opacity="0"/>
</radialGradient>
<radialGradient id="paint1_radial_3193_4464" cx="0" cy="0" r="1" gradientUnits="userSpaceOnUse" gradientTransform="translate(13.6822 6.78974) rotate(90) scale(19.6495 20.067)">
<stop stop-color="#FFDB59"/>
<stop offset="0.2319" stop-color="#FAC147"/>
<stop offset="0.7237" stop-color="#EF801B"/>
<stop offset="1" stop-color="#E85900"/>
</radialGradient>
<linearGradient id="paint2_linear_3193_4464" x1="13.4997" y1="0.978276" x2="13.4997" y2="9.90183" gradientUnits="userSpaceOnUse">
<stop stop-color="white"/>
<stop offset="1" stop-color="white" stop-opacity="0"/>
</linearGradient>
<linearGradient id="paint3_linear_3193_4464" x1="13.4998" y1="25.1564" x2="13.4998" y2="17.0711" gradientUnits="userSpaceOnUse">
<stop stop-color="white"/>
<stop offset="1" stop-color="white" stop-opacity="0"/>
</linearGradient>
<radialGradient id="paint4_radial_3193_4464" cx="0" cy="0" r="1" gradientUnits="userSpaceOnUse" gradientTransform="translate(22.6278 14.8218) scale(3.85713 2.82277)">
<stop stop-color="#FF5252"/>
<stop offset="0.8944" stop-color="#FF5252" stop-opacity="0"/>
</radialGradient>
<radialGradient id="paint5_radial_3193_4464" cx="0" cy="0" r="1" gradientUnits="userSpaceOnUse" gradientTransform="translate(4.37167 14.822) scale(3.85715 2.82279)">
<stop stop-color="#FF5252"/>
<stop offset="0.8944" stop-color="#FF5252" stop-opacity="0"/>
</radialGradient>
<linearGradient id="paint6_linear_3193_4464" x1="8.07866" y1="7.76381" x2="8.07866" y2="13.1183" gradientUnits="userSpaceOnUse">
<stop stop-color="white"/>
<stop offset="0.5942" stop-color="#FDFDFD"/>
<stop offset="0.808" stop-color="#F6F6F6"/>
<stop offset="0.9601" stop-color="#EBEBEB"/>
<stop offset="1" stop-color="#E6E6E6"/>
</linearGradient>
<linearGradient id="paint7_linear_3193_4464" x1="18.9208" y1="7.76381" x2="18.9208" y2="13.1183" gradientUnits="userSpaceOnUse">
<stop stop-color="white"/>
<stop offset="0.5942" stop-color="#FDFDFD"/>
<stop offset="0.808" stop-color="#F6F6F6"/>
<stop offset="0.9601" stop-color="#EBEBEB"/>
<stop offset="1" stop-color="#E6E6E6"/>
</linearGradient>
<radialGradient id="paint8_radial_3193_4464" cx="0" cy="0" r="1" gradientUnits="userSpaceOnUse" gradientTransform="translate(8.07871 10.4944) scale(1.79696 1.75957)">
<stop stop-color="#29ABE2"/>
<stop offset="0.2756" stop-color="#26A7E0"/>
<stop offset="0.529" stop-color="#1F9CD8"/>
<stop offset="0.7729" stop-color="#118ACC"/>
<stop offset="1" stop-color="#0071BC"/>
</radialGradient>
<radialGradient id="paint9_radial_3193_4464" cx="0" cy="0" r="1" gradientUnits="userSpaceOnUse" gradientTransform="translate(18.9182 10.4944) scale(1.79698 1.75959)">
<stop stop-color="#29ABE2"/>
<stop offset="0.2756" stop-color="#26A7E0"/>
<stop offset="0.529" stop-color="#1F9CD8"/>
<stop offset="0.7729" stop-color="#118ACC"/>
<stop offset="1" stop-color="#0071BC"/>
</radialGradient>
</defs>
</svg>
