<svg width="31" height="30" viewBox="0 0 31 30" fill="none" xmlns="http://www.w3.org/2000/svg">
<g id="Reaction/Sadface">
<path id="Vector" opacity="0.2" d="M25.9591 28.4382C25.9591 29.3013 21.276 30 15.5 30C9.72399 30 5.04089 29.2995 5.04089 28.4382C5.04089 27.575 9.72399 26.8745 15.5 26.8745C21.276 26.8764 25.9591 27.575 25.9591 28.4382Z" fill="url(#paint0_radial_3193_4524)"/>
<g id="Group">
<g id="Group_2">
<path id="Vector_2" d="M15.5 28.4382C8.04404 28.4382 2 22.5199 2 15.2191C2 7.91828 8.04404 2 15.5 2C22.956 2 29 7.91828 29 15.2191C28.9981 22.5199 22.956 28.4382 15.5 28.4382Z" fill="url(#paint1_radial_3193_4524)" stroke="#FBB03B" stroke-width="2.1841" stroke-miterlimit="10"/>
<path id="Vector_3" opacity="0.9" d="M25.3135 12.5335C23.828 13.0566 7.3626 13.1601 5.68454 12.5335C4.53877 12.369 4.08953 9.83682 5.59016 7.77596C10.2865 1.27732 20.7116 1.27732 25.4098 7.77596C26.9085 9.83682 26.4593 12.369 25.3135 12.5335Z" fill="url(#paint2_linear_3193_4524)"/>
<path id="Vector_4" opacity="0.3" d="M25.3136 17.5979C26.4593 17.7624 26.9086 20.2946 25.4079 22.3554C20.7116 28.8541 10.2865 28.8541 5.5883 22.3554C4.08956 20.2946 4.53692 17.7624 5.68457 17.5979H25.3136Z" fill="url(#paint3_linear_3193_4524)"/>
</g>
<g id="Group_3">
<path id="Vector_5" d="M28.4847 16.8216C28.4847 18.3798 26.7576 19.644 24.6284 19.644C22.4973 19.644 20.772 18.3798 20.772 16.8216C20.772 15.2617 22.4992 13.9993 24.6284 13.9993C26.7576 13.9993 28.4847 15.2635 28.4847 16.8216Z" fill="url(#paint4_radial_3193_4524)"/>
<path id="Vector_6" d="M10.228 16.8216C10.228 18.3798 8.50084 19.644 6.36976 19.644C4.23868 19.644 2.51343 18.3798 2.51343 16.8216C2.51343 15.2617 4.24057 13.9993 6.36976 13.9993C8.50273 13.9993 10.228 15.2635 10.228 16.8216Z" fill="url(#paint5_radial_3193_4524)"/>
</g>
<g id="Group_4">
<path id="Vector_7" d="M13.2255 12.8978C13.2255 14.6001 11.8173 15.1712 10.0789 15.1712C8.34039 15.1712 6.93225 14.6001 6.93225 12.8978C6.93225 11.1955 8.34039 9.81665 10.0789 9.81665C11.8173 9.81665 13.2255 11.1973 13.2255 12.8978Z" fill="url(#paint6_linear_3193_4524)"/>
<path id="Vector_8" d="M24.0677 12.8978C24.0677 14.6001 22.6596 15.1712 20.9211 15.1712C19.1827 15.1712 17.7745 14.6001 17.7745 12.8978C17.7745 11.1955 19.1827 9.81665 20.9211 9.81665C22.6577 9.81665 24.0677 11.1973 24.0677 12.8978Z" fill="url(#paint7_linear_3193_4524)"/>
<path id="Vector_9" d="M6.93225 12.8977C6.93225 12.8977 6.92847 12.8588 6.92092 12.7886C6.91903 12.7165 6.89261 12.6149 6.90393 12.4781C6.90582 12.4097 6.9096 12.3321 6.91149 12.2508C6.92092 12.1694 6.93602 12.0807 6.95112 11.9846C6.96811 11.8903 6.99831 11.7924 7.02663 11.6852C7.05494 11.5798 7.10591 11.4763 7.14932 11.3636C7.20218 11.2564 7.2588 11.1418 7.32487 11.029C7.3966 10.92 7.47021 10.8035 7.56271 10.6982C7.73636 10.4764 7.96098 10.2712 8.21581 10.0938C8.47252 9.91634 8.76698 9.77032 9.0841 9.66867C9.24454 9.62615 9.40687 9.57995 9.57486 9.55962C9.65792 9.54668 9.74098 9.53189 9.82592 9.53004L9.95238 9.52265L10.0166 9.51895L10.0487 9.51711L10.0638 9.51526H10.0713H10.0751H10.094C10.3809 9.5208 10.7659 9.56701 11.0736 9.66867C11.3907 9.77217 11.6852 9.91634 11.9419 10.0956C12.1986 10.2749 12.4232 10.4782 12.595 10.7C12.6894 10.8054 12.7611 10.9218 12.8328 11.0309C12.8989 11.1436 12.9555 11.2582 13.0084 11.3654C13.0518 11.4782 13.1009 11.5817 13.1311 11.687C13.1575 11.7942 13.1896 11.8903 13.2047 11.9864C13.2198 12.0826 13.2349 12.1694 13.2443 12.2508C13.2481 12.3339 13.25 12.4079 13.2519 12.4762C13.2632 12.6112 13.2368 12.7184 13.2349 12.7905C13.2273 12.8607 13.2236 12.8995 13.2236 12.8995C13.2236 12.8995 13.216 12.8625 13.2009 12.7923C13.1839 12.7221 13.1726 12.6186 13.1311 12.4947C13.1122 12.4319 13.0914 12.3635 13.0688 12.2877C13.0386 12.2156 13.0103 12.1362 12.9782 12.053C12.9065 11.8885 12.8102 11.7129 12.695 11.5299C12.5705 11.3525 12.427 11.1695 12.2496 11.0013C12.0778 10.8276 11.8645 10.6815 11.6437 10.5429C11.419 10.4061 11.1604 10.3137 10.9 10.2324C10.6244 10.1622 10.3941 10.1307 10.0619 10.1215C10.0921 10.1215 10.0694 10.1215 10.0751 10.1215H10.0713H10.0638H10.0505L10.0241 10.1234L9.97126 10.1252L9.86744 10.1289C9.7976 10.1289 9.72965 10.14 9.65981 10.1492C9.52013 10.1622 9.388 10.1991 9.25398 10.2306C8.99349 10.3119 8.73489 10.4043 8.51027 10.5411C8.28942 10.6797 8.07424 10.8257 7.90436 10.9994C7.72692 11.1676 7.58347 11.3506 7.45888 11.5281C7.34374 11.711 7.24748 11.8866 7.17575 12.0511C7.14366 12.1343 7.11535 12.2138 7.08515 12.2859C7.0625 12.3598 7.04362 12.4282 7.02474 12.491C6.98322 12.6149 6.97189 12.7221 6.9549 12.7923C6.9398 12.8607 6.93225 12.8977 6.93225 12.8977Z" fill="#603813"/>
<path id="Vector_10" d="M17.7745 12.8977C17.7745 12.8977 17.7708 12.8588 17.7632 12.7886C17.7613 12.7165 17.7349 12.6149 17.7462 12.4781C17.7481 12.4097 17.7519 12.3321 17.7538 12.2508C17.7632 12.1694 17.7783 12.0807 17.7934 11.9846C17.8104 11.8903 17.8406 11.7924 17.8689 11.6852C17.8991 11.5798 17.9482 11.4763 17.9916 11.3636C18.0445 11.2564 18.1011 11.1418 18.1671 11.029C18.2389 10.92 18.3125 10.8035 18.405 10.6982C18.5786 10.4764 18.8033 10.2712 19.0581 10.0938C19.3148 9.91634 19.6093 9.77032 19.9264 9.66867C20.0868 9.62615 20.2492 9.57995 20.4172 9.55962C20.5002 9.54668 20.5833 9.53189 20.6682 9.53004L20.7947 9.52265L20.8588 9.51895L20.8909 9.51711L20.906 9.51526H20.9136H20.9174H20.9362C21.2232 9.5208 21.6082 9.56701 21.9159 9.66867C22.2311 9.77217 22.5275 9.91634 22.7842 10.0956C23.0409 10.2749 23.2655 10.4782 23.4373 10.7C23.5317 10.8054 23.6034 10.9218 23.6751 11.0309C23.7412 11.1436 23.7978 11.2582 23.8507 11.3654C23.8941 11.4782 23.9432 11.5817 23.9734 11.687C23.9998 11.7942 24.03 11.8903 24.047 11.9864C24.0621 12.0826 24.0772 12.1694 24.0866 12.2508C24.0904 12.3339 24.0923 12.4079 24.0942 12.4762C24.1055 12.6112 24.0791 12.7184 24.0772 12.7905C24.0696 12.8607 24.0658 12.8995 24.0658 12.8995C24.0658 12.8995 24.0583 12.8625 24.0432 12.7923C24.0262 12.7221 24.0149 12.6186 23.9734 12.4947C23.9545 12.4319 23.9337 12.3635 23.9111 12.2877C23.8809 12.2156 23.8526 12.1362 23.8205 12.053C23.7487 11.8885 23.6525 11.7129 23.5373 11.5299C23.4127 11.3525 23.2693 11.1695 23.0919 11.0013C22.9201 10.8276 22.7068 10.6815 22.4859 10.5429C22.2613 10.4061 22.0027 10.3137 21.7422 10.2324C21.4666 10.1622 21.2364 10.1307 20.9041 10.1215C20.9343 10.1215 20.9117 10.1215 20.9174 10.1215H20.9136H20.906H20.8928L20.8664 10.1234L20.8135 10.1252L20.7097 10.1289C20.6399 10.1289 20.57 10.14 20.5021 10.1492C20.3624 10.1622 20.2303 10.1991 20.0963 10.2306C19.8358 10.3119 19.5772 10.4043 19.3526 10.5411C19.1317 10.6797 18.9165 10.8257 18.7447 10.9994C18.5673 11.1676 18.4239 11.3506 18.2993 11.5281C18.1841 11.711 18.0879 11.8866 18.0161 12.0511C17.9841 12.1343 17.9557 12.2138 17.9255 12.2859C17.9029 12.3598 17.8821 12.4282 17.8651 12.491C17.8236 12.6149 17.8123 12.7221 17.7953 12.7923C17.7821 12.8607 17.7745 12.8977 17.7745 12.8977Z" fill="#603813"/>
</g>
<g id="Group_5">
<path id="Vector_11" d="M10.0788 14.2543C11.0713 14.2543 11.8758 13.4665 11.8758 12.4947C11.8758 11.5229 11.0713 10.7351 10.0788 10.7351C9.08639 10.7351 8.28186 11.5229 8.28186 12.4947C8.28186 13.4665 9.08639 14.2543 10.0788 14.2543Z" fill="url(#paint8_radial_3193_4524)"/>
<path id="Vector_12" d="M10.832 12.4947C10.832 12.9032 10.4942 13.2322 10.0789 13.2322C9.66173 13.2322 9.32574 12.9013 9.32574 12.4947C9.32574 12.0862 9.66362 11.7572 10.0789 11.7572C10.4942 11.7554 10.832 12.0862 10.832 12.4947Z" fill="#1A1A1A"/>
<path id="Vector_13" d="M11.7437 11.5761C11.7437 12.0197 11.3775 12.3783 10.9264 12.3783C10.4753 12.3783 10.1091 12.0197 10.1091 11.5761C10.1091 11.1325 10.4753 10.7739 10.9264 10.7739C11.3775 10.7758 11.7437 11.1343 11.7437 11.5761Z" fill="white"/>
<path id="Vector_14" d="M9.32383 13.5685C9.32383 13.7367 9.02371 13.8716 8.65563 13.8716C8.28566 13.8716 7.98743 13.7367 7.98743 13.5685C7.98743 13.4003 8.28755 13.2654 8.65563 13.2654C9.02559 13.2654 9.32383 13.4003 9.32383 13.5685Z" fill="white"/>
</g>
<g id="Group_6">
<path id="Vector_15" d="M20.9174 14.2543C21.9098 14.2543 22.7144 13.4665 22.7144 12.4947C22.7144 11.5229 21.9098 10.7351 20.9174 10.7351C19.9249 10.7351 19.1204 11.5229 19.1204 12.4947C19.1204 13.4665 19.9249 14.2543 20.9174 14.2543Z" fill="url(#paint9_radial_3193_4524)"/>
<path id="Vector_16" d="M21.6724 12.4947C21.6724 12.9032 21.3346 13.2322 20.9193 13.2322C20.504 13.2322 20.1661 12.9013 20.1661 12.4947C20.1661 12.0862 20.504 11.7572 20.9193 11.7572C21.3346 11.7554 21.6724 12.0862 21.6724 12.4947Z" fill="#1A1A1A"/>
<path id="Vector_17" d="M22.5841 11.5761C22.5841 12.0197 22.2179 12.3783 21.7649 12.3783C21.3138 12.3783 20.9476 12.0197 20.9476 11.5761C20.9476 11.1325 21.3138 10.7739 21.7649 10.7739C22.216 10.7758 22.5841 11.1343 22.5841 11.5761Z" fill="white"/>
<path id="Vector_18" d="M20.1642 13.5685C20.1642 13.7367 19.8641 13.8716 19.496 13.8716C19.1261 13.8716 18.8278 13.7367 18.8278 13.5685C18.8278 13.4003 19.128 13.2654 19.496 13.2654C19.8641 13.2654 20.1642 13.4003 20.1642 13.5685Z" fill="white"/>
</g>
<g id="Group_7">
<path id="Vector_19" d="M15.5 18.8011C17.7425 18.8011 19.5659 20.5866 19.5659 22.7824C19.5659 23.0615 19.3356 23.287 19.0506 23.287C18.7655 23.287 18.5352 23.0615 18.5352 22.7824C18.5352 21.143 17.1743 19.8103 15.5 19.8103C13.8257 19.8103 12.4648 21.143 12.4648 22.7824C12.4648 23.0615 12.2345 23.287 11.9495 23.287C11.6644 23.287 11.4341 23.0615 11.4341 22.7824C11.4323 20.5885 13.2576 18.8011 15.5 18.8011Z" fill="#754C24"/>
</g>
<g id="Group_8">
<path id="Vector_20" d="M5.39386 12.2692C5.16546 12.2692 4.95782 12.1213 4.89742 11.894C4.82381 11.626 4.98614 11.3487 5.26173 11.2766C5.30703 11.2637 8.01194 10.5096 10.8433 7.54861C11.0377 7.3453 11.3643 7.33421 11.5719 7.52459C11.7796 7.71496 11.7909 8.03472 11.5965 8.23803C8.54046 11.4338 5.65057 12.2193 5.52976 12.2507C5.48257 12.2636 5.43727 12.2692 5.39386 12.2692Z" fill="#603813"/>
</g>
<g id="Group_9">
<path id="Vector_21" d="M25.6061 12.2692C25.5627 12.2692 25.5174 12.2636 25.4721 12.2525C25.3513 12.2211 22.4614 11.4356 19.4054 8.23986C19.211 8.03655 19.2223 7.71679 19.4299 7.52642C19.6376 7.33604 19.9641 7.34713 20.1586 7.55044C23.0145 10.5373 25.7118 11.2711 25.7383 11.2785C26.0138 11.3506 26.1762 11.6278 26.1026 11.8958C26.0422 12.1195 25.8345 12.2692 25.6061 12.2692Z" fill="#603813"/>
</g>
</g>
</g>
<defs>
<radialGradient id="paint0_radial_3193_4524" cx="0" cy="0" r="1" gradientUnits="userSpaceOnUse" gradientTransform="translate(15.4998 28.4412) scale(10.3358 1.63739)">
<stop stop-color="#000100"/>
<stop offset="1" stop-color="#000100" stop-opacity="0"/>
</radialGradient>
<radialGradient id="paint1_radial_3193_4524" cx="0" cy="0" r="1" gradientUnits="userSpaceOnUse" gradientTransform="translate(15.6822 8.78974) rotate(90) scale(19.6495 20.0671)">
<stop stop-color="#FFDB59"/>
<stop offset="0.2319" stop-color="#FAC147"/>
<stop offset="0.7237" stop-color="#EF801B"/>
<stop offset="1" stop-color="#E85900"/>
</radialGradient>
<linearGradient id="paint2_linear_3193_4524" x1="15.4996" y1="2.97828" x2="15.4996" y2="11.9018" gradientUnits="userSpaceOnUse">
<stop stop-color="white"/>
<stop offset="1" stop-color="white" stop-opacity="0"/>
</linearGradient>
<linearGradient id="paint3_linear_3193_4524" x1="15.4997" y1="27.1564" x2="15.4997" y2="19.0711" gradientUnits="userSpaceOnUse">
<stop stop-color="white"/>
<stop offset="1" stop-color="white" stop-opacity="0"/>
</linearGradient>
<radialGradient id="paint4_radial_3193_4524" cx="0" cy="0" r="1" gradientUnits="userSpaceOnUse" gradientTransform="translate(24.6278 16.822) scale(3.85713 2.82277)">
<stop stop-color="#FF5252"/>
<stop offset="0.8944" stop-color="#FF5252" stop-opacity="0"/>
</radialGradient>
<radialGradient id="paint5_radial_3193_4524" cx="0" cy="0" r="1" gradientUnits="userSpaceOnUse" gradientTransform="translate(6.37162 16.822) scale(3.85718 2.82281)">
<stop stop-color="#FF5252"/>
<stop offset="0.8944" stop-color="#FF5252" stop-opacity="0"/>
</radialGradient>
<linearGradient id="paint6_linear_3193_4524" x1="10.0787" y1="9.76394" x2="10.0787" y2="15.1184" gradientUnits="userSpaceOnUse">
<stop stop-color="white"/>
<stop offset="0.5942" stop-color="#FDFDFD"/>
<stop offset="0.808" stop-color="#F6F6F6"/>
<stop offset="0.9601" stop-color="#EBEBEB"/>
<stop offset="1" stop-color="#E6E6E6"/>
</linearGradient>
<linearGradient id="paint7_linear_3193_4524" x1="20.9207" y1="9.76394" x2="20.9207" y2="15.1184" gradientUnits="userSpaceOnUse">
<stop stop-color="white"/>
<stop offset="0.5942" stop-color="#FDFDFD"/>
<stop offset="0.808" stop-color="#F6F6F6"/>
<stop offset="0.9601" stop-color="#EBEBEB"/>
<stop offset="1" stop-color="#E6E6E6"/>
</linearGradient>
<radialGradient id="paint8_radial_3193_4524" cx="0" cy="0" r="1" gradientUnits="userSpaceOnUse" gradientTransform="translate(10.0786 12.4944) scale(1.79698 1.75959)">
<stop stop-color="#29ABE2"/>
<stop offset="0.2756" stop-color="#26A7E0"/>
<stop offset="0.529" stop-color="#1F9CD8"/>
<stop offset="0.7729" stop-color="#118ACC"/>
<stop offset="1" stop-color="#0071BC"/>
</radialGradient>
<radialGradient id="paint9_radial_3193_4524" cx="0" cy="0" r="1" gradientUnits="userSpaceOnUse" gradientTransform="translate(20.9181 12.4944) scale(1.79698 1.75959)">
<stop stop-color="#29ABE2"/>
<stop offset="0.2756" stop-color="#26A7E0"/>
<stop offset="0.529" stop-color="#1F9CD8"/>
<stop offset="0.7729" stop-color="#118ACC"/>
<stop offset="1" stop-color="#0071BC"/>
</radialGradient>
</defs>
</svg>
