<svg width="27" height="28" viewBox="0 0 27 28" fill="none" xmlns="http://www.w3.org/2000/svg">
<g id="Reaction/Satisfied">
<path id="Vector" opacity="0.2" d="M3.0409 26.4382C3.0409 27.3013 7.72399 28 13.5 28C19.276 28 23.9591 27.2995 23.9591 26.4382C23.9591 25.575 19.276 24.8745 13.5 24.8745C7.72399 24.8745 3.0409 25.575 3.0409 26.4382Z" fill="url(#paint0_radial_3193_4507)"/>
<g id="Group">
<g id="Group_2">
<path id="Vector_2" d="M13.5 26.4381C6.04416 26.4381 0 20.5197 0 13.2191C0 5.91838 6.04416 0 13.5 0C20.9558 0 27 5.91838 27 13.2191C27 20.5197 20.9558 26.4381 13.5 26.4381Z" fill="url(#paint1_radial_3193_4507)"/>
<path id="Vector_3" opacity="0.9" d="M3.68647 10.5318C5.172 11.0548 21.6374 11.1583 23.3155 10.5318C24.4612 10.3673 24.9105 7.8351 23.4098 5.77424C18.7135 -0.724389 8.28652 -0.724389 3.59022 5.77424C2.09147 7.8351 2.54071 10.3673 3.68647 10.5318Z" fill="url(#paint2_linear_3193_4507)"/>
<path id="Vector_4" opacity="0.3" d="M3.6864 15.5979C2.54064 15.7624 2.09139 18.2946 3.59202 20.3554C8.28833 26.8541 18.7154 26.8541 23.4117 20.3554C24.9104 18.2946 24.4612 15.7624 23.3154 15.5979H3.6864Z" fill="url(#paint3_linear_3193_4507)"/>
</g>
<g id="Group_3">
<path id="Vector_5" d="M15.8481 19.3573V21.0189C15.8481 22.2869 14.7986 23.3145 13.5038 23.3145C12.2089 23.3145 11.1594 22.2869 11.1594 21.0189L11.1518 19.3573C11.8276 19.4867 12.6072 19.5588 13.5 19.5588C14.3928 19.5588 15.1724 19.4867 15.8481 19.3573Z" fill="url(#paint4_linear_3193_4507)"/>
<path id="Vector_6" d="M7.37288 15.5756C7.37288 15.2965 7.60316 15.071 7.88819 15.071C8.17321 15.071 8.40351 15.2965 8.40351 15.5756C8.40351 17.2151 9.91357 18.5477 13.5 18.5477C17.0864 18.5477 18.5965 17.2132 18.5965 15.5756C18.5965 15.2965 18.8267 15.071 19.1118 15.071C19.3968 15.071 19.6271 15.2965 19.6271 15.5756C19.6271 17.3352 18.5832 18.8323 15.8462 19.3573C15.1705 19.4866 14.3909 19.5587 13.4981 19.5587C12.6053 19.5587 11.8276 19.4866 11.1499 19.3573C8.41672 18.8323 7.37288 17.3371 7.37288 15.5756Z" fill="#754C24"/>
</g>
<g id="Group_4">
<path id="Vector_7" d="M15.8538 11.6591C16.1388 11.6591 16.3691 11.4336 16.3691 11.1545C16.3691 9.51502 17.732 8.18239 19.4044 8.18239C21.0786 8.18239 22.4396 9.51687 22.4396 11.1545C22.4396 11.4336 22.6699 11.6591 22.9549 11.6591C23.2399 11.6591 23.4702 11.4336 23.4702 11.1545C23.4702 8.95868 21.6468 7.17322 19.4044 7.17322C17.1619 7.17322 15.3385 8.95868 15.3385 11.1545C15.3385 11.4336 15.5688 11.6591 15.8538 11.6591Z" fill="#754C24"/>
</g>
<g id="Group_5">
<path id="Vector_8" d="M4.04314 11.6591C4.32817 11.6591 4.55845 11.4336 4.55845 11.1545C4.55845 9.51502 5.92129 8.18239 7.59369 8.18239C9.26797 8.18239 10.6289 9.51687 10.6289 11.1545C10.6289 11.4336 10.8592 11.6591 11.1442 11.6591C11.4293 11.6591 11.6595 11.4336 11.6595 11.1545C11.6595 8.95868 9.83614 7.17322 7.59369 7.17322C5.35124 7.17322 3.52595 8.95868 3.52595 11.1545C3.52783 11.4336 3.75812 11.6591 4.04314 11.6591Z" fill="#754C24"/>
</g>
<g id="Group_6">
<path id="Vector_9" d="M0.515304 14.8215C0.515304 16.3796 2.24244 17.6439 4.37353 17.6439C6.50461 17.6439 8.22986 16.3796 8.22986 14.8215C8.22986 13.2634 6.50272 11.9991 4.37353 11.9991C2.24244 11.9973 0.515304 13.2615 0.515304 14.8215Z" fill="url(#paint5_radial_3193_4507)"/>
<path id="Vector_10" d="M18.772 14.8215C18.772 16.3796 20.4992 17.6439 22.6284 17.6439C24.7594 17.6439 26.4866 16.3796 26.4866 14.8215C26.4866 13.2634 24.7594 11.9991 22.6284 11.9991C20.4973 11.9973 18.772 13.2615 18.772 14.8215Z" fill="url(#paint6_radial_3193_4507)"/>
</g>
</g>
</g>
<defs>
<radialGradient id="paint0_radial_3193_4507" cx="0" cy="0" r="1" gradientUnits="userSpaceOnUse" gradientTransform="translate(13.5002 26.4393) rotate(180) scale(10.3358 1.63739)">
<stop stop-color="#000100"/>
<stop offset="1" stop-color="#000100" stop-opacity="0"/>
</radialGradient>
<radialGradient id="paint1_radial_3193_4507" cx="0" cy="0" r="1" gradientUnits="userSpaceOnUse" gradientTransform="translate(13.3178 6.78867) rotate(90) scale(19.6494 20.0671)">
<stop stop-color="#FFDB59"/>
<stop offset="0.2319" stop-color="#FAC147"/>
<stop offset="0.7237" stop-color="#EF801B"/>
<stop offset="1" stop-color="#E85900"/>
</radialGradient>
<linearGradient id="paint2_linear_3193_4507" x1="13.5003" y1="0.977361" x2="13.5003" y2="9.90093" gradientUnits="userSpaceOnUse">
<stop stop-color="white"/>
<stop offset="1" stop-color="white" stop-opacity="0"/>
</linearGradient>
<linearGradient id="paint3_linear_3193_4507" x1="13.5001" y1="25.1553" x2="13.5001" y2="17.07" gradientUnits="userSpaceOnUse">
<stop stop-color="white"/>
<stop offset="1" stop-color="white" stop-opacity="0"/>
</linearGradient>
<linearGradient id="paint4_linear_3193_4507" x1="13.5004" y1="23.5066" x2="13.5004" y2="18.6556" gradientUnits="userSpaceOnUse">
<stop stop-color="#FD5B55"/>
<stop offset="1" stop-color="#EB2523"/>
</linearGradient>
<radialGradient id="paint5_radial_3193_4507" cx="0" cy="0" r="1" gradientUnits="userSpaceOnUse" gradientTransform="translate(4.37199 14.8208) rotate(180) scale(3.85719 2.82281)">
<stop stop-color="#FF5252"/>
<stop offset="0.8944" stop-color="#FF5252" stop-opacity="0"/>
</radialGradient>
<radialGradient id="paint6_radial_3193_4507" cx="0" cy="0" r="1" gradientUnits="userSpaceOnUse" gradientTransform="translate(22.6284 14.8208) rotate(180) scale(3.85724 2.82285)">
<stop stop-color="#FF5252"/>
<stop offset="0.8944" stop-color="#FF5252" stop-opacity="0"/>
</radialGradient>
</defs>
</svg>
