<svg width="166" height="114" viewBox="0 0 166 114" fill="none" xmlns="http://www.w3.org/2000/svg">
<rect x="0.629883" y="0.0371094" width="165" height="113.667" rx="10" fill="white"/>
<mask id="mask0_6376_22385" style="mask-type:luminance" maskUnits="userSpaceOnUse" x="0" y="0" width="166" height="114">
<rect x="0.629883" y="0.0371094" width="165" height="113.667" rx="4" fill="white"/>
</mask>
<g mask="url(#mask0_6376_22385)">
<path fill-rule="evenodd" clip-rule="evenodd" d="M0.629883 37.926H165.63V0.0371094H0.629883V37.926Z" fill="#24AAD5"/>
<path fill-rule="evenodd" clip-rule="evenodd" d="M0.629883 113.703H165.63V75.8145H0.629883V113.703Z" fill="#21BF75"/>
<path fill-rule="evenodd" clip-rule="evenodd" d="M0.629883 75.8156H165.63V37.9268H0.629883V75.8156Z" fill="#ED1845"/>
<path fill-rule="evenodd" clip-rule="evenodd" d="M93.0299 64.9215C90.4266 68.1445 86.3643 70.2174 81.8001 70.2174C73.9428 70.2174 67.5732 64.0743 67.5732 56.4964C67.5732 48.9185 73.9428 42.7754 81.8001 42.7754C86.3642 42.7754 90.4264 44.8482 93.0297 48.071C91.0209 46.663 88.4953 45.8244 85.7522 45.8244C79.2045 45.8244 73.8965 50.6024 73.8965 56.4963C73.8965 62.3903 79.2045 67.1682 85.7522 67.1682C88.4954 67.1682 91.0211 66.3295 93.0299 64.9215Z" fill="white"/>
<path d="M94.444 49.1406L95.6154 54.1423L100.111 51.4045L97.2721 55.7401L102.458 56.87L97.2721 57.9998L100.111 62.3354L95.6154 59.5976L94.444 64.5993L93.2725 59.5976L88.777 62.3354L91.6158 57.9998L86.4297 56.87L91.6158 55.7401L88.777 51.4045L93.2725 54.1423L94.444 49.1406Z" fill="white"/>
</g>
</svg>
