<svg width="45" height="31" viewBox="0 0 45 31" fill="none" xmlns="http://www.w3.org/2000/svg">
<rect width="45" height="31" rx="10" fill="white"/>
<mask id="mask0_4714_7178" style="mask-type:luminance" maskUnits="userSpaceOnUse" x="0" y="0" width="45" height="31">
<rect width="45" height="31" rx="4" fill="white"/>
</mask>
<g mask="url(#mask0_4714_7178)">
<path fill-rule="evenodd" clip-rule="evenodd" d="M0 10.3333H45V0H0V10.3333Z" fill="#24AAD5"/>
<path fill-rule="evenodd" clip-rule="evenodd" d="M0 30.9998H45V20.6665H0V30.9998Z" fill="#21BF75"/>
<path fill-rule="evenodd" clip-rule="evenodd" d="M0 20.6668H45V10.3335H0V20.6668Z" fill="#ED1845"/>
<path fill-rule="evenodd" clip-rule="evenodd" d="M25.1998 17.6959C24.4898 18.5748 23.3819 19.1402 22.1371 19.1402C19.9942 19.1402 18.2571 17.4648 18.2571 15.3981C18.2571 13.3314 19.9942 11.656 22.1371 11.656C23.3819 11.656 24.4898 12.2213 25.1998 13.1003C24.6519 12.7163 23.9631 12.4876 23.215 12.4876C21.4292 12.4876 19.9816 13.7906 19.9816 15.3981C19.9816 17.0055 21.4292 18.3086 23.215 18.3086C23.9631 18.3086 24.6519 18.0799 25.1998 17.6959Z" fill="white"/>
<path d="M25.5859 13.3921L25.9054 14.7562L27.1314 14.0095L26.3572 15.192L27.7716 15.5001L26.3572 15.8082L27.1314 16.9907L25.9054 16.244L25.5859 17.6081L25.2664 16.244L24.0403 16.9907L24.8145 15.8082L23.4001 15.5001L24.8145 15.192L24.0403 14.0095L25.2664 14.7562L25.5859 13.3921Z" fill="white"/>
</g>
</svg>
