<svg width="54" height="17" viewBox="0 0 54 17" fill="none" xmlns="http://www.w3.org/2000/svg">
<path d="M7.26195 0.501728C10.5384 0.450163 12.5232 1.54747 12.5729 4.47982C12.5977 5.9539 11.6053 6.92815 10.691 7.15985C11.6124 7.29735 13.212 7.83501 13.2489 10.0303C13.3014 13.1566 11.5081 14.0978 8.20893 14.15C5.72691 14.1892 1.2055 14.5 1.2055 14.5L0.25 1.67673C0.25 1.67673 4.49547 0.545731 7.26195 0.501728ZM4.59478 5.8219C4.59478 5.8219 6.38235 5.81571 7.50738 5.79783C7.97414 5.79027 8.21886 5.46094 8.20893 4.87447C8.19758 4.19587 7.85709 3.66372 7.11298 3.6754C6.04257 3.69259 4.49618 3.97723 4.49618 3.97723L4.59478 5.8219ZM4.86008 10.9221L7.75069 10.92C8.44515 10.909 8.70619 10.427 8.69697 9.88387C8.68207 8.99351 8.25433 8.30528 7.35345 8.31903C6.19366 8.3376 4.77496 8.55555 4.77496 8.55555L4.85937 10.9221H4.86008Z" fill="#FF1212"/>
<path d="M13.25 1.0173L18.3913 0.5L20.2868 5.55977L23.1881 0.769836L28.25 1.64296L22.365 9.18857L21.8633 14.5L17.6229 13.8016L17.9712 8.88378L13.25 1.0173Z" fill="#FF1212"/>
<path d="M28.2553 8.12485C28.1234 3.53802 30.4549 0.655854 34.4596 0.506179C38.4779 0.355767 40.0896 2.95111 40.2442 8.30623C40.3464 11.8682 39.0917 13.915 36.7239 14.7437L37.1637 16.3444L32.998 16.5L32.8841 15.1102C29.9841 14.7061 28.3808 12.4883 28.2553 8.12485ZM32.1404 8.00319C32.2096 10.4031 33.2217 11.5283 34.6724 11.4737C35.9194 11.4273 36.504 10.482 36.4264 7.79601C36.3689 5.7942 36.1186 4.17211 34.6886 4.22519C33.0141 4.28786 32.0718 5.62756 32.1397 8.00245L32.1404 8.00319Z" fill="#FF1212"/>
<path d="M44.6674 14.7098L40.25 14.162L41.3122 0.884935C41.3122 0.884935 44.627 0.444846 47.3141 0.505792C51.4993 0.600755 53.3237 2.81325 53.2477 6.28294C53.1968 8.59464 52.2727 9.88373 50.5906 10.433H50.6003L52.869 15.5L48.3833 15.0627L46.7171 10.659H46.7311C45.7666 10.5442 44.8062 10.3692 44.8062 10.3692L44.6667 14.7098H44.6674ZM44.9443 7.10288C44.9443 7.10288 46.411 7.38209 47.5157 7.40761C48.4586 7.42887 49.1957 7.16099 49.2139 6.34884C49.2355 5.37724 48.6776 4.72455 47.289 4.69266C46.4298 4.67353 45.0845 4.73235 45.0845 4.73235L44.9443 7.10288Z" fill="#FF1212"/>
</svg>
