<svg width="16" height="16" viewBox="0 0 16 16" fill="none" xmlns="http://www.w3.org/2000/svg">
<path fill-rule="evenodd" clip-rule="evenodd" d="M12.263 6.63693C12.4662 6.84281 12.6724 7.05179 12.851 7.28889L12.8073 7.29778C13.0955 7.63556 13.3313 8 13.506 8.40889L13.6195 8.64C14.4492 10.6667 13.8815 13.0311 12.3095 14.5067C10.9034 15.8222 8.93831 16.1689 7.10425 15.9289C5.38372 15.7067 3.78547 14.6044 2.87717 13.0667C2.5977 12.5956 2.37062 12.0622 2.24835 11.5289C2.09988 11.0844 2.04748 10.64 2.01254 10.1956C1.89027 8.26667 2.66756 6.22222 4.09988 5.01333C3.44486 6.47111 3.60206 8.29333 4.56276 9.56444C4.60643 9.62667 4.64137 9.67111 4.69377 9.71556C4.85097 9.85778 5.06058 9.91111 5.25272 9.82222C5.42739 9.75111 5.5584 9.57333 5.5584 9.37778C5.5584 9.26222 5.52346 9.17333 5.48853 9.08444C4.44049 6.28444 5.31386 3.02222 7.5322 1.17333C8.14355 0.666667 8.87718 0.204444 9.67194 0C8.87718 1.64444 9.13919 3.78667 10.4143 5.08444C10.7125 5.388 11.0416 5.63931 11.3708 5.89077C11.649 6.10322 11.9273 6.31576 12.1872 6.56C12.2124 6.58563 12.2377 6.61126 12.263 6.63693ZM9.20032 13.4222C9.506 13.3333 9.89901 13.1022 10.1436 12.8889H10.1348C10.6588 12.4 10.9645 11.6 10.9383 10.8711C10.9383 10.7378 10.9208 10.6133 10.8859 10.4889C10.7438 9.70233 10.2542 9.26197 9.74665 8.80544C9.47412 8.56032 9.1964 8.31054 8.96451 8C8.76364 7.73333 8.58897 7.39556 8.4405 7.05778C8.19595 7.67111 8.17849 8.23111 8.28329 8.88889C8.31587 9.08531 8.3614 9.27369 8.40626 9.45926C8.5177 9.92031 8.62496 10.3641 8.5191 10.8711C8.34443 11.6622 7.73307 12.4444 6.69377 12.6933C7.27892 13.28 8.23962 13.7778 9.20032 13.4222Z" fill="#FD451C"/>
</svg>
