<svg width="17" height="18" viewBox="0 0 17 18" fill="none" xmlns="http://www.w3.org/2000/svg">
<g clip-path="url(#clip0_7523_15128)">
<path d="M8.19509 9.82169C7.23176 10.02 6.65801 10.6434 6.65801 11.5288C6.65801 12.4779 7.44426 13.2429 8.42176 13.2429C9.87384 13.2429 11.0497 12.0671 11.0497 10.615C11.0497 9.85711 10.9434 9.11336 10.7238 8.40503C10.1643 9.16294 9.16551 9.62336 8.19509 9.82169ZM9.56217 0.974609C9.56217 0.974609 10.0863 2.85169 10.0863 4.37461C10.0863 5.83378 9.13009 7.01669 7.67092 7.01669C6.20467 7.01669 5.09967 5.83378 5.09967 4.37461L5.12092 4.11961C3.69009 5.81961 2.83301 8.02253 2.83301 10.4167C2.83301 13.5475 5.36884 16.0834 8.49967 16.0834C11.6305 16.0834 14.1663 13.5475 14.1663 10.4167C14.1663 6.59878 12.3318 3.19169 9.56217 0.974609ZM8.49967 14.6667C6.15509 14.6667 4.24967 12.7613 4.24967 10.4167C4.24967 9.33294 4.46217 8.26336 4.85884 7.27878C5.57426 7.99419 6.56592 8.43336 7.67092 8.43336C9.55509 8.43336 11.0355 7.13711 11.4109 5.29544C12.2822 6.85378 12.7497 8.60336 12.7497 10.4167C12.7497 12.7613 10.8443 14.6667 8.49967 14.6667Z" fill="#F33400"/>
</g>
<defs>
<clipPath id="clip0_7523_15128">
<rect width="17" height="17" fill="white" transform="translate(0 0.5)"/>
</clipPath>
</defs>
</svg>
