<svg width="24" height="24" viewBox="0 0 24 24" fill="none" xmlns="http://www.w3.org/2000/svg">
<g clip-path="url(#clip0_14563_15988)">
<path d="M19.322 8.09322C19.8955 8.29696 20.4199 8.57995 20.8953 8.94216C21.3707 9.30438 21.7782 9.72319 22.1178 10.1986C22.4574 10.674 22.7177 11.1947 22.8988 11.7607C23.0799 12.3266 23.1743 12.9152 23.1818 13.5265C23.1818 14.3263 23.0309 15.0772 22.729 15.779C22.4272 16.4808 22.0122 17.092 21.4839 17.6127C20.9557 18.1334 20.3407 18.5484 19.6389 18.8578C18.9371 19.1672 18.1863 19.3219 17.3864 19.3219H11.5909C10.791 19.3219 10.0402 19.171 9.33838 18.8691C8.63659 18.5673 8.02535 18.1523 7.50466 17.624C6.98398 17.0958 6.56894 16.4808 6.25954 15.779C5.95015 15.0772 5.79545 14.3263 5.79545 13.5265C5.79545 12.7266 5.94638 11.9757 6.24822 11.2739C6.55007 10.5721 6.96511 9.96089 7.49334 9.44021C8.02157 8.91952 8.63659 8.50448 9.33838 8.19509C10.0402 7.8857 10.791 7.731 11.5909 7.731H13.5265C13.5265 7.99512 13.4775 8.24414 13.3793 8.47807C13.2812 8.712 13.1416 8.91575 12.9605 9.08931C12.7794 9.26287 12.5719 9.3987 12.338 9.4968C12.104 9.5949 11.855 9.64773 11.5909 9.65527C11.0551 9.65527 10.5533 9.75715 10.0854 9.96089C9.61759 10.1646 9.21009 10.4401 8.86297 10.7872C8.51585 11.1343 8.24041 11.5456 8.03666 12.021C7.83292 12.4964 7.73105 12.9982 7.73105 13.5265C7.73105 14.0622 7.83292 14.5641 8.03666 15.0319C8.24041 15.4998 8.51585 15.9073 8.86297 16.2544C9.21009 16.6015 9.61759 16.877 10.0854 17.0807C10.5533 17.2844 11.0551 17.3863 11.5909 17.3863H17.3864C17.9146 17.3863 18.4126 17.2844 18.8805 17.0807C19.3484 16.877 19.7596 16.6015 20.1143 16.2544C20.469 15.9073 20.7444 15.4998 20.9406 15.0319C21.1368 14.5641 21.2387 14.0622 21.2462 13.5265C21.2462 12.8322 21.0727 12.1983 20.7255 11.6248C20.3784 11.0513 19.9106 10.5872 19.322 10.2326V8.09322ZM1.93559 7.731C1.93559 8.4177 2.10915 9.04781 2.45628 9.62132C2.8034 10.1948 3.27126 10.6627 3.85986 11.0249V13.1642C3.28635 12.9605 2.7619 12.6775 2.28649 12.3153C1.81108 11.9531 1.40359 11.5343 1.06401 11.0589C0.724432 10.5835 0.464089 10.0628 0.282981 9.4968C0.101873 8.93084 0.00754617 8.34224 0 7.731C0 6.93111 0.150923 6.18026 0.45277 5.47847C0.754616 4.77668 1.16966 4.16544 1.69789 3.64475C2.22612 3.12407 2.84113 2.70903 3.54292 2.39964C4.24472 2.09024 4.99556 1.93555 5.79545 1.93555H11.5909C12.3908 1.93555 13.1416 2.08647 13.8434 2.38832C14.5452 2.69016 15.1565 3.1052 15.6772 3.63343C16.1978 4.16167 16.6129 4.77668 16.9223 5.47847C17.2317 6.18026 17.3864 6.93111 17.3864 7.731C17.3864 8.53089 17.2354 9.28174 16.9336 9.98353C16.6317 10.6853 16.2167 11.2966 15.6885 11.8172C15.1602 12.3379 14.5452 12.753 13.8434 13.0624C13.1416 13.3718 12.3908 13.5265 11.5909 13.5265H9.65532C9.65532 13.2623 9.70437 13.0133 9.80247 12.7794C9.90057 12.5455 10.0402 12.3417 10.2213 12.1681C10.4024 11.9946 10.6061 11.855 10.8325 11.7493C11.0589 11.6437 11.3117 11.5909 11.5909 11.5909C12.1191 11.5909 12.6172 11.489 13.085 11.2852C13.5529 11.0815 13.9642 10.8061 14.3188 10.4589C14.6735 10.1118 14.949 9.70432 15.1452 9.23646C15.3414 8.7686 15.4432 8.26678 15.4508 7.731C15.4508 7.20277 15.3527 6.70472 15.1565 6.23686C14.9603 5.769 14.6848 5.35773 14.3302 5.00306C13.9755 4.64839 13.5642 4.36918 13.0964 4.16544C12.6285 3.96169 12.1267 3.85982 11.5909 3.85982H5.79545C5.25968 3.85982 4.75786 3.96169 4.28999 4.16544C3.82213 4.36918 3.41464 4.64462 3.06752 4.99174C2.72039 5.33887 2.44496 5.75013 2.24121 6.22554C2.03746 6.70095 1.93559 7.20277 1.93559 7.731Z" fill="#1B4B48"/>
</g>
<defs>
<clipPath id="clip0_14563_15988">
<rect width="23.1818" height="23.1818" fill="white"/>
</clipPath>
</defs>
</svg>
