<svg width="24" height="24" viewBox="0 0 24 24" fill="none" xmlns="http://www.w3.org/2000/svg">
<path d="M12 2L14.4721 4.39155L17.8779 3.90983L18.4721 7.29772L21.5106 8.90983L20 12L21.5106 15.0902L18.4721 16.7023L17.8779 20.0902L14.4721 19.6085L12 22L9.52786 19.6085L6.12215 20.0902L5.52786 16.7023L2.48944 15.0902L4 12L2.48944 8.90983L5.52786 7.29772L6.12215 3.90983L9.52786 4.39155L12 2Z" stroke="#808D9E" stroke-width="1.5"/>
<path d="M8 9.79006C8 9.2302 8.17483 8.7919 8.5245 8.47514C8.88212 8.15838 9.33907 8 9.89536 8C10.4517 8 10.9046 8.15838 11.2543 8.47514C11.6119 8.7919 11.7907 9.2302 11.7907 9.79006C11.7907 10.3573 11.6119 10.7993 11.2543 11.116C10.9046 11.4328 10.4517 11.5912 9.89536 11.5912C9.33907 11.5912 8.88212 11.4328 8.5245 11.116C8.17483 10.7993 8 10.3573 8 9.79006ZM15.653 8.1326L10.9682 15.8674H9.34702L14.0199 8.1326H15.653ZM9.88344 8.92818C9.44636 8.92818 9.22781 9.21547 9.22781 9.79006C9.22781 10.372 9.44636 10.663 9.88344 10.663C10.098 10.663 10.2649 10.593 10.3841 10.453C10.5033 10.3057 10.5629 10.0847 10.5629 9.79006C10.5629 9.21547 10.3364 8.92818 9.88344 8.92818ZM13.2331 14.1989C13.2331 13.6317 13.4079 13.1934 13.7576 12.884C14.1152 12.5672 14.5722 12.4088 15.1285 12.4088C15.6848 12.4088 16.1338 12.5672 16.4755 12.884C16.8252 13.1934 17 13.6317 17 14.1989C17 14.7661 16.8252 15.2081 16.4755 15.5249C16.1338 15.8416 15.6848 16 15.1285 16C14.5642 16 14.1073 15.8416 13.7576 15.5249C13.4079 15.2081 13.2331 14.7661 13.2331 14.1989ZM15.1166 13.337C14.6636 13.337 14.4371 13.6243 14.4371 14.1989C14.4371 14.7808 14.6636 15.0718 15.1166 15.0718C15.5616 15.0718 15.7841 14.7808 15.7841 14.1989C15.7841 13.6243 15.5616 13.337 15.1166 13.337Z" fill="#808D9E"/>
</svg>
