<svg width="16" height="16" viewBox="0 0 16 16" fill="none" xmlns="http://www.w3.org/2000/svg">
<path d="M14.1406 8.65608C13.9609 10.2495 13.1873 11.7167 11.974 12.7652C10.7607 13.8136 9.19684 14.3664 7.59418 14.3131C5.99151 14.2599 4.46778 13.6047 3.32672 12.478C2.18566 11.3514 1.51109 9.83607 1.4375 8.23421C1.44545 7.90428 1.47679 7.57533 1.53126 7.24983C1.56065 7.71975 1.74994 8.16548 2.06768 8.51294C2.38543 8.86041 2.81248 9.08869 3.27791 9.15988C3.74334 9.23106 4.21911 9.14084 4.62618 8.90423C5.03325 8.66762 5.34713 8.29886 5.51563 7.8592C5.56774 7.75689 5.59956 7.64548 5.60937 7.53108C5.75453 7.0131 6.07691 6.56249 6.52026 6.25784C6.96362 5.95319 7.49984 5.81382 8.03543 5.86404C8.57103 5.91425 9.072 6.15085 9.45101 6.5326C9.83002 6.91435 10.063 7.41702 10.1094 7.95295V8.37483C10.1678 8.876 10.4121 9.33704 10.794 9.66684C11.1758 9.99663 11.6675 10.1712 12.1719 10.1561C12.6201 10.1606 13.057 10.0155 13.4136 9.74384C13.7702 9.47218 14.026 9.08942 14.1406 8.65608Z" stroke="#FD451C" stroke-linecap="round" stroke-linejoin="round"/>
<path d="M10.1094 8.23421V8.37483C10.0852 8.9676 9.83251 9.52801 9.40436 9.93869C8.97621 10.3494 8.40577 10.5785 7.8125 10.578C7.1909 10.578 6.59475 10.331 6.15521 9.89148C5.71567 9.45194 5.46875 8.85581 5.46875 8.23421C5.46875 8.09358 5.51563 7.99982 5.51563 7.8592C5.56774 7.75689 5.59956 7.64548 5.60937 7.53108C5.75453 7.0131 6.0769 6.56249 6.52026 6.25784C6.96362 5.95319 7.49984 5.81382 8.03543 5.86404C8.57102 5.91425 9.072 6.15085 9.45101 6.5326C9.83002 6.91435 10.063 7.41702 10.1094 7.95295V8.23421Z" stroke="#FD451C" stroke-linecap="round" stroke-linejoin="round"/>
<path d="M14.1406 8.23438V8.65625C14.026 9.0896 13.7701 9.47235 13.4136 9.74402C13.057 10.0157 12.6201 10.1607 12.1719 10.1562C11.6675 10.1714 11.1758 9.99681 10.794 9.66701C10.4121 9.33721 10.1678 8.87618 10.1094 8.375V7.95313C10.063 7.41719 9.83001 6.91452 9.451 6.53277C9.07199 6.15103 8.57102 5.91442 8.03543 5.86421C7.49984 5.814 6.96362 5.95337 6.52026 6.25802C6.0769 6.56267 5.75453 7.01327 5.60937 7.53126C5.56249 7.62501 5.5625 7.76562 5.51562 7.85937C5.34712 8.29903 5.03325 8.66779 4.62618 8.90441C4.2191 9.14102 3.74333 9.23124 3.2779 9.16005C2.81247 9.08887 2.38542 8.86058 2.06768 8.51312C1.74993 8.16565 1.56064 7.71993 1.53125 7.25C1.5819 6.90058 1.66027 6.55574 1.76562 6.21875C2.20264 4.96209 3.01916 3.87219 4.10238 3.09966C5.1856 2.32713 6.48203 1.91013 7.8125 1.90626C9.34632 1.90392 10.8288 2.45875 11.9842 3.46756C13.1396 4.47637 13.8892 5.87049 14.0937 7.39062C14.1326 7.6701 14.1483 7.95232 14.1406 8.23438Z" stroke="#FD451C" stroke-linecap="round" stroke-linejoin="round"/>
<path d="M3.73438 7.15625L4.29688 6.5" stroke="#FD451C" stroke-linecap="round" stroke-linejoin="round"/>
<path d="M5.98439 5.14063L5.32812 4.625" stroke="#FD451C" stroke-linecap="round" stroke-linejoin="round"/>
<path d="M11.1406 5.28125L10.4844 4.76562" stroke="#FD451C" stroke-linecap="round" stroke-linejoin="round"/>
<path d="M7.85938 4.29687L8.37499 3.64062" stroke="#FD451C" stroke-linecap="round" stroke-linejoin="round"/>
<path d="M11.8906 7.625L12.4531 6.96875" stroke="#FD451C" stroke-linecap="round" stroke-linejoin="round"/>
</svg>
