<svg width="20" height="21" viewBox="0 0 20 21" fill="none" xmlns="http://www.w3.org/2000/svg">
<g clip-path="url(#clip0_8064_18888)">
<path d="M8.40833 13.4917L9.58333 14.6667L13.75 10.5L9.58333 6.33333L8.40833 7.50833L10.5583 9.66667H2.5V11.3333H10.5583L8.40833 13.4917ZM15.8333 3H4.16667C3.24167 3 2.5 3.75 2.5 4.66667V8H4.16667V4.66667H15.8333V16.3333H4.16667V13H2.5V16.3333C2.5 17.25 3.24167 18 4.16667 18H15.8333C16.75 18 17.5 17.25 17.5 16.3333V4.66667C17.5 3.75 16.75 3 15.8333 3Z" fill="#323232"/>
</g>
<defs>
<clipPath id="clip0_8064_18888">
<rect width="20" height="20" fill="white" transform="translate(0 0.5)"/>
</clipPath>
</defs>
</svg>
