<svg width="28" height="28" viewBox="0 0 28 28" fill="none" xmlns="http://www.w3.org/2000/svg">
<path fill-rule="evenodd" clip-rule="evenodd" d="M11.939 3.17041C13.2263 1.88285 14.9724 1.1594 16.7931 1.15918H20.3239C20.584 1.15918 20.8335 1.26251 21.0174 1.44644C21.2013 1.63037 21.3047 1.87983 21.3047 2.13995V6.84764C21.3047 7.10776 21.2013 7.35722 21.0174 7.54115C20.8335 7.72508 20.584 7.82841 20.3239 7.82841H16.7931C16.7674 7.82841 16.7419 7.83348 16.7181 7.84334C16.6943 7.8532 16.6726 7.86765 16.6544 7.88586C16.6362 7.90408 16.6218 7.9257 16.6119 7.9495C16.602 7.9733 16.597 7.99881 16.597 8.02456V10.5746H20.3239C20.473 10.5745 20.6202 10.6084 20.7542 10.6737C20.8882 10.7391 21.0056 10.8341 21.0974 10.9516C21.1891 11.0691 21.2529 11.206 21.2839 11.3518C21.3148 11.4977 21.3121 11.6487 21.2759 11.7933L20.099 16.501C20.0459 16.7133 19.9233 16.9017 19.7508 17.0363C19.5783 17.1709 19.3658 17.2439 19.147 17.2438H16.597V25.6784C16.597 25.9385 16.4936 26.188 16.3097 26.3719C16.1258 26.5558 15.8763 26.6592 15.6162 26.6592H10.9085C10.6484 26.6592 10.3989 26.5558 10.215 26.3719C10.0311 26.188 9.92774 25.9385 9.92774 25.6784V17.2438H7.37774C7.11763 17.2438 6.86816 17.1405 6.68423 16.9565C6.5003 16.7726 6.39697 16.5231 6.39697 16.263V11.5553C6.39697 11.4265 6.42234 11.299 6.47163 11.18C6.52092 11.061 6.59316 10.9529 6.68423 10.8618C6.77531 10.7708 6.88343 10.6985 7.00242 10.6492C7.12141 10.5999 7.24895 10.5746 7.37774 10.5746H9.92774V8.02456C9.92796 6.20383 10.6514 4.45775 11.939 3.17041ZM16.7931 3.12072C15.4925 3.12072 14.2452 3.63737 13.3256 4.55702C12.4059 5.47667 11.8893 6.72398 11.8893 8.02456V11.5553C11.8893 11.8154 11.786 12.0649 11.602 12.2488C11.4181 12.4328 11.1686 12.5361 10.9085 12.5361H8.35851V15.2823H10.9085C11.1686 15.2823 11.4181 15.3856 11.602 15.5695C11.786 15.7534 11.8893 16.0029 11.8893 16.263V24.6976H14.6354V16.263C14.6354 16.0029 14.7388 15.7534 14.9227 15.5695C15.1066 15.3856 15.3561 15.2823 15.6162 15.2823H18.3807L19.0672 12.5361H15.6162C15.3561 12.5361 15.1066 12.4328 14.9227 12.2488C14.7388 12.0649 14.6354 11.8154 14.6354 11.5553V8.02456C14.6354 7.45231 14.8628 6.90349 15.2674 6.49885C15.6721 6.0942 16.2209 5.86687 16.7931 5.86687H19.3431V3.12072H16.7931Z" fill="#717513"/>
</svg>
