<svg width="17" height="17" viewBox="0 0 17 17" fill="none" xmlns="http://www.w3.org/2000/svg">
<path fill-rule="evenodd" clip-rule="evenodd" d="M8.5 2.68072C9.4265 1.56299 10.846 0.850098 12.325 0.850098C14.943 0.850098 17 2.97116 17 5.6907C17 9.00871 14.11 11.7282 9.7325 15.8384L8.5 17.0001L7.2675 15.8384C2.89 11.7282 0 9.00871 0 5.6907C0 2.97116 2.057 0.850098 4.675 0.850098C6.154 0.850098 7.5735 1.56299 8.5 2.68072ZM8.5 14.6238L8.585 14.5358C12.631 10.7425 15.3 8.23421 15.3 5.6907C15.3 3.93048 14.025 2.61032 12.325 2.61032C11.016 2.61032 9.741 3.49042 9.2905 4.68737H7.7095C7.259 3.49042 5.984 2.61032 4.675 2.61032C2.975 2.61032 1.7 3.93048 1.7 5.6907C1.7 8.23421 4.369 10.7425 8.4065 14.5358L8.5 14.6238Z" fill="black"/>
</svg>
