<svg width="28" height="28" viewBox="0 0 28 28" fill="none" xmlns="http://www.w3.org/2000/svg">
<path fill-rule="evenodd" clip-rule="evenodd" d="M11.9395 3.17041C13.2268 1.88285 14.9729 1.1594 16.7936 1.15918H20.3244C20.5845 1.15918 20.834 1.26251 21.0179 1.44644C21.2018 1.63037 21.3052 1.87983 21.3052 2.13995V6.84764C21.3052 7.10776 21.2018 7.35722 21.0179 7.54115C20.834 7.72508 20.5845 7.82841 20.3244 7.82841H16.7936C16.7679 7.82841 16.7423 7.83348 16.7185 7.84334C16.6948 7.8532 16.6731 7.86765 16.6549 7.88586C16.6367 7.90408 16.6223 7.9257 16.6124 7.9495C16.6025 7.9733 16.5975 7.99881 16.5975 8.02456V10.5746H20.3244C20.4735 10.5745 20.6206 10.6084 20.7547 10.6737C20.8887 10.7391 21.0061 10.8341 21.0978 10.9516C21.1896 11.0691 21.2534 11.206 21.2844 11.3518C21.3153 11.4977 21.3126 11.6487 21.2764 11.7933L20.0995 16.501C20.0464 16.7133 19.9238 16.9017 19.7513 17.0363C19.5788 17.1709 19.3663 17.2439 19.1475 17.2438H16.5975V25.6784C16.5975 25.9385 16.4941 26.188 16.3102 26.3719C16.1263 26.5558 15.8768 26.6592 15.6167 26.6592H10.909C10.6489 26.6592 10.3994 26.5558 10.2155 26.3719C10.0316 26.188 9.92823 25.9385 9.92823 25.6784V17.2438H7.37823C7.11811 17.2438 6.86865 17.1405 6.68472 16.9565C6.50079 16.7726 6.39746 16.5231 6.39746 16.263V11.5553C6.39746 11.4265 6.42283 11.299 6.47212 11.18C6.52141 11.061 6.59365 10.9529 6.68472 10.8618C6.77579 10.7708 6.88391 10.6985 7.00291 10.6492C7.1219 10.5999 7.24943 10.5746 7.37823 10.5746H9.92823V8.02456C9.92845 6.20383 10.6519 4.45775 11.9395 3.17041ZM16.7936 3.12072C15.493 3.12072 14.2457 3.63737 13.3261 4.55702C12.4064 5.47667 11.8898 6.72398 11.8898 8.02456V11.5553C11.8898 11.8154 11.7864 12.0649 11.6025 12.2488C11.4186 12.4328 11.1691 12.5361 10.909 12.5361H8.359V15.2823H10.909C11.1691 15.2823 11.4186 15.3856 11.6025 15.5695C11.7864 15.7534 11.8898 16.0029 11.8898 16.263V24.6976H14.6359V16.263C14.6359 16.0029 14.7393 15.7534 14.9232 15.5695C15.1071 15.3856 15.3566 15.2823 15.6167 15.2823H18.3812L19.0677 12.5361H15.6167C15.3566 12.5361 15.1071 12.4328 14.9232 12.2488C14.7393 12.0649 14.6359 11.8154 14.6359 11.5553V8.02456C14.6359 7.45231 14.8632 6.90349 15.2679 6.49885C15.6725 6.0942 16.2214 5.86687 16.7936 5.86687H19.3436V3.12072H16.7936Z" fill="#9A1F1F"/>
</svg>
