<svg width="27" height="26" viewBox="0 0 27 26" fill="none" xmlns="http://www.w3.org/2000/svg">
<g clip-path="url(#clip0_13076_13430)">
<path fill-rule="evenodd" clip-rule="evenodd" d="M18.9 11.3114L18.4866 14.2491H13.5215V24.5311H10.5041V14.2491H5.97794V11.3114H10.5041V8.61897C10.5041 4.88367 12.8607 2.46885 16.5102 2.46885C18.0732 2.46885 19.0479 2.54965 19.6106 2.62309L19.5668 5.40512L17.2465 5.40952C17.1831 5.40365 15.6714 5.28908 14.5806 6.2644C13.8775 6.8916 13.5215 7.79348 13.5215 8.94214V11.3114H18.9V11.3114ZM15.5929 7.35283C16.1873 6.81375 17.1137 6.8725 17.1816 6.87544L21.0529 6.87397L21.1359 1.43772L20.5535 1.29818C20.1794 1.20859 19.0343 1 16.5102 1C12.0158 1 8.99535 4.06258 8.99535 8.61897V9.84254H4.46924V15.718H8.99535V26H15.0302V15.718H19.8007L20.629 9.84254H15.0302V8.94212C15.0302 8.2268 15.2203 7.69212 15.5929 7.35283Z" fill="#FD451C" stroke="#FD451C" stroke-width="0.6"/>
</g>
<defs>
<clipPath id="clip0_13076_13430">
<rect width="26" height="26" fill="white" transform="translate(0.135742)"/>
</clipPath>
</defs>
</svg>
