<svg width="39" height="39" viewBox="0 0 39 39" fill="none" xmlns="http://www.w3.org/2000/svg">
<path d="M19.5 31.0578C26.1274 31.0578 31.5 25.7967 31.5 19.3067C31.5 12.8168 26.1274 7.55566 19.5 7.55566C12.8726 7.55566 7.5 12.8168 7.5 19.3067C7.5 25.7967 12.8726 31.0578 19.5 31.0578Z" fill="url(#paint0_radial_7488_8834)" stroke="#D0F8FF" stroke-opacity="0.2" stroke-width="14" stroke-miterlimit="10"/>
<path opacity="0.9" d="M28.223 16.9159C26.9026 17.3809 12.2666 17.4729 10.775 16.9159C9.75658 16.7697 9.35725 14.5187 10.6911 12.6867C14.8656 6.90976 24.1324 6.90976 28.3086 12.6867C29.6408 14.5204 29.2432 16.7713 28.223 16.9159Z" fill="url(#paint1_linear_7488_8834)"/>
<path opacity="0.3" d="M28.2229 21.4199C29.2413 21.5662 29.6407 23.8171 28.3068 25.6491C24.1306 31.4261 14.8655 31.4261 10.6893 25.6491C9.35711 23.8171 9.75476 21.5662 10.7749 21.4199H28.2229Z" fill="url(#paint2_linear_7488_8834)"/>
<path d="M17.4078 18.8173C17.1545 18.8173 16.9498 18.6168 16.9498 18.3687C16.9498 16.9113 15.7384 15.7267 14.2518 15.7267C12.7652 15.7267 11.5538 16.913 11.5538 18.3687C11.5538 18.6168 11.3491 18.8173 11.0957 18.8173C10.8424 18.8173 10.6377 18.6168 10.6377 18.3687C10.6377 16.4168 12.2585 14.8296 14.2518 14.8296C16.2451 14.8296 17.8659 16.4168 17.8659 18.3687C17.8659 18.6152 17.6612 18.8173 17.4078 18.8173Z" fill="#754C24"/>
<path d="M27.9059 18.8173C27.6525 18.8173 27.4478 18.6168 27.4478 18.3687C27.4478 16.9113 26.2364 15.7267 24.7498 15.7267C23.2616 15.7267 22.0518 16.913 22.0518 18.3687C22.0518 18.6168 21.8472 18.8173 21.5938 18.8173C21.3404 18.8173 21.1357 18.6168 21.1357 18.3687C21.1357 16.4168 22.7565 14.8296 24.7498 14.8296C26.7431 14.8296 28.3639 16.4168 28.3639 18.3687C28.3639 18.6152 28.1592 18.8173 27.9059 18.8173Z" fill="#754C24"/>
<path d="M19.4998 26.4789C17.5065 26.4789 15.8857 24.8917 15.8857 22.9398C15.8857 22.6917 16.0904 22.4912 16.3438 22.4912C16.5972 22.4912 16.8018 22.6917 16.8018 22.9398C16.8018 24.3971 18.0133 25.5818 19.4998 25.5818C20.9881 25.5818 22.1978 24.3955 22.1978 22.9398C22.1978 22.6917 22.4025 22.4912 22.6559 22.4912C22.9092 22.4912 23.1139 22.6917 23.1139 22.9398C23.1139 24.8901 21.4931 26.4789 19.4998 26.4789Z" fill="#754C24"/>
<path d="M25.965 23.5457C27.8581 23.5457 29.3928 22.4224 29.3928 21.0368C29.3928 19.6511 27.8581 18.5278 25.965 18.5278C24.0718 18.5278 22.5371 19.6511 22.5371 21.0368C22.5371 22.4224 24.0718 23.5457 25.965 23.5457Z" fill="url(#paint3_radial_7488_8834)"/>
<path d="M13.0353 23.5457C14.9284 23.5457 16.4631 22.4224 16.4631 21.0368C16.4631 19.6511 14.9284 18.5278 13.0353 18.5278C11.1421 18.5278 9.60742 19.6511 9.60742 21.0368C9.60742 22.4224 11.1421 23.5457 13.0353 23.5457Z" fill="url(#paint4_radial_7488_8834)"/>
<defs>
<radialGradient id="paint0_radial_7488_8834" cx="0" cy="0" r="1" gradientUnits="userSpaceOnUse" gradientTransform="translate(19.662 13.5897) rotate(90) scale(17.4674 17.8374)">
<stop stop-color="#FFDB59"/>
<stop offset="0.2319" stop-color="#FAC147"/>
<stop offset="0.7237" stop-color="#EF801B"/>
<stop offset="1" stop-color="#E85900"/>
</radialGradient>
<linearGradient id="paint1_linear_7488_8834" x1="19.4997" y1="8.42337" x2="19.4997" y2="16.356" gradientUnits="userSpaceOnUse">
<stop stop-color="white"/>
<stop offset="1" stop-color="white" stop-opacity="0"/>
</linearGradient>
<linearGradient id="paint2_linear_7488_8834" x1="19.4996" y1="29.9169" x2="19.4996" y2="22.7294" gradientUnits="userSpaceOnUse">
<stop stop-color="white"/>
<stop offset="1" stop-color="white" stop-opacity="0"/>
</linearGradient>
<radialGradient id="paint3_radial_7488_8834" cx="0" cy="0" r="1" gradientUnits="userSpaceOnUse" gradientTransform="translate(25.9648 21.0363) scale(3.42861 2.50934)">
<stop stop-color="#FF5252"/>
<stop offset="0.8944" stop-color="#FF5252" stop-opacity="0"/>
</radialGradient>
<radialGradient id="paint4_radial_7488_8834" cx="0" cy="0" r="1" gradientUnits="userSpaceOnUse" gradientTransform="translate(13.0351 21.0363) scale(3.42861 2.50934)">
<stop stop-color="#FF5252"/>
<stop offset="0.8944" stop-color="#FF5252" stop-opacity="0"/>
</radialGradient>
</defs>
</svg>
