<svg width="22" height="22" viewBox="0 0 22 22" fill="none" xmlns="http://www.w3.org/2000/svg">
<path d="M10.9998 9V13.26H16.9197C16.6598 14.63 15.8797 15.7901 14.7097 16.57L18.2797 19.3401C20.3597 17.4201 21.5597 14.6001 21.5597 11.2501C21.5597 10.4701 21.4897 9.72005 21.3597 9.00012L10.9998 9Z" fill="#4285F4"/>
<path d="M4.83514 13.0938L4.02998 13.7101L1.17993 15.9301C2.98993 19.52 6.69965 22.0001 10.9996 22.0001C13.9695 22.0001 16.4595 21.0201 18.2796 19.3401L14.7096 16.5701C13.7296 17.2301 12.4796 17.6301 10.9996 17.6301C8.13963 17.6301 5.7097 15.7001 4.83964 13.1001L4.83514 13.0938Z" fill="#34A853"/>
<path d="M1.17991 6.06982C0.429955 7.54976 0 9.21979 0 10.9998C0 12.7797 0.429955 14.4498 1.17991 15.9297C1.17991 15.9396 4.83998 13.0897 4.83998 13.0897C4.61998 12.4297 4.48994 11.7297 4.48994 10.9996C4.48994 10.2695 4.61998 9.56959 4.83998 8.90959L1.17991 6.06982Z" fill="#FBBC05"/>
<path d="M10.9998 4.38C12.6199 4.38 14.0598 4.93998 15.2098 6.02L18.3598 2.87004C16.4498 1.09007 13.9699 0 10.9998 0C6.69988 0 2.98993 2.47 1.17993 6.07001L4.83988 8.91001C5.70983 6.30998 8.13986 4.38 10.9998 4.38Z" fill="#EA4335"/>
</svg>
