<svg xmlns="http://www.w3.org/2000/svg" width="24" height="24" viewBox="0 0 24 24" fill="none">
  <path opacity="0.7" d="M12.2222 5.97672C13.6437 5.95265 15.0175 6.49021 16.0452 7.47272L18.9132 4.60472C17.1037 2.9036 14.7055 1.96989 12.2222 1.99972C10.3681 1.9994 8.55055 2.51452 6.97238 3.48752C5.39421 4.46052 4.11761 5.8531 3.28516 7.50972L6.62616 10.0997C7.01039 8.91347 7.757 7.87761 8.76088 7.13797C9.76475 6.39834 10.9753 5.9922 12.2222 5.97672Z" fill="#1B4B48"/>
  <path d="M3.28517 7.50977C2.58585 8.90319 2.22168 10.4407 2.22168 11.9998C2.22168 13.5588 2.58585 15.0963 3.28517 16.4898L6.62617 13.8998C6.2071 12.6678 6.2071 11.3318 6.62617 10.0998L3.28517 7.50977Z" fill="#1B4B48"/>
  <path opacity="0.5" d="M15.6081 17.0684C14.835 17.5647 13.9587 17.8778 13.0462 17.984C12.1336 18.0901 11.2088 17.9864 10.3424 17.6809C9.47602 17.3753 8.69085 16.8759 8.0468 16.2207C7.40275 15.5655 6.91684 14.7719 6.62613 13.9004L3.28613 16.4904C4.11843 18.1467 5.39472 19.5391 6.97251 20.5121C8.55029 21.485 10.3675 22.0003 12.2211 22.0004C14.6554 22.066 17.0227 21.1993 18.8391 19.5774L15.6081 17.0684Z" fill="#1B4B48"/>
  <path opacity="0.25" d="M21.6397 10.1816H12.2217V14.0496H17.6037C17.4923 14.6615 17.258 15.2444 16.9149 15.7631C16.5718 16.2819 16.1271 16.7256 15.6077 17.0676L18.8397 19.5776C19.824 18.6299 20.5982 17.4858 21.1119 16.2196C21.6256 14.9534 21.8674 13.5933 21.8217 12.2276C21.8217 11.5396 21.761 10.8576 21.6397 10.1816Z" fill="#1B4B48"/>
</svg>