<svg width="24" height="24" viewBox="0 0 24 24" fill="none" xmlns="http://www.w3.org/2000/svg">
<path opacity="0.7" d="M12.2222 5.97721C13.6437 5.95314 15.0175 6.4907 16.0452 7.47321L18.9132 4.60521C17.1037 2.90408 14.7055 1.97037 12.2222 2.00021C10.3681 1.99989 8.55055 2.51501 6.97238 3.48801C5.39421 4.46101 4.11761 5.85359 3.28516 7.51021L6.62616 10.1002C7.01039 8.91396 7.757 7.87809 8.76088 7.13846C9.76475 6.39883 10.9753 5.99268 12.2222 5.97721Z" fill="#717513"/>
<path d="M3.28517 7.50977C2.58585 8.90319 2.22168 10.4407 2.22168 11.9998C2.22168 13.5588 2.58585 15.0963 3.28517 16.4898L6.62617 13.8998C6.2071 12.6678 6.2071 11.3318 6.62617 10.0998L3.28517 7.50977Z" fill="#717513"/>
<path opacity="0.5" d="M15.6081 17.0679C14.835 17.5642 13.9587 17.8773 13.0462 17.9835C12.1336 18.0896 11.2088 17.986 10.3424 17.6804C9.47602 17.3748 8.69085 16.8754 8.0468 16.2202C7.40275 15.565 6.91684 14.7714 6.62613 13.8999L3.28613 16.4899C4.11843 18.1462 5.39472 19.5386 6.97251 20.5116C8.55029 21.4846 10.3675 21.9998 12.2211 21.9999C14.6554 22.0655 17.0227 21.1988 18.8391 19.5769L15.6081 17.0679Z" fill="#717513"/>
<path opacity="0.25" d="M21.6402 10.1821H12.2222V14.0501H17.6042C17.4928 14.662 17.2584 15.2449 16.9154 15.7636C16.5723 16.2824 16.1276 16.7261 15.6082 17.0681L18.8402 19.5781C19.8245 18.6304 20.5987 17.4863 21.1124 16.2201C21.6261 14.9539 21.8679 13.5938 21.8222 12.2281C21.8222 11.5401 21.7615 10.8581 21.6402 10.1821Z" fill="#717513"/>
</svg>
