<svg width="24" height="24" viewBox="0 0 24 24" fill="none" xmlns="http://www.w3.org/2000/svg">
<path d="M6.98916 13.8775L6.36261 16.2165L4.07258 16.2649C3.38819 14.9955 3 13.5432 3 11.9998C3 10.5074 3.36295 9.10006 4.00631 7.86084H4.0068L6.04557 8.23462L6.93868 10.2612C6.75175 10.8061 6.64987 11.3911 6.64987 11.9998C6.64994 12.6605 6.76961 13.2935 6.98916 13.8775Z" fill="#FBBB00"/>
<path d="M20.8431 10.3184C20.9465 10.8628 21.0003 11.425 21.0003 11.9997C21.0003 12.644 20.9326 13.2725 20.8035 13.8788C20.3654 15.9419 19.2206 17.7433 17.6348 19.0182L17.6343 19.0177L15.0663 18.8866L14.7029 16.6178C15.7552 16.0007 16.5776 15.0349 17.0108 13.8788H12.1982V10.3184H17.081H20.8431Z" fill="#518EF8"/>
<path d="M17.6335 19.0183L17.634 19.0188C16.0917 20.2585 14.1324 21.0002 11.9996 21.0002C8.57225 21.0002 5.59238 19.0845 4.07227 16.2654L6.98885 13.8779C7.74889 15.9064 9.70564 17.3503 11.9996 17.3503C12.9857 17.3503 13.9094 17.0838 14.7021 16.6185L17.6335 19.0183Z" fill="#28B446"/>
<path d="M17.7442 5.07196L14.8286 7.45892C14.0082 6.94613 13.0384 6.64991 11.9995 6.64991C9.65358 6.64991 7.66023 8.16011 6.93826 10.2613L4.00635 7.86096H4.00586C5.50372 4.97307 8.52117 3 11.9995 3C14.1832 3 16.1855 3.77786 17.7442 5.07196Z" fill="#F14336"/>
</svg>
