<svg width="19" height="17" viewBox="0 0 19 17" fill="none" xmlns="http://www.w3.org/2000/svg">
<path fill-rule="evenodd" clip-rule="evenodd" d="M9.35021 2.85966C10.3181 1.80767 11.8011 1.13672 13.3462 1.13672C16.0813 1.13672 18.2302 3.13301 18.2302 5.69258C18.2302 8.81541 15.211 11.375 10.6378 15.2433L9.35021 16.3367L8.06261 15.2433C3.48941 11.375 0.470215 8.81541 0.470215 5.69258C0.470215 3.13301 2.61917 1.13672 5.35421 1.13672C6.89933 1.13672 8.3823 1.80767 9.35021 2.85966ZM9.35021 14.1002L9.43902 14.0174C13.6659 10.4472 16.4542 8.08647 16.4542 5.69258C16.4542 4.0359 15.1222 2.79339 13.3462 2.79339C11.9787 2.79339 10.6467 3.62173 10.1761 4.74827H8.52437C8.05374 3.62173 6.72174 2.79339 5.35421 2.79339C3.57821 2.79339 2.24621 4.0359 2.24621 5.69258C2.24621 8.08647 5.03453 10.4472 9.25253 14.0174L9.35021 14.1002Z" fill="white"/>
</svg>
