<svg xmlns="http://www.w3.org/2000/svg" width="22" height="22" viewBox="0 0 22 22" fill="none">
  <g clip-path="url(#clip0_13213_5356)">
    <path d="M10.083 6.41634H11.9163V8.24967H10.083V6.41634ZM10.083 10.083H11.9163V15.583H10.083V10.083ZM10.9997 1.83301C5.93967 1.83301 1.83301 5.93967 1.83301 10.9997C1.83301 16.0597 5.93967 20.1663 10.9997 20.1663C16.0597 20.1663 20.1663 16.0597 20.1663 10.9997C20.1663 5.93967 16.0597 1.83301 10.9997 1.83301ZM10.9997 18.333C6.95717 18.333 3.66634 15.0422 3.66634 10.9997C3.66634 6.95717 6.95717 3.66634 10.9997 3.66634C15.0422 3.66634 18.333 6.95717 18.333 10.9997C18.333 15.0422 15.0422 18.333 10.9997 18.333Z" fill="white"/>
  </g>
  <defs>
    <clipPath id="clip0_13213_5356">
      <rect width="22" height="22" fill="white"/>
    </clipPath>
  </defs>
</svg>