<svg width="22" height="22" viewBox="0 0 22 22" fill="none" xmlns="http://www.w3.org/2000/svg">
<g clip-path="url(#clip0_8003_20042)">
<path d="M10.0833 6.41683H11.9166V8.25016H10.0833V6.41683ZM10.0833 10.0835H11.9166V15.5835H10.0833V10.0835ZM10.9999 1.8335C5.93992 1.8335 1.83325 5.94016 1.83325 11.0002C1.83325 16.0602 5.93992 20.1668 10.9999 20.1668C16.0599 20.1668 20.1666 16.0602 20.1666 11.0002C20.1666 5.94016 16.0599 1.8335 10.9999 1.8335ZM10.9999 18.3335C6.95742 18.3335 3.66659 15.0427 3.66659 11.0002C3.66659 6.95766 6.95742 3.66683 10.9999 3.66683C15.0424 3.66683 18.3333 6.95766 18.3333 11.0002C18.3333 15.0427 15.0424 18.3335 10.9999 18.3335Z" fill="#323232"/>
</g>
<defs>
<clipPath id="clip0_8003_20042">
<rect width="22" height="22" fill="white"/>
</clipPath>
</defs>
</svg>
