<svg width="27" height="26" viewBox="0 0 27 26" fill="none" xmlns="http://www.w3.org/2000/svg">
<g clip-path="url(#clip0_13076_13423)">
<path d="M13.1357 2.34102C16.6092 2.34102 17.0205 2.35625 18.3865 2.41719C19.6561 2.47305 20.3416 2.68633 20.7986 2.86406C21.4029 3.09766 21.8396 3.38203 22.2916 3.83398C22.7486 4.29102 23.0279 4.72266 23.2615 5.32695C23.4393 5.78398 23.6525 6.47461 23.7084 7.73906C23.7693 9.11016 23.7846 9.52149 23.7846 12.9898C23.7846 16.4633 23.7693 16.8746 23.7084 18.2406C23.6525 19.5102 23.4393 20.1957 23.2615 20.6527C23.0279 21.257 22.7436 21.6938 22.2916 22.1457C21.8346 22.6027 21.4029 22.882 20.7986 23.1156C20.3416 23.2934 19.651 23.5066 18.3865 23.5625C17.0154 23.6234 16.6041 23.6387 13.1357 23.6387C9.66231 23.6387 9.25098 23.6234 7.88496 23.5625C6.61543 23.5066 5.92988 23.2934 5.47285 23.1156C4.86856 22.882 4.43184 22.5977 3.97988 22.1457C3.52285 21.6887 3.24355 21.257 3.00996 20.6527C2.83223 20.1957 2.61895 19.5051 2.56309 18.2406C2.50215 16.8695 2.48691 16.4582 2.48691 12.9898C2.48691 9.51641 2.50215 9.10508 2.56309 7.73906C2.61895 6.46953 2.83223 5.78398 3.00996 5.32695C3.24355 4.72266 3.52793 4.28594 3.97988 3.83398C4.43691 3.37695 4.86856 3.09766 5.47285 2.86406C5.92988 2.68633 6.62051 2.47305 7.88496 2.41719C9.25098 2.35625 9.66231 2.34102 13.1357 2.34102ZM13.1357 0C9.60645 0 9.16465 0.0152344 7.77832 0.0761719C6.39707 0.137109 5.44746 0.360547 4.6248 0.680469C3.7666 1.01562 3.04043 1.45742 2.31934 2.18359C1.59316 2.90469 1.15137 3.63086 0.816211 4.48398C0.496289 5.31172 0.272852 6.25625 0.211914 7.6375C0.150977 9.02891 0.135742 9.4707 0.135742 13C0.135742 16.5293 0.150977 16.9711 0.211914 18.3574C0.272852 19.7387 0.496289 20.6883 0.816211 21.5109C1.15137 22.3691 1.59316 23.0953 2.31934 23.8164C3.04043 24.5375 3.7666 24.9844 4.61973 25.3145C5.44746 25.6344 6.39199 25.8578 7.77324 25.9188C9.15957 25.9797 9.60137 25.9949 13.1307 25.9949C16.66 25.9949 17.1018 25.9797 18.4881 25.9188C19.8693 25.8578 20.8189 25.6344 21.6416 25.3145C22.4947 24.9844 23.2209 24.5375 23.942 23.8164C24.6631 23.0953 25.11 22.3691 25.44 21.516C25.76 20.6883 25.9834 19.7438 26.0443 18.3625C26.1053 16.9762 26.1205 16.5344 26.1205 13.0051C26.1205 9.47578 26.1053 9.03399 26.0443 7.64766C25.9834 6.26641 25.76 5.3168 25.44 4.49414C25.1201 3.63086 24.6783 2.90469 23.9522 2.18359C23.2311 1.4625 22.5049 1.01562 21.6518 0.685547C20.824 0.365625 19.8795 0.142188 18.4982 0.08125C17.1068 0.0152344 16.665 0 13.1357 0Z" fill="#FD451C"/>
<path d="M13.1357 6.32227C9.44902 6.32227 6.45801 9.31328 6.45801 13C6.45801 16.6867 9.44902 19.6777 13.1357 19.6777C16.8225 19.6777 19.8135 16.6867 19.8135 13C19.8135 9.31328 16.8225 6.32227 13.1357 6.32227ZM13.1357 17.3316C10.7439 17.3316 8.8041 15.3918 8.8041 13C8.8041 10.6082 10.7439 8.66836 13.1357 8.66836C15.5275 8.66836 17.4674 10.6082 17.4674 13C17.4674 15.3918 15.5275 17.3316 13.1357 17.3316Z" fill="#FD451C"/>
<path d="M21.6365 6.05801C21.6365 6.92129 20.9357 7.617 20.0775 7.617C19.2143 7.617 18.5186 6.91621 18.5186 6.05801C18.5186 5.19473 19.2193 4.49902 20.0775 4.49902C20.9357 4.49902 21.6365 5.19981 21.6365 6.05801Z" fill="#FD451C"/>
</g>
<defs>
<clipPath id="clip0_13076_13423">
<rect width="26" height="26" fill="white" transform="translate(0.135742)"/>
</clipPath>
</defs>
</svg>
