<svg width="28" height="28" viewBox="0 0 28 28" fill="none" xmlns="http://www.w3.org/2000/svg">
<path d="M9.04109 2.31836H18.7775C22.4865 2.31836 25.5002 5.332 25.5002 9.04109V18.7775C25.5002 20.5604 24.7919 22.2704 23.5311 23.5311C22.2704 24.7919 20.5604 25.5002 18.7775 25.5002H9.04109C5.332 25.5002 2.31836 22.4865 2.31836 18.7775V9.04109C2.31836 7.25811 3.02664 5.54816 4.2874 4.2874C5.54816 3.02664 7.25811 2.31836 9.04109 2.31836ZM8.80927 4.63654C7.70259 4.63654 6.64124 5.07617 5.8587 5.8587C5.07617 6.64124 4.63654 7.70259 4.63654 8.80927V19.0093C4.63654 21.3159 6.50268 23.182 8.80927 23.182H19.0093C20.1159 23.182 21.1773 22.7424 21.9598 21.9598C22.7424 21.1773 23.182 20.1159 23.182 19.0093V8.80927C23.182 6.50268 21.3159 4.63654 19.0093 4.63654H8.80927ZM19.9945 6.37518C20.3788 6.37518 20.7473 6.52783 21.019 6.79954C21.2907 7.07125 21.4434 7.43978 21.4434 7.82404C21.4434 8.2083 21.2907 8.57683 21.019 8.84854C20.7473 9.12026 20.3788 9.2729 19.9945 9.2729C19.6102 9.2729 19.2417 9.12026 18.97 8.84854C18.6983 8.57683 18.5456 8.2083 18.5456 7.82404C18.5456 7.43978 18.6983 7.07125 18.97 6.79954C19.2417 6.52783 19.6102 6.37518 19.9945 6.37518ZM13.9093 8.11381C15.4463 8.11381 16.9204 8.7244 18.0073 9.81126C19.0941 10.8981 19.7047 12.3722 19.7047 13.9093C19.7047 15.4463 19.0941 16.9204 18.0073 18.0073C16.9204 19.0941 15.4463 19.7047 13.9093 19.7047C12.3722 19.7047 10.8981 19.0941 9.81126 18.0073C8.7244 16.9204 8.11381 15.4463 8.11381 13.9093C8.11381 12.3722 8.7244 10.8981 9.81126 9.81126C10.8981 8.7244 12.3722 8.11381 13.9093 8.11381ZM13.9093 10.432C12.987 10.432 12.1026 10.7983 11.4505 11.4505C10.7983 12.1026 10.432 12.987 10.432 13.9093C10.432 14.8315 10.7983 15.716 11.4505 16.3681C12.1026 17.0202 12.987 17.3865 13.9093 17.3865C14.8315 17.3865 15.716 17.0202 16.3681 16.3681C17.0202 15.716 17.3865 14.8315 17.3865 13.9093C17.3865 12.987 17.0202 12.1026 16.3681 11.4505C15.716 10.7983 14.8315 10.432 13.9093 10.432Z" fill="#ED312E"/>
</svg>
