<svg width="16" height="16" viewBox="0 0 16 16" fill="none" xmlns="http://www.w3.org/2000/svg">
<g clip-path="url(#clip0_8248_21628)">
<path d="M11.333 4.6665H8.66634V5.99984H11.333C12.433 5.99984 13.333 6.89984 13.333 7.99984C13.333 9.09984 12.433 9.99984 11.333 9.99984H8.66634V11.3332H11.333C13.173 11.3332 14.6663 9.83984 14.6663 7.99984C14.6663 6.15984 13.173 4.6665 11.333 4.6665ZM7.33301 9.99984H4.66634C3.56634 9.99984 2.66634 9.09984 2.66634 7.99984C2.66634 6.89984 3.56634 5.99984 4.66634 5.99984H7.33301V4.6665H4.66634C2.82634 4.6665 1.33301 6.15984 1.33301 7.99984C1.33301 9.83984 2.82634 11.3332 4.66634 11.3332H7.33301V9.99984ZM5.33301 7.33317H10.6663V8.6665H5.33301V7.33317Z" fill="#191A26"/>
</g>
<defs>
<clipPath id="clip0_8248_21628">
<rect width="16" height="16" fill="white"/>
</clipPath>
</defs>
</svg>
