<svg width="27" height="26" viewBox="0 0 27 26" fill="none" xmlns="http://www.w3.org/2000/svg">
<g clip-path="url(#clip0_13076_13435)">
<path d="M20.5 6H15.3V8.71304H20.5C22.645 8.71304 24.4 10.5443 24.4 12.7826C24.4 15.0209 22.645 16.8522 20.5 16.8522H15.3V19.5652H20.5C24.088 19.5652 27 16.5266 27 12.7826C27 9.03861 24.088 6 20.5 6ZM12.7 16.8522H7.5C5.355 16.8522 3.6 15.0209 3.6 12.7826C3.6 10.5443 5.355 8.71304 7.5 8.71304H12.7V6H7.5C3.912 6 1 9.03861 1 12.7826C1 16.5266 3.912 19.5652 7.5 19.5652H12.7V16.8522ZM8.8 11.4261H19.2V14.1391H8.8V11.4261Z" fill="#FD451C"/>
</g>
<defs>
<clipPath id="clip0_13076_13435">
<rect width="26" height="26" fill="white" transform="translate(0.864746)"/>
</clipPath>
</defs>
</svg>
