<svg width="20" height="20" viewBox="0 0 20 20" fill="none" xmlns="http://www.w3.org/2000/svg">
<path fill-rule="evenodd" clip-rule="evenodd" d="M9.1665 3.33317C5.94484 3.33317 3.33317 5.94484 3.33317 9.1665C3.33317 12.3882 5.94484 14.9998 9.1665 14.9998C10.7381 14.9998 12.1646 14.3783 13.2135 13.3677C13.2354 13.3391 13.2595 13.3117 13.2856 13.2856C13.3117 13.2595 13.3391 13.2354 13.3677 13.2135C14.3783 12.1646 14.9998 10.7381 14.9998 9.1665C14.9998 5.94484 12.3882 3.33317 9.1665 3.33317ZM15.0264 13.8479C16.0528 12.5649 16.6665 10.9373 16.6665 9.1665C16.6665 5.02437 13.3086 1.6665 9.1665 1.6665C5.02437 1.6665 1.6665 5.02437 1.6665 9.1665C1.6665 13.3086 5.02437 16.6665 9.1665 16.6665C10.9373 16.6665 12.5649 16.0528 13.8479 15.0264L16.9106 18.0891C17.236 18.4145 17.7637 18.4145 18.0891 18.0891C18.4145 17.7637 18.4145 17.236 18.0891 16.9106L15.0264 13.8479Z" fill="#BFBDBD"/>
</svg>
