<svg width="12" height="12" viewBox="0 0 12 12" fill="none" xmlns="http://www.w3.org/2000/svg">
<path d="M0.944 9.648C0.944 8.34667 1.104 7.296 1.424 6.496C1.744 5.68533 2.25067 5.08267 2.944 4.688C3.648 4.28267 4.576 4.048 5.728 3.984V0.575999H7.136V3.984C8.20267 4.048 9.088 4.27733 9.792 4.672C10.5067 5.056 11.04 5.648 11.392 6.448C11.744 7.23733 11.92 8.288 11.92 9.6V12H10.496V9.632C10.496 8.576 10.368 7.73333 10.112 7.104C9.86667 6.47467 9.49333 6.016 8.992 5.728C8.50133 5.42933 7.88267 5.25333 7.136 5.2V9.376H5.728V5.2C4.928 5.25333 4.27733 5.42933 3.776 5.728C3.28533 6.02667 2.928 6.49067 2.704 7.12C2.48 7.74933 2.368 8.58133 2.368 9.616V12H0.944V9.648Z" fill="white"/>
</svg>
