<svg width="65" height="53" viewBox="0 0 65 53" fill="none" xmlns="http://www.w3.org/2000/svg">
<g clip-path="url(#clip0_2752_15078)">
<path d="M36.0198 21.9431C35.869 21.9088 35.7241 22.0281 35.7241 22.1846C35.7241 24.7597 35.7241 27.2199 35.7241 29.6786C35.7241 32.1135 35.7374 34.5484 35.7064 36.9833C35.7034 37.2666 35.5349 37.6886 35.3161 37.8064C33.5554 38.7487 31.7636 39.6344 29.9792 40.535C29.9792 40.535 29.9777 40.535 29.9763 40.535C29.8195 40.6125 29.6377 40.4858 29.6377 40.3099V22.1652C29.6377 22.0161 29.5061 21.8983 29.3598 21.9222C21.6427 23.127 13.8133 31.6155 16.5054 42.6717C16.5409 42.8178 16.4403 42.9624 16.2925 42.9759C16.1742 42.9863 16.0574 42.9952 15.9406 42.9952C14.4874 42.9997 13.0342 43.0012 11.5795 42.9967C10.2829 42.9923 10.5343 43.125 10.3214 41.9023C8.2073 29.7368 16.7656 17.7338 28.8719 15.864C29.0552 15.8357 29.2371 15.7984 29.4396 15.7582C29.5534 15.7358 29.6362 15.6329 29.6362 15.5166C29.6333 14.789 29.62 14.0852 29.6495 13.3844C29.6584 13.1757 29.7708 12.867 29.9289 12.7835C31.6926 11.8606 33.4711 10.9674 35.3309 10.0266C35.492 9.94455 35.6842 10.0623 35.6842 10.2443V15.5241C35.6842 15.6374 35.7626 15.7373 35.872 15.7626C36.8699 15.9982 37.819 16.1921 38.7459 16.459C49.8233 19.6453 56.7376 30.9147 54.6191 42.3377C54.5748 42.5792 54.2969 42.9624 54.1195 42.9669C52.3498 43.0102 50.5788 42.9967 48.7382 42.9952C48.5815 42.9952 48.4677 42.8476 48.5017 42.6941C49.844 36.8029 48.7382 31.5276 44.7126 26.9903C42.3916 24.375 39.494 22.7274 36.0183 21.9416L36.0198 21.9431Z" fill="#191A26"/>
</g>
<defs>
<clipPath id="clip0_2752_15078">
<rect width="45" height="32.9994" fill="white" transform="translate(10 10)"/>
</clipPath>
</defs>
</svg>
