<svg width="17" height="18" viewBox="0 0 17 18" fill="none" xmlns="http://www.w3.org/2000/svg">
<g clip-path="url(#clip0_7523_15125)">
<path d="M10.6748 1.21533H6.4248V2.632H10.6748V1.21533ZM7.84147 10.4237H9.25814V6.17367H7.84147V10.4237ZM13.5294 5.7345L14.5352 4.72867C14.2306 4.36742 13.8977 4.02742 13.5365 3.72992L12.5306 4.73575C11.4327 3.85742 10.0515 3.33325 8.5498 3.33325C5.02939 3.33325 2.1748 6.18783 2.1748 9.70825C2.1748 13.2287 5.0223 16.0832 8.5498 16.0832C12.0773 16.0832 14.9248 13.2287 14.9248 9.70825C14.9248 8.21367 14.4006 6.83242 13.5294 5.7345ZM8.5498 14.6737C5.80855 14.6737 3.59147 12.4566 3.59147 9.71533C3.59147 6.97408 5.80855 4.757 8.5498 4.757C11.2911 4.757 13.5081 6.97408 13.5081 9.71533C13.5081 12.4566 11.2911 14.6737 8.5498 14.6737Z" fill="#00C40E"/>
</g>
<defs>
<clipPath id="clip0_7523_15125">
<rect width="17" height="17" fill="white" transform="translate(0 0.5)"/>
</clipPath>
</defs>
</svg>
