<svg width="25" height="24" viewBox="0 0 25 24" fill="none" xmlns="http://www.w3.org/2000/svg">
<path d="M5.75 4.5C4.75544 4.5 3.80161 4.89509 3.09835 5.59835C2.39509 6.30161 2 7.25544 2 8.25V9H23V8.25C23 7.25544 22.6049 6.30161 21.9016 5.59835C21.1984 4.89509 20.2446 4.5 19.25 4.5H5.75ZM23 10.5H2V15.75C2 16.7446 2.39509 17.6984 3.09835 18.4017C3.80161 19.1049 4.75544 19.5 5.75 19.5H19.25C20.2446 19.5 21.1984 19.1049 21.9016 18.4017C22.6049 17.6984 23 16.7446 23 15.75V10.5ZM16.25 15H19.25C19.4489 15 19.6397 15.079 19.7803 15.2197C19.921 15.3603 20 15.5511 20 15.75C20 15.9489 19.921 16.1397 19.7803 16.2803C19.6397 16.421 19.4489 16.5 19.25 16.5H16.25C16.0511 16.5 15.8603 16.421 15.7197 16.2803C15.579 16.1397 15.5 15.9489 15.5 15.75C15.5 15.5511 15.579 15.3603 15.7197 15.2197C15.8603 15.079 16.0511 15 16.25 15Z" fill="#FD451C"/>
</svg>
