<svg width="16" height="16" viewBox="0 0 16 16" fill="none" xmlns="http://www.w3.org/2000/svg">
<g clip-path="url(#clip0_8082_12153)">
<path d="M12 10.7202C11.4933 10.7202 11.04 10.9202 10.6933 11.2335L5.94 8.46683C5.97333 8.3135 6 8.16016 6 8.00016C6 7.84016 5.97333 7.68683 5.94 7.5335L10.64 4.7935C11 5.12683 11.4733 5.3335 12 5.3335C13.1067 5.3335 14 4.44016 14 3.3335C14 2.22683 13.1067 1.3335 12 1.3335C10.8933 1.3335 10 2.22683 10 3.3335C10 3.4935 10.0267 3.64683 10.06 3.80016L5.36 6.54016C5 6.20683 4.52667 6.00016 4 6.00016C2.89333 6.00016 2 6.8935 2 8.00016C2 9.10683 2.89333 10.0002 4 10.0002C4.52667 10.0002 5 9.7935 5.36 9.46016L10.1067 12.2335C10.0733 12.3735 10.0533 12.5202 10.0533 12.6668C10.0533 13.7402 10.9267 14.6135 12 14.6135C13.0733 14.6135 13.9467 13.7402 13.9467 12.6668C13.9467 11.5935 13.0733 10.7202 12 10.7202ZM12 2.66683C12.3667 2.66683 12.6667 2.96683 12.6667 3.3335C12.6667 3.70016 12.3667 4.00016 12 4.00016C11.6333 4.00016 11.3333 3.70016 11.3333 3.3335C11.3333 2.96683 11.6333 2.66683 12 2.66683ZM4 8.66683C3.63333 8.66683 3.33333 8.36683 3.33333 8.00016C3.33333 7.6335 3.63333 7.3335 4 7.3335C4.36667 7.3335 4.66667 7.6335 4.66667 8.00016C4.66667 8.36683 4.36667 8.66683 4 8.66683ZM12 13.3468C11.6333 13.3468 11.3333 13.0468 11.3333 12.6802C11.3333 12.3135 11.6333 12.0135 12 12.0135C12.3667 12.0135 12.6667 12.3135 12.6667 12.6802C12.6667 13.0468 12.3667 13.3468 12 13.3468Z" fill="#323232"/>
</g>
<defs>
<clipPath id="clip0_8082_12153">
<rect width="16" height="16" fill="white"/>
</clipPath>
</defs>
</svg>
