<svg width="27" height="26" viewBox="0 0 27 26" fill="none" xmlns="http://www.w3.org/2000/svg">
<path d="M19.4985 4.76128C18.6572 3.75273 18.1514 2.43766 18.1514 1H17.0971M19.4985 4.76128C20.2653 5.68076 21.3035 6.34946 22.4857 6.6113C22.853 6.69489 23.2364 6.73952 23.6357 6.73952V10.8629C21.5911 10.8629 19.6953 10.1776 18.1512 9.01853V17.4048C18.1512 21.5952 14.8924 25 10.8935 25C8.80081 25 6.9105 24.0638 5.58462 22.576C4.3759 21.2164 3.63574 19.3997 3.63574 17.4048C3.63574 13.2758 6.79869 9.91011 10.7178 9.82095M19.4985 4.76128C19.4781 4.74731 19.4577 4.73321 19.4373 4.71897M8.20984 19.422C7.81581 18.8537 7.58151 18.1572 7.58151 17.3993C7.58151 15.4881 9.06713 13.9334 10.8936 13.9334C11.2344 13.9334 11.5645 13.9946 11.8733 14.0949V9.8823C11.5538 9.83768 11.229 9.80979 10.8936 9.80979C10.835 9.80979 10.3632 9.84261 10.3046 9.84261M17.0915 1H14.2055L14.2002 17.533C14.1363 19.383 12.6772 20.8709 10.8935 20.8709C9.78591 20.8709 8.81146 20.297 8.20443 19.4277" stroke="#FD451C" stroke-width="2" stroke-linejoin="round"/>
</svg>
