<svg width="28" height="28" viewBox="0 0 28 28" fill="none" xmlns="http://www.w3.org/2000/svg">
<path d="M23.4134 11.707C23.4134 11.962 23.2048 12.1718 22.9498 12.1591C21.5873 12.0908 20.2567 11.7227 19.0529 11.0811C18.7272 10.9073 18.3134 11.1333 18.3134 11.503V17.9661C18.3133 19.3218 17.917 20.648 17.1732 21.7814C16.4293 22.9148 15.3705 23.8062 14.1267 24.3457C12.883 24.8853 11.5087 25.0496 10.1729 24.8184C8.83703 24.5872 7.59788 23.9706 6.60784 23.0445C5.61779 22.1183 4.92003 20.923 4.60038 19.6055C4.28072 18.288 4.35311 16.9058 4.80864 15.6289C5.26418 14.352 6.08298 13.2361 7.16436 12.4185C8.24573 11.6008 9.54251 11.117 10.8952 11.0267C10.9557 11.0235 11.0161 11.0328 11.0728 11.054C11.1295 11.0752 11.1812 11.1079 11.2247 11.1499C11.2682 11.192 11.3026 11.2426 11.3257 11.2986C11.3488 11.3546 11.36 11.4147 11.3588 11.4752V14.7207C11.3588 14.9757 11.1502 15.1808 10.8975 15.2226C10.3744 15.3105 9.88735 15.5462 9.49378 15.9019C9.1002 16.2575 8.81651 16.7183 8.67616 17.2298C8.53581 17.7414 8.54465 18.2824 8.70163 18.7891C8.85862 19.2958 9.1572 19.7471 9.56219 20.0897C9.96717 20.4323 10.4617 20.6519 10.9874 20.7228C11.5131 20.7936 12.0481 20.7126 12.5293 20.4895C13.0105 20.2663 13.4179 19.9101 13.7034 19.4631C13.9889 19.016 14.1406 18.4966 14.1407 17.9661V3.36159C14.1407 3.23862 14.1895 3.12069 14.2765 3.03375C14.3634 2.9468 14.4813 2.89795 14.6043 2.89795H17.8498C17.9737 2.90111 18.092 2.95037 18.1816 3.0361C18.2712 3.12183 18.3256 3.23788 18.3343 3.36159C18.4426 4.54933 18.9639 5.66152 19.8074 6.50477C20.6508 7.34802 21.7631 7.86899 22.9509 7.97709C23.2059 8.00027 23.4145 8.20543 23.4145 8.46159L23.4134 11.707Z" stroke="#717513" stroke-width="1.73864" stroke-linecap="round" stroke-linejoin="round"/>
</svg>
