<svg width="28" height="28" viewBox="0 0 28 28" fill="none" xmlns="http://www.w3.org/2000/svg">
<path d="M23.4134 11.7066C23.4134 11.9616 23.2048 12.1713 22.9498 12.1586C21.5873 12.0903 20.2567 11.7222 19.0529 11.0806C18.7272 10.9068 18.3134 11.1328 18.3134 11.5026V17.9656C18.3133 19.3214 17.917 20.6475 17.1732 21.7809C16.4293 22.9144 15.3705 23.8057 14.1267 24.3452C12.883 24.8848 11.5087 25.0491 10.1729 24.8179C8.83703 24.5867 7.59788 23.9701 6.60784 23.044C5.61779 22.1178 4.92003 20.9225 4.60038 19.605C4.28072 18.2875 4.35311 16.9053 4.80864 15.6284C5.26418 14.3516 6.08298 13.2357 7.16436 12.418C8.24573 11.6003 9.54251 11.1165 10.8952 11.0262C10.9557 11.023 11.0161 11.0323 11.0728 11.0535C11.1295 11.0747 11.1812 11.1074 11.2247 11.1495C11.2682 11.1915 11.3026 11.2422 11.3257 11.2981C11.3488 11.3541 11.36 11.4142 11.3588 11.4747V14.7202C11.3588 14.9752 11.1502 15.1803 10.8975 15.2221C10.3744 15.31 9.88735 15.5457 9.49378 15.9014C9.1002 16.257 8.81651 16.7178 8.67616 17.2294C8.53581 17.7409 8.54465 18.2819 8.70163 18.7886C8.85862 19.2953 9.1572 19.7466 9.56219 20.0892C9.96717 20.4318 10.4617 20.6514 10.9874 20.7223C11.5131 20.7931 12.0481 20.7122 12.5293 20.489C13.0105 20.2658 13.4179 19.9096 13.7034 19.4626C13.9889 19.0155 14.1406 18.4961 14.1407 17.9656V3.3611C14.1407 3.23813 14.1895 3.12021 14.2765 3.03326C14.3634 2.94631 14.4813 2.89746 14.6043 2.89746H17.8498C17.9737 2.90062 18.092 2.94988 18.1816 3.03561C18.2712 3.12134 18.3256 3.23739 18.3343 3.3611C18.4426 4.54884 18.9639 5.66104 19.8074 6.50428C20.6508 7.34753 21.7631 7.8685 22.9509 7.9766C23.2059 7.99978 23.4145 8.20494 23.4145 8.4611L23.4134 11.7066Z" stroke="#1B4B48" stroke-width="1.73864" stroke-linecap="round" stroke-linejoin="round"/>
</svg>
