<svg width="166" height="111" viewBox="0 0 166 111" fill="none" xmlns="http://www.w3.org/2000/svg">
<rect x="0.5" y="0.862305" width="165" height="110" rx="4" fill="white"/>
<path fill-rule="evenodd" clip-rule="evenodd" d="M110.499 55.8624C110.499 70.0377 98.1873 81.5291 82.9995 81.5291C67.8116 81.5291 55.4995 70.0377 55.4995 55.8624C55.4995 47.6491 73.9638 44.2024 89.5052 45.5004C91.1552 45.0897 92.9309 44.8624 94.7852 44.8624C103.467 44.8624 110.499 49.7904 110.499 55.8624Z" fill="#232C80"/>
<path fill-rule="evenodd" clip-rule="evenodd" d="M79.0709 52.1958C79.0709 52.1958 86.103 44.8624 94.7852 44.8624C103.467 44.8624 110.499 49.7904 110.499 55.8624C110.499 41.6871 98.1873 30.1959 82.9995 30.1959C72.023 30.1959 62.5473 36.1945 58.1395 44.8772C55.4995 52.1958 55.4995 54.3371 55.4995 55.8624C59.428 59.5291 63.7966 59.5292 67.2852 59.5292C70.7738 59.5292 73.9088 58.1138 76.0695 55.8625L79.0709 52.1958Z" fill="#F93939"/>
<path fill-rule="evenodd" clip-rule="evenodd" d="M118.356 37.529H134.071L118.356 22.8623H110.499L118.356 37.529ZM47.642 37.529H31.9277L47.642 22.8623H55.4992L47.642 37.529ZM118.356 74.1956H134.071L118.356 88.8623H110.499L118.356 74.1956ZM47.642 74.1956H31.9277L47.642 88.8623H55.4992L47.642 74.1956Z" fill="#151515"/>
</svg>
