<svg width="24" height="24" viewBox="0 0 24 24" fill="none" xmlns="http://www.w3.org/2000/svg">
<path d="M4.09351 7.67564C6.31766 7.38872 12.6278 7.19107 10.899 16.3093L12.8599 16.1497C12.001 10.5293 13.7977 7.66347 19.4158 7.38872C10.0979 2.22886 4.79267 7.5854 4.09351 7.67564Z" fill="#FAC415"/>
<path d="M12.768 14.8652C13.79 17.6303 16.8599 19.0435 19.6251 18.0217C22.3903 16.9999 23.8036 13.9301 22.7821 11.1649C21.7605 8.39962 18.6908 6.986 15.9254 8.00738C13.1603 9.02977 11.7469 12.0996 12.768 14.8652Z" fill="white"/>
<circle cx="5.94154" cy="12.9938" r="5.339" fill="white"/>
<ellipse cx="5.86504" cy="12.9415" rx="0.986871" ry="0.986871" fill="#EE6946"/>
<circle cx="17.7623" cy="12.9415" r="0.986438" fill="#00AF87"/>
<path fill-rule="evenodd" clip-rule="evenodd" d="M23.7078 7.10408C23.1837 7.82153 22.7887 8.62482 22.5403 9.47791C24.4836 12.0837 23.9695 15.7679 21.387 17.7421C18.8046 19.7164 15.1146 19.2462 13.1096 16.6875L11.834 18.5951L10.5705 16.7034C8.55401 19.2259 4.88993 19.6713 2.32783 17.7054C-0.234266 15.7395 -0.752474 12.085 1.16208 9.48428C0.912435 8.6391 0.519352 7.84312 0 7.13113L3.71772 7.12906C6.14947 5.61593 8.9689 4.84293 11.8323 4.90427C14.6273 4.85444 17.3765 5.61762 19.7458 7.10103L23.7078 7.10408ZM11.8573 12.562C12.081 9.53794 14.5548 7.17255 17.5859 7.0845C15.7708 6.29968 13.8096 5.90933 11.8323 5.9393C9.85245 5.92009 7.88918 6.30182 6.06076 7.06151C9.12198 7.12662 11.6319 9.50839 11.8573 12.562ZM5.9418 17.7317C4.02503 17.7319 2.29691 16.5773 1.56337 14.8065C0.829822 13.0356 1.23534 10.9973 2.59079 9.642C3.94625 8.28674 5.98467 7.88151 7.75542 8.6153C9.52617 9.3491 10.6805 11.0774 10.68 12.9941C10.6765 15.6094 8.55709 17.7286 5.9418 17.7317ZM13.3295 14.658C14.237 17.1125 16.9613 18.3678 19.4167 17.4628C21.8718 16.5565 23.1275 13.8317 22.2215 11.3765C21.3156 8.92135 18.5909 7.66535 16.1356 8.57108C13.6803 9.47682 12.4241 12.2014 13.3295 14.6567V14.658Z" fill="black"/>
<path fill-rule="evenodd" clip-rule="evenodd" d="M3.15636 11.8165C3.61153 10.7209 4.68207 10.0075 5.86848 10.0093C7.48506 10.014 8.79378 11.3245 8.79644 12.941C8.79663 14.1275 8.08187 15.1971 6.98566 15.6508C5.88945 16.1046 4.62783 15.853 3.78946 15.0136C2.95108 14.1741 2.70118 12.9122 3.15636 11.8165ZM4.08976 13.6797C4.38852 14.3979 5.09063 14.8653 5.86848 14.8638C6.92776 14.8591 7.78468 14.0003 7.7871 12.9411C7.78697 12.1632 7.31811 11.4621 6.59929 11.1648C5.88046 10.8676 5.05336 11.0329 4.50392 11.5835C3.95448 12.1341 3.791 12.9615 4.08976 13.6797Z" fill="black"/>
<path fill-rule="evenodd" clip-rule="evenodd" d="M15.052 11.8185C15.5063 10.7227 16.576 10.0087 17.7622 10.0093C19.3801 10.012 20.6908 11.3232 20.6929 12.941C20.6931 14.1272 19.9787 15.1966 18.8828 15.6506C17.7869 16.1045 16.5255 15.8534 15.6869 15.0145C14.8483 14.1757 14.5977 12.9142 15.052 11.8185ZM15.9857 13.6776C16.2835 14.3958 16.9846 14.864 17.7622 14.8638C18.8231 14.8619 19.6826 14.002 19.6839 12.9411C19.6838 12.1635 19.2153 11.4626 18.4968 11.1652C17.7784 10.8677 16.9515 11.0324 16.4019 11.5824C15.8522 12.1323 15.6879 12.9593 15.9857 13.6776Z" fill="black"/>
</svg>
