<svg width="22" height="22" viewBox="0 0 22 22" fill="none" xmlns="http://www.w3.org/2000/svg">
<path d="M10.9999 20.1668C9.74714 20.1668 8.56311 19.9261 7.44783 19.4445C6.33256 18.9629 5.35875 18.306 4.52642 17.4737C3.69409 16.6413 3.03714 15.6675 2.55559 14.5522C2.07403 13.437 1.83325 12.2529 1.83325 11.0002C1.83325 9.73211 2.07403 8.54441 2.55559 7.43708C3.03714 6.32975 3.69409 5.35961 4.52642 4.52666C5.35875 3.69372 6.33256 3.03677 7.44783 2.55583C8.56311 2.07489 9.74714 1.83411 10.9999 1.8335C12.268 1.8335 13.456 2.07427 14.5639 2.55583C15.6719 3.03738 16.6417 3.69433 17.4734 4.52666C18.3051 5.359 18.9621 6.32913 19.4443 7.43708C19.9264 8.54502 20.1672 9.73272 20.1666 11.0002C20.1666 12.2529 19.9258 13.437 19.4443 14.5522C18.9627 15.6675 18.3058 16.6416 17.4734 17.4746C16.6411 18.3075 15.6709 18.9645 14.563 19.4454C13.4551 19.9264 12.2674 20.1668 10.9999 20.1668ZM10.9999 18.2877C11.3971 17.7377 11.7409 17.1647 12.0312 16.5689C12.3214 15.9731 12.5583 15.3391 12.7416 14.6668H9.25825C9.44159 15.3391 9.67839 15.9731 9.96867 16.5689C10.2589 17.1647 10.6027 17.7377 10.9999 18.2877ZM8.61658 17.921C8.34158 17.4168 8.10111 16.8934 7.89517 16.3507C7.68922 15.8081 7.5172 15.2468 7.37909 14.6668H4.67492C5.11797 15.4307 5.67195 16.0953 6.33684 16.6606C7.00172 17.2259 7.76164 17.646 8.61658 17.921ZM13.3833 17.921C14.2388 17.646 14.999 17.2259 15.6639 16.6606C16.3288 16.0953 16.8825 15.4307 17.3249 14.6668H14.6208C14.4833 15.2474 14.3115 15.809 14.1056 16.3517C13.8996 16.8943 13.6589 17.4174 13.3833 17.921ZM3.89575 12.8335H7.01242C6.96659 12.5279 6.93236 12.2264 6.90975 11.9287C6.88714 11.6311 6.87553 11.3216 6.87492 11.0002C6.87431 10.6787 6.88592 10.3695 6.90975 10.0725C6.93359 9.7755 6.96781 9.47361 7.01242 9.16683H3.89575C3.81936 9.47238 3.76222 9.77427 3.72434 10.0725C3.68645 10.3707 3.6672 10.6799 3.66659 11.0002C3.66597 11.3204 3.68522 11.6299 3.72434 11.9287C3.76345 12.2276 3.82059 12.5292 3.89575 12.8335ZM8.84575 12.8335H13.1541C13.1999 12.5279 13.2344 12.2264 13.2577 11.9287C13.2809 11.6311 13.2922 11.3216 13.2916 11.0002C13.291 10.6787 13.2794 10.3695 13.2568 10.0725C13.2341 9.7755 13.1999 9.47361 13.1541 9.16683H8.84575C8.79992 9.47238 8.7657 9.77427 8.74308 10.0725C8.72047 10.3707 8.70886 10.6799 8.70825 11.0002C8.70764 11.3204 8.71925 11.6299 8.74308 11.9287C8.76692 12.2276 8.80114 12.5292 8.84575 12.8335ZM14.9874 12.8335H18.1041C18.1805 12.5279 18.2379 12.2264 18.2764 11.9287C18.3149 11.6311 18.3339 11.3216 18.3333 11.0002C18.3326 10.6787 18.3137 10.3695 18.2764 10.0725C18.2391 9.7755 18.1817 9.47361 18.1041 9.16683H14.9874C15.0333 9.47238 15.0678 9.77427 15.091 10.0725C15.1142 10.3707 15.1255 10.6799 15.1249 11.0002C15.1243 11.3204 15.1127 11.6299 15.0901 11.9287C15.0675 12.2276 15.0333 12.5292 14.9874 12.8335ZM14.6208 7.3335H17.3249C16.8819 6.56961 16.3282 5.90502 15.6639 5.33975C14.9996 4.77447 14.2394 4.35433 13.3833 4.07933C13.6583 4.5835 13.899 5.10691 14.1056 5.64958C14.3121 6.19225 14.4839 6.75355 14.6208 7.3335ZM9.25825 7.3335H12.7416C12.5583 6.66127 12.3214 6.02725 12.0312 5.43141C11.7409 4.83558 11.3971 4.26266 10.9999 3.71266C10.6027 4.26266 10.2589 4.83558 9.96867 5.43141C9.67839 6.02725 9.44159 6.66127 9.25825 7.3335ZM4.67492 7.3335H7.37909C7.51659 6.75294 7.68861 6.19133 7.89517 5.64866C8.10172 5.106 8.3422 4.58288 8.61658 4.07933C7.76103 4.35433 7.00081 4.77447 6.33592 5.33975C5.67103 5.90502 5.11736 6.56961 4.67492 7.3335Z" fill="#767680"/>
</svg>
