<svg width="23" height="22" viewBox="0 0 23 22" fill="none" xmlns="http://www.w3.org/2000/svg">
<path d="M11.5002 20.1668C10.2474 20.1668 9.06336 19.9261 7.94808 19.4445C6.8328 18.9629 5.859 18.306 5.02666 17.4737C4.19433 16.6413 3.53738 15.6675 3.05583 14.5522C2.57427 13.437 2.3335 12.2529 2.3335 11.0002C2.3335 9.73211 2.57427 8.54441 3.05583 7.43708C3.53738 6.32975 4.19433 5.35961 5.02666 4.52666C5.859 3.69372 6.8328 3.03677 7.94808 2.55583C9.06336 2.07489 10.2474 1.83411 11.5002 1.8335C12.7682 1.8335 13.9562 2.07427 15.0642 2.55583C16.1721 3.03738 17.1419 3.69433 17.9737 4.52666C18.8054 5.359 19.4623 6.32913 19.9445 7.43708C20.4267 8.54502 20.6674 9.73272 20.6668 11.0002C20.6668 12.2529 20.4261 13.437 19.9445 14.5522C19.4629 15.6675 18.806 16.6416 17.9737 17.4746C17.1413 18.3075 16.1712 18.9645 15.0632 19.4454C13.9553 19.9264 12.7676 20.1668 11.5002 20.1668ZM11.5002 18.2877C11.8974 17.7377 12.2411 17.1647 12.5314 16.5689C12.8217 15.9731 13.0585 15.3391 13.2418 14.6668H9.7585C9.94183 15.3391 10.1786 15.9731 10.4689 16.5689C10.7592 17.1647 11.1029 17.7377 11.5002 18.2877ZM9.11683 17.921C8.84183 17.4168 8.60136 16.8934 8.39541 16.3507C8.18947 15.8081 8.01744 15.2468 7.87933 14.6668H5.17516C5.61822 15.4307 6.17219 16.0953 6.83708 16.6606C7.50197 17.2259 8.26188 17.646 9.11683 17.921ZM13.8835 17.921C14.7391 17.646 15.4993 17.2259 16.1642 16.6606C16.8291 16.0953 17.3827 15.4307 17.8252 14.6668H15.121C14.9835 15.2474 14.8118 15.809 14.6058 16.3517C14.3999 16.8943 14.1591 17.4174 13.8835 17.921ZM4.396 12.8335H7.51266C7.46683 12.5279 7.43261 12.2264 7.41 11.9287C7.38738 11.6311 7.37577 11.3216 7.37516 11.0002C7.37455 10.6787 7.38616 10.3695 7.41 10.0725C7.43383 9.7755 7.46805 9.47361 7.51266 9.16683H4.396C4.31961 9.47238 4.26247 9.77427 4.22458 10.0725C4.18669 10.3707 4.16744 10.6799 4.16683 11.0002C4.16622 11.3204 4.18547 11.6299 4.22458 11.9287C4.26369 12.2276 4.32083 12.5292 4.396 12.8335ZM9.346 12.8335H13.6543C13.7002 12.5279 13.7347 12.2264 13.7579 11.9287C13.7811 11.6311 13.7924 11.3216 13.7918 11.0002C13.7912 10.6787 13.7796 10.3695 13.757 10.0725C13.7344 9.7755 13.7002 9.47361 13.6543 9.16683H9.346C9.30016 9.47238 9.26594 9.77427 9.24333 10.0725C9.22072 10.3707 9.20911 10.6799 9.2085 11.0002C9.20788 11.3204 9.2195 11.6299 9.24333 11.9287C9.26716 12.2276 9.30138 12.5292 9.346 12.8335ZM15.4877 12.8335H18.6043C18.6807 12.5279 18.7382 12.2264 18.7767 11.9287C18.8152 11.6311 18.8341 11.3216 18.8335 11.0002C18.8329 10.6787 18.8139 10.3695 18.7767 10.0725C18.7394 9.7755 18.6819 9.47361 18.6043 9.16683H15.4877C15.5335 9.47238 15.568 9.77427 15.5912 10.0725C15.6145 10.3707 15.6258 10.6799 15.6252 11.0002C15.6246 11.3204 15.6129 11.6299 15.5903 11.9287C15.5677 12.2276 15.5335 12.5292 15.4877 12.8335ZM15.121 7.3335H17.8252C17.3821 6.56961 16.8284 5.90502 16.1642 5.33975C15.4999 4.77447 14.7397 4.35433 13.8835 4.07933C14.1585 4.5835 14.3993 5.10691 14.6058 5.64958C14.8124 6.19225 14.9841 6.75355 15.121 7.3335ZM9.7585 7.3335H13.2418C13.0585 6.66127 12.8217 6.02725 12.5314 5.43141C12.2411 4.83558 11.8974 4.26266 11.5002 3.71266C11.1029 4.26266 10.7592 4.83558 10.4689 5.43141C10.1786 6.02725 9.94183 6.66127 9.7585 7.3335ZM5.17516 7.3335H7.87933C8.01683 6.75294 8.18886 6.19133 8.39541 5.64866C8.60197 5.106 8.84244 4.58288 9.11683 4.07933C8.26127 4.35433 7.50105 4.77447 6.83616 5.33975C6.17127 5.90502 5.61761 6.56961 5.17516 7.3335Z" fill="white"/>
</svg>
