<svg width="16" height="17" viewBox="0 0 16 17" fill="none" xmlns="http://www.w3.org/2000/svg">
<path d="M0 16.5L1.12466 12.3913C0.430666 11.1886 0.0659999 9.82531 0.0666665 8.42732C0.0686665 4.05666 3.62533 0.5 7.99532 0.5C10.116 0.500667 12.1066 1.32666 13.604 2.82533C15.1006 4.32399 15.9246 6.31599 15.924 8.43465C15.922 12.806 12.3653 16.3626 7.99532 16.3626C6.66865 16.362 5.36132 16.0293 4.20332 15.3973L0 16.5ZM4.39799 13.962C5.51532 14.6253 6.58198 15.0226 7.99265 15.0233C11.6246 15.0233 14.5833 12.0673 14.5853 8.43331C14.5866 4.79199 11.642 1.84 7.99798 1.83866C4.36332 1.83866 1.40666 4.79466 1.40533 8.42798C1.40466 9.91131 1.83933 11.022 2.56933 12.184L1.90333 14.616L4.39799 13.962ZM11.9893 10.3193C11.94 10.2366 11.808 10.1873 11.6093 10.088C11.4113 9.98864 10.4373 9.50931 10.2553 9.44331C10.074 9.37731 9.94198 9.34398 9.80931 9.54265C9.67731 9.74065 9.29731 10.1873 9.18198 10.3193C9.06665 10.4513 8.95065 10.468 8.75265 10.3686C8.55465 10.2693 7.91598 10.0606 7.15932 9.38531C6.57065 8.85998 6.17265 8.21132 6.05732 8.01265C5.94199 7.81465 6.04532 7.70732 6.14399 7.60865C6.23332 7.51998 6.34199 7.37732 6.44132 7.26132C6.54199 7.14665 6.57465 7.06399 6.64132 6.93132C6.70732 6.79932 6.67465 6.68332 6.62465 6.58399C6.57465 6.48532 6.17865 5.50999 6.01399 5.11332C5.85265 4.72732 5.68932 4.77932 5.56799 4.77332L5.18799 4.76666C5.05599 4.76666 4.84132 4.81599 4.65999 5.01466C4.47866 5.21332 3.96666 5.69199 3.96666 6.66732C3.96666 7.64265 4.67666 8.58465 4.77532 8.71665C4.87466 8.84865 6.17199 10.85 8.15932 11.708C8.63198 11.912 9.00131 12.034 9.28865 12.1253C9.76331 12.276 10.1953 12.2546 10.5366 12.204C10.9173 12.1473 11.7086 11.7246 11.874 11.262C12.0393 10.7986 12.0393 10.402 11.9893 10.3193Z" fill="#FD451C"/>
</svg>
