<svg width="28" height="28" viewBox="0 0 28 28" fill="none" xmlns="http://www.w3.org/2000/svg">
<path d="M22.0805 5.69138C21.0177 4.61818 19.7519 3.76725 18.357 3.18816C16.962 2.60907 15.4657 2.31342 13.9553 2.31842C7.62666 2.31842 2.4687 7.47638 2.4687 13.805C2.4687 15.8334 3.00189 17.8039 3.9987 19.5425L2.37598 25.5002L8.4612 23.9007C10.1419 24.8164 12.0312 25.3032 13.9553 25.3032C20.2839 25.3032 25.4419 20.1452 25.4419 13.8166C25.4419 10.745 24.248 7.85888 22.0805 5.69138ZM13.9553 23.3559C12.2398 23.3559 10.5592 22.8923 9.08711 22.023L8.73939 21.8143L5.12302 22.7648L6.08507 19.2412L5.85325 18.8818C4.89995 17.36 4.39387 15.6008 4.39279 13.805C4.39279 8.54274 8.68143 4.2541 13.9437 4.2541C16.4937 4.2541 18.893 5.25092 20.6896 7.0591C21.5794 7.94449 22.2844 8.99773 22.764 10.1577C23.2435 11.3177 23.4879 12.5614 23.483 13.8166C23.5062 19.0789 19.2176 23.3559 13.9553 23.3559ZM19.1944 16.2159C18.9046 16.0768 17.4905 15.3814 17.2355 15.2771C16.9689 15.1843 16.7835 15.138 16.5864 15.4162C16.3894 15.7059 15.8446 16.355 15.6823 16.5405C15.5201 16.7375 15.3462 16.7607 15.0564 16.61C14.7667 16.4709 13.8394 16.158 12.7498 15.1843C11.8921 14.4193 11.3242 13.4805 11.1503 13.1907C10.988 12.9009 11.1271 12.7502 11.2778 12.5996C11.4053 12.4721 11.5676 12.2634 11.7067 12.1011C11.8457 11.9389 11.9037 11.8114 11.9964 11.6259C12.0892 11.4289 12.0428 11.2666 11.9732 11.1275C11.9037 10.9884 11.3242 9.57433 11.0923 8.99479C10.8605 8.43842 10.6171 8.50797 10.4432 8.49638H9.88688C9.68984 8.49638 9.38848 8.56592 9.12189 8.85569C8.86689 9.14547 8.12507 9.84092 8.12507 11.255C8.12507 12.6691 9.15666 14.0368 9.29575 14.2223C9.43484 14.4193 11.3242 17.3171 14.1987 18.5573C14.8826 18.8587 15.4157 19.0325 15.833 19.16C16.5169 19.3802 17.1428 19.3455 17.6412 19.2759C18.1976 19.1948 19.3451 18.5805 19.5769 17.9082C19.8203 17.2359 19.8203 16.668 19.7392 16.5405C19.658 16.413 19.4842 16.355 19.1944 16.2159Z" fill="#717513"/>
</svg>
