<svg width="27" height="26" viewBox="0 0 27 26" fill="none" xmlns="http://www.w3.org/2000/svg">
<path d="M0.135742 26L1.96332 19.3234C0.835574 17.369 0.242992 15.1536 0.244075 12.8819C0.247325 5.77957 6.0269 0 13.1281 0C16.5742 0.00108333 19.809 1.34333 22.2422 3.77866C24.6743 6.21399 26.0133 9.45098 26.0122 12.8938C26.0089 19.9972 20.2294 25.7768 13.1281 25.7768C10.9723 25.7757 8.84789 25.2351 6.96614 24.2081L0.135742 26ZM7.28248 21.8757C9.09814 22.9536 10.8315 23.5993 13.1238 23.6004C19.0258 23.6004 23.8336 18.7969 23.8369 12.8916C23.839 6.97449 19.0539 2.1775 13.1325 2.17533C7.22614 2.17533 2.42157 6.97882 2.4194 12.883C2.41832 15.2934 3.12465 17.0982 4.3109 18.9865L3.22865 22.9385L7.28248 21.8757ZM19.6184 15.9564C19.5382 15.8221 19.3237 15.7419 19.0009 15.5805C18.6791 15.4191 17.0964 14.6401 16.8006 14.5329C16.506 14.4256 16.2915 14.3715 16.0759 14.6943C15.8614 15.0161 15.2439 15.7419 15.0565 15.9564C14.869 16.1709 14.6805 16.198 14.3588 16.0366C14.037 15.8751 12.9992 15.5361 11.7696 14.4386C10.8131 13.585 10.1663 12.5309 9.97889 12.2081C9.79147 11.8863 9.95939 11.7119 10.1197 11.5516C10.2649 11.4075 10.4415 11.1756 10.6029 10.9871C10.7665 10.8008 10.8196 10.6665 10.9279 10.4509C11.0351 10.2364 10.9821 10.0479 10.9008 9.88648C10.8196 9.72615 10.1761 8.14123 9.90847 7.49665C9.6463 6.8694 9.38089 6.9539 9.18372 6.94415L8.56622 6.93332C8.35172 6.93332 8.00289 7.01349 7.70822 7.33632C7.41356 7.65915 6.58156 8.43698 6.58156 10.0219C6.58156 11.6068 7.73531 13.1376 7.89564 13.3521C8.05706 13.5666 10.1652 16.8187 13.3946 18.213C14.1627 18.5445 14.7629 18.7427 15.2298 18.8911C16.0011 19.136 16.7031 19.1013 17.2578 19.019C17.8764 18.9269 19.1623 18.24 19.4309 17.4882C19.6996 16.7353 19.6996 16.0907 19.6184 15.9564Z" fill="#FD451C"/>
</svg>
