<svg width="32" height="32" viewBox="0 0 32 32" fill="none" xmlns="http://www.w3.org/2000/svg">
<circle cx="16" cy="16" r="15" fill="#FD451C" stroke="white" stroke-width="2"/>
<g clip-path="url(#clip0_1973_3884)">
<path d="M22.4166 19.0833C22.4166 19.3928 22.2937 19.6895 22.0749 19.9083C21.8561 20.1271 21.5593 20.25 21.2499 20.25H10.7499C10.4405 20.25 10.1438 20.1271 9.92496 19.9083C9.70617 19.6895 9.58325 19.3928 9.58325 19.0833V12.6667C9.58325 12.3572 9.70617 12.0605 9.92496 11.8417C10.1438 11.6229 10.4405 11.5 10.7499 11.5H13.0833L14.2499 9.75H17.7499L18.9166 11.5H21.2499C21.5593 11.5 21.8561 11.6229 22.0749 11.8417C22.2937 12.0605 22.4166 12.3572 22.4166 12.6667V19.0833Z" stroke="white" stroke-width="1.5" stroke-linecap="round" stroke-linejoin="round"/>
<path d="M16.0001 17.9167C17.2887 17.9167 18.3334 16.872 18.3334 15.5833C18.3334 14.2947 17.2887 13.25 16.0001 13.25C14.7114 13.25 13.6667 14.2947 13.6667 15.5833C13.6667 16.872 14.7114 17.9167 16.0001 17.9167Z" stroke="white" stroke-width="1.5" stroke-linecap="round" stroke-linejoin="round"/>
</g>
<defs>
<clipPath id="clip0_1973_3884">
<rect width="14" height="14" fill="white" transform="translate(9 8)"/>
</clipPath>
</defs>
</svg>
