<svg width="230" height="229" viewBox="0 0 230 229" fill="none" xmlns="http://www.w3.org/2000/svg">
<ellipse opacity="0.2" cx="115" cy="114.5" rx="115" ry="114.5" fill="#EDF1F8"/>
<ellipse cx="115" cy="114.5" rx="72" ry="71.5" fill="white"/>
<path d="M105.125 77.7127V70.1807C105.125 67.6837 106.113 65.2889 107.871 63.5232C109.629 61.7576 112.014 60.7656 114.5 60.7656C116.986 60.7656 119.371 61.7576 121.129 63.5232C122.887 65.2889 123.875 67.6837 123.875 70.1807V77.7127" fill="white"/>
<path d="M105.125 77.7127V70.1807C105.125 67.6837 106.113 65.2889 107.871 63.5232C109.629 61.7576 112.014 60.7656 114.5 60.7656C116.986 60.7656 119.371 61.7576 121.129 63.5232C122.887 65.2889 123.875 67.6837 123.875 70.1807V77.7127" stroke="#FFB950" stroke-width="4" stroke-linecap="round" stroke-linejoin="round"/>
<path d="M127.625 77.7129H101.375C99.3039 77.7129 97.625 79.399 97.625 81.4789V99.4677C97.625 101.548 99.3039 103.234 101.375 103.234H127.625C129.696 103.234 131.375 101.548 131.375 99.4677V81.4789C131.375 79.399 129.696 77.7129 127.625 77.7129Z" fill="white" stroke="#FFB950" stroke-width="4" stroke-linecap="round" stroke-linejoin="round"/>
<path d="M32.9673 141.954C32.9673 130.011 42.6491 120.329 54.5923 120.329H177.513V163.579H54.5923C42.6491 163.579 32.9673 153.897 32.9673 141.954Z" fill="#FFB950"/>
<circle cx="61.9903" cy="141.954" r="6.25987" fill="white"/>
<circle cx="83.6153" cy="141.954" r="6.25987" fill="white"/>
<circle cx="105.24" cy="141.954" r="6.25987" fill="white"/>
<circle cx="126.865" cy="141.954" r="6.25987" fill="white"/>
<circle cx="172.961" cy="141.954" r="25.0395" fill="#63B92E"/>
<path d="M164.994 143.093L170.684 148.783L182.066 137.402" stroke="white" stroke-width="3.41447" stroke-linecap="round" stroke-linejoin="round"/>
<circle cx="174.5" cy="189.5" r="5.5" stroke="#59C3FF" stroke-width="4"/>
<circle cx="69" cy="196" r="4" fill="#546FFA"/>
<path d="M33.4254 24.345C33.3776 23.8189 34.0101 23.5172 34.3889 23.8855L41.9305 31.2184C42.0496 31.3342 42.2133 31.3922 42.3787 31.3771L52.8545 30.4253C53.3806 30.3775 53.6823 31.01 53.314 31.3888L45.9811 38.9304C45.8653 39.0495 45.8073 39.2132 45.8224 39.3786L46.7742 49.8543C46.822 50.3805 46.1895 50.6821 45.8107 50.3139L38.2691 42.981C38.15 42.8652 37.9863 42.8072 37.8209 42.8222L27.3451 43.7741C26.819 43.8219 26.5174 43.1894 26.8856 42.8106L34.2185 35.269C34.3343 35.1499 34.3923 34.9862 34.3773 34.8208L33.4254 24.345Z" fill="#FD451C"/>
</svg>
