<svg xmlns="http://www.w3.org/2000/svg" width="177" height="176" viewBox="0 0 177 176" fill="none">
  <g clip-path="url(#clip0_5878_17723)">
    <path d="M61.3225 53.8201C55.9652 53.9082 49.4199 54.9465 49.4199 54.9465L49.8096 66.2165L63.1564 66.2058C66.3623 66.1525 67.5661 63.8595 67.5261 61.2702C67.4567 57.0286 65.4841 53.7507 61.3225 53.8174V53.8201Z" fill="#1877F2"/>
    <path d="M57.6034 105.119C49.1256 105.397 44.3528 111.349 44.6971 121.896C45.0468 132.555 50.1719 137.554 57.5207 137.311C63.8363 137.103 66.794 132.907 66.4042 120.978C66.1133 112.086 64.8453 104.881 57.6034 105.119Z" fill="#1877F2"/>
    <path d="M65.2786 37.4067C65.2252 34.1741 63.6556 31.6382 60.2201 31.6943C55.2792 31.7744 48.1387 33.133 48.1387 33.133L48.5925 41.9205C48.5925 41.9205 56.8461 41.8885 62.0406 41.8058C64.1948 41.7711 65.3266 40.2015 65.2786 37.4067Z" fill="#1877F2"/>
    <path d="M124.103 109.603C120.069 109.513 113.751 109.788 113.751 109.788L113.092 120.743C113.092 120.743 119.979 122.034 125.168 122.149C129.596 122.248 133.059 121.007 133.141 117.256C133.24 112.767 130.621 109.75 124.103 109.603Z" fill="#1877F2"/>
    <path d="M154.986 0.144531H22.1136C10.2964 0.144531 0.71875 9.72215 0.71875 21.5394L4.80819 75.6764C5.1205 79.8219 5.1472 83.9807 4.8856 88.1289L0.71875 154.414C0.71875 166.231 10.2964 175.809 22.1136 175.809H154.986C166.803 175.809 176.381 166.231 176.381 154.414L171.375 87.6831C171.095 83.9487 171.122 80.1956 171.458 76.4665L176.381 21.542C176.381 9.72482 166.803 0.147201 154.986 0.147201V0.144531ZM108.675 16.3128L116.966 40.0166L129.651 17.5754L151.785 21.6648L126.05 57.015L123.858 81.8986L105.314 78.626L106.839 55.5869L86.1939 18.7312L108.675 16.3074V16.3128ZM67.9089 151.838L70.1378 158.949L49.0446 159.641L48.468 153.466C33.784 151.673 25.6638 141.82 25.0285 122.441C24.3612 102.068 36.1677 89.2634 56.444 88.5987C76.7898 87.9314 84.9553 99.4603 85.7348 123.244C86.2526 139.065 79.8996 148.155 67.9089 151.838ZM65.2742 81.5863C53.8147 81.7732 32.9404 83.252 32.9404 83.252L28.5307 22.1747C28.5307 22.1747 48.1317 16.7852 60.9045 16.577C76.0317 16.3315 85.1956 21.558 85.4251 35.5241C85.5399 42.5444 80.9593 47.1864 76.7364 48.2889C80.9887 48.9429 88.3775 51.5054 88.5483 61.9613C88.7912 76.8536 80.5109 81.3381 65.2796 81.5863H65.2742ZM152.087 116.952C151.849 127.638 147.509 133.593 139.61 136.132H139.656L150.309 159.547L129.245 157.527L121.421 137.175H121.485C116.958 136.644 112.447 135.835 112.447 135.835L111.793 155.896L91.0495 153.365L96.0358 92.0101C96.0358 92.0101 111.603 89.9761 124.221 90.2563C143.873 90.6941 152.442 100.918 152.084 116.952H152.087Z" fill="#1877F2"/>
  </g>
  <defs>
    <clipPath id="clip0_5878_17723">
      <rect width="175.664" height="175.664" fill="white" transform="translate(0.71875 0.143555)"/>
    </clipPath>
  </defs>
</svg>