<svg width="60" height="60" viewBox="0 0 60 60" fill="none" xmlns="http://www.w3.org/2000/svg">
<path d="M49.3421 14.4088L31.5747 3.75683C30.7669 3.33495 29.8751 3.11523 28.9709 3.11523C28.0666 3.11523 27.1749 3.33495 26.367 3.75683L8.5997 14.4088C7.84441 14.925 7.21592 15.6177 6.76451 16.4312C6.3131 17.2448 6.05128 18.1568 6 19.0943V40.3982C6.05255 41.3342 6.31496 42.2444 6.76632 43.0564C7.21767 43.8684 7.84549 44.5597 8.5997 45.0751L10.5785 46.2615L28.975 57.756L47.3799 46.2787L49.3338 45.1095C50.088 44.5941 50.7158 43.9028 51.1672 43.0908C51.6185 42.2788 51.8809 41.3685 51.9335 40.4326V19.0857C51.8819 18.1505 51.6207 17.2407 51.1708 16.4288C50.721 15.6168 50.0947 14.9251 49.3421 14.4088ZM18.4024 41.2321C17.7801 41.2284 17.1847 40.9687 16.7465 40.5099L7.96219 31.3797C7.52933 30.9202 7.28694 30.303 7.28694 29.6603C7.28694 29.0175 7.52933 28.4003 7.96219 27.9408L16.7465 18.7676C16.949 18.4832 17.2082 18.2475 17.5064 18.0766C17.8047 17.9057 18.1349 17.8037 18.4746 17.7774C18.8142 17.7511 19.1554 17.8012 19.4747 17.9243C19.794 18.0475 20.084 18.2407 20.3248 18.4908C20.5657 18.7409 20.7517 19.042 20.8703 19.3735C20.9888 19.7051 21.0371 20.0593 21.0118 20.4121C20.9865 20.7648 20.8882 21.1077 20.7236 21.4174C20.5591 21.727 20.3321 21.9962 20.0582 22.2065L12.9215 29.6173L20.0334 37.0023C20.3728 37.3417 20.6069 37.7784 20.7059 38.2567C20.8049 38.735 20.7642 39.2331 20.5891 39.6873C20.414 40.1415 20.1123 40.5311 19.7228 40.8063C19.3332 41.0815 18.8735 41.2297 18.4024 41.2321ZM25.208 43.39C25.0158 43.8124 24.7125 44.1698 24.3331 44.4208C23.9536 44.6718 23.5135 44.8063 23.0636 44.8086C22.6644 44.809 22.2715 44.7047 21.9215 44.5052C21.5715 44.3057 21.2758 44.0175 21.0618 43.6675C20.8478 43.3175 20.7226 42.917 20.6976 42.5032C20.6727 42.0895 20.749 41.6759 20.9193 41.3009L32.9905 14.6495C33.1226 14.3571 33.3089 14.0946 33.5387 13.8769C33.7685 13.6593 34.0373 13.4907 34.3298 13.3809C34.6224 13.2712 34.9329 13.2223 35.2436 13.2371C35.5543 13.252 35.8592 13.3302 36.1408 13.4674C36.4224 13.6046 36.6752 13.798 36.8848 14.0366C37.0944 14.2753 37.2567 14.5544 37.3624 14.8582C37.4681 15.162 37.5152 15.4844 37.5009 15.807C37.4866 16.1297 37.4113 16.4462 37.2792 16.7386L25.208 43.39ZM49.9961 31.3539L41.187 40.5013C40.9845 40.7857 40.7253 41.0214 40.427 41.1923C40.1288 41.3632 39.7986 41.4653 39.4589 41.4915C39.1193 41.5178 38.7781 41.4677 38.4588 41.3446C38.1395 41.2215 37.8495 41.0283 37.6087 40.7782C37.3678 40.5281 37.1818 40.227 37.0632 39.8954C36.9447 39.5638 36.8964 39.2096 36.9217 38.8569C36.947 38.5041 37.0453 38.1613 37.2098 37.8516C37.3744 37.5419 37.6014 37.2727 37.8753 37.0625L45.012 29.6517L37.8587 22.2065C37.4258 21.747 37.1834 21.1298 37.1834 20.487C37.1834 19.8443 37.4258 19.227 37.8587 18.7676C38.308 18.3318 38.8998 18.0895 39.5146 18.0895C40.1293 18.0895 40.7212 18.3318 41.1704 18.7676L49.963 27.8892C50.4103 28.3456 50.665 28.9676 50.6712 29.6188C50.6774 30.2699 50.4347 30.897 49.9961 31.3625V31.3539Z" fill="#4367B1"/>
</svg>
