<svg width="32" height="32" viewBox="0 0 32 32" fill="none" xmlns="http://www.w3.org/2000/svg">
<g id="katman_1">
<path id="Vector" d="M11.0406 9.77777C10.0646 9.79381 8.87231 9.98297 8.87231 9.98297L8.94331 12.036L11.3746 12.034C11.9586 12.0243 12.1779 11.6066 12.1706 11.1349C12.158 10.3623 11.7986 9.76513 11.0406 9.77728V9.77777Z" fill="white"/>
<path id="Vector_2" d="M10.3633 19.1229C8.81892 19.1734 7.94948 20.2578 8.01221 22.179C8.07591 24.1207 9.00953 25.0314 10.3482 24.9872C11.4987 24.9493 12.0375 24.1849 11.9665 22.0118C11.9135 20.392 11.6825 19.0796 10.3633 19.1229Z" fill="white"/>
<path id="Vector_3" d="M11.7607 6.78784C11.751 6.19897 11.4651 5.73702 10.8393 5.74724C9.93918 5.76182 8.63843 6.00933 8.63843 6.00933L8.72109 7.61011C8.72109 7.61011 10.2246 7.60428 11.1709 7.5892C11.5633 7.58288 11.7695 7.29696 11.7607 6.78784Z" fill="white"/>
<path id="Vector_4" d="M22.4765 19.9396C21.7418 19.9231 20.5908 19.9732 20.5908 19.9732L20.4707 21.9688C20.4707 21.9688 21.7253 22.2042 22.6706 22.2251C23.4773 22.2431 24.1079 22.0169 24.123 21.3337C24.141 20.5158 23.664 19.9664 22.4765 19.9396Z" fill="white"/>
<path id="Vector_5" d="M28.1021 0H3.8974C1.74471 0 0 1.74471 0 3.8974L0.744955 13.7593C0.801848 14.5145 0.80671 15.2721 0.759057 16.0277L0 28.1026C0 30.2553 1.74471 32 3.8974 32H28.1021C30.2548 32 31.9995 30.2553 31.9995 28.1026L31.0878 15.9465C31.0367 15.2662 31.0416 14.5825 31.1028 13.9032L31.9995 3.89789C31.9995 1.7452 30.2548 0.000486263 28.1021 0.000486263V0ZM19.6659 2.9453L21.1763 7.26331L23.487 3.1753L27.5191 3.92025L22.831 10.3598L22.4318 14.8928L19.0537 14.2966L19.3314 10.0997L15.5706 3.38585L19.6659 2.94432V2.9453ZM12.2397 27.6334L12.6458 28.9288L8.80331 29.0547L8.69827 27.93C6.02334 27.6032 4.54413 25.8084 4.4284 22.2781C4.30683 18.567 6.45757 16.2344 10.1512 16.1133C13.8575 15.9917 15.345 18.0919 15.487 22.4245C15.5813 25.3066 14.424 26.9623 12.2397 27.6334ZM11.7598 14.8359C9.67226 14.8699 5.86968 15.1393 5.86968 15.1393L5.06638 4.01313C5.06638 4.01313 8.637 3.03136 10.9638 2.99344C13.7194 2.9487 15.3888 3.9008 15.4306 6.44493C15.4515 7.7238 14.6171 8.56941 13.8478 8.77024C14.6224 8.88938 15.9684 9.35619 15.9995 11.2609C16.0438 13.9737 14.5354 14.7907 11.7608 14.8359H11.7598ZM27.574 21.2784C27.5308 23.2249 26.7401 24.3097 25.3012 24.7722H25.3095L27.2502 29.0377L23.4131 28.6696L21.9878 24.9623H21.9995C21.1748 24.8655 20.353 24.7182 20.353 24.7182L20.2339 28.3725L16.4551 27.9115L17.3635 16.7347C17.3635 16.7347 20.1994 16.3642 22.4979 16.4153C26.0778 16.495 27.6387 18.3574 27.5735 21.2784H27.574Z" fill="white"/>
</g>
</svg>
