<svg width="68" height="68" viewBox="0 0 68 68" fill="none" xmlns="http://www.w3.org/2000/svg">
<path d="M23.4631 20.7802C21.3892 20.8143 18.8555 21.2163 18.8555 21.2163L19.0063 25.5789L24.173 25.5748C25.414 25.5541 25.88 24.6665 25.8645 23.6642C25.8376 22.0223 25.074 20.7534 23.4631 20.7792V20.7802Z" fill="#FF1212"/>
<path d="M22.0175 40.6365C18.7357 40.744 16.8881 43.0482 17.0214 47.1308C17.1568 51.2568 19.1407 53.1922 21.9855 53.0982C24.4303 53.0176 25.5753 51.3932 25.4244 46.7754C25.3118 43.3334 24.8209 40.5445 22.0175 40.6365Z" fill="#FF1212"/>
<path d="M24.9856 14.4245C24.9649 13.1732 24.3573 12.1915 23.0274 12.2132C21.1147 12.2442 18.3506 12.7702 18.3506 12.7702L18.5263 16.1718C18.5263 16.1718 21.7213 16.1595 23.7321 16.1274C24.566 16.114 25.0042 15.5064 24.9856 14.4245Z" fill="#FF1212"/>
<path d="M47.7625 42.3723C46.2011 42.3372 43.7552 42.4436 43.7552 42.4436L43.5 46.6843C43.5 46.6843 46.166 47.1845 48.1748 47.2289C49.889 47.2671 51.2293 46.7866 51.2613 45.3348C51.2995 43.5968 50.2858 42.4292 47.7625 42.3723Z" fill="#FF1212"/>
<path d="M59.7179 0H8.2821C3.70757 0 0 3.70751 0 8.28197L1.58305 29.2385C1.70395 30.8432 1.71429 32.4531 1.61302 34.0589L0 59.718C0 64.2925 3.70757 68 8.2821 68H59.7179C64.2924 68 68 64.2925 68 59.718L66.0625 33.8863C65.954 32.4407 65.9643 30.9879 66.0945 29.5444L68 8.28301C68 3.70855 64.2924 0.00103331 59.7179 0.00103331V0ZM41.7907 6.25875L45.0003 15.4345L49.9106 6.74751L58.4789 8.33054L48.5167 22.0146L47.6683 31.6472L40.4898 30.3803L41.0798 21.4618L33.0881 7.19493L41.7907 6.25669V6.25875ZM26.0098 58.7209L26.8726 61.4736L18.7073 61.7412L18.4841 59.3512C12.7998 58.6568 9.65642 54.8429 9.41049 47.3411C9.15216 39.4548 13.7226 34.4981 21.5717 34.2408C29.4477 33.9824 32.6086 38.4453 32.9104 47.6521C33.1108 53.7765 30.6515 57.2949 26.0098 58.7209ZM24.9899 31.5263C20.5539 31.5986 12.4733 32.171 12.4733 32.171L10.7662 8.5279C10.7662 8.5279 18.3539 6.44165 23.2984 6.36105C29.1542 6.26599 32.7016 8.2892 32.7905 13.6955C32.8349 16.4131 31.0617 18.21 29.427 18.6368C31.0731 18.8899 33.9333 19.8819 33.9995 23.9294C34.0935 29.6942 30.8881 31.4302 24.992 31.5263H24.9899ZM58.5957 45.2166C58.5037 49.3529 56.8236 51.6582 53.7659 52.6409H53.7835L57.9075 61.7051L49.7535 60.9229L46.7249 53.0449H46.7497C44.9972 52.8393 43.2508 52.5262 43.2508 52.5262L42.9977 60.2915L34.9677 59.3119L36.898 35.5613C36.898 35.5613 42.9243 34.7739 47.8088 34.8824C55.4162 35.0519 58.7331 39.0095 58.5947 45.2166H58.5957Z" fill="#FF1212"/>
</svg>
