<?xml version="1.0" standalone="no"?>
<!DOCTYPE svg PUBLIC "-//W3C//DTD SVG 20010904//EN"
 "http://www.w3.org/TR/2001/REC-SVG-20010904/DTD/svg10.dtd">
<svg version="1.0" xmlns="http://www.w3.org/2000/svg"
 width="626.000000pt" height="417.000000pt" viewBox="0 0 626.000000 417.000000"
 preserveAspectRatio="xMidYMid meet">

<g transform="translate(0.000000,417.000000) scale(0.100000,-0.100000)"
fill="#000000" stroke="none">
<path d="M3078 2973 c18 -2 45 -2 60 0 15 2 0 4 -33 4 -33 0 -45 -2 -27 -4z"/>
<path d="M3533 2973 c9 -2 23 -2 30 0 6 3 -1 5 -18 5 -16 0 -22 -2 -12 -5z"/>
<path d="M2157 2953 c-153 -3 -178 -6 -173 -18 3 -9 -1 -15 -10 -15 -8 0 -13
-4 -9 -9 3 -6 -19 -12 -52 -14 -32 -2 61 -4 207 -4 146 -1 254 2 240 6 l-25 8
25 5 c21 4 20 6 -10 8 -19 1 -46 6 -60 10 -19 6 -13 8 30 9 39 1 51 4 40 11
-8 5 -17 9 -20 8 -3 -2 -85 -4 -183 -5z"/>
<path d="M1453 2893 c9 -2 25 -2 35 0 9 3 1 5 -18 5 -19 0 -27 -2 -17 -5z"/>
<path d="M1748 2893 c12 -2 32 -2 45 0 12 2 2 4 -23 4 -25 0 -35 -2 -22 -4z"/>
<path d="M3505 2891 l30 -7 -30 -7 c-48 -12 -307 -10 -345 2 -43 13 -372 15
-386 2 -5 -6 -36 -12 -69 -14 l-60 -3 62 -2 c34 -1 64 -6 67 -11 15 -24 -67
-34 -299 -37 -132 -2 -256 -5 -275 -7 -19 -2 -75 -4 -125 -6 -56 -1 -82 -5
-70 -10 19 -8 19 -8 -2 -15 -12 -4 -46 -6 -75 -5 -87 4 -409 -15 -355 -21 26
-3 49 -9 50 -15 1 -6 -62 -13 -163 -18 -524 -24 -523 -24 -130 -26 347 -2 439
-8 379 -24 -13 -4 -39 -7 -56 -7 -18 0 -33 -4 -33 -10 0 -5 9 -10 19 -10 22 0
40 -20 19 -20 -7 0 -69 -5 -138 -10 -128 -10 -250 -4 -250 11 0 5 10 10 23 10
20 1 20 2 2 6 -11 3 -22 9 -25 13 -3 5 -27 11 -55 14 -33 4 -42 3 -25 -3 24
-8 24 -9 5 -17 -11 -4 -29 -16 -39 -26 -17 -16 -40 -18 -175 -19 -127 -1 -147
-3 -106 -11 28 -5 123 -9 213 -9 89 0 160 -4 157 -9 -6 -10 144 -23 200 -18
24 3 8 5 -38 6 -49 1 -76 6 -72 12 8 12 155 13 155 1 0 -4 32 -11 71 -13 39
-3 76 -11 82 -18 10 -10 -42 -11 -254 -5 -238 6 -267 5 -272 -9 -8 -20 -24
-20 -43 -1 -9 8 -24 15 -35 15 -10 0 -19 5 -19 10 0 6 -16 10 -36 10 -21 0
-33 -4 -29 -10 3 -6 -2 -10 -12 -11 -16 0 -16 -1 2 -9 l20 -9 -20 -1 c-16 -1
-13 -5 15 -21 l35 -20 -205 4 c-175 3 -197 -6 -30 -13 45 -2 50 -4 25 -9 -22
-5 -9 -9 55 -14 138 -11 182 -9 225 13 51 26 110 25 165 -2 72 -37 85 -70 85
-213 l0 -120 -52 -3 -53 -3 -1 68 c-1 37 0 85 1 105 2 56 -14 78 -58 78 -21 0
-43 -5 -50 -12 -9 -9 -12 -96 -12 -330 l0 -318 27 -11 c19 -7 29 -7 31 0 2 6
17 11 33 11 l29 0 0 111 0 110 53 -3 52 -3 0 -122 c0 -136 -7 -154 -76 -201
-29 -20 -44 -23 -100 -20 -47 2 -72 9 -91 24 -31 24 -93 22 -84 -2 4 -12 -26
-14 -172 -16 -97 -1 -149 -3 -115 -5 74 -5 85 -22 16 -25 l-48 -1 45 -4 c47
-5 60 -15 60 -49 0 -11 8 -28 18 -37 19 -18 62 -23 62 -9 0 5 25 14 55 21 30
7 53 17 50 22 -9 13 79 11 109 -3 14 -6 28 -19 31 -29 8 -23 64 -36 76 -18 6
10 3 15 -11 17 -11 2 -20 8 -20 14 0 6 9 8 23 4 107 -32 123 -34 168 -24 49
12 159 3 159 -13 0 -5 -9 -9 -19 -9 -29 0 -34 -27 -6 -34 34 -9 59 3 44 20
-13 16 -24 15 221 19 186 2 283 12 274 27 -4 7 8 8 35 3 26 -4 41 -3 41 4 0 7
78 10 240 10 149 0 240 -3 240 -9 0 -6 13 -10 29 -10 17 0 33 -5 36 -10 4 -6
-10 -10 -34 -10 -22 0 -43 5 -46 10 -3 6 -24 10 -46 10 -29 0 -47 -7 -64 -24
-20 -20 -37 -24 -117 -30 -131 -9 -410 -20 -558 -21 -69 0 -150 -2 -180 -3
l-55 -3 34 -14 c37 -17 181 -21 181 -5 0 9 285 19 526 18 69 0 114 4 118 11 5
7 28 8 66 4 41 -4 64 -2 75 7 10 8 27 10 52 5 32 -6 35 -9 18 -15 -11 -5 35
-6 103 -3 89 5 122 3 122 -5 0 -7 -17 -12 -44 -12 -27 0 -46 -5 -48 -12 -6
-17 -188 -25 -188 -9 0 7 -35 10 -107 9 -95 -1 -101 -2 -48 -8 52 -6 44 -7
-60 -10 -119 -4 -119 -4 65 -11 102 -3 218 -7 258 -8 65 -1 72 -3 72 -21 0
-19 -7 -20 -162 -21 -90 -1 -215 -5 -278 -9 -71 -5 34 -7 273 -4 213 2 392 6
398 9 22 14 829 40 927 30 51 -5 62 -10 60 -23 -3 -15 15 -18 152 -23 85 -4
219 -7 297 -8 147 -1 204 -10 148 -22 -16 -4 26 -6 95 -6 69 0 106 2 83 4 -62
6 -53 21 15 26 48 3 44 4 -25 5 -128 3 -114 22 16 22 99 0 135 9 99 23 -7 3 1
6 17 7 28 1 29 2 8 10 -15 6 -21 15 -17 25 3 8 1 15 -5 15 -6 0 -11 4 -11 9 0
18 94 23 140 7 25 -8 76 -14 115 -14 56 -1 73 3 88 19 10 10 14 19 10 20 -4 0
1 4 12 9 18 8 18 9 -6 9 -14 1 -30 -4 -36 -10 -11 -11 -83 -2 -83 11 0 4 10
11 23 14 21 7 21 7 2 15 l-20 8 20 5 c11 3 -2 7 -30 8 -45 2 -47 3 -20 10 17
4 56 8 88 9 34 1 56 5 52 11 -3 5 9 13 27 18 l33 9 -37 7 c-44 8 -50 25 -10
27 24 1 23 2 -7 8 -22 4 -35 12 -37 24 -2 14 6 17 41 17 24 0 46 4 49 9 6 9
-97 21 -186 21 l-58 0 0 -35 0 -35 -50 0 -50 0 0 80 0 80 -29 0 c-17 0 -33 5
-36 10 -3 6 -17 10 -31 10 -24 0 -24 -1 -24 -90 l0 -90 -55 0 -55 0 0 110 0
110 -30 0 c-30 0 -30 0 -30 -57 0 -68 -23 -112 -72 -144 -26 -16 -46 -19 -98
-17 -75 4 -107 22 -140 80 -20 36 -21 47 -18 377 3 325 4 341 24 367 33 44 68
66 118 71 65 8 130 -19 161 -65 l25 -37 0 -267 0 -268 30 0 30 0 0 294 c0 226
-3 296 -12 299 -10 4 -10 6 0 6 6 1 12 9 12 20 0 15 12 19 83 26 45 5 108 7
140 6 44 -1 57 2 57 13 0 7 -7 17 -16 20 -25 10 -94 7 -94 -4 0 -13 -33 -13
-46 0 -6 6 -160 12 -394 15 -211 3 -386 7 -388 10 -3 3 150 6 339 6 189 1 387
5 439 9 l95 7 -76 1 c-60 2 -78 6 -83 18 -9 23 -8 24 24 24 17 0 30 -4 30 -10
0 -6 32 -10 75 -10 50 0 75 4 75 11 0 15 148 6 178 -10 25 -13 140 -15 126 -2
-5 5 -42 19 -83 31 -60 18 -92 22 -180 19 -155 -4 -299 1 -276 10 16 7 14 9
-14 14 -51 11 -123 9 -116 -3 3 -5 -1 -10 -9 -10 -20 0 -30 17 -14 23 7 3 -7
5 -32 5 -37 0 -40 -1 -20 -8 17 -5 -4 -8 -63 -9 -49 -1 -86 3 -83 8 3 5 -19
12 -49 16 -30 3 -57 11 -60 16 -4 5 -34 10 -68 11 l-62 1 75 7 c41 4 122 9
180 10 88 2 98 4 60 11 -25 4 -72 8 -105 8 -34 1 -69 7 -80 15 -12 8 -64 17
-125 21 -72 5 -108 12 -115 22 -8 11 -32 13 -105 10 l-95 -3 98 -2 c148 -3
112 -22 -42 -22 -70 0 -131 -3 -135 -7 -4 -5 -80 -9 -167 -9 -131 -2 -163 -5
-178 -18 -14 -13 -44 -16 -163 -16 -165 0 -259 9 -218 21 l25 7 -27 1 c-16 1
-28 6 -28 11 0 13 127 13 135 1 3 -6 -14 -12 -37 -14 -24 -2 -7 -4 39 -5 46
-1 85 2 88 8 3 6 -5 10 -19 10 -14 0 -28 5 -31 10 -7 11 21 12 335 15 113 1
213 3 223 4 20 1 23 21 3 21 -21 0 -38 24 -25 37 8 8 -8 14 -53 22 -70 12
-123 13 -73 2z m-17 -68 c-15 -2 -42 -2 -60 0 -18 2 -6 4 27 4 33 0 48 -2 33
-4z m-894 -44 c110 -1 124 -3 86 -11 -63 -13 -318 -4 -333 12 -10 10 1 11 52
6 35 -3 123 -6 195 -7z m1271 -9 c-15 -7 -9 -9 25 -9 33 -1 41 -4 30 -11 -20
-13 -110 -13 -110 0 0 6 6 11 13 11 6 1 -6 5 -28 9 -36 6 -33 7 25 8 45 0 59
-2 45 -8z m-1472 -17 c-7 -2 -19 -2 -25 0 -7 3 -2 5 12 5 14 0 19 -2 13 -5z
m1332 -3 c-28 -12 -93 -12 -100 0 -4 6 17 10 57 9 44 0 57 -3 43 -9z m-1790
-10 c-28 -12 -183 -12 -190 0 -4 6 32 10 102 9 70 0 101 -3 88 -9z m332 -2
c-21 -7 -32 -7 -40 1 -8 8 0 11 29 10 39 -1 39 -1 11 -11z m1761 -45 c-21 -2
-57 -2 -80 0 -24 2 -7 4 37 4 44 0 63 -2 43 -4z m142 -23 c0 -11 -50 -12 -130
0 -51 7 -49 7 38 9 55 0 92 -3 92 -9z m-50 -100 c11 -7 7 -10 -17 -10 -18 0
-33 5 -33 10 0 13 30 13 50 0z m320 0 c0 -6 -49 -10 -127 -9 -80 1 -119 4
-103 9 37 12 230 12 230 0z m-3142 -47 c-10 -2 -28 -2 -40 0 -13 2 -5 4 17 4
22 1 32 -1 23 -4z m318 -62 c24 -11 50 -33 63 -54 21 -34 21 -42 21 -392 l-1
-357 -41 -34 c-48 -41 -72 -48 -142 -42 -63 5 -99 29 -126 84 -19 38 -20 60
-20 362 0 203 4 331 11 349 34 90 139 127 235 84z m333 -209 c35 -122 66 -221
68 -219 2 2 32 103 67 223 l63 219 61 3 62 3 0 -376 0 -375 30 0 30 0 0 375 0
375 50 0 50 0 0 -450 0 -450 -50 0 -50 0 0 65 0 65 -30 0 -30 0 0 -65 0 -65
-55 0 -55 0 -1 273 0 272 -43 -145 -42 -145 -56 -3 -57 -3 -20 68 c-11 37 -31
106 -45 153 l-25 85 0 -277 -1 -278 -55 0 -55 0 0 450 0 451 63 -3 62 -3 64
-223z m716 81 l50 -148 3 148 3 147 49 0 50 0 0 -450 0 -450 -50 0 -50 0 0
128 0 127 -59 175 -59 175 -1 -302 -1 -303 -55 0 -55 0 0 450 0 450 63 0 62 0
50 -147z m461 126 c48 -22 84 -72 84 -113 0 -24 -3 -26 -48 -26 -42 0 -50 3
-60 25 -9 20 -19 25 -50 25 -21 0 -43 -5 -50 -12 -9 -9 -12 -97 -12 -335 0
-308 1 -323 19 -333 30 -16 59 -12 81 10 17 17 20 33 20 120 0 98 0 100 -25
106 -22 6 -25 11 -25 55 l0 49 75 0 75 0 0 -172 c0 -193 -7 -218 -72 -258 -49
-30 -142 -28 -189 4 -67 46 -69 55 -69 419 0 207 4 336 11 354 34 91 141 128
235 82z m588 -2 c52 -29 74 -69 82 -145 l7 -62 -57 0 -56 0 0 41 c0 60 -14 79
-58 79 -21 0 -43 -5 -50 -12 -8 -8 -12 -58 -12 -160 0 -166 1 -168 78 -168 48
0 98 -32 126 -80 18 -30 21 -52 21 -152 0 -129 -8 -150 -75 -195 -29 -21 -45
-23 -146 -23 l-114 0 0 50 0 50 93 0 c130 0 137 6 137 116 0 110 -6 121 -74
129 -69 9 -110 34 -136 84 -17 35 -20 59 -20 190 0 82 5 162 11 178 35 92 153
131 243 80z m382 4 c25 -12 50 -33 65 -57 l24 -39 0 -341 0 -341 -28 -36 c-15
-20 -42 -44 -59 -53 -42 -22 -144 -16 -181 11 -33 25 -67 91 -67 133 0 23 -5
32 -17 33 -17 1 -17 2 0 6 16 4 17 26 17 288 0 177 4 294 11 312 34 90 139
127 235 84z m-3209 3 c-3 -3 -12 -4 -19 -1 -8 3 -5 6 6 6 11 1 17 -2 13 -5z
m-2 -894 c4 -6 -15 -10 -49 -10 -31 0 -56 5 -56 10 0 6 22 10 49 10 28 0 53
-4 56 -10z m45 -4 c0 -11 -19 -15 -25 -6 -3 5 1 10 9 10 9 0 16 -2 16 -4z
m225 -26 c-8 -13 -65 -13 -85 0 -11 7 0 10 38 10 33 0 51 -4 47 -10z m-359 -7
c-4 -4 7 -12 25 -18 38 -13 50 -35 20 -35 -34 0 -70 21 -68 41 1 11 8 19 16
19 8 0 11 -3 7 -7z m4069 -43 c15 -7 10 -9 -23 -9 -26 -1 -41 3 -37 9 7 12 32
12 60 0z m-2095 -10 c0 -5 14 -10 31 -10 17 0 28 -4 24 -10 -3 -5 -19 -10 -36
-10 -16 0 -29 5 -29 10 0 6 -11 10 -25 10 -14 0 -25 -4 -25 -10 0 -5 -16 -10
-36 -10 -21 0 -33 4 -29 10 3 6 -2 10 -12 11 -16 0 -16 1 2 9 28 12 135 12
135 0z m1540 0 c-19 -4 -84 -10 -143 -13 -91 -4 -106 -3 -96 9 9 11 42 14 143
13 89 -1 120 -4 96 -9z m427 4 c-3 -3 -12 -4 -19 -1 -8 3 -5 6 6 6 11 1 17 -2
13 -5z m-3039 -11 c-26 -2 -71 -2 -100 0 -29 2 -8 3 47 3 55 0 79 -1 53 -3z
m175 0 c-7 -2 -19 -2 -25 0 -7 3 -2 5 12 5 14 0 19 -2 13 -5z m1817 -13 c0 -5
-25 -10 -55 -10 -30 0 -55 5 -55 10 0 6 25 10 55 10 30 0 55 -4 55 -10z m-380
-30 c0 -5 -7 -10 -15 -10 -8 0 -15 5 -15 10 0 6 7 10 15 10 8 0 15 -4 15 -10z
m705 0 c12 -5 -49 -9 -157 -9 -113 -1 -178 3 -178 9 0 12 306 12 335 0z m320
0 c-3 -5 -13 -10 -21 -10 -8 0 -14 5 -14 10 0 6 9 10 21 10 11 0 17 -4 14 -10z
m180 0 c-4 -6 23 -10 74 -10 44 0 83 -4 86 -10 8 -13 -86 -13 -156 0 -37 7
-55 7 -57 0 -5 -13 -32 -13 -32 0 0 6 -9 10 -20 10 -11 0 -20 5 -20 10 0 6 29
10 66 10 41 0 63 -4 59 -10z m-1660 -10 c4 -6 -7 -10 -27 -10 -25 0 -29 3 -18
10 19 13 37 13 45 0z m1459 -40 c-6 -6 -21 -6 -39 -1 -30 9 -30 9 10 10 25 1
36 -2 29 -9z m141 0 c-3 -5 -17 -10 -31 -10 -13 0 -24 5 -24 10 0 6 14 10 31
10 17 0 28 -4 24 -10z m-615 -10 c0 -11 -88 -12 -170 0 -47 6 -39 7 58 9 69 0
112 -3 112 -9z m925 -60 c4 -6 -5 -10 -19 -10 -14 0 -26 5 -26 10 0 6 9 10 19
10 11 0 23 -4 26 -10z m-538 -6 c-3 -3 -12 -4 -19 -1 -8 3 -5 6 6 6 11 1 17
-2 13 -5z"/>
<path d="M1492 2358 c-7 -7 -12 -30 -12 -51 0 -37 2 -39 25 -35 37 7 41 -9 5
-17 l-30 -7 0 -268 c0 -231 2 -271 16 -284 20 -20 53 -20 82 0 22 15 22 16 22
325 0 195 -4 318 -10 330 -12 22 -78 27 -98 7z"/>
<path d="M3972 2358 c-9 -9 -12 -88 -12 -294 0 -261 1 -283 18 -287 16 -4 16
-5 0 -6 -13 -1 -18 -10 -18 -30 0 -55 51 -78 98 -45 22 15 22 16 22 325 0 195
-4 318 -10 330 -12 22 -78 27 -98 7z"/>
<path d="M4196 2878 c-71 -4 -131 -10 -134 -13 -7 -7 321 -4 488 4 l135 7
-180 5 c-99 2 -238 1 -309 -3z"/>
<path d="M1898 2853 c12 -2 30 -2 40 0 9 3 -1 5 -23 4 -22 0 -30 -2 -17 -4z"/>
<path d="M2398 2843 c23 -2 61 -2 85 0 23 2 4 4 -43 4 -47 0 -66 -2 -42 -4z"/>
<path d="M2613 2843 c15 -2 37 -2 50 0 12 2 0 4 -28 4 -27 0 -38 -2 -22 -4z"/>
<path d="M1172 2827 c-52 -7 -90 -15 -86 -19 12 -13 107 -8 149 8 30 10 63 13
133 8 100 -7 126 -24 37 -24 -30 0 -55 -4 -55 -9 0 -5 17 -7 38 -5 20 2 63 6
95 9 31 4 57 10 57 15 0 21 -243 32 -368 17z"/>
<path d="M2008 2833 c7 -3 16 -2 19 1 4 3 -2 6 -13 5 -11 0 -14 -3 -6 -6z"/>
<path d="M1643 2823 c9 -2 25 -2 35 0 9 3 1 5 -18 5 -19 0 -27 -2 -17 -5z"/>
<path d="M985 2759 c-16 -6 -14 -8 13 -8 33 -1 41 4 20 12 -7 2 -22 1 -33 -4z"/>
<path d="M1373 2663 c42 -2 112 -2 155 0 42 1 7 3 -78 3 -85 0 -120 -2 -77 -3z"/>
<path d="M1533 2633 c15 -2 37 -2 50 0 12 2 0 4 -28 4 -27 0 -38 -2 -22 -4z"/>
<path d="M312 2564 c4 -21 22 -23 26 -1 2 10 -3 17 -13 17 -10 0 -15 -6 -13
-16z"/>
<path d="M4968 2553 c6 -2 10 -8 7 -13 -6 -10 82 -23 97 -14 15 10 -46 32 -87
32 -16 0 -24 -2 -17 -5z"/>
<path d="M4978 2503 c6 -2 18 -2 25 0 6 3 1 5 -13 5 -14 0 -19 -2 -12 -5z"/>
<path d="M5245 2496 c-19 -14 -17 -15 33 -16 28 0 52 5 52 10 0 6 -6 10 -12
10 -7 0 -22 3 -33 6 -11 3 -29 -2 -40 -10z"/>
<path d="M4766 2455 c4 -10 20 -15 50 -15 32 0 44 4 44 15 0 11 -12 15 -50 15
-40 0 -48 -3 -44 -15z"/>
<path d="M4970 2460 c-11 -7 0 -10 38 -10 33 0 51 4 47 10 -8 13 -65 13 -85 0z"/>
<path d="M5200 2452 c8 -5 42 -13 75 -17 48 -5 58 -4 48 6 -7 7 -41 14 -75 16
-42 3 -58 1 -48 -5z"/>
<path d="M4962 2138 l3 -293 63 2 c72 2 85 -14 15 -20 -27 -2 159 -3 412 -3
308 0 394 2 260 6 l-200 6 173 2 c117 1 172 5 172 13 0 8 -59 11 -197 10 -461
-3 -511 -2 -517 7 -6 10 137 22 262 22 41 0 72 4 72 10 0 6 27 10 60 10 64 0
82 -16 28 -23 -40 -6 273 2 477 11 146 7 142 7 -165 15 -473 11 -650 19 -644
28 3 5 141 9 306 9 166 0 299 3 295 6 -3 3 -62 6 -131 5 -76 0 -126 3 -126 9
0 6 52 10 129 10 76 0 132 4 136 10 4 6 -13 10 -44 10 -28 0 -51 5 -51 10 0 6
59 11 153 12 144 2 171 3 242 7 26 2 27 4 10 11 -11 5 -101 9 -200 10 -99 1
-200 5 -225 9 l-45 7 44 8 c24 5 63 8 85 8 33 0 37 2 21 9 -17 8 -16 8 5 4 30
-7 113 -15 88 -8 -39 10 -10 33 41 33 15 0 31 4 36 9 6 6 42 12 80 14 47 2 30
4 -51 5 -94 2 -124 5 -134 17 -17 20 -40 19 -55 -2 -12 -16 -19 -16 -72 -5
-33 7 -95 12 -138 12 -62 0 -76 3 -67 12 9 9 87 13 274 16 145 2 265 5 267 8
2 2 -72 4 -166 4 -157 0 -171 1 -169 18 1 15 -11 17 -119 18 -144 0 -297 13
-316 25 -16 10 47 13 172 9 44 -1 79 2 83 8 4 6 -10 11 -36 11 -24 0 -56 4
-73 9 -29 9 -29 9 18 17 53 8 150 0 176 -15 13 -8 12 -10 -9 -11 -23 -1 -23
-2 5 -9 17 -4 50 -8 75 -8 25 0 37 2 27 5 -14 4 -16 8 -6 19 9 12 6 14 -18 14
-16 0 -52 6 -79 14 -83 24 -186 29 -220 11 -16 -8 -45 -15 -66 -15 -20 0 -38
-4 -40 -9 -3 -9 -99 -16 -175 -13 -53 2 -57 21 -5 24 22 1 8 4 -33 8 l-70 6
73 2 c46 1 71 6 67 12 -4 6 23 11 72 11 l78 2 -90 8 c-49 4 -105 11 -123 14
-31 6 -33 4 -27 -14 6 -19 2 -21 -39 -21 -25 0 -46 5 -46 10 0 6 -7 10 -16 10
-8 0 -12 5 -9 10 3 6 26 10 51 10 24 0 44 4 44 9 0 12 -37 21 -93 21 l-47 0 2
-292z m61 155 c-7 -2 -19 -2 -25 0 -7 3 -2 5 12 5 14 0 19 -2 13 -5z m461
-124 c-7 -12 -354 -12 -354 1 0 6 64 11 158 12 169 3 205 1 196 -13z m-41 -96
c-13 -2 -33 -2 -45 0 -13 2 -3 4 22 4 25 0 35 -2 23 -4z m197 -62 c0 -9 -34
-21 -62 -21 -29 0 -21 18 10 23 48 7 52 7 52 -2z m-463 -77 c-3 -3 -12 -4 -19
-1 -8 3 -5 6 6 6 11 1 17 -2 13 -5z m181 -101 c-38 -2 -98 -2 -135 0 -38 2 -7
3 67 3 74 0 105 -1 68 -3z"/>
<path d="M4780 2416 c0 -8 72 -221 76 -225 2 -2 4 39 4 92 0 83 -2 96 -17 100
-17 4 -17 5 0 6 9 0 17 8 17 16 0 11 -11 15 -40 15 -22 0 -40 -2 -40 -4z"/>
<path d="M873 2403 c26 -2 67 -2 90 0 23 2 2 3 -48 3 -49 0 -68 -1 -42 -3z"/>
<path d="M5265 2400 c42 -11 149 -11 115 0 -14 4 -52 8 -85 8 -47 0 -54 -2
-30 -8z"/>
<path d="M5595 2400 c-3 -5 -2 -10 4 -10 5 0 13 5 16 10 3 6 2 10 -4 10 -5 0
-13 -4 -16 -10z"/>
<path d="M4362 2358 c-9 -9 -12 -96 -12 -329 0 -345 1 -349 56 -349 40 0 65
34 62 83 -3 38 -6 42 -27 39 -15 -2 -21 0 -17 7 4 6 17 12 29 13 12 1 -5 4
-38 8 l-60 7 58 1 57 2 0 246 c0 150 -4 253 -10 265 -12 22 -78 27 -98 7z"/>
<path d="M843 2353 c-12 -2 -24 -10 -26 -18 -5 -10 12 -13 79 -13 76 0 84 2
84 19 0 17 -7 19 -57 18 -32 -1 -68 -4 -80 -6z"/>
<path d="M5293 2333 c9 -2 25 -2 35 0 9 3 1 5 -18 5 -19 0 -27 -2 -17 -5z"/>
<path d="M590 2253 c-46 -15 -46 -15 -25 -23 11 -5 49 -9 85 -9 l65 0 -40 19
c-41 20 -58 22 -85 13z"/>
<path d="M853 2253 c9 -2 23 -2 30 0 6 3 -1 5 -18 5 -16 0 -22 -2 -12 -5z"/>
<path d="M937 2232 c-20 -2 -35 -7 -32 -13 4 -5 -101 -9 -270 -9 -182 0 -274
-3 -270 -10 3 -5 21 -11 38 -11 18 -1 24 -3 15 -6 -10 -2 -18 -11 -18 -19 0
-11 -19 -14 -87 -16 l-88 -2 78 -3 c42 -2 77 -8 77 -13 0 -6 6 -10 13 -10 18
0 37 -34 27 -50 -4 -7 -6 -19 -3 -27 3 -9 -3 -13 -21 -13 -16 0 -26 -6 -26
-14 0 -8 -12 -17 -27 -19 -21 -3 -17 -4 12 -5 22 -1 49 5 59 13 22 17 76 20
76 5 0 -5 -12 -10 -27 -11 l-28 -1 25 -7 c16 -4 21 -9 13 -14 -16 -10 -5 -37
16 -38 12 0 12 -2 -4 -9 -17 -7 -17 -9 -2 -9 20 -1 23 -17 5 -24 -8 -3 -5 -6
5 -6 10 -1 15 -5 12 -11 -3 -5 1 -10 9 -10 9 0 16 -6 16 -14 0 -9 19 -16 53
-22 l52 -8 -55 -6 c-31 -4 -42 -8 -25 -9 17 -1 26 -5 20 -9 -27 -19 -13 -32
34 -32 28 0 53 -4 56 -10 3 -5 10 -10 16 -10 5 0 9 5 9 10 0 6 -7 10 -15 10
-8 0 -15 5 -15 10 0 6 14 10 30 10 17 0 30 5 30 10 0 6 5 10 11 10 5 0 7 -5 3
-11 -5 -9 11 -10 60 -4 84 9 167 -1 160 -20 -3 -7 -20 -16 -37 -19 -25 -5 -29
-9 -17 -16 20 -13 -44 -14 -68 -1 -9 5 -36 12 -60 16 -36 6 -41 4 -36 -9 5
-12 -1 -16 -24 -16 -17 0 -34 5 -37 11 -5 7 -13 5 -25 -6 -10 -9 -24 -13 -34
-9 -10 4 -27 2 -39 -4 -12 -6 -33 -13 -47 -15 -14 -2 11 -5 55 -7 180 -5 183
-17 5 -20 l-175 -3 140 -8 c77 -3 208 -8 290 -10 134 -2 141 -3 70 -9 l-80 -6
88 -2 88 -2 -13 23 c-9 16 -14 99 -18 297 l-5 275 -38 -3z m-177 -52 c0 -6
-26 -10 -59 -10 -33 0 -63 5 -66 10 -4 6 18 10 59 10 37 0 66 -4 66 -10z
m-205 -10 c3 -5 1 -10 -4 -10 -6 0 -11 5 -11 10 0 6 2 10 4 10 3 0 8 -4 11
-10z m105 -100 c0 -5 -22 -10 -49 -10 -28 0 -53 5 -56 10 -4 6 15 10 49 10 31
0 56 -4 56 -10z m140 -350 c0 -5 -4 -10 -10 -10 -5 0 -10 5 -10 10 0 6 5 10
10 10 6 0 10 -4 10 -10z"/>
<path d="M4741 2013 l-1 -172 55 0 c36 0 55 5 55 12 0 7 -24 84 -54 172 l-54
160 -1 -172z"/>
<path d="M6058 2123 c6 -2 18 -2 25 0 6 3 1 5 -13 5 -14 0 -19 -2 -12 -5z"/>
<path d="M334 1961 c4 -5 0 -12 -6 -14 -7 -3 7 -5 32 -5 25 0 39 2 32 5 -6 2
-10 9 -6 14 3 5 -9 9 -26 9 -17 0 -29 -4 -26 -9z"/>
<path d="M328 1923 c6 -2 18 -2 25 0 6 3 1 5 -13 5 -14 0 -19 -2 -12 -5z"/>
<path d="M388 1813 c7 -3 16 -2 19 1 4 3 -2 6 -13 5 -11 0 -14 -3 -6 -6z"/>
<path d="M4740 1784 c0 -13 7 -15 31 -10 17 3 44 6 60 6 16 0 29 5 29 10 0 6
-27 10 -60 10 -49 0 -60 -3 -60 -16z"/>
<path d="M4960 1791 c0 -5 21 -11 48 -14 66 -7 669 6 678 16 4 4 -158 7 -359
7 -202 0 -367 -4 -367 -9z"/>
<path d="M803 1773 c9 -2 25 -2 35 0 9 3 1 5 -18 5 -19 0 -27 -2 -17 -5z"/>
<path d="M4973 1733 c9 -2 25 -2 35 0 9 3 1 5 -18 5 -19 0 -27 -2 -17 -5z"/>
<path d="M4967 1714 c-4 -4 -7 -16 -7 -26 0 -16 9 -18 73 -18 57 1 68 3 53 11
-15 9 -16 13 -5 20 10 6 4 9 -17 9 -17 0 -44 3 -60 6 -16 3 -32 2 -37 -2z"/>
<path d="M368 1693 c7 -3 16 -2 19 1 4 3 -2 6 -13 5 -11 0 -14 -3 -6 -6z"/>
<path d="M5258 1553 c6 -2 18 -2 25 0 6 3 1 5 -13 5 -14 0 -19 -2 -12 -5z"/>
<path d="M5108 1473 c6 -2 18 -2 25 0 6 3 1 5 -13 5 -14 0 -19 -2 -12 -5z"/>
<path d="M2110 1460 c0 -5 15 -10 34 -10 18 0 53 -3 77 -6 32 -4 50 -1 64 10
18 14 12 15 -77 16 -59 0 -98 -4 -98 -10z"/>
<path d="M5308 1423 c6 -2 18 -2 25 0 6 3 1 5 -13 5 -14 0 -19 -2 -12 -5z"/>
<path d="M1213 1403 c15 -2 37 -2 50 0 12 2 0 4 -28 4 -27 0 -38 -2 -22 -4z"/>
<path d="M2608 1373 c18 -2 45 -2 60 0 15 2 0 4 -33 4 -33 0 -45 -2 -27 -4z"/>
<path d="M1295 1342 l-80 -16 48 -9 c47 -7 107 6 107 25 0 4 10 9 23 11 18 4
19 4 2 5 -11 0 -56 -7 -100 -16z"/>
<path d="M4970 1310 c19 -4 42 -10 51 -14 9 -4 21 0 29 9 11 13 5 15 -51 14
-55 -1 -59 -2 -29 -9z"/>
<path d="M943 1283 c-27 -5 -31 -23 -5 -23 9 0 35 7 57 15 l40 14 -35 -1 c-19
0 -45 -3 -57 -5z"/>
<path d="M4818 1273 c7 -3 16 -2 19 1 4 3 -2 6 -13 5 -11 0 -14 -3 -6 -6z"/>
<path d="M1613 1263 c15 -2 37 -2 50 0 12 2 0 4 -28 4 -27 0 -38 -2 -22 -4z"/>
<path d="M1848 1263 c6 -2 18 -2 25 0 6 3 1 5 -13 5 -14 0 -19 -2 -12 -5z"/>
<path d="M1418 1253 c12 -2 30 -2 40 0 9 3 -1 5 -23 4 -22 0 -30 -2 -17 -4z"/>
<path d="M1257 1240 c13 -5 47 -6 80 -1 l58 9 -80 0 c-57 1 -74 -2 -58 -8z"/>
<path d="M1065 1220 c-49 -10 -76 -18 -60 -19 17 0 49 4 73 9 24 6 66 13 94
15 28 3 54 7 56 10 11 10 -76 2 -163 -15z"/>
<path d="M4420 1212 c22 -15 466 -26 515 -14 32 8 12 10 -106 11 -80 1 -208 4
-285 7 -92 3 -134 2 -124 -4z"/>
</g>
</svg>
