<svg width="53" height="53" viewBox="0 0 53 53" fill="none" xmlns="http://www.w3.org/2000/svg">
<path d="M18.2863 16.195C16.6699 16.2215 14.6951 16.5348 14.6951 16.5348L14.8127 19.9351L18.8396 19.9319C19.8068 19.9158 20.1701 19.224 20.158 18.4428C20.1371 17.163 19.5419 16.174 18.2863 16.1941V16.195Z" fill="#FF1212"/>
<path d="M17.1642 31.6712C14.6063 31.7549 13.1663 33.5509 13.2702 36.7329C13.3757 39.9488 14.922 41.4572 17.1392 41.384C19.0448 41.3211 19.9371 40.0551 19.8195 36.4559C19.7318 33.7732 19.3492 31.5995 17.1642 31.6712Z" fill="#FF1212"/>
<path d="M19.479 11.2414C19.4629 10.266 18.9893 9.50094 17.9528 9.51785C16.462 9.54201 14.3076 9.95195 14.3076 9.95195L14.4445 12.6032C14.4445 12.6032 16.9348 12.5936 18.5021 12.5686C19.152 12.5581 19.4935 12.0846 19.479 11.2414Z" fill="#FF1212"/>
<path d="M37.2272 33.0251C36.0103 32.9977 34.104 33.0806 34.104 33.0806L33.905 36.3859C33.905 36.3859 35.9829 36.7757 37.5486 36.8103C38.8847 36.8401 39.9293 36.4656 39.9543 35.3341C39.9841 33.9794 39.194 33.0694 37.2272 33.0251Z" fill="#FF1212"/>
<path d="M46.5448 0H6.45516C2.88972 0 0 2.88968 0 6.45507L1.23385 22.7888C1.32808 24.0396 1.33613 25.2944 1.25721 26.5459L0 46.5449C0 50.1103 2.88972 53 6.45516 53H46.5448C50.1103 53 53 50.1103 53 46.5449L51.4899 26.4114C51.4053 25.2847 51.4134 24.1523 51.5149 23.0272L53 6.45587C53 2.89048 50.1103 0.000805373 46.5448 0.000805373V0ZM32.5722 4.87815L35.0737 12.0299L38.9009 5.25909L45.5792 6.49292L37.8145 17.1585L37.1532 24.6662L31.5582 23.6788L32.0181 16.7276L25.7892 5.60781L32.5722 4.87653V4.87815ZM20.2724 45.7677L20.9449 47.9133L14.5807 48.1219L14.4067 46.259C9.97631 45.7178 7.52633 42.7452 7.33464 36.8982C7.1333 30.7516 10.6955 26.8882 16.8132 26.6877C22.9519 26.4863 25.4155 29.9647 25.6507 37.1406C25.807 41.914 23.8901 44.6563 20.2724 45.7677ZM19.4774 24.5719C16.0199 24.6283 9.72181 25.0745 9.72181 25.0745L8.39131 6.64674C8.39131 6.64674 14.3053 5.0207 18.159 4.95788C22.7231 4.88378 25.488 6.4607 25.5573 10.6744C25.5919 12.7925 24.2099 14.1931 22.9358 14.5257C24.2187 14.723 26.4481 15.4962 26.4996 18.6508C26.5729 23.144 24.0746 24.497 19.4791 24.5719H19.4774ZM45.6702 35.2423C45.5985 38.4662 44.2889 40.263 41.9058 41.0289H41.9195L45.1338 48.0937L38.7785 47.484L36.4179 41.3438H36.4372C35.0713 41.1836 33.7102 40.9395 33.7102 40.9395L33.5129 46.9919L27.2542 46.2284L28.7587 27.7169C28.7587 27.7169 33.4557 27.1032 37.2628 27.1878C43.192 27.3199 45.7773 30.4044 45.6694 35.2423H45.6702Z" fill="#FF1212"/>
</svg>
