<svg width="375" height="94" viewBox="0 0 375 94" fill="none" xmlns="http://www.w3.org/2000/svg">
<g opacity="0.88">
<path opacity="0.88" d="M189.364 32.8814C189.386 33.6582 189.715 34.3946 190.279 34.9289C190.843 35.4632 191.597 35.7519 192.373 35.7315L233.813 34.6217C234.197 34.613 234.576 34.5283 234.928 34.3726C235.28 34.2168 235.597 33.993 235.862 33.714C236.127 33.435 236.334 33.1065 236.471 32.7471C236.609 32.3878 236.674 32.0049 236.663 31.6204V31.6204C236.653 31.2361 236.567 30.8576 236.411 30.5063C236.255 30.1551 236.031 29.8381 235.752 29.5735C235.474 29.3088 235.146 29.1016 234.787 28.9638C234.428 28.826 234.045 28.7602 233.661 28.7703L192.214 29.8716C191.437 29.8936 190.7 30.2229 190.166 30.7872C189.632 31.3514 189.343 32.1046 189.364 32.8814Z" stroke="#FFDCB3" stroke-width="0.91853" stroke-linecap="round" stroke-linejoin="round"/>
<path opacity="0.88" d="M238.251 23.3809C234.048 23.4902 234.098 26.7437 229.844 26.8194C225.59 26.8951 225.523 23.7171 221.277 23.8264C217.031 23.9357 217.124 27.1893 212.87 27.2734C208.616 27.3575 208.549 24.1711 204.303 24.2804C200.057 24.3897 200.15 27.6433 195.896 27.719C191.642 27.7946 191.566 24.6167 187.32 24.7344" stroke="#FFDCB3" stroke-width="0.91853" stroke-linecap="round" stroke-linejoin="round"/>
<path opacity="0.88" d="M191.936 22.0274C192.449 13.5529 201.285 6.63378 212.323 6.33953C223.362 6.04527 232.56 12.4852 233.526 20.9177L191.936 22.0274Z" stroke="#FFDCB3" stroke-width="0.91853" stroke-linecap="round" stroke-linejoin="round"/>
<path opacity="0.88" d="M192.297 35.7312C193.197 41.6919 202.294 44.4411 213.315 44.1384C224.337 43.8358 233.291 40.6158 233.871 34.613L192.297 35.7312Z" stroke="#FFDCB3" stroke-width="0.91853" stroke-linecap="round" stroke-linejoin="round"/>
<path opacity="0.88" d="M20.0366 -3.4463C20.9362 2.51442 30.0328 5.27199 41.0547 4.96093C52.0766 4.64986 61.0303 1.4299 61.6104 -4.56445L20.0366 -3.4463Z" stroke="#FFDCB3" stroke-width="0.91853" stroke-linecap="round" stroke-linejoin="round"/>
<path opacity="0.88" d="M248.922 58.1099C248.938 58.4786 249.098 58.8263 249.369 59.0768C249.64 59.3274 250 59.4603 250.368 59.4467L290.345 58.3789C290.527 58.3746 290.706 58.3343 290.872 58.2604C291.038 58.1866 291.188 58.0805 291.313 57.9484C291.438 57.8164 291.536 57.6609 291.6 57.4909C291.665 57.321 291.696 57.1399 291.69 56.9581V56.9581C291.686 56.7763 291.645 56.5971 291.571 56.4309C291.498 56.2648 291.392 56.1149 291.259 55.9899C291.127 55.8648 290.972 55.7671 290.802 55.7024C290.632 55.6378 290.451 55.6074 290.269 55.613L250.293 56.6807C249.928 56.6917 249.582 56.8461 249.33 57.1105C249.078 57.375 248.941 57.728 248.948 58.0931L248.922 58.1099Z" stroke="#FFDCB3" stroke-width="0.91853" stroke-linecap="round" stroke-linejoin="round"/>
<path opacity="0.88" d="M277.953 71.3512C285.023 69.2158 289.933 64.3396 289.782 58.8076" stroke="#FFDCB3" stroke-width="0.91853" stroke-linecap="round" stroke-linejoin="round"/>
<path opacity="0.88" d="M250.898 59.8418C251.05 65.3906 256.22 69.9978 263.425 71.7549" stroke="#FFDCB3" stroke-width="0.91853" stroke-linecap="round" stroke-linejoin="round"/>
<path opacity="0.88" d="M251.066 56.5717C250.94 51.7712 259.423 47.6432 270.025 47.3238C280.626 47.0043 289.319 50.6866 289.445 55.5124" stroke="#FFDCB3" stroke-width="0.91853" stroke-linecap="round" stroke-linejoin="round"/>
<path opacity="0.88" d="M277.566 50.1985C280.281 50.4255 283.039 52.1321 283.611 53.0317" stroke="#FFDCB3" stroke-width="0.91853" stroke-linecap="round" stroke-linejoin="round"/>
<path opacity="0.88" d="M262.592 73.4531C262.592 73.6789 262.638 73.9025 262.726 74.1104C262.814 74.3184 262.943 74.5064 263.106 74.6633C263.268 74.8203 263.46 74.9429 263.671 75.0238C263.882 75.1048 264.107 75.1424 264.333 75.1345L277.179 74.7898C277.406 74.79 277.63 74.7444 277.838 74.6557C278.047 74.567 278.235 74.4372 278.392 74.2738C278.549 74.1105 278.672 73.9171 278.752 73.7053C278.833 73.4934 278.87 73.2675 278.86 73.0411C278.861 72.8153 278.815 72.5917 278.727 72.3838C278.639 72.1759 278.51 71.9878 278.347 71.8309C278.185 71.674 277.993 71.5514 277.782 71.4704C277.571 71.3895 277.346 71.3518 277.12 71.3597L264.265 71.7044C264.04 71.7043 263.816 71.7496 263.608 71.8378C263.4 71.9259 263.212 72.0551 263.055 72.2175C262.898 72.3799 262.776 72.5723 262.695 72.7831C262.614 72.994 262.576 73.219 262.584 73.4447L262.592 73.4531Z" stroke="#FFDCB3" stroke-width="0.91853" stroke-linecap="round" stroke-linejoin="round"/>
<path opacity="0.88" d="M266.225 45.5245C266.225 46.5333 267.906 47.3152 270.025 47.2563C272.143 47.1975 273.749 46.3316 273.724 45.3227C273.699 44.3138 271.992 43.5319 269.924 43.5824C267.856 43.6328 266.199 44.5072 266.225 45.5245Z" stroke="#FFDCB3" stroke-width="0.91853" stroke-linecap="round" stroke-linejoin="round"/>
<path opacity="0.88" d="M24.3497 67.0644C24.354 67.2455 24.394 67.4239 24.4674 67.5896C24.5407 67.7552 24.646 67.9047 24.7772 68.0296C24.9083 68.1546 25.0628 68.2524 25.2318 68.3176C25.4008 68.3828 25.581 68.414 25.7621 68.4096L65.7384 67.3418C65.9202 67.3375 66.0994 67.2972 66.2656 67.2233C66.4318 67.1495 66.5817 67.0434 66.7067 66.9114C66.8317 66.7793 66.9294 66.6238 66.9941 66.4538C67.0588 66.2839 67.0892 66.1028 67.0836 65.921C67.0726 65.5545 66.917 65.2073 66.6507 64.9553C66.3845 64.7032 66.0293 64.5668 65.6628 64.5759L25.6948 65.6436C25.513 65.6479 25.3338 65.6882 25.1677 65.7621C25.0015 65.836 24.8516 65.942 24.7265 66.0741C24.6015 66.2061 24.5038 66.3616 24.4392 66.5316C24.3745 66.7015 24.3441 66.8826 24.3497 67.0644V67.0644Z" stroke="#FFDCB3" stroke-width="0.91853" stroke-linecap="round" stroke-linejoin="round"/>
<path opacity="0.88" d="M53.3715 80.3064C60.4503 78.1626 65.3518 73.2948 65.2088 67.7544" stroke="#FFDCB3" stroke-width="0.91853" stroke-linecap="round" stroke-linejoin="round"/>
<path opacity="0.88" d="M26.3167 68.7969C26.468 74.3372 31.6468 78.9444 38.8518 80.7015" stroke="#FFDCB3" stroke-width="0.91853" stroke-linecap="round" stroke-linejoin="round"/>
<path opacity="0.88" d="M26.4849 65.518C26.3588 60.7175 34.8417 56.5895 45.4432 56.27C56.0447 55.9506 64.7798 59.6329 64.8639 64.4587" stroke="#FFDCB3" stroke-width="0.91853" stroke-linecap="round" stroke-linejoin="round"/>
<path opacity="0.88" d="M52.9845 59.1621C55.7 59.3975 58.4576 61.0958 59.0293 61.9953" stroke="#FFDCB3" stroke-width="0.91853" stroke-linecap="round" stroke-linejoin="round"/>
<path opacity="0.88" d="M38.0112 82.3995C38.0111 82.6254 38.0565 82.8489 38.1446 83.0569C38.2328 83.2648 38.3619 83.4528 38.5243 83.6098C38.6868 83.7667 38.8791 83.8893 39.09 83.9702C39.3008 84.0512 39.5258 84.0889 39.7515 84.081L52.6062 83.7363C52.832 83.7364 53.0556 83.691 53.2635 83.6029C53.4715 83.5147 53.6595 83.3856 53.8164 83.2232C53.9734 83.0607 54.096 82.8684 54.1769 82.6575C54.2579 82.4467 54.2955 82.2217 54.2876 81.996C54.2878 81.7701 54.2424 81.5466 54.1542 81.3386C54.0661 81.1307 53.9369 80.9427 53.7745 80.7857C53.6121 80.6288 53.4197 80.5062 53.2089 80.4252C52.998 80.3443 52.773 80.3066 52.5473 80.3145L39.7011 80.6592C39.4752 80.6591 39.2517 80.7044 39.0437 80.7926C38.8358 80.8808 38.6478 81.0099 38.4908 81.1723C38.3339 81.3347 38.2113 81.5271 38.1303 81.7379C38.0494 81.9488 38.0117 82.1738 38.0196 82.3995H38.0112Z" stroke="#FFDCB3" stroke-width="0.91853" stroke-linecap="round" stroke-linejoin="round"/>
<path opacity="0.88" d="M41.6431 54.471C41.6431 55.4799 43.375 56.2617 45.4432 56.2029C47.5114 56.144 49.1676 55.2865 49.1424 54.2692C49.1171 53.252 47.4105 52.4785 45.3423 52.5289C43.2741 52.5794 41.6179 53.4537 41.6431 54.471Z" stroke="#FFDCB3" stroke-width="0.91853" stroke-linecap="round" stroke-linejoin="round"/>
<path opacity="0.88" d="M115.165 -0.0499518C114.584 0.437667 114.702 1.35404 115.425 1.98458C115.727 2.29013 116.124 2.4834 116.551 2.53233C116.977 2.58126 117.408 2.48292 117.771 2.25362C117.902 2.10946 118.001 1.93842 118.06 1.75234C118.119 1.56626 118.136 1.36961 118.111 1.17603C118.087 0.982462 118.02 0.796587 117.916 0.631339C117.812 0.466092 117.674 0.325409 117.51 0.21906C117.209 -0.087866 116.812 -0.282071 116.385 -0.331048C115.958 -0.380025 115.527 -0.28078 115.165 -0.0499518V-0.0499518Z" stroke="#FFDCB3" stroke-width="0.91853" stroke-linecap="round" stroke-linejoin="round"/>
<path opacity="0.88" d="M310.845 -29.6936C309.984 -28.5119 309.195 -27.2794 308.483 -26.0028C307.945 -24.8426 307.289 -20.9585 310.929 -16.923C314.57 -12.8876 315.713 -4.07678 320.825 0.000729808C325.936 4.07824 333.166 2.60697 334.646 1.79147C336.813 0.672658 338.659 -0.979444 340.01 -3.00907" stroke="#FFDCB3" stroke-width="0.91853" stroke-linecap="round" stroke-linejoin="round"/>
<path opacity="0.88" d="M318.319 55.8523L318.496 62.4352H318.656C319.095 62.4281 319.528 62.5357 319.912 62.7474C320.297 62.9591 320.62 63.2675 320.849 63.6421C321.077 64.0167 321.205 64.4446 321.217 64.8834C321.23 65.3223 321.128 65.7568 320.922 66.1442C320.715 66.5315 320.411 66.8582 320.039 67.0919C319.668 67.3257 319.241 67.4584 318.803 67.4769C318.364 67.4954 317.928 67.3992 317.538 67.1976C317.148 66.9961 316.818 66.6962 316.579 66.3277C316.361 66.7069 316.049 67.023 315.672 67.2449C315.295 67.4668 314.867 67.5869 314.43 67.5934C313.992 67.5999 313.561 67.4926 313.178 67.2821C312.794 67.0715 312.472 66.7648 312.243 66.3923C312.014 66.0197 311.886 65.594 311.871 65.1569C311.857 64.7199 311.956 64.2865 312.159 63.8993C312.362 63.512 312.663 63.1844 313.031 62.9483C313.399 62.7123 313.822 62.5759 314.259 62.5528C314.326 62.5486 314.393 62.5486 314.461 62.5528L314.284 55.97" stroke="#FFDCB3" stroke-width="0.91853" stroke-linecap="round" stroke-linejoin="round"/>
<path opacity="0.88" d="M315.545 27.5701C324.297 27.3347 326.399 33.4551 325.945 38.4995C325.491 43.5438 319.488 52.1276 319.589 55.8352L316.301 55.9193L313.014 56.0117C312.913 52.3041 306.465 43.9474 305.742 39.0375C305.019 34.1277 306.793 27.8055 315.545 27.5701Z" stroke="#FFDCB3" stroke-width="0.91853" stroke-linecap="round" stroke-linejoin="round"/>
<path opacity="0.88" d="M322.683 37.9867C322.59 34.4136 320.009 31.5804 316.932 31.656" stroke="#FFDCB3" stroke-width="0.91853" stroke-linecap="round" stroke-linejoin="round"/>
<path opacity="0.88" d="M343.894 4.90184C343.97 7.59215 353.327 9.52583 364.803 9.22317C376.279 8.92051 385.527 6.49081 385.459 3.8005C385.392 1.11018 376.026 -0.823466 364.55 -0.520806C353.075 -0.218146 343.827 2.25356 343.894 4.90184Z" stroke="#FFDCB3" stroke-width="1.22471" stroke-linecap="round" stroke-linejoin="round"/>
<path opacity="0.88" d="M385.468 4.1958C385.863 18.9841 376.875 31.2166 365.4 31.5193C353.924 31.822 344.297 20.0939 343.911 5.30556" stroke="#FFDCB3" stroke-width="1.22471" stroke-linecap="round" stroke-linejoin="round"/>
<path opacity="0.88" d="M332.502 19.7406C333.041 20.9824 333.934 22.0374 335.071 22.773C336.207 23.5086 337.535 23.8921 338.889 23.8753C340.242 23.8585 341.56 23.4422 342.678 22.6786C343.796 21.915 344.663 20.8383 345.171 19.5835C345.678 18.3287 345.804 16.9519 345.532 15.626C345.26 14.3 344.602 13.0841 343.641 12.1308C342.68 11.1775 341.459 10.5294 340.131 10.2679C338.802 10.0063 337.427 10.143 336.176 10.6608C334.485 11.378 333.148 12.7374 332.459 14.44C331.77 16.1427 331.786 18.0493 332.502 19.7406V19.7406Z" stroke="#FFDCB3" stroke-width="1.22471" stroke-linecap="round" stroke-linejoin="round"/>
<path opacity="0.88" d="M357.934 29.9217C349.678 30.6952 343.818 32.3178 343.869 34.0329C343.927 36.2356 353.638 37.7573 365.559 37.4462C377.481 37.1351 387.099 35.0838 387.04 32.8895C386.989 31.2081 381.155 29.8797 372.907 29.5266" stroke="#FFDCB3" stroke-width="1.22471" stroke-linecap="round" stroke-linejoin="round"/>
<path opacity="0.88" d="M69.8578 -41.3799C68.7299 -39.8324 67.6967 -38.2181 66.764 -36.5457C66.0578 -35.0324 65.1918 -29.8872 69.9587 -24.6495C74.7256 -19.4118 76.2389 -7.83503 82.9395 -2.46281C89.64 2.9094 99.115 0.950502 101.057 -0.117216C103.896 -1.58632 106.315 -3.75322 108.085 -6.41422" stroke="#FFDCB3" stroke-width="1.22471" stroke-linecap="round" stroke-linejoin="round"/>
<path opacity="0.88" d="M139.042 71.6048C139.062 72.0375 139.247 72.446 139.561 72.7452C139.874 73.0443 140.291 73.2111 140.724 73.2106L164.777 72.5717C165.21 72.5522 165.618 72.3665 165.917 72.0532C166.216 71.74 166.383 71.3234 166.383 70.8902C166.363 70.4575 166.177 70.049 165.864 69.7499C165.551 69.4507 165.134 69.284 164.701 69.2844L140.64 69.9318C140.424 69.9361 140.211 69.9832 140.014 70.0703C139.817 70.1574 139.639 70.2828 139.49 70.4391C139.341 70.5955 139.225 70.7798 139.149 70.9813C139.072 71.1829 139.036 71.3977 139.042 71.6132V71.6048Z" stroke="#FFDCB3" stroke-width="1.22471" stroke-linecap="round" stroke-linejoin="round"/>
<path opacity="0.88" d="M165.155 69.268C166.372 68.4862 167.366 67.4038 168.042 66.1255C168.718 64.8471 169.053 63.416 169.014 61.9705L168.333 34.7058" stroke="#FFDCB3" stroke-width="1.22471" stroke-linecap="round" stroke-linejoin="round"/>
<path opacity="0.88" d="M140.186 69.9319C138.937 69.2115 137.895 68.1819 137.158 66.9422C136.422 65.7026 136.017 64.2944 135.982 62.8531L135.268 36.1853" stroke="#FFDCB3" stroke-width="1.22471" stroke-linecap="round" stroke-linejoin="round"/>
<path opacity="0.88" d="M159.237 40.4138L159.867 64.0213" stroke="#FFDCB3" stroke-width="1.22471" stroke-linecap="round" stroke-linejoin="round"/>
<path opacity="0.88" d="M151.897 40.6072L152.528 64.2231" stroke="#FFDCB3" stroke-width="1.22471" stroke-linecap="round" stroke-linejoin="round"/>
<path opacity="0.88" d="M144.557 40.8091L145.188 64.4166" stroke="#FFDCB3" stroke-width="1.22471" stroke-linecap="round" stroke-linejoin="round"/>
<path opacity="0.88" d="M137.588 20.5057C138.832 20.4681 140.067 20.7259 141.193 21.2578C142.318 21.7898 143.301 22.5807 144.061 23.566C145.445 22.0068 147.386 21.0543 149.465 20.9143C151.545 20.7743 153.596 21.458 155.176 22.8177C156.081 21.1495 157.493 19.8123 159.208 18.9995C160.923 18.1867 162.852 17.9405 164.716 18.2964C166.581 18.6523 168.283 19.592 169.578 20.9795C170.873 22.3669 171.693 24.1303 171.92 26.0146C172.147 27.8989 171.768 29.8065 170.839 31.4615C169.91 33.1165 168.479 34.4332 166.752 35.2211C165.026 36.009 163.093 36.2273 161.234 35.8444C159.375 35.4616 157.686 34.4974 156.412 33.0913C155.69 34.0892 154.747 34.9054 153.655 35.4751C152.563 36.0449 151.354 36.3526 150.123 36.3738C148.892 36.395 147.673 36.1292 146.562 35.5974C145.452 35.0656 144.48 34.2824 143.725 33.3099C143.006 34.1247 142.126 34.782 141.141 35.2406C140.156 35.6992 139.086 35.9493 138 35.975C136.984 36.0021 135.973 35.8288 135.024 35.4651C134.076 35.1014 133.208 34.5544 132.47 33.8553C131.733 33.1562 131.141 32.3187 130.727 31.3906C130.313 30.4625 130.086 29.4621 130.059 28.4464C130.032 27.4307 130.205 26.4195 130.569 25.4708C130.933 24.522 131.48 23.6542 132.179 22.9168C132.878 22.1794 133.716 21.587 134.644 21.1733C135.572 20.7596 136.572 20.5328 137.588 20.5057V20.5057Z" stroke="#FFDCB3" stroke-width="1.22471" stroke-linecap="round" stroke-linejoin="round"/>
<path opacity="0.88" d="M135.444 60.6503L129.828 60.8016C129.193 60.8195 128.56 60.7118 127.966 60.4848C127.372 60.2577 126.829 59.9157 126.367 59.4784C125.905 59.0411 125.535 58.517 125.276 57.9361C125.017 57.3553 124.876 56.7291 124.859 56.0935L124.691 49.7545L124.523 43.4154C124.489 42.1324 124.966 40.8884 125.849 39.9567C126.732 39.025 127.948 38.4819 129.231 38.4467V38.4467L134.847 38.2954" stroke="#FFDCB3" stroke-width="1.22471" stroke-linecap="round" stroke-linejoin="round"/>
<path opacity="0.88" d="M-0.964478 -20.2861L-0.333935 3.32977" stroke="#FFDCB3" stroke-width="1.22471" stroke-linecap="round" stroke-linejoin="round"/>
<path opacity="0.88" d="M269.105 25.6078L263.166 31.8796C263.219 31.9259 263.268 31.9755 263.314 32.0283C263.753 32.4287 264.077 32.9381 264.255 33.5045C264.433 34.071 264.457 34.6744 264.326 35.2534C264.195 35.8324 263.913 36.3664 263.509 36.8012C263.104 37.2359 262.592 37.5558 262.024 37.7285C261.456 37.9011 260.853 37.9203 260.275 37.7842C259.697 37.648 259.165 37.3613 258.734 36.9531C258.303 36.545 257.988 36.03 257.82 35.4605C257.652 34.891 257.639 34.2873 257.78 33.7106C257.213 33.8816 256.612 33.9 256.036 33.764C255.46 33.6281 254.93 33.3426 254.5 32.9363C254.07 32.5301 253.754 32.0176 253.585 31.4505C253.417 30.8833 253.4 30.2817 253.538 29.7063C253.677 29.1309 253.964 28.6021 254.372 28.1734C254.78 27.7446 255.293 27.4311 255.861 27.2644C256.429 27.0977 257.031 27.0838 257.605 27.224C258.18 27.3642 258.708 27.6537 259.135 28.0631L259.32 28.2474L265.264 21.9815" stroke="#FFDCB3" stroke-width="1.22471" stroke-linecap="round" stroke-linejoin="round"/>
<path opacity="0.88" d="M292.741 -3.17675C301.076 4.71796 297.313 12.3808 292.272 16.566C287.231 20.7511 273.653 23.2241 270.335 26.7316L267.202 23.7651L264.075 20.7927C267.416 17.2734 269.182 3.54682 273.076 -1.67866C276.97 -6.90415 284.425 -11.0655 292.741 -3.17675Z" stroke="#FFDCB3" stroke-width="1.22471" stroke-linecap="round" stroke-linejoin="round"/>
<path opacity="0.88" d="M289.733 13.076C292.961 9.66958 293.199 4.65217 290.251 1.85811" stroke="#FFDCB3" stroke-width="1.22471" stroke-linecap="round" stroke-linejoin="round"/>
<path opacity="0.88" d="M20.411 32.0005L24.9278 39.353C24.986 39.3194 25.0443 39.2857 25.1098 39.2479C25.61 38.9293 26.1855 38.7485 26.7781 38.7241C27.3706 38.6997 27.9591 38.8324 28.4838 39.1088C29.0086 39.3852 29.4508 39.7954 29.7659 40.2979C30.0809 40.8003 30.2574 41.3772 30.2775 41.9699C30.2977 42.5626 30.1607 43.1501 29.8806 43.6728C29.6004 44.1955 29.187 44.6349 28.6823 44.9463C28.1776 45.2576 27.5995 45.43 27.0066 45.4459C26.4138 45.4617 25.8273 45.3206 25.3066 45.0366C25.3234 45.6275 25.1841 46.2124 24.9028 46.7323C24.6215 47.2522 24.2081 47.6887 23.7043 47.9979C23.2005 48.3072 22.6241 48.4782 22.0332 48.4937C21.4423 48.5091 20.8577 48.3686 20.3384 48.0862C19.8191 47.8038 19.3834 47.3895 19.0753 46.885C18.7671 46.3806 18.5974 45.8038 18.5832 45.2129C18.5689 44.6219 18.7107 44.0377 18.9942 43.519C19.2777 43.0003 19.693 42.5655 20.1981 42.2584L20.4238 42.1281L15.9059 34.7568" stroke="#FFDCB3" stroke-width="1.22471" stroke-linecap="round" stroke-linejoin="round"/>
<path opacity="0.88" d="M-1.24329 1.69147C8.54377 -4.30858 14.9716 1.30955 17.7052 7.25489C20.4387 13.2002 19.3175 26.9629 21.8468 31.0748L18.1706 33.3332L14.4944 35.5916C11.9555 31.4463 -0.846395 26.1882 -4.88182 21.0818C-8.91725 15.9755 -11.048 7.7114 -1.24329 1.69147Z" stroke="#FFDCB3" stroke-width="1.22471" stroke-linecap="round" stroke-linejoin="round"/>
<path opacity="0.88" d="M13.6413 8.82479C11.1907 4.83239 6.40155 3.29683 2.94374 5.42911" stroke="#FFDCB3" stroke-width="1.22471" stroke-linecap="round" stroke-linejoin="round"/>
<path opacity="0.88" d="M106.337 12.3421C111.709 18.3617 107.766 22.7839 108.018 26.0207C108.464 31.065 116.165 36.7987 108.657 48.056C98.7871 62.8443 87.782 52.7472 82.5359 52.8901C80.3416 52.949 71.9008 55.2357 67.487 50.1494C61.9719 43.7935 65.898 37.9337 64.1241 33.0575C62.8714 29.6946 57.6674 16.8484 68.1175 9.89557C77.7943 3.45564 84.0913 9.10529 90.2622 9.4668C93.3308 9.66016 101.578 7.03712 106.337 12.3421Z" stroke="#FFDCB3" stroke-width="1.22471" stroke-linecap="round" stroke-linejoin="round"/>
<path opacity="0.88" d="M93.9657 37.5859C97.5524 33.6553 97.2735 27.5614 93.3429 23.9747C89.4123 20.3881 83.3183 20.6669 79.7316 24.5975C76.145 28.5282 76.4239 34.6222 80.3545 38.2088C84.2851 41.7955 90.3791 41.5166 93.9657 37.5859Z" stroke="#FFDCB3" stroke-width="1.22471" stroke-linecap="round" stroke-linejoin="round"/>
<path opacity="0.88" d="M92.5829 30.2751C92.5455 28.923 91.9728 27.641 90.9907 26.7109C90.0086 25.7808 88.6974 25.2786 87.3452 25.3148" stroke="#FFDCB3" stroke-width="1.22471" stroke-linecap="round" stroke-linejoin="round"/>
</g>
</svg>
