<svg width="32" height="32" viewBox="0 0 32 32" fill="none" xmlns="http://www.w3.org/2000/svg">
<path d="M26.36 18.3334H20.9733C18.2933 18.3334 17 17.0934 17 14.5334V5.46675C17 2.90675 18.3067 1.66675 20.9733 1.66675H26.36C29.04 1.66675 30.3333 2.90675 30.3333 5.46675V14.5334C30.3333 17.0934 29.0267 18.3334 26.36 18.3334ZM20.9733 3.66675C19.28 3.66675 19 4.12008 19 5.46675V14.5334C19 15.8801 19.28 16.3334 20.9733 16.3334H26.36C28.0533 16.3334 28.3333 15.8801 28.3333 14.5334V5.46675C28.3333 4.12008 28.0533 3.66675 26.36 3.66675H20.9733Z" fill="#FD451C"/>
<path d="M26.36 30.3333H20.9733C18.2933 30.3333 17 29.0933 17 26.5333V24.1333C17 21.5733 18.3067 20.3333 20.9733 20.3333H26.36C29.04 20.3333 30.3333 21.5733 30.3333 24.1333V26.5333C30.3333 29.0933 29.0267 30.3333 26.36 30.3333ZM20.9733 22.3333C19.28 22.3333 19 22.7866 19 24.1333V26.5333C19 27.8799 19.28 28.3333 20.9733 28.3333H26.36C28.0533 28.3333 28.3333 27.8799 28.3333 26.5333V24.1333C28.3333 22.7866 28.0533 22.3333 26.36 22.3333H20.9733Z" fill="#FD451C"/>
<path d="M11.0267 30.3334H5.64008C2.96008 30.3334 1.66675 29.0934 1.66675 26.5334V17.4667C1.66675 14.9067 2.97341 13.6667 5.64008 13.6667H11.0267C13.7067 13.6667 15.0001 14.9067 15.0001 17.4667V26.5334C15.0001 29.0934 13.6934 30.3334 11.0267 30.3334ZM5.64008 15.6667C3.94675 15.6667 3.66675 16.1201 3.66675 17.4667V26.5334C3.66675 27.8801 3.94675 28.3334 5.64008 28.3334H11.0267C12.7201 28.3334 13.0001 27.8801 13.0001 26.5334V17.4667C13.0001 16.1201 12.7201 15.6667 11.0267 15.6667H5.64008Z" fill="#FD451C"/>
<path d="M11.0267 11.6667H5.64008C2.96008 11.6667 1.66675 10.4267 1.66675 7.86675V5.46675C1.66675 2.90675 2.97341 1.66675 5.64008 1.66675H11.0267C13.7067 1.66675 15.0001 2.90675 15.0001 5.46675V7.86675C15.0001 10.4267 13.6934 11.6667 11.0267 11.6667ZM5.64008 3.66675C3.94675 3.66675 3.66675 4.12008 3.66675 5.46675V7.86675C3.66675 9.21342 3.94675 9.66675 5.64008 9.66675H11.0267C12.7201 9.66675 13.0001 9.21342 13.0001 7.86675V5.46675C13.0001 4.12008 12.7201 3.66675 11.0267 3.66675H5.64008Z" fill="#FD451C"/>
</svg>
