<svg width="7" height="12" viewBox="0 0 7 12" fill="none" xmlns="http://www.w3.org/2000/svg">
<path d="M3.594 2.716C3.274 2.712 2.974 2.764 2.694 2.872C2.418 2.976 2.192 3.12 2.016 3.304C1.84 3.488 1.752 3.702 1.752 3.946C1.752 4.246 1.834 4.474 1.998 4.63C2.162 4.786 2.382 4.902 2.658 4.978C2.938 5.05 3.25 5.116 3.594 5.176C4.146 5.264 4.656 5.41 5.124 5.614C5.596 5.818 5.974 6.09 6.258 6.43C6.546 6.766 6.69 7.18 6.69 7.672C6.69 8.124 6.57 8.526 6.33 8.878C6.09 9.226 5.768 9.508 5.364 9.724C4.964 9.936 4.522 10.07 4.038 10.126V11.344H3.156V10.126C2.752 10.086 2.368 9.99 2.004 9.838C1.644 9.686 1.33 9.484 1.062 9.232C0.794 8.98 0.6 8.688 0.48 8.356L1.65 7.918C1.718 8.11 1.848 8.282 2.04 8.434C2.236 8.582 2.468 8.698 2.736 8.782C3.008 8.866 3.294 8.908 3.594 8.908C3.914 8.908 4.214 8.856 4.494 8.752C4.778 8.648 5.006 8.504 5.178 8.32C5.354 8.136 5.442 7.92 5.442 7.672C5.442 7.416 5.35 7.206 5.166 7.042C4.986 6.878 4.754 6.748 4.47 6.652C4.19 6.556 3.898 6.484 3.594 6.436C3.006 6.34 2.478 6.2 2.01 6.016C1.546 5.832 1.178 5.574 0.906 5.242C0.638 4.91 0.504 4.478 0.504 3.946C0.504 3.494 0.624 3.092 0.864 2.74C1.104 2.388 1.424 2.106 1.824 1.894C2.228 1.678 2.672 1.544 3.156 1.492V0.256H4.038V1.492C4.43 1.532 4.806 1.628 5.166 1.78C5.53 1.932 5.848 2.134 6.12 2.386C6.392 2.634 6.59 2.93 6.714 3.274L5.532 3.7C5.464 3.504 5.334 3.334 5.142 3.19C4.95 3.042 4.718 2.926 4.446 2.842C4.178 2.758 3.894 2.716 3.594 2.716Z" fill="#FD451C"/>
</svg>
