<svg width="375" height="153" viewBox="0 0 375 153" fill="none" xmlns="http://www.w3.org/2000/svg">
<g opacity="0.77">
<path opacity="0.88" d="M176.361 95.9933C176.381 96.7111 176.671 97.3915 177.169 97.8853C177.666 98.379 178.331 98.6457 179.016 98.6269L215.566 97.6014C215.906 97.5934 216.24 97.5151 216.55 97.3712C216.86 97.2272 217.14 97.0204 217.374 96.7626C217.608 96.5048 217.79 96.2012 217.912 95.8692C218.033 95.5371 218.09 95.1833 218.08 94.8279V94.8279C218.072 94.4729 217.996 94.1231 217.858 93.7985C217.721 93.474 217.523 93.181 217.277 92.9365C217.032 92.6919 216.742 92.5004 216.426 92.3731C216.109 92.2458 215.772 92.185 215.433 92.1943L178.875 93.212C178.19 93.2323 177.54 93.5366 177.069 94.058C176.598 94.5794 176.343 95.2754 176.361 95.9933Z" stroke="#EDF1F8" stroke-width="0.810169" stroke-linecap="round" stroke-linejoin="round"/>
<path opacity="0.88" d="M219.481 87.2144C215.774 87.3154 215.818 90.3219 212.066 90.3918C208.314 90.4617 208.255 87.5251 204.51 87.6261C200.765 87.7271 200.847 90.7336 197.094 90.8113C193.342 90.889 193.283 87.9446 189.538 88.0456C185.793 88.1466 185.875 91.1531 182.123 91.2231C178.37 91.293 178.304 88.3564 174.559 88.4651" stroke="#EDF1F8" stroke-width="0.810169" stroke-linecap="round" stroke-linejoin="round"/>
<path opacity="0.88" d="M178.63 85.9636C179.082 78.1326 186.876 71.7389 196.612 71.467C206.349 71.1951 214.461 77.146 215.314 84.9382L178.63 85.9636Z" stroke="#EDF1F8" stroke-width="0.810169" stroke-linecap="round" stroke-linejoin="round"/>
<path opacity="0.88" d="M178.949 98.627C179.742 104.135 187.766 106.676 197.487 106.396C207.209 106.116 215.106 103.141 215.618 97.5938L178.949 98.627Z" stroke="#EDF1F8" stroke-width="0.810169" stroke-linecap="round" stroke-linejoin="round"/>
<path opacity="0.88" d="M48.1011 46.1593C48.1097 46.515 48.1853 46.8655 48.3235 47.1905C48.4617 47.5156 48.6599 47.8089 48.9065 48.0536C49.1531 48.2983 49.4435 48.4895 49.7608 48.6164C50.0781 48.7433 50.4163 48.8033 50.7558 48.7929L87.3063 47.7752C87.6462 47.7672 87.9812 47.6887 88.2919 47.5442C88.6027 47.3998 88.883 47.1923 89.1167 46.9337C89.3505 46.675 89.533 46.3705 89.6537 46.0375C89.7745 45.7046 89.831 45.3499 89.8202 44.9939V44.9939C89.8115 44.6389 89.7362 44.2891 89.5984 43.9645C89.4607 43.6399 89.2632 43.347 89.0174 43.1025C88.7715 42.8579 88.4821 42.6664 88.1656 42.5391C87.8491 42.4117 87.5118 42.351 87.1729 42.3603L50.6149 43.3858C50.276 43.3949 49.9421 43.4738 49.6323 43.6181C49.3225 43.7624 49.0429 43.9693 48.8095 44.2268C48.576 44.4844 48.3933 44.7876 48.2718 45.1192C48.1502 45.4508 48.0922 45.8042 48.1011 46.1593V46.1593Z" stroke="#EDF1F8" stroke-width="0.810169" stroke-linecap="round" stroke-linejoin="round"/>
<path opacity="0.88" d="M91.2069 37.3804C87.4992 37.4891 87.5437 40.4879 83.7915 40.5656C80.0393 40.6433 79.9874 37.6989 76.2797 37.7999C72.572 37.9009 72.6164 40.9074 68.8642 40.9774C65.1121 41.0473 65.0527 38.1106 61.308 38.2194C57.5632 38.3282 57.6447 41.327 53.8925 41.3969C50.1404 41.4668 50.0736 38.5302 46.3288 38.6312" stroke="#EDF1F8" stroke-width="0.810169" stroke-linecap="round" stroke-linejoin="round"/>
<path opacity="0.88" d="M50.3257 36.1297C50.7781 28.3065 58.5717 21.9127 68.3081 21.6408C78.0445 21.3689 86.157 27.3198 87.0097 35.112L50.3257 36.1297Z" stroke="#EDF1F8" stroke-width="0.810169" stroke-linecap="round" stroke-linejoin="round"/>
<path opacity="0.88" d="M50.6743 48.7925C51.4677 54.3006 59.4912 56.8488 69.2128 56.5614C78.9344 56.2739 86.8318 53.2985 87.3434 47.7593L50.6743 48.7925Z" stroke="#EDF1F8" stroke-width="0.810169" stroke-linecap="round" stroke-linejoin="round"/>
<path opacity="0.88" d="M165.241 9.75117C165.241 9.95987 165.281 10.1664 165.358 10.3586C165.436 10.5507 165.55 10.7245 165.693 10.8695C165.837 11.0145 166.006 11.1278 166.192 11.2026C166.378 11.2774 166.577 11.3122 166.776 11.3049L178.106 10.9942C178.306 10.9943 178.504 10.9522 178.688 10.8702C178.872 10.7883 179.038 10.6683 179.177 10.5173C179.315 10.3664 179.423 10.1877 179.494 9.99195C179.565 9.79621 179.598 9.58747 179.59 9.37826C179.59 9.16888 179.549 8.96162 179.471 8.76894C179.393 8.57626 179.278 8.40213 179.134 8.257C178.99 8.11188 178.82 7.99877 178.633 7.92444C178.446 7.85012 178.247 7.81611 178.047 7.82449L166.716 8.13523C166.516 8.13507 166.319 8.17722 166.135 8.25916C165.951 8.3411 165.785 8.46116 165.646 8.61209C165.508 8.76302 165.4 8.9417 165.329 9.13745C165.258 9.33319 165.225 9.54196 165.233 9.75117H165.241Z" stroke="#EDF1F8" stroke-width="0.810169" stroke-linecap="round" stroke-linejoin="round"/>
<path opacity="0.88" d="M228.894 119.306C228.907 119.647 229.049 119.968 229.288 120.2C229.527 120.431 229.844 120.554 230.169 120.541L265.429 119.555C265.59 119.551 265.748 119.513 265.894 119.445C266.041 119.377 266.173 119.279 266.283 119.157C266.394 119.035 266.48 118.891 266.537 118.734C266.594 118.577 266.621 118.41 266.616 118.242V118.242C266.612 118.074 266.577 117.908 266.511 117.755C266.446 117.601 266.353 117.462 266.236 117.347C266.12 117.231 265.983 117.141 265.833 117.081C265.683 117.022 265.523 116.993 265.363 116.999L230.102 117.985C229.781 117.995 229.475 118.138 229.253 118.383C229.031 118.627 228.91 118.953 228.916 119.29L228.894 119.306Z" stroke="#EDF1F8" stroke-width="0.810169" stroke-linecap="round" stroke-linejoin="round"/>
<path opacity="0.88" d="M254.499 131.542C260.735 129.569 265.066 125.063 264.933 119.951" stroke="#EDF1F8" stroke-width="0.810169" stroke-linecap="round" stroke-linejoin="round"/>
<path opacity="0.88" d="M230.636 120.907C230.77 126.034 235.33 130.292 241.685 131.915" stroke="#EDF1F8" stroke-width="0.810169" stroke-linecap="round" stroke-linejoin="round"/>
<path opacity="0.88" d="M230.785 117.885C230.673 113.449 238.155 109.634 247.506 109.339C256.857 109.044 264.525 112.447 264.636 116.906" stroke="#EDF1F8" stroke-width="0.810169" stroke-linecap="round" stroke-linejoin="round"/>
<path opacity="0.88" d="M254.158 111.996C256.553 112.205 258.985 113.782 259.49 114.614" stroke="#EDF1F8" stroke-width="0.810169" stroke-linecap="round" stroke-linejoin="round"/>
<path opacity="0.88" d="M240.951 133.485C240.951 133.693 240.991 133.9 241.069 134.092C241.146 134.284 241.26 134.458 241.404 134.603C241.547 134.748 241.717 134.861 241.902 134.936C242.088 135.011 242.287 135.046 242.486 135.038L253.817 134.72C254.017 134.72 254.214 134.678 254.398 134.596C254.582 134.514 254.748 134.394 254.887 134.243C255.025 134.092 255.133 133.914 255.204 133.718C255.275 133.522 255.308 133.313 255.3 133.104C255.3 132.895 255.26 132.689 255.182 132.497C255.104 132.304 254.991 132.131 254.847 131.986C254.704 131.841 254.534 131.727 254.348 131.653C254.162 131.578 253.964 131.543 253.765 131.55L242.427 131.869C242.227 131.869 242.03 131.911 241.847 131.992C241.663 132.074 241.498 132.193 241.359 132.343C241.221 132.493 241.113 132.671 241.041 132.866C240.97 133.06 240.937 133.268 240.944 133.477L240.951 133.485Z" stroke="#EDF1F8" stroke-width="0.810169" stroke-linecap="round" stroke-linejoin="round"/>
<path opacity="0.88" d="M244.155 107.677C244.155 108.609 245.638 109.331 247.507 109.277C249.375 109.223 250.792 108.422 250.769 107.49C250.747 106.558 249.242 105.835 247.418 105.882C245.593 105.929 244.133 106.737 244.155 107.677Z" stroke="#EDF1F8" stroke-width="0.810169" stroke-linecap="round" stroke-linejoin="round"/>
<path opacity="0.88" d="M345.171 28.6917C345.184 29.1752 345.38 29.6336 345.715 29.9668C346.049 30.3001 346.496 30.4812 346.958 30.4707L397.308 29.0646C397.537 29.0585 397.762 29.0053 397.971 28.9078C398.18 28.8103 398.368 28.6706 398.525 28.4966C398.682 28.3226 398.805 28.1178 398.886 27.894C398.968 27.6702 399.006 27.4317 398.999 27.1923V27.1923C398.993 26.9525 398.943 26.7163 398.85 26.4971C398.757 26.2779 398.623 26.08 398.457 25.9148C398.292 25.7496 398.096 25.6203 397.882 25.5342C397.669 25.4481 397.441 25.407 397.212 25.4132L346.869 26.8194C346.64 26.8254 346.415 26.8787 346.205 26.976C345.996 27.0734 345.807 27.213 345.65 27.3869C345.492 27.5608 345.368 27.7655 345.286 27.9894C345.204 28.2133 345.165 28.4519 345.171 28.6917V28.6917Z" stroke="#EDF1F8" stroke-width="1.08022" stroke-linecap="round" stroke-linejoin="round"/>
<path opacity="0.88" d="M347.662 30.9756C347.848 38.2938 354.336 44.3691 363.435 46.692" stroke="#EDF1F8" stroke-width="1.08022" stroke-linecap="round" stroke-linejoin="round"/>
<path opacity="0.88" d="M347.863 26.6565C347.707 20.3171 358.4 14.8789 371.748 14.506C385.096 14.1331 396.048 18.9731 396.219 25.3125" stroke="#EDF1F8" stroke-width="1.08022" stroke-linecap="round" stroke-linejoin="round"/>
<path opacity="0.88" d="M362.382 48.9294C362.389 49.2266 362.452 49.5195 362.568 49.7909C362.684 50.0623 362.85 50.3067 363.057 50.5099C363.264 50.7132 363.508 50.8712 363.774 50.9746C364.04 51.0781 364.323 51.1249 364.607 51.1124L380.794 50.6618C381.077 50.6539 381.356 50.587 381.614 50.4651C381.873 50.3432 382.105 50.1687 382.298 49.9519C382.491 49.735 382.642 49.48 382.74 49.2018C382.838 48.9235 382.883 48.6276 382.871 48.3312V48.3312C382.863 48.0343 382.799 47.7419 382.683 47.471C382.567 47.2001 382.4 46.9561 382.193 46.753C381.986 46.55 381.743 46.392 381.478 46.2882C381.212 46.1843 380.929 46.1367 380.646 46.1481L364.466 46.5987C364.182 46.6057 363.902 46.6718 363.643 46.7933C363.384 46.9147 363.151 47.089 362.957 47.306C362.763 47.523 362.612 47.7783 362.513 48.0571C362.415 48.3358 362.37 48.6324 362.382 48.9294V48.9294Z" stroke="#EDF1F8" stroke-width="1.08022" stroke-linecap="round" stroke-linejoin="round"/>
<path opacity="0.88" d="M366.957 12.0746C366.994 13.4109 369.137 14.4053 371.74 14.3664C374.343 14.3276 376.434 13.1545 376.397 11.8105C376.36 10.4665 374.224 9.47984 371.622 9.51869C369.019 9.55753 366.928 10.7384 366.957 12.0746Z" stroke="#EDF1F8" stroke-width="1.08022" stroke-linecap="round" stroke-linejoin="round"/>
<path opacity="0.88" d="M30.8144 127.581C30.8182 127.749 30.8535 127.913 30.9182 128.067C30.9829 128.22 31.0757 128.358 31.1914 128.473C31.3071 128.589 31.4434 128.679 31.5925 128.739C31.7415 128.8 31.9004 128.828 32.0602 128.824L67.3204 127.838C67.4808 127.834 67.6388 127.796 67.7854 127.728C67.9319 127.66 68.0642 127.562 68.1744 127.44C68.2847 127.318 68.3709 127.174 68.4279 127.017C68.485 126.86 68.5118 126.693 68.5069 126.525C68.4972 126.186 68.3599 125.865 68.1251 125.632C67.8903 125.399 67.577 125.273 67.2537 125.282L32.0008 126.268C31.8405 126.272 31.6825 126.31 31.5359 126.378C31.3893 126.446 31.2571 126.544 31.1468 126.666C31.0365 126.788 30.9504 126.932 30.8933 127.089C30.8363 127.246 30.8094 127.413 30.8144 127.581V127.581Z" stroke="#EDF1F8" stroke-width="0.810169" stroke-linecap="round" stroke-linejoin="round"/>
<path opacity="0.88" d="M56.4124 139.818C62.6562 137.837 66.9793 133.338 66.8533 128.219" stroke="#EDF1F8" stroke-width="0.810169" stroke-linecap="round" stroke-linejoin="round"/>
<path opacity="0.88" d="M32.5493 129.182C32.6828 134.301 37.2507 138.559 43.6057 140.182" stroke="#EDF1F8" stroke-width="0.810169" stroke-linecap="round" stroke-linejoin="round"/>
<path opacity="0.88" d="M32.6977 126.152C32.5865 121.716 40.0686 117.901 49.4195 117.606C58.7703 117.311 66.4749 120.714 66.549 125.173" stroke="#EDF1F8" stroke-width="0.810169" stroke-linecap="round" stroke-linejoin="round"/>
<path opacity="0.88" d="M56.0711 120.279C58.4663 120.496 60.8985 122.066 61.4028 122.897" stroke="#EDF1F8" stroke-width="0.810169" stroke-linecap="round" stroke-linejoin="round"/>
<path opacity="0.88" d="M42.8644 141.752C42.8642 141.961 42.9042 142.167 42.982 142.359C43.0598 142.551 43.1737 142.725 43.3169 142.87C43.4602 143.015 43.6299 143.129 43.8158 143.203C44.0018 143.278 44.2003 143.313 44.3993 143.306L55.7375 142.987C55.9367 142.987 56.1339 142.945 56.3173 142.864C56.5007 142.782 56.6666 142.663 56.805 142.513C56.9434 142.363 57.0515 142.185 57.1229 141.99C57.1943 141.795 57.2276 141.588 57.2206 141.379C57.2207 141.17 57.1807 140.964 57.1029 140.772C57.0252 140.579 56.9113 140.406 56.768 140.261C56.6247 140.116 56.4551 140.002 56.2691 139.927C56.0831 139.853 55.8847 139.818 55.6856 139.825L44.3549 140.144C44.1556 140.144 43.9585 140.185 43.7751 140.267C43.5916 140.348 43.4258 140.468 43.2874 140.618C43.149 140.768 43.0408 140.946 42.9694 141.141C42.898 141.335 42.8648 141.543 42.8718 141.752H42.8644Z" stroke="#EDF1F8" stroke-width="0.810169" stroke-linecap="round" stroke-linejoin="round"/>
<path opacity="0.88" d="M46.0677 115.944C46.0677 116.876 47.5952 117.599 49.4194 117.545C51.2436 117.49 52.7044 116.698 52.6822 115.758C52.66 114.818 51.1546 114.103 49.3304 114.15C47.5063 114.196 46.0454 115.004 46.0677 115.944Z" stroke="#EDF1F8" stroke-width="0.810169" stroke-linecap="round" stroke-linejoin="round"/>
<path opacity="0.88" d="M225.765 40.3839C225.865 42.5261 226.772 44.5393 228.288 45.9813C229.803 47.4234 231.803 48.1764 233.848 48.075L258.082 47.3991C260.129 47.3848 262.087 46.5205 263.528 44.9957C264.968 43.4709 265.772 41.4102 265.764 39.2652V39.2652C265.664 37.1229 264.757 35.1097 263.241 33.6677C261.726 32.2256 259.726 31.4726 257.681 31.574L233.448 32.2499C231.4 32.2622 229.44 33.1259 228 34.6511C226.559 36.1763 225.755 38.2382 225.765 40.3839V40.3839Z" stroke="#EDF1F8" stroke-width="0.810169" stroke-linecap="round" stroke-linejoin="round"/>
<path opacity="0.88" d="M239.884 40.6562C239.806 38.8813 239.274 37.1611 238.342 35.6765C237.41 34.1918 236.114 32.9976 234.59 32.2192" stroke="#EDF1F8" stroke-width="0.810169" stroke-linecap="round" stroke-linejoin="round"/>
<path opacity="0.88" d="M248.323 40.4226C248.249 38.6417 247.717 36.9149 246.784 35.4244C245.851 33.9338 244.551 32.7351 243.021 31.9546" stroke="#EDF1F8" stroke-width="0.810169" stroke-linecap="round" stroke-linejoin="round"/>
<path opacity="0.88" d="M256.762 40.1899C256.682 38.4134 256.148 36.6921 255.215 35.2063C254.283 33.7205 252.985 32.525 251.46 31.7451" stroke="#EDF1F8" stroke-width="0.810169" stroke-linecap="round" stroke-linejoin="round"/>
<path opacity="0.88" d="M221.687 40.5393C221.687 41.223 222.51 41.759 223.481 41.728C224.453 41.6969 225.231 41.122 225.217 40.4384C225.202 39.7547 224.394 39.2186 223.422 39.2419C222.451 39.2652 221.687 39.8479 221.687 40.5393Z" stroke="#EDF1F8" stroke-width="0.810169" stroke-linecap="round" stroke-linejoin="round"/>
<path opacity="0.88" d="M223.17 36.9032C222.658 37.3538 222.762 38.1929 223.4 38.7833C223.666 39.0656 224.016 39.2442 224.393 39.2894C224.769 39.3346 225.149 39.2438 225.469 39.0319C225.98 38.5813 225.877 37.7345 225.239 37.144C224.972 36.8629 224.621 36.6858 224.245 36.642C223.869 36.5982 223.489 36.6904 223.17 36.9032V36.9032Z" stroke="#EDF1F8" stroke-width="0.810169" stroke-linecap="round" stroke-linejoin="round"/>
<path opacity="0.88" d="M223.355 44.0044C223.232 43.8773 223.137 43.7235 223.076 43.5539C223.016 43.3843 222.991 43.2028 223.005 43.0223C223.018 42.8417 223.069 42.6664 223.154 42.5086C223.239 42.3508 223.356 42.2144 223.496 42.1088C223.748 41.8128 224.089 41.6154 224.462 41.549C224.835 41.4827 225.219 41.5513 225.55 41.7436C225.667 41.8715 225.757 42.0241 225.813 42.1913C225.87 42.3585 225.891 42.5364 225.876 42.713C225.862 42.8895 225.811 43.0608 225.728 43.2152C225.645 43.3696 225.531 43.5036 225.394 43.6082C225.147 43.9056 224.811 44.1066 224.441 44.1786C224.07 44.2505 223.688 44.1891 223.355 44.0044Z" stroke="#EDF1F8" stroke-width="0.810169" stroke-linecap="round" stroke-linejoin="round"/>
<path opacity="0.88" d="M269.739 39.1952C269.739 39.8867 268.997 40.4616 268.011 40.4849C267.025 40.5082 266.231 39.9799 266.216 39.2962C266.202 38.6126 266.958 38.0299 267.944 37.9988C268.931 37.9678 269.724 38.5116 269.739 39.1952Z" stroke="#EDF1F8" stroke-width="0.810169" stroke-linecap="round" stroke-linejoin="round"/>
<path opacity="0.88" d="M268.085 35.645C268.619 36.0723 268.552 36.9191 267.952 37.5406C267.7 37.8378 267.36 38.0361 266.986 38.1025C266.612 38.1689 266.228 38.0995 265.897 37.9058C265.364 37.4785 265.43 36.6317 266.031 36.0102C266.283 35.7142 266.624 35.5168 266.997 35.4504C267.37 35.3841 267.754 35.4527 268.085 35.645V35.645Z" stroke="#EDF1F8" stroke-width="0.810169" stroke-linecap="round" stroke-linejoin="round"/>
<path opacity="0.88" d="M268.27 42.7535C268.775 42.2951 268.671 41.4561 268.033 40.8656C267.767 40.5833 267.417 40.4047 267.04 40.3595C266.664 40.3143 266.284 40.4051 265.964 40.617C265.46 41.0676 265.564 41.9144 266.194 42.5049C266.463 42.7853 266.814 42.9625 267.191 43.0076C267.568 43.0527 267.948 42.9632 268.27 42.7535V42.7535Z" stroke="#EDF1F8" stroke-width="0.810169" stroke-linecap="round" stroke-linejoin="round"/>
<path opacity="0.88" d="M313.105 26.2709C312.868 17.1269 302.464 10.5856 294.53 10.2748C286.595 9.96405 281.79 12.2325 281.234 16.4355C280.552 21.594 284.726 23.3809 286.907 30.3651C288.738 36.215 291.23 42.4456 300.759 42.1815C310.399 41.9096 313.469 32.6724 313.105 26.4806" stroke="#EDF1F8" stroke-width="0.810169" stroke-linecap="round" stroke-linejoin="round"/>
<path opacity="0.88" d="M281.338 15.6899C280.579 16.7819 279.883 17.9208 279.254 19.1005C278.78 20.1726 278.201 23.7618 281.412 27.4908C284.623 31.2199 285.631 39.3616 290.14 43.1295C294.649 46.8974 301.026 45.5379 302.331 44.7843C304.242 43.7504 305.87 42.2238 307.062 40.3483" stroke="#EDF1F8" stroke-width="0.810169" stroke-linecap="round" stroke-linejoin="round"/>
<path opacity="0.88" d="M302.825 18.875C302.825 18.875 302.188 29.363 296.7 36.891" stroke="#EDF1F8" stroke-width="0.810169" stroke-linecap="round" stroke-linejoin="round"/>
<path opacity="0.88" d="M296.292 16.4663C296.259 22.3778 294.413 28.1216 291.028 32.8508" stroke="#EDF1F8" stroke-width="0.810169" stroke-linecap="round" stroke-linejoin="round"/>
<path opacity="0.88" d="M289.745 15.729C289.563 18.956 288.431 22.0447 286.504 24.57" stroke="#EDF1F8" stroke-width="0.810169" stroke-linecap="round" stroke-linejoin="round"/>
<path opacity="0.88" d="M299.637 18.3072C294.873 17.8915 290.078 18.3677 285.473 19.7134" stroke="#EDF1F8" stroke-width="0.810169" stroke-linecap="round" stroke-linejoin="round"/>
<path opacity="0.88" d="M302.863 32.2454C298.201 31.145 293.389 30.9266 288.655 31.6006" stroke="#EDF1F8" stroke-width="0.810169" stroke-linecap="round" stroke-linejoin="round"/>
<path opacity="0.88" d="M304.791 24.9032C304.791 24.9032 296.3 23.7689 288.914 25.8199" stroke="#EDF1F8" stroke-width="0.810169" stroke-linecap="round" stroke-linejoin="round"/>
<path opacity="0.88" d="M-9.83151 116.302C-6.93454 116.876 -4.28768 118.403 -2.27521 120.661C2.52997 120.738 6.48238 124.452 6.56395 129.113C6.69001 133.938 2.75243 137.962 -2.23072 138.102C-3.45113 138.14 -4.66713 137.931 -5.81236 137.488C-8.01844 138.721 -10.4679 139.399 -12.9673 139.469C-15.4666 139.539 -17.9472 138.999 -20.2131 137.892C-21.336 138.387 -22.5394 138.651 -23.7576 138.669C-28.7408 138.809 -32.8786 135.01 -32.9972 130.185C-33.1159 125.524 -29.3934 121.57 -24.6104 121.228C-22.7191 118.873 -20.1648 117.206 -17.3137 116.465" stroke="#EDF1F8" stroke-width="0.810169" stroke-linecap="round" stroke-linejoin="round"/>
<path opacity="0.88" d="M179.964 49.3965C179.968 49.5496 180.001 49.7003 180.06 49.8401C180.12 49.98 180.205 50.1062 180.311 50.2115C180.417 50.3169 180.542 50.3993 180.678 50.4541C180.815 50.5088 180.96 50.5349 181.106 50.5307L197.294 50.0801C197.588 50.07 197.866 49.9385 198.067 49.7143C198.269 49.4901 198.377 49.1915 198.369 48.8838C198.365 48.7317 198.333 48.582 198.274 48.4431C198.215 48.3042 198.13 48.1788 198.025 48.0742C197.919 47.9696 197.795 47.8878 197.66 47.8334C197.524 47.779 197.38 47.7531 197.235 47.7573L181.047 48.2079C180.753 48.216 180.474 48.3456 180.272 48.5683C180.069 48.791 179.958 49.0887 179.964 49.3965V49.3965Z" stroke="#EDF1F8" stroke-width="0.810169" stroke-linecap="round" stroke-linejoin="round"/>
<path opacity="0.88" d="M197.539 47.7485C198.359 47.1995 199.029 46.4371 199.484 45.5357C199.939 44.6343 200.163 43.6247 200.134 42.6055L199.645 23.4087" stroke="#EDF1F8" stroke-width="0.810169" stroke-linecap="round" stroke-linejoin="round"/>
<path opacity="0.88" d="M180.736 48.215C179.891 47.7107 179.184 46.9868 178.684 46.1132C178.184 45.2396 177.907 44.2457 177.881 43.2274L177.406 24.4268" stroke="#EDF1F8" stroke-width="0.810169" stroke-linecap="round" stroke-linejoin="round"/>
<path opacity="0.88" d="M193.557 27.4097L193.979 44.0506" stroke="#EDF1F8" stroke-width="0.810169" stroke-linecap="round" stroke-linejoin="round"/>
<path opacity="0.88" d="M188.618 27.5493L189.041 44.1902" stroke="#EDF1F8" stroke-width="0.810169" stroke-linecap="round" stroke-linejoin="round"/>
<path opacity="0.88" d="M183.68 27.6816L184.102 44.3303" stroke="#EDF1F8" stroke-width="0.810169" stroke-linecap="round" stroke-linejoin="round"/>
<path opacity="0.88" d="M178.986 13.3718C179.824 13.3462 180.655 13.5286 181.413 13.9039C182.171 14.2793 182.833 14.837 183.346 15.5316C184.276 14.4332 185.582 13.7622 186.98 13.6634C188.378 13.5645 189.758 14.0458 190.821 15.0033C191.34 14.032 192.092 13.219 193.002 12.6442C193.912 12.0694 194.949 11.7526 196.011 11.7248C197.015 11.7092 198.007 11.9574 198.896 12.4468C199.784 12.9362 200.542 13.6512 201.099 14.5264C201.655 15.4015 201.994 16.409 202.083 17.4566C202.173 18.5043 202.01 19.5587 201.61 20.5235C201.21 21.4883 200.586 22.3326 199.794 22.9794C199.002 23.6262 198.069 24.0547 197.078 24.2258C196.087 24.3969 195.072 24.3052 194.124 23.959C193.176 23.6127 192.326 23.0231 191.651 22.2438C191.165 22.9477 190.53 23.5235 189.795 23.9254C189.06 24.3273 188.246 24.5444 187.417 24.5595C186.588 24.5746 185.767 24.3872 185.019 24.0123C184.272 23.6373 183.617 23.085 183.109 22.3992C182.545 23.1056 181.821 23.6524 181.003 23.9895C180.185 24.3266 179.3 24.4433 178.428 24.3288C177.556 24.2143 176.725 23.8723 176.012 23.3341C175.299 22.796 174.726 22.0789 174.347 21.2487C173.967 20.4184 173.792 19.5015 173.838 18.5821C173.884 17.6627 174.15 16.7701 174.611 15.9862C175.072 15.2023 175.713 14.5521 176.476 14.0954C177.239 13.6386 178.1 13.3898 178.978 13.3718H178.986Z" stroke="#EDF1F8" stroke-width="0.810169" stroke-linecap="round" stroke-linejoin="round"/>
<path opacity="0.88" d="M177.562 41.6732L173.78 41.782C172.918 41.8049 172.082 41.4685 171.456 40.8465C170.831 40.2246 170.466 39.3679 170.443 38.4647L170.324 33.9898L170.213 29.5227C170.191 28.6187 170.512 27.7423 171.106 27.0856C171.699 26.4289 172.517 26.0454 173.38 26.0189L177.161 25.918" stroke="#EDF1F8" stroke-width="0.810169" stroke-linecap="round" stroke-linejoin="round"/>
<path opacity="0.88" d="M290.104 117.22L290.259 123.303H290.4C290.787 123.297 291.17 123.396 291.509 123.592C291.848 123.787 292.133 124.072 292.335 124.419C292.536 124.765 292.649 125.16 292.66 125.566C292.671 125.971 292.581 126.373 292.399 126.731C292.217 127.089 291.948 127.39 291.621 127.606C291.293 127.822 290.917 127.945 290.53 127.962C290.143 127.979 289.759 127.89 289.415 127.704C289.071 127.518 288.779 127.241 288.569 126.9C288.377 127.251 288.101 127.543 287.768 127.748C287.436 127.953 287.058 128.064 286.673 128.07C286.287 128.076 285.907 127.977 285.569 127.782C285.23 127.588 284.946 127.304 284.744 126.96C284.542 126.616 284.429 126.222 284.416 125.818C284.403 125.414 284.491 125.014 284.67 124.656C284.849 124.298 285.114 123.996 285.439 123.777C285.764 123.559 286.137 123.433 286.522 123.412C286.581 123.408 286.641 123.408 286.7 123.412L286.544 117.329" stroke="#EDF1F8" stroke-width="0.810169" stroke-linecap="round" stroke-linejoin="round"/>
<path opacity="0.88" d="M287.656 91.0852C295.376 90.8677 297.23 96.5234 296.829 101.185C296.429 105.846 291.134 113.778 291.223 117.204L288.324 117.282L285.424 117.367C285.335 113.941 279.648 106.219 279.01 101.682C278.372 97.1449 279.937 91.3027 287.656 91.0852Z" stroke="#EDF1F8" stroke-width="0.810169" stroke-linecap="round" stroke-linejoin="round"/>
<path opacity="0.88" d="M293.952 100.711C293.871 97.4089 291.594 94.7908 288.88 94.8607" stroke="#EDF1F8" stroke-width="0.810169" stroke-linecap="round" stroke-linejoin="round"/>
<path opacity="0.88" d="M14.189 3.50521C14.1785 3.03248 14.0788 2.56659 13.8959 2.13433C13.7129 1.70206 13.4503 1.31194 13.123 0.986354C12.7956 0.660771 12.4102 0.406158 11.9886 0.237137C11.5671 0.0681155 11.1179 -0.011986 10.6667 0.001449" stroke="#EDF1F8" stroke-width="0.810169" stroke-linecap="round" stroke-linejoin="round"/>
<path opacity="0.88" d="M312.661 70.1388C312.728 72.6249 320.981 74.4117 331.103 74.132C341.225 73.8524 349.382 71.6072 349.323 69.1211C349.264 66.6351 341.003 64.8483 330.881 65.1279C320.759 65.4076 312.602 67.6917 312.661 70.1388Z" stroke="#EDF1F8" stroke-width="1.08022" stroke-linecap="round" stroke-linejoin="round"/>
<path opacity="0.88" d="M349.33 69.4858C349.679 83.1512 341.752 94.4549 331.63 94.7346C321.508 95.0143 313.017 84.1767 312.676 70.5113" stroke="#EDF1F8" stroke-width="1.08022" stroke-linecap="round" stroke-linejoin="round"/>
<path opacity="0.88" d="M331.22 46.2109C331.264 47.8113 329.781 47.8579 329.818 49.4583C329.855 51.0587 331.346 51.0121 331.383 52.6125C331.42 54.2128 329.944 54.2595 329.982 55.8598C330.019 57.4602 331.509 57.4136 331.546 59.0295C331.583 60.6455 330.108 60.6688 330.145 62.2769" stroke="#EDF1F8" stroke-width="1.08022" stroke-linecap="round" stroke-linejoin="round"/>
<path opacity="0.88" d="M324.939 46.3892C324.976 47.9895 323.493 48.0284 323.537 49.6288C323.582 51.2292 325.021 51.1826 325.102 52.7907C325.184 54.3989 323.656 54.4299 323.701 56.0381C323.745 57.6462 325.221 57.5919 325.265 59.2C325.31 60.8082 323.819 60.847 323.864 62.4474" stroke="#EDF1F8" stroke-width="1.08022" stroke-linecap="round" stroke-linejoin="round"/>
<path opacity="0.88" d="M302.613 83.8506C303.088 84.9981 303.877 85.973 304.879 86.6527C305.881 87.3325 307.053 87.6869 308.246 87.6714C309.44 87.6558 310.603 87.2711 311.589 86.5655C312.575 85.8599 313.339 84.8649 313.787 83.7054C314.235 82.5459 314.346 81.2737 314.106 80.0484C313.866 78.8231 313.286 77.6995 312.438 76.8186C311.59 75.9377 310.513 75.3388 309.342 75.0971C308.17 74.8555 306.957 74.9818 305.854 75.4603C304.362 76.123 303.183 77.3791 302.575 78.9525C301.968 80.5259 301.981 82.2877 302.613 83.8506V83.8506Z" stroke="#EDF1F8" stroke-width="1.08022" stroke-linecap="round" stroke-linejoin="round"/>
<path opacity="0.88" d="M325.045 93.2587C317.763 93.9734 312.594 95.4728 312.639 97.0576C312.691 99.0931 321.256 100.499 331.771 100.212C342.286 99.9244 350.769 98.0288 350.717 96.0011C350.672 94.4473 345.526 93.2198 338.252 92.8936" stroke="#EDF1F8" stroke-width="1.08022" stroke-linecap="round" stroke-linejoin="round"/>
<path opacity="0.88" d="M155.301 41.2773C154.997 29.2977 141.353 20.7132 130.949 20.3014C120.545 19.8897 114.257 22.8651 113.523 28.3655C112.633 35.1399 118.098 37.4783 120.938 46.6301C123.341 54.3057 126.603 62.463 139.098 62.1134C151.742 61.7638 155.753 49.6832 155.286 41.5414" stroke="#EDF1F8" stroke-width="1.08022" stroke-linecap="round" stroke-linejoin="round"/>
<path opacity="0.88" d="M113.664 27.3711C112.669 28.801 111.757 30.2928 110.935 31.8382C110.312 33.2366 109.548 37.9911 113.753 42.8311C117.957 47.6711 119.292 58.3688 125.202 63.3331C131.112 68.2974 139.469 66.4873 141.182 65.5006C143.686 64.1431 145.819 62.1407 147.381 59.6817" stroke="#EDF1F8" stroke-width="1.08022" stroke-linecap="round" stroke-linejoin="round"/>
<path opacity="0.88" d="M145.335 31.5742C145.335 31.5742 144.489 45.3173 137.297 55.1915" stroke="#EDF1F8" stroke-width="1.08022" stroke-linecap="round" stroke-linejoin="round"/>
<path opacity="0.88" d="M136.77 28.3809C136.72 36.1303 134.3 43.6589 129.866 49.8617" stroke="#EDF1F8" stroke-width="1.08022" stroke-linecap="round" stroke-linejoin="round"/>
<path opacity="0.88" d="M128.183 27.4492C127.945 31.678 126.46 35.7253 123.934 39.0326" stroke="#EDF1F8" stroke-width="1.08022" stroke-linecap="round" stroke-linejoin="round"/>
<path opacity="0.88" d="M141.145 30.8286C134.91 30.2875 128.633 30.9109 122.607 32.6698" stroke="#EDF1F8" stroke-width="1.08022" stroke-linecap="round" stroke-linejoin="round"/>
<path opacity="0.88" d="M145.379 49.0925C139.266 47.6602 132.958 47.3814 126.752 48.269" stroke="#EDF1F8" stroke-width="1.08022" stroke-linecap="round" stroke-linejoin="round"/>
<path opacity="0.88" d="M147.975 39.4672C147.975 39.4672 136.852 37.9833 127.16 40.6713" stroke="#EDF1F8" stroke-width="1.08022" stroke-linecap="round" stroke-linejoin="round"/>
<path opacity="0.88" d="M131.976 131.777C131.994 132.176 132.157 132.554 132.434 132.83C132.71 133.107 133.077 133.261 133.459 133.26L154.675 132.67C155.057 132.652 155.417 132.48 155.681 132.191C155.945 131.901 156.092 131.516 156.091 131.116C156.074 130.716 155.91 130.339 155.634 130.062C155.358 129.786 154.99 129.632 154.608 129.632L133.385 130.231C133.195 130.235 133.008 130.278 132.833 130.359C132.659 130.439 132.502 130.555 132.371 130.699C132.24 130.844 132.138 131.014 132.07 131.2C132.002 131.387 131.97 131.585 131.976 131.784V131.777Z" stroke="#EDF1F8" stroke-width="1.08022" stroke-linecap="round" stroke-linejoin="round"/>
<path opacity="0.88" d="M155.009 129.617C156.082 128.895 156.959 127.894 157.555 126.713C158.151 125.532 158.447 124.209 158.413 122.874L157.812 97.6792" stroke="#EDF1F8" stroke-width="1.08022" stroke-linecap="round" stroke-linejoin="round"/>
<path opacity="0.88" d="M132.985 130.231C131.884 129.565 130.964 128.614 130.315 127.468C129.665 126.323 129.308 125.022 129.278 123.69L128.647 99.0469" stroke="#EDF1F8" stroke-width="1.08022" stroke-linecap="round" stroke-linejoin="round"/>
<path opacity="0.88" d="M149.788 102.954L150.344 124.769" stroke="#EDF1F8" stroke-width="1.08022" stroke-linecap="round" stroke-linejoin="round"/>
<path opacity="0.88" d="M143.315 103.133L143.871 124.956" stroke="#EDF1F8" stroke-width="1.08022" stroke-linecap="round" stroke-linejoin="round"/>
<path opacity="0.88" d="M136.841 103.319L137.397 125.134" stroke="#EDF1F8" stroke-width="1.08022" stroke-linecap="round" stroke-linejoin="round"/>
<path opacity="0.88" d="M130.694 84.5579C131.791 84.5231 132.881 84.7613 133.873 85.2528C134.866 85.7444 135.733 86.4753 136.404 87.3857C137.624 85.9449 139.336 85.0648 141.17 84.9354C143.004 84.806 144.813 85.4378 146.207 86.6943C147.005 85.1527 148.25 83.917 149.763 83.166C151.276 82.4149 152.977 82.1874 154.622 82.5163C156.266 82.8452 157.768 83.7135 158.91 84.9956C160.052 86.2777 160.776 87.9072 160.976 89.6485C161.176 91.3897 160.842 93.1524 160.022 94.6818C159.203 96.2111 157.94 97.4278 156.417 98.1558C154.895 98.8839 153.19 99.0856 151.55 98.7319C149.911 98.3781 148.421 97.4871 147.297 96.1878C146.661 97.1099 145.828 97.8641 144.865 98.3906C143.903 98.9171 142.836 99.2014 141.75 99.221C140.664 99.2406 139.589 98.995 138.609 98.5035C137.63 98.0121 136.773 97.2884 136.107 96.3898C135.473 97.1427 134.697 97.7501 133.828 98.1739C132.959 98.5977 132.015 98.8287 131.057 98.8525C130.161 98.8775 129.269 98.7174 128.433 98.3813C127.596 98.0453 126.83 97.5397 126.18 96.8937C125.529 96.2477 125.007 95.4738 124.642 94.6162C124.277 93.7586 124.077 92.8342 124.053 91.8956C124.029 90.957 124.182 90.0226 124.503 89.1459C124.824 88.2692 125.306 87.4672 125.923 86.7858C126.54 86.1045 127.278 85.557 128.097 85.1747C128.915 84.7925 129.798 84.5828 130.694 84.5579V84.5579Z" stroke="#EDF1F8" stroke-width="1.08022" stroke-linecap="round" stroke-linejoin="round"/>
<path opacity="0.88" d="M128.803 121.653L123.849 121.793C123.289 121.81 122.731 121.71 122.207 121.501C121.683 121.291 121.204 120.975 120.797 120.571C120.389 120.166 120.062 119.682 119.834 119.145C119.606 118.609 119.481 118.03 119.467 117.443L119.319 111.585L119.17 105.727C119.14 104.542 119.561 103.392 120.34 102.531C121.118 101.67 122.191 101.168 123.323 101.136V101.136L128.276 100.996" stroke="#EDF1F8" stroke-width="1.08022" stroke-linecap="round" stroke-linejoin="round"/>
<path opacity="0.88" d="M11.7467 34.2466L12.3029 56.0693" stroke="#EDF1F8" stroke-width="1.08022" stroke-linecap="round" stroke-linejoin="round"/>
<path opacity="0.88" d="M5.2729 34.4331L5.82905 56.2481" stroke="#EDF1F8" stroke-width="1.08022" stroke-linecap="round" stroke-linejoin="round"/>
<path opacity="0.88" d="M-7.34796 15.8498C-6.25012 15.8167 -5.16038 16.0563 -4.16794 16.5492C-3.1755 17.042 -2.30856 17.7741 -1.6381 18.6855C-0.420152 17.2418 1.29164 16.3588 3.12651 16.228C4.96138 16.0971 6.7716 16.7288 8.16507 17.9863C8.96326 16.4447 10.2088 15.209 11.7215 14.458C13.2342 13.7069 14.9358 13.4794 16.5801 13.8083C18.2244 14.1372 19.7262 15.0055 20.8684 16.2876C22.0106 17.5697 22.734 19.1992 22.9339 20.9404C23.1338 22.6817 22.8 24.4444 21.9806 25.9737C21.1612 27.5031 19.8988 28.7197 18.3758 29.4478C16.8529 30.1759 15.1484 30.3776 13.5088 30.0238C11.8692 29.67 10.3795 28.7791 9.25513 27.4798C8.61985 28.4033 7.7877 29.1588 6.82482 29.6863C5.86195 30.2137 4.79491 30.4986 3.70852 30.5182C2.62213 30.5378 1.54635 30.2916 0.566705 29.7992C-0.412942 29.3068 -1.26944 28.5818 -1.93471 27.6818C-2.56953 28.4346 -3.3455 29.0425 -4.21429 29.4675C-5.08309 29.8926 -6.0261 30.1257 -6.98461 30.1523C-7.89169 30.1961 -8.798 30.0499 -9.65053 29.7224C-10.503 29.3948 -11.2847 28.8924 -11.9496 28.2446C-12.6146 27.5968 -13.1496 26.8166 -13.5233 25.9495C-13.8971 25.0825 -14.102 24.1461 -14.1262 23.1951C-14.1503 22.2441 -13.9932 21.2977 -13.6641 20.411C-13.3349 19.5244 -12.8403 18.7155 -12.2091 18.0315C-11.578 17.3476 -10.823 16.8023 -9.98828 16.4277C-9.15359 16.0531 -8.25598 15.8567 -7.34796 15.8498Z" stroke="#EDF1F8" stroke-width="1.08022" stroke-linecap="round" stroke-linejoin="round"/>
<path opacity="0.88" d="M246.695 89.2723L241.457 95.0679C241.503 95.1106 241.547 95.1565 241.588 95.2052C241.974 95.5752 242.261 96.0459 242.417 96.5694C242.574 97.0928 242.596 97.6504 242.48 98.1854C242.364 98.7205 242.116 99.214 241.759 99.6157C241.403 100.017 240.951 100.313 240.45 100.473C239.949 100.632 239.416 100.65 238.907 100.524C238.397 100.398 237.928 100.133 237.548 99.7561C237.168 99.379 236.889 98.9031 236.742 98.3769C236.594 97.8506 236.582 97.2927 236.706 96.7598C236.206 96.9178 235.676 96.9348 235.168 96.8092C234.66 96.6836 234.193 96.4197 233.813 96.0443C233.434 95.669 233.155 95.1954 233.006 94.6713C232.858 94.1472 232.843 93.5912 232.965 93.0595C233.087 92.5278 233.341 92.0392 233.7 91.643C234.06 91.2468 234.513 90.9571 235.014 90.8031C235.515 90.649 236.045 90.6361 236.552 90.7657C237.059 90.8953 237.525 91.1628 237.902 91.5411L238.064 91.7114L243.308 85.9214" stroke="#EDF1F8" stroke-width="1.08022" stroke-linecap="round" stroke-linejoin="round"/>
<path opacity="0.88" d="M267.543 62.6732C274.895 69.9685 271.575 77.0495 267.129 80.9168C262.682 84.7842 250.706 87.0694 247.78 90.3105L245.017 87.5693L242.259 84.8226C245.206 81.5705 246.763 68.8863 250.198 64.0575C253.632 59.2288 260.208 55.3835 267.543 62.6732Z" stroke="#EDF1F8" stroke-width="1.08022" stroke-linecap="round" stroke-linejoin="round"/>
<path opacity="0.88" d="M264.89 77.6923C267.737 74.5446 267.947 69.9081 265.346 67.3262" stroke="#EDF1F8" stroke-width="1.08022" stroke-linecap="round" stroke-linejoin="round"/>
<path opacity="0.88" d="M27.3404 95.1798L31.3243 101.974C31.3757 101.943 31.4271 101.912 31.4849 101.877C31.926 101.582 32.4337 101.415 32.9563 101.393C33.479 101.37 33.998 101.493 34.4608 101.748C34.9236 102.004 35.3138 102.383 35.5916 102.847C35.8695 103.311 36.0252 103.844 36.0429 104.392C36.0607 104.94 35.9399 105.483 35.6928 105.966C35.4457 106.449 35.0811 106.855 34.6359 107.143C34.1907 107.43 33.6808 107.59 33.1579 107.604C32.635 107.619 32.1177 107.488 31.6584 107.226C31.6732 107.772 31.5503 108.313 31.3022 108.793C31.0541 109.273 30.6895 109.677 30.2451 109.963C29.8008 110.248 29.2924 110.406 28.7712 110.421C28.25 110.435 27.7344 110.305 27.2764 110.044C26.8183 109.783 26.434 109.4 26.1622 108.934C25.8904 108.468 25.7407 107.935 25.7282 107.389C25.7156 106.843 25.8407 106.303 26.0907 105.824C26.3408 105.344 26.7071 104.943 27.1526 104.659L27.3517 104.538L23.3667 97.7268" stroke="#EDF1F8" stroke-width="1.08022" stroke-linecap="round" stroke-linejoin="round"/>
<path opacity="0.88" d="M8.24081 67.1717C16.8733 61.6273 22.5428 66.8188 24.9539 72.3127C27.3649 77.8066 26.376 90.5242 28.6069 94.3239L25.3644 96.4108L22.1218 98.4977C19.8825 94.6672 8.59087 89.8083 5.03152 85.0897C1.47216 80.3711 -0.407207 72.7345 8.24081 67.1717Z" stroke="#EDF1F8" stroke-width="1.08022" stroke-linecap="round" stroke-linejoin="round"/>
<path opacity="0.88" d="M21.3693 73.7635C19.2078 70.0743 14.9837 68.6553 11.9338 70.6257" stroke="#EDF1F8" stroke-width="1.08022" stroke-linecap="round" stroke-linejoin="round"/>
<path opacity="0.88" d="M103.129 77.0139C107.868 82.5764 104.39 86.6628 104.612 89.6538C105.005 94.3151 111.798 99.6134 105.176 110.016C96.4703 123.681 86.7636 114.351 82.1364 114.483C80.2009 114.537 72.7559 116.651 68.8628 111.95C63.9983 106.077 67.4613 100.662 65.8966 96.1563C64.7917 93.0488 60.2016 81.178 69.4189 74.7531C77.9541 68.8022 83.5082 74.0229 88.9511 74.3569C91.6577 74.5356 98.9323 72.1117 103.129 77.0139Z" stroke="#EDF1F8" stroke-width="1.08022" stroke-linecap="round" stroke-linejoin="round"/>
<path opacity="0.88" d="M92.2176 100.341C95.3812 96.7089 95.1352 91.0777 91.6683 87.7634C88.2014 84.449 82.8263 84.7067 79.6628 88.3389C76.4993 91.9711 76.7452 97.6023 80.2122 100.917C83.6791 104.231 89.0541 103.973 92.2176 100.341Z" stroke="#EDF1F8" stroke-width="1.08022" stroke-linecap="round" stroke-linejoin="round"/>
<path opacity="0.88" d="M90.9979 93.5853C90.9649 92.3359 90.4598 91.1512 89.5935 90.2918C88.7272 89.4323 87.5707 88.9683 86.3781 89.0017" stroke="#EDF1F8" stroke-width="1.08022" stroke-linecap="round" stroke-linejoin="round"/>
<path opacity="0.88" d="M389.914 107.491C394.659 113.062 391.182 117.14 391.441 120.131C391.834 124.793 398.619 130.099 392.005 140.493C383.299 154.167 373.592 144.836 368.965 144.96C367.03 145.015 359.585 147.136 355.684 142.428C350.827 136.562 354.29 131.14 352.718 126.634C351.62 123.526 347.03 111.663 356.24 105.238C364.775 99.2874 370.329 104.508 375.78 104.834C378.472 104.982 385.724 102.574 389.914 107.491Z" stroke="#EDF1F8" stroke-width="1.08022" stroke-linecap="round" stroke-linejoin="round"/>
<path opacity="0.88" d="M364.249 125.01C364.296 126.769 364.84 128.473 365.811 129.908C366.782 131.344 368.138 132.445 369.706 133.074C371.274 133.703 372.985 133.831 374.623 133.442C376.261 133.053 377.751 132.164 378.907 130.888C380.063 129.612 380.833 128.006 381.118 126.272C381.403 124.538 381.192 122.755 380.511 121.147C379.829 119.539 378.709 118.178 377.29 117.237C375.871 116.296 374.218 115.816 372.539 115.859C371.421 115.887 370.318 116.146 369.296 116.622C368.273 117.097 367.35 117.78 366.58 118.63C365.809 119.481 365.207 120.482 364.807 121.577C364.407 122.672 364.217 123.838 364.249 125.01V125.01Z" stroke="#EDF1F8" stroke-width="1.08022" stroke-linecap="round" stroke-linejoin="round"/>
<path opacity="0.88" d="M377.789 124.054C377.756 122.804 377.252 121.619 376.385 120.758C375.519 119.897 374.363 119.432 373.17 119.463" stroke="#EDF1F8" stroke-width="1.08022" stroke-linecap="round" stroke-linejoin="round"/>
</g>
</svg>
